<?xml version="1.0" encoding="utf-8" standalone="no"?>
<!DOCTYPE svg PUBLIC "-//W3C//DTD SVG 1.1//EN"
  "http://www.w3.org/Graphics/SVG/1.1/DTD/svg11.dtd">
<svg xmlns:xlink="http://www.w3.org/1999/xlink" width="473.979219pt" height="683.737812pt" viewBox="0 0 473.979219 683.737812" xmlns="http://www.w3.org/2000/svg" version="1.1">
 <metadata>
  <rdf:RDF xmlns:dc="http://purl.org/dc/elements/1.1/" xmlns:cc="http://creativecommons.org/ns#" xmlns:rdf="http://www.w3.org/1999/02/22-rdf-syntax-ns#">
   <cc:Work>
    <dc:type rdf:resource="http://purl.org/dc/dcmitype/StillImage"/>
    <dc:date>2025-03-07T00:13:17.327713</dc:date>
    <dc:format>image/svg+xml</dc:format>
    <dc:creator>
     <cc:Agent>
      <dc:title>Matplotlib v3.9.1, https://matplotlib.org/</dc:title>
     </cc:Agent>
    </dc:creator>
   </cc:Work>
  </rdf:RDF>
 </metadata>
 <defs>
  <style type="text/css">*{stroke-linejoin: round; stroke-linecap: butt}</style>
 </defs>
 <g id="figure_1">
  <g id="patch_1">
   <path d="M 0 683.737812 
L 473.979219 683.737812 
L 473.979219 0 
L 0 0 
z
" style="fill: #ffffff"/>
  </g>
  <g id="axes_1">
   <g id="patch_2">
    <path d="M 64.251875 320.243478 
L 454.851875 320.243478 
L 454.851875 79.2 
L 64.251875 79.2 
z
" style="fill: #ffffff"/>
   </g>
   <g id="matplotlib.axis_1">
    <g id="xtick_1">
     <g id="line2d_1">
      <defs>
       <path id="m09f5528c8f" d="M 0 0 
L 0 3.5 
" style="stroke: #000000; stroke-width: 0.8"/>
      </defs>
      <g>
       <use xlink:href="#m09f5528c8f" x="82.851875" y="320.243478" style="stroke: #000000; stroke-width: 0.8"/>
      </g>
     </g>
     <g id="text_1">
      <!-- 0.0 -->
      <g transform="translate(70.924531 338.641135) scale(0.15 -0.15)">
       <defs>
        <path id="DejaVuSans-30" d="M 2034 4250 
Q 1547 4250 1301 3770 
Q 1056 3291 1056 2328 
Q 1056 1369 1301 889 
Q 1547 409 2034 409 
Q 2525 409 2770 889 
Q 3016 1369 3016 2328 
Q 3016 3291 2770 3770 
Q 2525 4250 2034 4250 
z
M 2034 4750 
Q 2819 4750 3233 4129 
Q 3647 3509 3647 2328 
Q 3647 1150 3233 529 
Q 2819 -91 2034 -91 
Q 1250 -91 836 529 
Q 422 1150 422 2328 
Q 422 3509 836 4129 
Q 1250 4750 2034 4750 
z
" transform="scale(0.015625)"/>
        <path id="DejaVuSans-2e" d="M 684 794 
L 1344 794 
L 1344 0 
L 684 0 
L 684 794 
z
" transform="scale(0.015625)"/>
       </defs>
       <use xlink:href="#DejaVuSans-30"/>
       <use xlink:href="#DejaVuSans-2e" x="63.623047"/>
       <use xlink:href="#DejaVuSans-30" x="95.410156"/>
      </g>
     </g>
    </g>
    <g id="xtick_2">
     <g id="line2d_2">
      <g>
       <use xlink:href="#m09f5528c8f" x="175.851875" y="320.243478" style="stroke: #000000; stroke-width: 0.8"/>
      </g>
     </g>
     <g id="text_2">
      <!-- 0.5 -->
      <g transform="translate(163.924531 338.641135) scale(0.15 -0.15)">
       <defs>
        <path id="DejaVuSans-35" d="M 691 4666 
L 3169 4666 
L 3169 4134 
L 1269 4134 
L 1269 2991 
Q 1406 3038 1543 3061 
Q 1681 3084 1819 3084 
Q 2600 3084 3056 2656 
Q 3513 2228 3513 1497 
Q 3513 744 3044 326 
Q 2575 -91 1722 -91 
Q 1428 -91 1123 -41 
Q 819 9 494 109 
L 494 744 
Q 775 591 1075 516 
Q 1375 441 1709 441 
Q 2250 441 2565 725 
Q 2881 1009 2881 1497 
Q 2881 1984 2565 2268 
Q 2250 2553 1709 2553 
Q 1456 2553 1204 2497 
Q 953 2441 691 2322 
L 691 4666 
z
" transform="scale(0.015625)"/>
       </defs>
       <use xlink:href="#DejaVuSans-30"/>
       <use xlink:href="#DejaVuSans-2e" x="63.623047"/>
       <use xlink:href="#DejaVuSans-35" x="95.410156"/>
      </g>
     </g>
    </g>
    <g id="xtick_3">
     <g id="line2d_3">
      <g>
       <use xlink:href="#m09f5528c8f" x="268.851875" y="320.243478" style="stroke: #000000; stroke-width: 0.8"/>
      </g>
     </g>
     <g id="text_3">
      <!-- 1.0 -->
      <g transform="translate(256.924531 338.641135) scale(0.15 -0.15)">
       <defs>
        <path id="DejaVuSans-31" d="M 794 531 
L 1825 531 
L 1825 4091 
L 703 3866 
L 703 4441 
L 1819 4666 
L 2450 4666 
L 2450 531 
L 3481 531 
L 3481 0 
L 794 0 
L 794 531 
z
" transform="scale(0.015625)"/>
       </defs>
       <use xlink:href="#DejaVuSans-31"/>
       <use xlink:href="#DejaVuSans-2e" x="63.623047"/>
       <use xlink:href="#DejaVuSans-30" x="95.410156"/>
      </g>
     </g>
    </g>
    <g id="xtick_4">
     <g id="line2d_4">
      <g>
       <use xlink:href="#m09f5528c8f" x="361.851875" y="320.243478" style="stroke: #000000; stroke-width: 0.8"/>
      </g>
     </g>
     <g id="text_4">
      <!-- 1.5 -->
      <g transform="translate(349.924531 338.641135) scale(0.15 -0.15)">
       <use xlink:href="#DejaVuSans-31"/>
       <use xlink:href="#DejaVuSans-2e" x="63.623047"/>
       <use xlink:href="#DejaVuSans-35" x="95.410156"/>
      </g>
     </g>
    </g>
    <g id="xtick_5">
     <g id="line2d_5">
      <g>
       <use xlink:href="#m09f5528c8f" x="454.851875" y="320.243478" style="stroke: #000000; stroke-width: 0.8"/>
      </g>
     </g>
     <g id="text_5">
      <!-- 2.0 -->
      <g transform="translate(442.924531 338.641135) scale(0.15 -0.15)">
       <defs>
        <path id="DejaVuSans-32" d="M 1228 531 
L 3431 531 
L 3431 0 
L 469 0 
L 469 531 
Q 828 903 1448 1529 
Q 2069 2156 2228 2338 
Q 2531 2678 2651 2914 
Q 2772 3150 2772 3378 
Q 2772 3750 2511 3984 
Q 2250 4219 1831 4219 
Q 1534 4219 1204 4116 
Q 875 4013 500 3803 
L 500 4441 
Q 881 4594 1212 4672 
Q 1544 4750 1819 4750 
Q 2544 4750 2975 4387 
Q 3406 4025 3406 3419 
Q 3406 3131 3298 2873 
Q 3191 2616 2906 2266 
Q 2828 2175 2409 1742 
Q 1991 1309 1228 531 
z
" transform="scale(0.015625)"/>
       </defs>
       <use xlink:href="#DejaVuSans-32"/>
       <use xlink:href="#DejaVuSans-2e" x="63.623047"/>
       <use xlink:href="#DejaVuSans-30" x="95.410156"/>
      </g>
     </g>
    </g>
    <g id="text_6">
     <!-- time [week] -->
     <g transform="translate(198.813125 359.437853) scale(0.18 -0.18)">
      <defs>
       <path id="DejaVuSans-Bold-74" d="M 1759 4494 
L 1759 3500 
L 2913 3500 
L 2913 2700 
L 1759 2700 
L 1759 1216 
Q 1759 972 1856 886 
Q 1953 800 2241 800 
L 2816 800 
L 2816 0 
L 1856 0 
Q 1194 0 917 276 
Q 641 553 641 1216 
L 641 2700 
L 84 2700 
L 84 3500 
L 641 3500 
L 641 4494 
L 1759 4494 
z
" transform="scale(0.015625)"/>
       <path id="DejaVuSans-Bold-69" d="M 538 3500 
L 1656 3500 
L 1656 0 
L 538 0 
L 538 3500 
z
M 538 4863 
L 1656 4863 
L 1656 3950 
L 538 3950 
L 538 4863 
z
" transform="scale(0.015625)"/>
       <path id="DejaVuSans-Bold-6d" d="M 3781 2919 
Q 3994 3244 4286 3414 
Q 4578 3584 4928 3584 
Q 5531 3584 5847 3212 
Q 6163 2841 6163 2131 
L 6163 0 
L 5038 0 
L 5038 1825 
Q 5041 1866 5042 1909 
Q 5044 1953 5044 2034 
Q 5044 2406 4934 2573 
Q 4825 2741 4581 2741 
Q 4263 2741 4089 2478 
Q 3916 2216 3909 1719 
L 3909 0 
L 2784 0 
L 2784 1825 
Q 2784 2406 2684 2573 
Q 2584 2741 2328 2741 
Q 2006 2741 1831 2477 
Q 1656 2213 1656 1722 
L 1656 0 
L 531 0 
L 531 3500 
L 1656 3500 
L 1656 2988 
Q 1863 3284 2130 3434 
Q 2397 3584 2719 3584 
Q 3081 3584 3359 3409 
Q 3638 3234 3781 2919 
z
" transform="scale(0.015625)"/>
       <path id="DejaVuSans-Bold-65" d="M 4031 1759 
L 4031 1441 
L 1416 1441 
Q 1456 1047 1700 850 
Q 1944 653 2381 653 
Q 2734 653 3104 758 
Q 3475 863 3866 1075 
L 3866 213 
Q 3469 63 3072 -14 
Q 2675 -91 2278 -91 
Q 1328 -91 801 392 
Q 275 875 275 1747 
Q 275 2603 792 3093 
Q 1309 3584 2216 3584 
Q 3041 3584 3536 3087 
Q 4031 2591 4031 1759 
z
M 2881 2131 
Q 2881 2450 2695 2645 
Q 2509 2841 2209 2841 
Q 1884 2841 1681 2658 
Q 1478 2475 1428 2131 
L 2881 2131 
z
" transform="scale(0.015625)"/>
       <path id="DejaVuSans-Bold-20" transform="scale(0.015625)"/>
       <path id="DejaVuSans-Bold-5b" d="M 550 4863 
L 2491 4863 
L 2491 4159 
L 1613 4159 
L 1613 -141 
L 2491 -141 
L 2491 -844 
L 550 -844 
L 550 4863 
z
" transform="scale(0.015625)"/>
       <path id="DejaVuSans-Bold-77" d="M 225 3500 
L 1313 3500 
L 1900 1088 
L 2491 3500 
L 3425 3500 
L 4013 1113 
L 4603 3500 
L 5691 3500 
L 4769 0 
L 3547 0 
L 2956 2406 
L 2369 0 
L 1147 0 
L 225 3500 
z
" transform="scale(0.015625)"/>
       <path id="DejaVuSans-Bold-6b" d="M 538 4863 
L 1656 4863 
L 1656 2216 
L 2944 3500 
L 4244 3500 
L 2534 1894 
L 4378 0 
L 3022 0 
L 1656 1459 
L 1656 0 
L 538 0 
L 538 4863 
z
" transform="scale(0.015625)"/>
       <path id="DejaVuSans-Bold-5d" d="M 2375 -844 
L 434 -844 
L 434 -141 
L 1313 -141 
L 1313 4159 
L 434 4159 
L 434 4863 
L 2375 4863 
L 2375 -844 
z
" transform="scale(0.015625)"/>
      </defs>
      <use xlink:href="#DejaVuSans-Bold-74"/>
      <use xlink:href="#DejaVuSans-Bold-69" x="47.802734"/>
      <use xlink:href="#DejaVuSans-Bold-6d" x="82.080078"/>
      <use xlink:href="#DejaVuSans-Bold-65" x="186.279297"/>
      <use xlink:href="#DejaVuSans-Bold-20" x="254.101562"/>
      <use xlink:href="#DejaVuSans-Bold-5b" x="288.916016"/>
      <use xlink:href="#DejaVuSans-Bold-77" x="334.619141"/>
      <use xlink:href="#DejaVuSans-Bold-65" x="427.001953"/>
      <use xlink:href="#DejaVuSans-Bold-65" x="494.824219"/>
      <use xlink:href="#DejaVuSans-Bold-6b" x="562.646484"/>
      <use xlink:href="#DejaVuSans-Bold-5d" x="629.150391"/>
     </g>
    </g>
   </g>
   <g id="matplotlib.axis_2">
    <g id="ytick_1">
     <g id="line2d_6">
      <defs>
       <path id="mad8255172e" d="M 0 0 
L -3.5 0 
" style="stroke: #000000; stroke-width: 0.8"/>
      </defs>
      <g>
       <use xlink:href="#mad8255172e" x="64.251875" y="309.286957" style="stroke: #000000; stroke-width: 0.8"/>
      </g>
     </g>
     <g id="text_7">
      <!-- 0 -->
      <g transform="translate(47.708125 314.985785) scale(0.15 -0.15)">
       <use xlink:href="#DejaVuSans-30"/>
      </g>
     </g>
    </g>
    <g id="ytick_2">
     <g id="line2d_7">
      <g>
       <use xlink:href="#mad8255172e" x="64.251875" y="270.561666" style="stroke: #000000; stroke-width: 0.8"/>
      </g>
     </g>
     <g id="text_8">
      <!-- 20 -->
      <g transform="translate(38.164375 276.260494) scale(0.15 -0.15)">
       <use xlink:href="#DejaVuSans-32"/>
       <use xlink:href="#DejaVuSans-30" x="63.623047"/>
      </g>
     </g>
    </g>
    <g id="ytick_3">
     <g id="line2d_8">
      <g>
       <use xlink:href="#mad8255172e" x="64.251875" y="231.836375" style="stroke: #000000; stroke-width: 0.8"/>
      </g>
     </g>
     <g id="text_9">
      <!-- 40 -->
      <g transform="translate(38.164375 237.535203) scale(0.15 -0.15)">
       <defs>
        <path id="DejaVuSans-34" d="M 2419 4116 
L 825 1625 
L 2419 1625 
L 2419 4116 
z
M 2253 4666 
L 3047 4666 
L 3047 1625 
L 3713 1625 
L 3713 1100 
L 3047 1100 
L 3047 0 
L 2419 0 
L 2419 1100 
L 313 1100 
L 313 1709 
L 2253 4666 
z
" transform="scale(0.015625)"/>
       </defs>
       <use xlink:href="#DejaVuSans-34"/>
       <use xlink:href="#DejaVuSans-30" x="63.623047"/>
      </g>
     </g>
    </g>
    <g id="ytick_4">
     <g id="line2d_9">
      <g>
       <use xlink:href="#mad8255172e" x="64.251875" y="193.111084" style="stroke: #000000; stroke-width: 0.8"/>
      </g>
     </g>
     <g id="text_10">
      <!-- 60 -->
      <g transform="translate(38.164375 198.809912) scale(0.15 -0.15)">
       <defs>
        <path id="DejaVuSans-36" d="M 2113 2584 
Q 1688 2584 1439 2293 
Q 1191 2003 1191 1497 
Q 1191 994 1439 701 
Q 1688 409 2113 409 
Q 2538 409 2786 701 
Q 3034 994 3034 1497 
Q 3034 2003 2786 2293 
Q 2538 2584 2113 2584 
z
M 3366 4563 
L 3366 3988 
Q 3128 4100 2886 4159 
Q 2644 4219 2406 4219 
Q 1781 4219 1451 3797 
Q 1122 3375 1075 2522 
Q 1259 2794 1537 2939 
Q 1816 3084 2150 3084 
Q 2853 3084 3261 2657 
Q 3669 2231 3669 1497 
Q 3669 778 3244 343 
Q 2819 -91 2113 -91 
Q 1303 -91 875 529 
Q 447 1150 447 2328 
Q 447 3434 972 4092 
Q 1497 4750 2381 4750 
Q 2619 4750 2861 4703 
Q 3103 4656 3366 4563 
z
" transform="scale(0.015625)"/>
       </defs>
       <use xlink:href="#DejaVuSans-36"/>
       <use xlink:href="#DejaVuSans-30" x="63.623047"/>
      </g>
     </g>
    </g>
    <g id="ytick_5">
     <g id="line2d_10">
      <g>
       <use xlink:href="#mad8255172e" x="64.251875" y="154.385793" style="stroke: #000000; stroke-width: 0.8"/>
      </g>
     </g>
     <g id="text_11">
      <!-- 80 -->
      <g transform="translate(38.164375 160.084621) scale(0.15 -0.15)">
       <defs>
        <path id="DejaVuSans-38" d="M 2034 2216 
Q 1584 2216 1326 1975 
Q 1069 1734 1069 1313 
Q 1069 891 1326 650 
Q 1584 409 2034 409 
Q 2484 409 2743 651 
Q 3003 894 3003 1313 
Q 3003 1734 2745 1975 
Q 2488 2216 2034 2216 
z
M 1403 2484 
Q 997 2584 770 2862 
Q 544 3141 544 3541 
Q 544 4100 942 4425 
Q 1341 4750 2034 4750 
Q 2731 4750 3128 4425 
Q 3525 4100 3525 3541 
Q 3525 3141 3298 2862 
Q 3072 2584 2669 2484 
Q 3125 2378 3379 2068 
Q 3634 1759 3634 1313 
Q 3634 634 3220 271 
Q 2806 -91 2034 -91 
Q 1263 -91 848 271 
Q 434 634 434 1313 
Q 434 1759 690 2068 
Q 947 2378 1403 2484 
z
M 1172 3481 
Q 1172 3119 1398 2916 
Q 1625 2713 2034 2713 
Q 2441 2713 2670 2916 
Q 2900 3119 2900 3481 
Q 2900 3844 2670 4047 
Q 2441 4250 2034 4250 
Q 1625 4250 1398 4047 
Q 1172 3844 1172 3481 
z
" transform="scale(0.015625)"/>
       </defs>
       <use xlink:href="#DejaVuSans-38"/>
       <use xlink:href="#DejaVuSans-30" x="63.623047"/>
      </g>
     </g>
    </g>
    <g id="ytick_6">
     <g id="line2d_11">
      <g>
       <use xlink:href="#mad8255172e" x="64.251875" y="115.660502" style="stroke: #000000; stroke-width: 0.8"/>
      </g>
     </g>
     <g id="text_12">
      <!-- 100 -->
      <g transform="translate(28.620625 121.35933) scale(0.15 -0.15)">
       <use xlink:href="#DejaVuSans-31"/>
       <use xlink:href="#DejaVuSans-30" x="63.623047"/>
       <use xlink:href="#DejaVuSans-30" x="127.246094"/>
      </g>
     </g>
    </g>
    <g id="text_13">
     <!-- tirzepatide [nM] -->
     <g transform="translate(20.877187 282.061895) rotate(-90) scale(0.18 -0.18)">
      <defs>
       <path id="DejaVuSans-Bold-72" d="M 3138 2547 
Q 2991 2616 2845 2648 
Q 2700 2681 2553 2681 
Q 2122 2681 1889 2404 
Q 1656 2128 1656 1613 
L 1656 0 
L 538 0 
L 538 3500 
L 1656 3500 
L 1656 2925 
Q 1872 3269 2151 3426 
Q 2431 3584 2822 3584 
Q 2878 3584 2943 3579 
Q 3009 3575 3134 3559 
L 3138 2547 
z
" transform="scale(0.015625)"/>
       <path id="DejaVuSans-Bold-7a" d="M 366 3500 
L 3419 3500 
L 3419 2719 
L 1575 800 
L 3419 800 
L 3419 0 
L 288 0 
L 288 781 
L 2131 2700 
L 366 2700 
L 366 3500 
z
" transform="scale(0.015625)"/>
       <path id="DejaVuSans-Bold-70" d="M 1656 506 
L 1656 -1331 
L 538 -1331 
L 538 3500 
L 1656 3500 
L 1656 2988 
Q 1888 3294 2169 3439 
Q 2450 3584 2816 3584 
Q 3463 3584 3878 3070 
Q 4294 2556 4294 1747 
Q 4294 938 3878 423 
Q 3463 -91 2816 -91 
Q 2450 -91 2169 54 
Q 1888 200 1656 506 
z
M 2400 2772 
Q 2041 2772 1848 2508 
Q 1656 2244 1656 1747 
Q 1656 1250 1848 986 
Q 2041 722 2400 722 
Q 2759 722 2948 984 
Q 3138 1247 3138 1747 
Q 3138 2247 2948 2509 
Q 2759 2772 2400 2772 
z
" transform="scale(0.015625)"/>
       <path id="DejaVuSans-Bold-61" d="M 2106 1575 
Q 1756 1575 1579 1456 
Q 1403 1338 1403 1106 
Q 1403 894 1545 773 
Q 1688 653 1941 653 
Q 2256 653 2472 879 
Q 2688 1106 2688 1447 
L 2688 1575 
L 2106 1575 
z
M 3816 1997 
L 3816 0 
L 2688 0 
L 2688 519 
Q 2463 200 2181 54 
Q 1900 -91 1497 -91 
Q 953 -91 614 226 
Q 275 544 275 1050 
Q 275 1666 698 1953 
Q 1122 2241 2028 2241 
L 2688 2241 
L 2688 2328 
Q 2688 2594 2478 2717 
Q 2269 2841 1825 2841 
Q 1466 2841 1156 2769 
Q 847 2697 581 2553 
L 581 3406 
Q 941 3494 1303 3539 
Q 1666 3584 2028 3584 
Q 2975 3584 3395 3211 
Q 3816 2838 3816 1997 
z
" transform="scale(0.015625)"/>
       <path id="DejaVuSans-Bold-64" d="M 2919 2988 
L 2919 4863 
L 4044 4863 
L 4044 0 
L 2919 0 
L 2919 506 
Q 2688 197 2409 53 
Q 2131 -91 1766 -91 
Q 1119 -91 703 423 
Q 288 938 288 1747 
Q 288 2556 703 3070 
Q 1119 3584 1766 3584 
Q 2128 3584 2408 3439 
Q 2688 3294 2919 2988 
z
M 2181 722 
Q 2541 722 2730 984 
Q 2919 1247 2919 1747 
Q 2919 2247 2730 2509 
Q 2541 2772 2181 2772 
Q 1825 2772 1636 2509 
Q 1447 2247 1447 1747 
Q 1447 1247 1636 984 
Q 1825 722 2181 722 
z
" transform="scale(0.015625)"/>
       <path id="DejaVuSans-Bold-6e" d="M 4056 2131 
L 4056 0 
L 2931 0 
L 2931 347 
L 2931 1631 
Q 2931 2084 2911 2256 
Q 2891 2428 2841 2509 
Q 2775 2619 2662 2680 
Q 2550 2741 2406 2741 
Q 2056 2741 1856 2470 
Q 1656 2200 1656 1722 
L 1656 0 
L 538 0 
L 538 3500 
L 1656 3500 
L 1656 2988 
Q 1909 3294 2193 3439 
Q 2478 3584 2822 3584 
Q 3428 3584 3742 3212 
Q 4056 2841 4056 2131 
z
" transform="scale(0.015625)"/>
       <path id="DejaVuSans-Bold-4d" d="M 588 4666 
L 2119 4666 
L 3181 2169 
L 4250 4666 
L 5778 4666 
L 5778 0 
L 4641 0 
L 4641 3413 
L 3566 897 
L 2803 897 
L 1728 3413 
L 1728 0 
L 588 0 
L 588 4666 
z
" transform="scale(0.015625)"/>
      </defs>
      <use xlink:href="#DejaVuSans-Bold-74"/>
      <use xlink:href="#DejaVuSans-Bold-69" x="47.802734"/>
      <use xlink:href="#DejaVuSans-Bold-72" x="82.080078"/>
      <use xlink:href="#DejaVuSans-Bold-7a" x="131.396484"/>
      <use xlink:href="#DejaVuSans-Bold-65" x="189.599609"/>
      <use xlink:href="#DejaVuSans-Bold-70" x="257.421875"/>
      <use xlink:href="#DejaVuSans-Bold-61" x="329.003906"/>
      <use xlink:href="#DejaVuSans-Bold-74" x="396.484375"/>
      <use xlink:href="#DejaVuSans-Bold-69" x="444.287109"/>
      <use xlink:href="#DejaVuSans-Bold-64" x="478.564453"/>
      <use xlink:href="#DejaVuSans-Bold-65" x="550.146484"/>
      <use xlink:href="#DejaVuSans-Bold-20" x="617.96875"/>
      <use xlink:href="#DejaVuSans-Bold-5b" x="652.783203"/>
      <use xlink:href="#DejaVuSans-Bold-6e" x="698.486328"/>
      <use xlink:href="#DejaVuSans-Bold-4d" x="769.677734"/>
      <use xlink:href="#DejaVuSans-Bold-5d" x="869.189453"/>
     </g>
    </g>
   </g>
   <g id="LineCollection_1">
    <path d="M 82.851875 309.286957 
L 82.851875 309.286957 
" clip-path="url(#pe7c77defa1)" style="fill: none; stroke: #dc143c"/>
    <path d="M 91.709018 268.498878 
L 91.709018 225.74172 
" clip-path="url(#pe7c77defa1)" style="fill: none; stroke: #dc143c"/>
    <path d="M 109.423304 247.682893 
L 109.423304 208.863895 
" clip-path="url(#pe7c77defa1)" style="fill: none; stroke: #dc143c"/>
    <path d="M 135.994732 245.995111 
L 135.994732 211.676866 
" clip-path="url(#pe7c77defa1)" style="fill: none; stroke: #dc143c"/>
    <path d="M 162.566161 242.338249 
L 162.566161 217.02151 
" clip-path="url(#pe7c77defa1)" style="fill: none; stroke: #dc143c"/>
    <path d="M 268.851875 269.061472 
L 268.851875 250.495864 
" clip-path="url(#pe7c77defa1)" style="fill: none; stroke: #dc143c"/>
   </g>
   <g id="LineCollection_2">
    <path d="M 82.851875 309.286957 
L 82.851875 309.286957 
" clip-path="url(#pe7c77defa1)" style="fill: none; stroke: #daa520"/>
    <path d="M 91.709018 245.713814 
L 91.709018 169.763599 
" clip-path="url(#pe7c77defa1)" style="fill: none; stroke: #daa520"/>
    <path d="M 109.423304 200.143685 
L 109.423304 130.9446 
" clip-path="url(#pe7c77defa1)" style="fill: none; stroke: #daa520"/>
    <path d="M 135.994732 197.330714 
L 135.994732 138.820919 
" clip-path="url(#pe7c77defa1)" style="fill: none; stroke: #daa520"/>
    <path d="M 162.566161 190.579584 
L 162.566161 147.259831 
" clip-path="url(#pe7c77defa1)" style="fill: none; stroke: #daa520"/>
    <path d="M 268.851875 231.367662 
L 268.851875 212.23946 
" clip-path="url(#pe7c77defa1)" style="fill: none; stroke: #daa520"/>
   </g>
   <g id="LineCollection_3">
    <path d="M 82.851875 309.286957 
L 82.851875 309.286957 
" clip-path="url(#pe7c77defa1)" style="fill: none; stroke: #32cd32"/>
    <path d="M 91.709018 234.180633 
L 91.709018 161.605983 
" clip-path="url(#pe7c77defa1)" style="fill: none; stroke: #32cd32"/>
    <path d="M 109.423304 198.174605 
L 109.423304 90.156522 
" clip-path="url(#pe7c77defa1)" style="fill: none; stroke: #32cd32"/>
    <path d="M 135.994732 177.077323 
L 135.994732 128.131629 
" clip-path="url(#pe7c77defa1)" style="fill: none; stroke: #32cd32"/>
    <path d="M 162.566161 178.202512 
L 162.566161 122.505687 
" clip-path="url(#pe7c77defa1)" style="fill: none; stroke: #32cd32"/>
    <path d="M 268.851875 233.055445 
L 268.851875 197.612011 
" clip-path="url(#pe7c77defa1)" style="fill: none; stroke: #32cd32"/>
   </g>
   <g id="line2d_12">
    <path d="M 82.851875 309.286957 
L 85.455875 291.285654 
L 88.431875 272.139827 
L 91.407875 254.414931 
L 94.383875 238.028306 
L 97.359875 222.901758 
L 100.335875 208.961327 
L 103.125875 196.907147 
L 105.915875 185.779336 
L 108.705875 175.52608 
L 111.495875 166.098218 
L 114.285875 157.449107 
L 117.075875 149.534498 
L 119.865875 142.312418 
L 122.469875 136.161478 
L 125.073875 130.548361 
L 127.677875 125.443808 
L 130.281875 120.819975 
L 132.885875 116.650371 
L 135.489875 112.909794 
L 138.093875 109.574271 
L 140.511875 106.81974 
L 142.929875 104.377402 
L 145.347875 102.230659 
L 147.765875 100.363673 
L 150.183875 98.761333 
L 152.601875 97.409222 
L 155.019875 96.293589 
L 157.623875 95.341571 
L 160.227875 94.633016 
L 162.831875 94.153109 
L 165.621875 93.87668 
L 168.411875 93.830176 
L 171.201875 93.998077 
L 174.177875 94.396964 
L 177.339875 95.050985 
L 180.687875 95.981361 
L 184.221875 97.206045 
L 187.941875 98.73945 
L 191.847875 100.592259 
L 196.125875 102.875679 
L 200.775875 105.622472 
L 205.797875 108.856496 
L 211.377875 112.724761 
L 217.515875 117.253503 
L 224.769875 122.893788 
L 233.511875 129.988277 
L 245.601875 140.113258 
L 276.291875 165.928402 
L 287.823875 175.268045 
L 298.239875 183.418081 
L 307.911875 190.707648 
L 317.211875 197.443892 
L 326.325875 203.77408 
L 335.253875 209.708552 
L 344.181875 215.377004 
L 353.109875 220.780151 
L 362.037875 225.921032 
L 370.965875 230.804516 
L 379.893875 235.436889 
L 389.007875 239.914404 
L 398.121875 244.146582 
L 407.421875 248.221858 
L 416.907875 252.136066 
L 426.579875 255.886262 
L 436.437875 259.470651 
L 446.481875 262.888512 
L 454.851875 265.565536 
L 454.851875 265.565536 
" clip-path="url(#pe7c77defa1)" style="fill: none; stroke: #dc143c; stroke-width: 2; stroke-linecap: square"/>
   </g>
   <g id="line2d_13">
    <path d="M 82.851875 309.286957 
L 91.709018 247.120299 
L 109.423304 228.273394 
L 135.994732 228.835988 
L 162.566161 229.679879 
L 268.851875 259.778668 
" clip-path="url(#pe7c77defa1)" style="fill: none; stroke-dasharray: 3.7,1.6; stroke-dashoffset: 0; stroke: #dc143c"/>
    <defs>
     <path id="mc1f7539c26" d="M -3 3 
L 3 3 
L 3 -3 
L -3 -3 
z
" style="stroke: #000000; stroke-linejoin: miter"/>
    </defs>
    <g clip-path="url(#pe7c77defa1)">
     <use xlink:href="#mc1f7539c26" x="82.851875" y="309.286957" style="fill: #dc143c; stroke: #000000; stroke-linejoin: miter"/>
     <use xlink:href="#mc1f7539c26" x="91.709018" y="247.120299" style="fill: #dc143c; stroke: #000000; stroke-linejoin: miter"/>
     <use xlink:href="#mc1f7539c26" x="109.423304" y="228.273394" style="fill: #dc143c; stroke: #000000; stroke-linejoin: miter"/>
     <use xlink:href="#mc1f7539c26" x="135.994732" y="228.835988" style="fill: #dc143c; stroke: #000000; stroke-linejoin: miter"/>
     <use xlink:href="#mc1f7539c26" x="162.566161" y="229.679879" style="fill: #dc143c; stroke: #000000; stroke-linejoin: miter"/>
     <use xlink:href="#mc1f7539c26" x="268.851875" y="259.778668" style="fill: #dc143c; stroke: #000000; stroke-linejoin: miter"/>
    </g>
   </g>
   <g id="line2d_14">
    <path d="M 82.851875 309.286957 
L 85.455875 300.286305 
L 88.431875 290.713392 
L 91.407875 281.850944 
L 94.383875 273.657631 
L 97.359875 266.094357 
L 100.335875 259.124142 
L 103.311875 252.712009 
L 106.287875 246.824881 
L 109.263875 241.431481 
L 112.239875 236.502235 
L 115.215875 232.009184 
L 118.191875 227.925898 
L 121.167875 224.227395 
L 124.143875 220.890066 
L 127.119875 217.891601 
L 130.095875 215.210918 
L 133.071875 212.828103 
L 136.047875 210.724345 
L 139.023875 208.881878 
L 142.185875 207.191804 
L 145.347875 205.758808 
L 148.509875 204.565049 
L 151.857875 203.5432 
L 155.205875 202.752071 
L 158.739875 202.147966 
L 162.459875 201.747583 
L 166.179875 201.568225 
L 170.085875 201.596551 
L 174.177875 201.84196 
L 178.641875 202.335912 
L 183.291875 203.073922 
L 188.313875 204.096285 
L 193.707875 205.420602 
L 199.659875 207.113514 
L 206.355875 209.259046 
L 213.795875 211.882458 
L 222.537875 215.208533 
L 233.325875 219.560874 
L 249.693875 226.433306 
L 277.407875 238.065964 
L 291.915875 243.895906 
L 304.935875 248.890852 
L 317.211875 253.365424 
L 329.301875 257.534341 
L 341.205875 261.402022 
L 353.109875 265.033554 
L 365.013875 268.432066 
L 377.103875 271.651389 
L 389.379875 274.689422 
L 402.027875 277.587254 
L 414.861875 280.299475 
L 428.067875 282.864673 
L 441.831875 285.31084 
L 454.851875 287.426246 
L 454.851875 287.426246 
" clip-path="url(#pe7c77defa1)" style="fill: none; stroke: #daa520; stroke-width: 2; stroke-linecap: square"/>
   </g>
   <g id="line2d_15">
    <path d="M 82.851875 309.286957 
L 91.709018 207.738706 
L 109.423304 165.544142 
L 135.994732 168.075816 
L 162.566161 168.919708 
L 268.851875 221.803561 
" clip-path="url(#pe7c77defa1)" style="fill: none; stroke-dasharray: 3.7,1.6; stroke-dashoffset: 0; stroke: #daa520"/>
    <defs>
     <path id="ma1900a36d8" d="M -3 3 
L 3 3 
L 3 -3 
L -3 -3 
z
" style="stroke: #000000; stroke-linejoin: miter"/>
    </defs>
    <g clip-path="url(#pe7c77defa1)">
     <use xlink:href="#ma1900a36d8" x="82.851875" y="309.286957" style="fill: #daa520; stroke: #000000; stroke-linejoin: miter"/>
     <use xlink:href="#ma1900a36d8" x="91.709018" y="207.738706" style="fill: #daa520; stroke: #000000; stroke-linejoin: miter"/>
     <use xlink:href="#ma1900a36d8" x="109.423304" y="165.544142" style="fill: #daa520; stroke: #000000; stroke-linejoin: miter"/>
     <use xlink:href="#ma1900a36d8" x="135.994732" y="168.075816" style="fill: #daa520; stroke: #000000; stroke-linejoin: miter"/>
     <use xlink:href="#ma1900a36d8" x="162.566161" y="168.919708" style="fill: #daa520; stroke: #000000; stroke-linejoin: miter"/>
     <use xlink:href="#ma1900a36d8" x="268.851875" y="221.803561" style="fill: #daa520; stroke: #000000; stroke-linejoin: miter"/>
    </g>
   </g>
   <g id="line2d_16">
    <path d="M 82.851875 309.286957 
L 85.455875 291.285654 
L 88.431875 272.139827 
L 91.407875 254.414931 
L 94.383875 238.028306 
L 97.359875 222.901758 
L 100.335875 208.961327 
L 103.125875 196.907147 
L 105.915875 185.779336 
L 108.705875 175.52608 
L 111.495875 166.098218 
L 114.285875 157.449107 
L 117.075875 149.534498 
L 119.865875 142.312418 
L 122.469875 136.161478 
L 125.073875 130.548361 
L 127.677875 125.443808 
L 130.281875 120.819975 
L 132.885875 116.650371 
L 135.489875 112.909794 
L 138.093875 109.574271 
L 140.511875 106.81974 
L 142.929875 104.377402 
L 145.347875 102.230659 
L 147.765875 100.363673 
L 150.183875 98.761333 
L 152.601875 97.409222 
L 155.019875 96.293589 
L 157.623875 95.341571 
L 160.227875 94.633016 
L 162.831875 94.153109 
L 165.621875 93.87668 
L 168.411875 93.830176 
L 171.201875 93.998077 
L 174.177875 94.396964 
L 177.339875 95.050985 
L 180.687875 95.981361 
L 184.221875 97.206045 
L 187.941875 98.73945 
L 191.847875 100.592259 
L 196.125875 102.875679 
L 200.775875 105.622472 
L 205.797875 108.856496 
L 211.377875 112.724761 
L 217.515875 117.253503 
L 224.769875 122.893788 
L 233.511875 129.988277 
L 245.601875 140.113258 
L 276.291875 165.928402 
L 287.823875 175.268045 
L 298.239875 183.418081 
L 307.911875 190.707648 
L 317.211875 197.443892 
L 326.325875 203.77408 
L 335.253875 209.708552 
L 344.181875 215.377004 
L 353.109875 220.780151 
L 362.037875 225.921032 
L 370.965875 230.804516 
L 379.893875 235.436889 
L 389.007875 239.914404 
L 398.121875 244.146582 
L 407.421875 248.221858 
L 416.907875 252.136066 
L 426.579875 255.886262 
L 436.437875 259.470651 
L 446.481875 262.888512 
L 454.851875 265.565536 
L 454.851875 265.565536 
" clip-path="url(#pe7c77defa1)" style="fill: none; stroke: #32cd32; stroke-width: 2; stroke-linecap: square"/>
   </g>
   <g id="line2d_17">
    <path d="M 82.851875 309.286957 
L 91.709018 197.893308 
L 109.423304 144.165563 
L 135.994732 152.604476 
L 162.566161 150.354099 
L 268.851875 215.333728 
" clip-path="url(#pe7c77defa1)" style="fill: none; stroke-dasharray: 3.7,1.6; stroke-dashoffset: 0; stroke: #32cd32"/>
    <defs>
     <path id="mb5d528e26d" d="M -3 3 
L 3 3 
L 3 -3 
L -3 -3 
z
" style="stroke: #000000; stroke-linejoin: miter"/>
    </defs>
    <g clip-path="url(#pe7c77defa1)">
     <use xlink:href="#mb5d528e26d" x="82.851875" y="309.286957" style="fill: #32cd32; stroke: #000000; stroke-linejoin: miter"/>
     <use xlink:href="#mb5d528e26d" x="91.709018" y="197.893308" style="fill: #32cd32; stroke: #000000; stroke-linejoin: miter"/>
     <use xlink:href="#mb5d528e26d" x="109.423304" y="144.165563" style="fill: #32cd32; stroke: #000000; stroke-linejoin: miter"/>
     <use xlink:href="#mb5d528e26d" x="135.994732" y="152.604476" style="fill: #32cd32; stroke: #000000; stroke-linejoin: miter"/>
     <use xlink:href="#mb5d528e26d" x="162.566161" y="150.354099" style="fill: #32cd32; stroke: #000000; stroke-linejoin: miter"/>
     <use xlink:href="#mb5d528e26d" x="268.851875" y="215.333728" style="fill: #32cd32; stroke: #000000; stroke-linejoin: miter"/>
    </g>
   </g>
   <g id="patch_3">
    <path d="M 64.251875 320.243478 
L 64.251875 79.2 
" style="fill: none; stroke: #000000; stroke-width: 0.8; stroke-linejoin: miter; stroke-linecap: square"/>
   </g>
   <g id="patch_4">
    <path d="M 454.851875 320.243478 
L 454.851875 79.2 
" style="fill: none; stroke: #000000; stroke-width: 0.8; stroke-linejoin: miter; stroke-linecap: square"/>
   </g>
   <g id="patch_5">
    <path d="M 64.251875 320.243478 
L 454.851875 320.243478 
" style="fill: none; stroke: #000000; stroke-width: 0.8; stroke-linejoin: miter; stroke-linecap: square"/>
   </g>
   <g id="patch_6">
    <path d="M 64.251875 79.2 
L 454.851875 79.2 
" style="fill: none; stroke: #000000; stroke-width: 0.8; stroke-linejoin: miter; stroke-linecap: square"/>
   </g>
   <g id="legend_1">
    <g id="patch_7">
     <path d="M 292.775312 175.26875 
L 447.851875 175.26875 
Q 449.851875 175.26875 449.851875 173.26875 
L 449.851875 86.2 
Q 449.851875 84.2 447.851875 84.2 
L 292.775312 84.2 
Q 290.775312 84.2 290.775312 86.2 
L 290.775312 173.26875 
Q 290.775312 175.26875 292.775312 175.26875 
z
" style="fill: #ffffff; opacity: 0.8; stroke: #cccccc; stroke-linejoin: miter"/>
    </g>
    <g id="line2d_18">
     <path d="M 294.775312 92.298437 
L 314.775312 92.298437 
" style="fill: none; stroke: #dc143c; stroke-width: 2; stroke-linecap: square"/>
    </g>
    <g id="line2d_19"/>
    <g id="text_14">
     <!-- Sim 5 mg tir -->
     <g transform="translate(322.775312 95.798437) scale(0.1 -0.1)">
      <defs>
       <path id="DejaVuSans-53" d="M 3425 4513 
L 3425 3897 
Q 3066 4069 2747 4153 
Q 2428 4238 2131 4238 
Q 1616 4238 1336 4038 
Q 1056 3838 1056 3469 
Q 1056 3159 1242 3001 
Q 1428 2844 1947 2747 
L 2328 2669 
Q 3034 2534 3370 2195 
Q 3706 1856 3706 1288 
Q 3706 609 3251 259 
Q 2797 -91 1919 -91 
Q 1588 -91 1214 -16 
Q 841 59 441 206 
L 441 856 
Q 825 641 1194 531 
Q 1563 422 1919 422 
Q 2459 422 2753 634 
Q 3047 847 3047 1241 
Q 3047 1584 2836 1778 
Q 2625 1972 2144 2069 
L 1759 2144 
Q 1053 2284 737 2584 
Q 422 2884 422 3419 
Q 422 4038 858 4394 
Q 1294 4750 2059 4750 
Q 2388 4750 2728 4690 
Q 3069 4631 3425 4513 
z
" transform="scale(0.015625)"/>
       <path id="DejaVuSans-69" d="M 603 3500 
L 1178 3500 
L 1178 0 
L 603 0 
L 603 3500 
z
M 603 4863 
L 1178 4863 
L 1178 4134 
L 603 4134 
L 603 4863 
z
" transform="scale(0.015625)"/>
       <path id="DejaVuSans-6d" d="M 3328 2828 
Q 3544 3216 3844 3400 
Q 4144 3584 4550 3584 
Q 5097 3584 5394 3201 
Q 5691 2819 5691 2113 
L 5691 0 
L 5113 0 
L 5113 2094 
Q 5113 2597 4934 2840 
Q 4756 3084 4391 3084 
Q 3944 3084 3684 2787 
Q 3425 2491 3425 1978 
L 3425 0 
L 2847 0 
L 2847 2094 
Q 2847 2600 2669 2842 
Q 2491 3084 2119 3084 
Q 1678 3084 1418 2786 
Q 1159 2488 1159 1978 
L 1159 0 
L 581 0 
L 581 3500 
L 1159 3500 
L 1159 2956 
Q 1356 3278 1631 3431 
Q 1906 3584 2284 3584 
Q 2666 3584 2933 3390 
Q 3200 3197 3328 2828 
z
" transform="scale(0.015625)"/>
       <path id="DejaVuSans-20" transform="scale(0.015625)"/>
       <path id="DejaVuSans-67" d="M 2906 1791 
Q 2906 2416 2648 2759 
Q 2391 3103 1925 3103 
Q 1463 3103 1205 2759 
Q 947 2416 947 1791 
Q 947 1169 1205 825 
Q 1463 481 1925 481 
Q 2391 481 2648 825 
Q 2906 1169 2906 1791 
z
M 3481 434 
Q 3481 -459 3084 -895 
Q 2688 -1331 1869 -1331 
Q 1566 -1331 1297 -1286 
Q 1028 -1241 775 -1147 
L 775 -588 
Q 1028 -725 1275 -790 
Q 1522 -856 1778 -856 
Q 2344 -856 2625 -561 
Q 2906 -266 2906 331 
L 2906 616 
Q 2728 306 2450 153 
Q 2172 0 1784 0 
Q 1141 0 747 490 
Q 353 981 353 1791 
Q 353 2603 747 3093 
Q 1141 3584 1784 3584 
Q 2172 3584 2450 3431 
Q 2728 3278 2906 2969 
L 2906 3500 
L 3481 3500 
L 3481 434 
z
" transform="scale(0.015625)"/>
       <path id="DejaVuSans-74" d="M 1172 4494 
L 1172 3500 
L 2356 3500 
L 2356 3053 
L 1172 3053 
L 1172 1153 
Q 1172 725 1289 603 
Q 1406 481 1766 481 
L 2356 481 
L 2356 0 
L 1766 0 
Q 1100 0 847 248 
Q 594 497 594 1153 
L 594 3053 
L 172 3053 
L 172 3500 
L 594 3500 
L 594 4494 
L 1172 4494 
z
" transform="scale(0.015625)"/>
       <path id="DejaVuSans-72" d="M 2631 2963 
Q 2534 3019 2420 3045 
Q 2306 3072 2169 3072 
Q 1681 3072 1420 2755 
Q 1159 2438 1159 1844 
L 1159 0 
L 581 0 
L 581 3500 
L 1159 3500 
L 1159 2956 
Q 1341 3275 1631 3429 
Q 1922 3584 2338 3584 
Q 2397 3584 2469 3576 
Q 2541 3569 2628 3553 
L 2631 2963 
z
" transform="scale(0.015625)"/>
      </defs>
      <use xlink:href="#DejaVuSans-53"/>
      <use xlink:href="#DejaVuSans-69" x="63.476562"/>
      <use xlink:href="#DejaVuSans-6d" x="91.259766"/>
      <use xlink:href="#DejaVuSans-20" x="188.671875"/>
      <use xlink:href="#DejaVuSans-35" x="220.458984"/>
      <use xlink:href="#DejaVuSans-20" x="284.082031"/>
      <use xlink:href="#DejaVuSans-6d" x="315.869141"/>
      <use xlink:href="#DejaVuSans-67" x="413.28125"/>
      <use xlink:href="#DejaVuSans-20" x="476.757812"/>
      <use xlink:href="#DejaVuSans-74" x="508.544922"/>
      <use xlink:href="#DejaVuSans-69" x="547.753906"/>
      <use xlink:href="#DejaVuSans-72" x="575.537109"/>
     </g>
    </g>
    <g id="LineCollection_4">
     <path d="M 304.775312 111.976562 
L 304.775312 101.976562 
" style="fill: none; stroke: #dc143c"/>
    </g>
    <g id="line2d_20">
     <path d="M 294.775312 106.976562 
L 314.775312 106.976562 
" style="fill: none; stroke-dasharray: 3.7,1.6; stroke-dashoffset: 0; stroke: #dc143c"/>
    </g>
    <g id="line2d_21">
     <g>
      <use xlink:href="#mc1f7539c26" x="304.775312" y="106.976562" style="fill: #dc143c; stroke: #000000; stroke-linejoin: miter"/>
     </g>
    </g>
    <g id="text_15">
     <!-- Data 5 mg±SD (n=12) -->
     <g transform="translate(322.775312 110.476562) scale(0.1 -0.1)">
      <defs>
       <path id="DejaVuSans-44" d="M 1259 4147 
L 1259 519 
L 2022 519 
Q 2988 519 3436 956 
Q 3884 1394 3884 2338 
Q 3884 3275 3436 3711 
Q 2988 4147 2022 4147 
L 1259 4147 
z
M 628 4666 
L 1925 4666 
Q 3281 4666 3915 4102 
Q 4550 3538 4550 2338 
Q 4550 1131 3912 565 
Q 3275 0 1925 0 
L 628 0 
L 628 4666 
z
" transform="scale(0.015625)"/>
       <path id="DejaVuSans-61" d="M 2194 1759 
Q 1497 1759 1228 1600 
Q 959 1441 959 1056 
Q 959 750 1161 570 
Q 1363 391 1709 391 
Q 2188 391 2477 730 
Q 2766 1069 2766 1631 
L 2766 1759 
L 2194 1759 
z
M 3341 1997 
L 3341 0 
L 2766 0 
L 2766 531 
Q 2569 213 2275 61 
Q 1981 -91 1556 -91 
Q 1019 -91 701 211 
Q 384 513 384 1019 
Q 384 1609 779 1909 
Q 1175 2209 1959 2209 
L 2766 2209 
L 2766 2266 
Q 2766 2663 2505 2880 
Q 2244 3097 1772 3097 
Q 1472 3097 1187 3025 
Q 903 2953 641 2809 
L 641 3341 
Q 956 3463 1253 3523 
Q 1550 3584 1831 3584 
Q 2591 3584 2966 3190 
Q 3341 2797 3341 1997 
z
" transform="scale(0.015625)"/>
       <path id="DejaVuSans-b1" d="M 2944 4013 
L 2944 2803 
L 4684 2803 
L 4684 2272 
L 2944 2272 
L 2944 1063 
L 2419 1063 
L 2419 2272 
L 678 2272 
L 678 2803 
L 2419 2803 
L 2419 4013 
L 2944 4013 
z
M 678 531 
L 4684 531 
L 4684 0 
L 678 0 
L 678 531 
z
" transform="scale(0.015625)"/>
       <path id="DejaVuSans-28" d="M 1984 4856 
Q 1566 4138 1362 3434 
Q 1159 2731 1159 2009 
Q 1159 1288 1364 580 
Q 1569 -128 1984 -844 
L 1484 -844 
Q 1016 -109 783 600 
Q 550 1309 550 2009 
Q 550 2706 781 3412 
Q 1013 4119 1484 4856 
L 1984 4856 
z
" transform="scale(0.015625)"/>
       <path id="DejaVuSans-6e" d="M 3513 2113 
L 3513 0 
L 2938 0 
L 2938 2094 
Q 2938 2591 2744 2837 
Q 2550 3084 2163 3084 
Q 1697 3084 1428 2787 
Q 1159 2491 1159 1978 
L 1159 0 
L 581 0 
L 581 3500 
L 1159 3500 
L 1159 2956 
Q 1366 3272 1645 3428 
Q 1925 3584 2291 3584 
Q 2894 3584 3203 3211 
Q 3513 2838 3513 2113 
z
" transform="scale(0.015625)"/>
       <path id="DejaVuSans-3d" d="M 678 2906 
L 4684 2906 
L 4684 2381 
L 678 2381 
L 678 2906 
z
M 678 1631 
L 4684 1631 
L 4684 1100 
L 678 1100 
L 678 1631 
z
" transform="scale(0.015625)"/>
       <path id="DejaVuSans-29" d="M 513 4856 
L 1013 4856 
Q 1481 4119 1714 3412 
Q 1947 2706 1947 2009 
Q 1947 1309 1714 600 
Q 1481 -109 1013 -844 
L 513 -844 
Q 928 -128 1133 580 
Q 1338 1288 1338 2009 
Q 1338 2731 1133 3434 
Q 928 4138 513 4856 
z
" transform="scale(0.015625)"/>
      </defs>
      <use xlink:href="#DejaVuSans-44"/>
      <use xlink:href="#DejaVuSans-61" x="77.001953"/>
      <use xlink:href="#DejaVuSans-74" x="138.28125"/>
      <use xlink:href="#DejaVuSans-61" x="177.490234"/>
      <use xlink:href="#DejaVuSans-20" x="238.769531"/>
      <use xlink:href="#DejaVuSans-35" x="270.556641"/>
      <use xlink:href="#DejaVuSans-20" x="334.179688"/>
      <use xlink:href="#DejaVuSans-6d" x="365.966797"/>
      <use xlink:href="#DejaVuSans-67" x="463.378906"/>
      <use xlink:href="#DejaVuSans-b1" x="526.855469"/>
      <use xlink:href="#DejaVuSans-53" x="610.644531"/>
      <use xlink:href="#DejaVuSans-44" x="674.121094"/>
      <use xlink:href="#DejaVuSans-20" x="751.123047"/>
      <use xlink:href="#DejaVuSans-28" x="782.910156"/>
      <use xlink:href="#DejaVuSans-6e" x="821.923828"/>
      <use xlink:href="#DejaVuSans-3d" x="885.302734"/>
      <use xlink:href="#DejaVuSans-31" x="969.091797"/>
      <use xlink:href="#DejaVuSans-32" x="1032.714844"/>
      <use xlink:href="#DejaVuSans-29" x="1096.337891"/>
     </g>
    </g>
    <g id="line2d_22">
     <path d="M 294.775312 121.654688 
L 314.775312 121.654688 
" style="fill: none; stroke: #daa520; stroke-width: 2; stroke-linecap: square"/>
    </g>
    <g id="line2d_23"/>
    <g id="text_16">
     <!-- Sim 2.5 mg tir -->
     <g transform="translate(322.775312 125.154688) scale(0.1 -0.1)">
      <use xlink:href="#DejaVuSans-53"/>
      <use xlink:href="#DejaVuSans-69" x="63.476562"/>
      <use xlink:href="#DejaVuSans-6d" x="91.259766"/>
      <use xlink:href="#DejaVuSans-20" x="188.671875"/>
      <use xlink:href="#DejaVuSans-32" x="220.458984"/>
      <use xlink:href="#DejaVuSans-2e" x="284.082031"/>
      <use xlink:href="#DejaVuSans-35" x="315.869141"/>
      <use xlink:href="#DejaVuSans-20" x="379.492188"/>
      <use xlink:href="#DejaVuSans-6d" x="411.279297"/>
      <use xlink:href="#DejaVuSans-67" x="508.691406"/>
      <use xlink:href="#DejaVuSans-20" x="572.167969"/>
      <use xlink:href="#DejaVuSans-74" x="603.955078"/>
      <use xlink:href="#DejaVuSans-69" x="643.164062"/>
      <use xlink:href="#DejaVuSans-72" x="670.947266"/>
     </g>
    </g>
    <g id="LineCollection_5">
     <path d="M 304.775312 141.332812 
L 304.775312 131.332812 
" style="fill: none; stroke: #daa520"/>
    </g>
    <g id="line2d_24">
     <path d="M 294.775312 136.332812 
L 314.775312 136.332812 
" style="fill: none; stroke-dasharray: 3.7,1.6; stroke-dashoffset: 0; stroke: #daa520"/>
    </g>
    <g id="line2d_25">
     <g>
      <use xlink:href="#ma1900a36d8" x="304.775312" y="136.332812" style="fill: #daa520; stroke: #000000; stroke-linejoin: miter"/>
     </g>
    </g>
    <g id="text_17">
     <!-- Data 2.5 mg±SD (n=11) -->
     <g transform="translate(322.775312 139.832812) scale(0.1 -0.1)">
      <use xlink:href="#DejaVuSans-44"/>
      <use xlink:href="#DejaVuSans-61" x="77.001953"/>
      <use xlink:href="#DejaVuSans-74" x="138.28125"/>
      <use xlink:href="#DejaVuSans-61" x="177.490234"/>
      <use xlink:href="#DejaVuSans-20" x="238.769531"/>
      <use xlink:href="#DejaVuSans-32" x="270.556641"/>
      <use xlink:href="#DejaVuSans-2e" x="334.179688"/>
      <use xlink:href="#DejaVuSans-35" x="365.966797"/>
      <use xlink:href="#DejaVuSans-20" x="429.589844"/>
      <use xlink:href="#DejaVuSans-6d" x="461.376953"/>
      <use xlink:href="#DejaVuSans-67" x="558.789062"/>
      <use xlink:href="#DejaVuSans-b1" x="622.265625"/>
      <use xlink:href="#DejaVuSans-53" x="706.054688"/>
      <use xlink:href="#DejaVuSans-44" x="769.53125"/>
      <use xlink:href="#DejaVuSans-20" x="846.533203"/>
      <use xlink:href="#DejaVuSans-28" x="878.320312"/>
      <use xlink:href="#DejaVuSans-6e" x="917.333984"/>
      <use xlink:href="#DejaVuSans-3d" x="980.712891"/>
      <use xlink:href="#DejaVuSans-31" x="1064.501953"/>
      <use xlink:href="#DejaVuSans-31" x="1128.125"/>
      <use xlink:href="#DejaVuSans-29" x="1191.748047"/>
     </g>
    </g>
    <g id="line2d_26">
     <path d="M 294.775312 151.010937 
L 314.775312 151.010937 
" style="fill: none; stroke: #32cd32; stroke-width: 2; stroke-linecap: square"/>
    </g>
    <g id="line2d_27"/>
    <g id="text_18">
     <!-- Sim 5 mg tir -->
     <g transform="translate(322.775312 154.510937) scale(0.1 -0.1)">
      <use xlink:href="#DejaVuSans-53"/>
      <use xlink:href="#DejaVuSans-69" x="63.476562"/>
      <use xlink:href="#DejaVuSans-6d" x="91.259766"/>
      <use xlink:href="#DejaVuSans-20" x="188.671875"/>
      <use xlink:href="#DejaVuSans-35" x="220.458984"/>
      <use xlink:href="#DejaVuSans-20" x="284.082031"/>
      <use xlink:href="#DejaVuSans-6d" x="315.869141"/>
      <use xlink:href="#DejaVuSans-67" x="413.28125"/>
      <use xlink:href="#DejaVuSans-20" x="476.757812"/>
      <use xlink:href="#DejaVuSans-74" x="508.544922"/>
      <use xlink:href="#DejaVuSans-69" x="547.753906"/>
      <use xlink:href="#DejaVuSans-72" x="575.537109"/>
     </g>
    </g>
    <g id="LineCollection_6">
     <path d="M 304.775312 170.689062 
L 304.775312 160.689062 
" style="fill: none; stroke: #32cd32"/>
    </g>
    <g id="line2d_28">
     <path d="M 294.775312 165.689062 
L 314.775312 165.689062 
" style="fill: none; stroke-dasharray: 3.7,1.6; stroke-dashoffset: 0; stroke: #32cd32"/>
    </g>
    <g id="line2d_29">
     <g>
      <use xlink:href="#mb5d528e26d" x="304.775312" y="165.689062" style="fill: #32cd32; stroke: #000000; stroke-linejoin: miter"/>
     </g>
    </g>
    <g id="text_19">
     <!-- Data 5 mg±SD (n=16) -->
     <g transform="translate(322.775312 169.189062) scale(0.1 -0.1)">
      <use xlink:href="#DejaVuSans-44"/>
      <use xlink:href="#DejaVuSans-61" x="77.001953"/>
      <use xlink:href="#DejaVuSans-74" x="138.28125"/>
      <use xlink:href="#DejaVuSans-61" x="177.490234"/>
      <use xlink:href="#DejaVuSans-20" x="238.769531"/>
      <use xlink:href="#DejaVuSans-35" x="270.556641"/>
      <use xlink:href="#DejaVuSans-20" x="334.179688"/>
      <use xlink:href="#DejaVuSans-6d" x="365.966797"/>
      <use xlink:href="#DejaVuSans-67" x="463.378906"/>
      <use xlink:href="#DejaVuSans-b1" x="526.855469"/>
      <use xlink:href="#DejaVuSans-53" x="610.644531"/>
      <use xlink:href="#DejaVuSans-44" x="674.121094"/>
      <use xlink:href="#DejaVuSans-20" x="751.123047"/>
      <use xlink:href="#DejaVuSans-28" x="782.910156"/>
      <use xlink:href="#DejaVuSans-6e" x="821.923828"/>
      <use xlink:href="#DejaVuSans-3d" x="885.302734"/>
      <use xlink:href="#DejaVuSans-31" x="969.091797"/>
      <use xlink:href="#DejaVuSans-36" x="1032.714844"/>
      <use xlink:href="#DejaVuSans-29" x="1096.337891"/>
     </g>
    </g>
   </g>
  </g>
  <g id="axes_2">
   <g id="patch_8">
    <path d="M 64.251875 633.6 
L 454.851875 633.6 
L 454.851875 392.556522 
L 64.251875 392.556522 
z
" style="fill: #ffffff"/>
   </g>
   <g id="matplotlib.axis_3">
    <g id="xtick_6">
     <g id="line2d_30">
      <g>
       <use xlink:href="#m09f5528c8f" x="107.651875" y="633.6" style="stroke: #000000; stroke-width: 0.8"/>
      </g>
     </g>
     <g id="text_20">
      <!-- −2 -->
      <g transform="translate(96.595234 651.997656) scale(0.15 -0.15)">
       <defs>
        <path id="DejaVuSans-2212" d="M 678 2272 
L 4684 2272 
L 4684 1741 
L 678 1741 
L 678 2272 
z
" transform="scale(0.015625)"/>
       </defs>
       <use xlink:href="#DejaVuSans-2212"/>
       <use xlink:href="#DejaVuSans-32" x="83.789062"/>
      </g>
     </g>
    </g>
    <g id="xtick_7">
     <g id="line2d_31">
      <g>
       <use xlink:href="#m09f5528c8f" x="194.451875" y="633.6" style="stroke: #000000; stroke-width: 0.8"/>
      </g>
     </g>
     <g id="text_21">
      <!-- 0 -->
      <g transform="translate(189.68 651.997656) scale(0.15 -0.15)">
       <use xlink:href="#DejaVuSans-30"/>
      </g>
     </g>
    </g>
    <g id="xtick_8">
     <g id="line2d_32">
      <g>
       <use xlink:href="#m09f5528c8f" x="281.251875" y="633.6" style="stroke: #000000; stroke-width: 0.8"/>
      </g>
     </g>
     <g id="text_22">
      <!-- 2 -->
      <g transform="translate(276.48 651.997656) scale(0.15 -0.15)">
       <use xlink:href="#DejaVuSans-32"/>
      </g>
     </g>
    </g>
    <g id="xtick_9">
     <g id="line2d_33">
      <g>
       <use xlink:href="#m09f5528c8f" x="368.051875" y="633.6" style="stroke: #000000; stroke-width: 0.8"/>
      </g>
     </g>
     <g id="text_23">
      <!-- 4 -->
      <g transform="translate(363.28 651.997656) scale(0.15 -0.15)">
       <use xlink:href="#DejaVuSans-34"/>
      </g>
     </g>
    </g>
    <g id="xtick_10">
     <g id="line2d_34">
      <g>
       <use xlink:href="#m09f5528c8f" x="454.851875" y="633.6" style="stroke: #000000; stroke-width: 0.8"/>
      </g>
     </g>
     <g id="text_24">
      <!-- 6 -->
      <g transform="translate(450.08 651.997656) scale(0.15 -0.15)">
       <use xlink:href="#DejaVuSans-36"/>
      </g>
     </g>
    </g>
    <g id="text_25">
     <!-- time [week] -->
     <g transform="translate(198.813125 672.794375) scale(0.18 -0.18)">
      <use xlink:href="#DejaVuSans-Bold-74"/>
      <use xlink:href="#DejaVuSans-Bold-69" x="47.802734"/>
      <use xlink:href="#DejaVuSans-Bold-6d" x="82.080078"/>
      <use xlink:href="#DejaVuSans-Bold-65" x="186.279297"/>
      <use xlink:href="#DejaVuSans-Bold-20" x="254.101562"/>
      <use xlink:href="#DejaVuSans-Bold-5b" x="288.916016"/>
      <use xlink:href="#DejaVuSans-Bold-77" x="334.619141"/>
      <use xlink:href="#DejaVuSans-Bold-65" x="427.001953"/>
      <use xlink:href="#DejaVuSans-Bold-65" x="494.824219"/>
      <use xlink:href="#DejaVuSans-Bold-6b" x="562.646484"/>
      <use xlink:href="#DejaVuSans-Bold-5d" x="629.150391"/>
     </g>
    </g>
   </g>
   <g id="matplotlib.axis_4">
    <g id="ytick_7">
     <g id="line2d_35">
      <g>
       <use xlink:href="#mad8255172e" x="64.251875" y="622.643478" style="stroke: #000000; stroke-width: 0.8"/>
      </g>
     </g>
     <g id="text_26">
      <!-- 0 -->
      <g transform="translate(47.708125 628.342306) scale(0.15 -0.15)">
       <use xlink:href="#DejaVuSans-30"/>
      </g>
     </g>
    </g>
    <g id="ytick_8">
     <g id="line2d_36">
      <g>
       <use xlink:href="#mad8255172e" x="64.251875" y="582.61554" style="stroke: #000000; stroke-width: 0.8"/>
      </g>
     </g>
     <g id="text_27">
      <!-- 100 -->
      <g transform="translate(28.620625 588.314368) scale(0.15 -0.15)">
       <use xlink:href="#DejaVuSans-31"/>
       <use xlink:href="#DejaVuSans-30" x="63.623047"/>
       <use xlink:href="#DejaVuSans-30" x="127.246094"/>
      </g>
     </g>
    </g>
    <g id="ytick_9">
     <g id="line2d_37">
      <g>
       <use xlink:href="#mad8255172e" x="64.251875" y="542.587602" style="stroke: #000000; stroke-width: 0.8"/>
      </g>
     </g>
     <g id="text_28">
      <!-- 200 -->
      <g transform="translate(28.620625 548.28643) scale(0.15 -0.15)">
       <use xlink:href="#DejaVuSans-32"/>
       <use xlink:href="#DejaVuSans-30" x="63.623047"/>
       <use xlink:href="#DejaVuSans-30" x="127.246094"/>
      </g>
     </g>
    </g>
    <g id="ytick_10">
     <g id="line2d_38">
      <g>
       <use xlink:href="#mad8255172e" x="64.251875" y="502.559664" style="stroke: #000000; stroke-width: 0.8"/>
      </g>
     </g>
     <g id="text_29">
      <!-- 300 -->
      <g transform="translate(28.620625 508.258492) scale(0.15 -0.15)">
       <defs>
        <path id="DejaVuSans-33" d="M 2597 2516 
Q 3050 2419 3304 2112 
Q 3559 1806 3559 1356 
Q 3559 666 3084 287 
Q 2609 -91 1734 -91 
Q 1441 -91 1130 -33 
Q 819 25 488 141 
L 488 750 
Q 750 597 1062 519 
Q 1375 441 1716 441 
Q 2309 441 2620 675 
Q 2931 909 2931 1356 
Q 2931 1769 2642 2001 
Q 2353 2234 1838 2234 
L 1294 2234 
L 1294 2753 
L 1863 2753 
Q 2328 2753 2575 2939 
Q 2822 3125 2822 3475 
Q 2822 3834 2567 4026 
Q 2313 4219 1838 4219 
Q 1578 4219 1281 4162 
Q 984 4106 628 3988 
L 628 4550 
Q 988 4650 1302 4700 
Q 1616 4750 1894 4750 
Q 2613 4750 3031 4423 
Q 3450 4097 3450 3541 
Q 3450 3153 3228 2886 
Q 3006 2619 2597 2516 
z
" transform="scale(0.015625)"/>
       </defs>
       <use xlink:href="#DejaVuSans-33"/>
       <use xlink:href="#DejaVuSans-30" x="63.623047"/>
       <use xlink:href="#DejaVuSans-30" x="127.246094"/>
      </g>
     </g>
    </g>
    <g id="ytick_11">
     <g id="line2d_39">
      <g>
       <use xlink:href="#mad8255172e" x="64.251875" y="462.531725" style="stroke: #000000; stroke-width: 0.8"/>
      </g>
     </g>
     <g id="text_30">
      <!-- 400 -->
      <g transform="translate(28.620625 468.230553) scale(0.15 -0.15)">
       <use xlink:href="#DejaVuSans-34"/>
       <use xlink:href="#DejaVuSans-30" x="63.623047"/>
       <use xlink:href="#DejaVuSans-30" x="127.246094"/>
      </g>
     </g>
    </g>
    <g id="ytick_12">
     <g id="line2d_40">
      <g>
       <use xlink:href="#mad8255172e" x="64.251875" y="422.503787" style="stroke: #000000; stroke-width: 0.8"/>
      </g>
     </g>
     <g id="text_31">
      <!-- 500 -->
      <g transform="translate(28.620625 428.202615) scale(0.15 -0.15)">
       <use xlink:href="#DejaVuSans-35"/>
       <use xlink:href="#DejaVuSans-30" x="63.623047"/>
       <use xlink:href="#DejaVuSans-30" x="127.246094"/>
      </g>
     </g>
    </g>
    <g id="text_32">
     <!-- tirzepatide [nM] -->
     <g transform="translate(20.877187 595.418417) rotate(-90) scale(0.18 -0.18)">
      <use xlink:href="#DejaVuSans-Bold-74"/>
      <use xlink:href="#DejaVuSans-Bold-69" x="47.802734"/>
      <use xlink:href="#DejaVuSans-Bold-72" x="82.080078"/>
      <use xlink:href="#DejaVuSans-Bold-7a" x="131.396484"/>
      <use xlink:href="#DejaVuSans-Bold-65" x="189.599609"/>
      <use xlink:href="#DejaVuSans-Bold-70" x="257.421875"/>
      <use xlink:href="#DejaVuSans-Bold-61" x="329.003906"/>
      <use xlink:href="#DejaVuSans-Bold-74" x="396.484375"/>
      <use xlink:href="#DejaVuSans-Bold-69" x="444.287109"/>
      <use xlink:href="#DejaVuSans-Bold-64" x="478.564453"/>
      <use xlink:href="#DejaVuSans-Bold-65" x="550.146484"/>
      <use xlink:href="#DejaVuSans-Bold-20" x="617.96875"/>
      <use xlink:href="#DejaVuSans-Bold-5b" x="652.783203"/>
      <use xlink:href="#DejaVuSans-Bold-6e" x="698.486328"/>
      <use xlink:href="#DejaVuSans-Bold-4d" x="769.677734"/>
      <use xlink:href="#DejaVuSans-Bold-5d" x="869.189453"/>
     </g>
    </g>
   </g>
   <g id="LineCollection_7">
    <path d="M 194.451875 602.041472 
L 194.451875 578.817391 
" clip-path="url(#pf9a35bb273)" style="fill: none; stroke: #dc143c"/>
    <path d="M 196.518542 582.563211 
L 196.518542 554.094983 
" clip-path="url(#pf9a35bb273)" style="fill: none; stroke: #dc143c"/>
    <path d="M 200.651875 572.074916 
L 200.651875 539.86087 
" clip-path="url(#pf9a35bb273)" style="fill: none; stroke: #dc143c"/>
    <path d="M 206.851875 567.579933 
L 206.851875 541.359197 
" clip-path="url(#pf9a35bb273)" style="fill: none; stroke: #dc143c"/>
    <path d="M 237.851875 595.298997 
L 237.851875 584.810702 
" clip-path="url(#pf9a35bb273)" style="fill: none; stroke: #dc143c"/>
    <path d="M 281.251875 609.907692 
L 281.251875 609.907692 
" clip-path="url(#pf9a35bb273)" style="fill: none; stroke: #dc143c"/>
    <path d="M 411.451875 621.894314 
L 411.451875 621.894314 
" clip-path="url(#pf9a35bb273)" style="fill: none; stroke: #dc143c"/>
   </g>
   <g id="LineCollection_8">
    <path d="M 194.451875 580.315719 
L 194.451875 549.6 
" clip-path="url(#pf9a35bb273)" style="fill: none; stroke: #daa520"/>
    <path d="M 196.518542 538.737124 
L 196.518542 490.790635 
" clip-path="url(#pf9a35bb273)" style="fill: none; stroke: #daa520"/>
    <path d="M 200.651875 518.135117 
L 200.651875 476.18194 
" clip-path="url(#pf9a35bb273)" style="fill: none; stroke: #daa520"/>
    <path d="M 206.851875 518.884281 
L 206.851875 485.92107 
" clip-path="url(#pf9a35bb273)" style="fill: none; stroke: #daa520"/>
    <path d="M 237.851875 577.319064 
L 237.851875 543.606689 
" clip-path="url(#pf9a35bb273)" style="fill: none; stroke: #daa520"/>
    <path d="M 281.251875 608.783946 
L 281.251875 593.051505 
" clip-path="url(#pf9a35bb273)" style="fill: none; stroke: #daa520"/>
    <path d="M 411.451875 620.021405 
L 411.451875 620.021405 
" clip-path="url(#pf9a35bb273)" style="fill: none; stroke: #daa520"/>
   </g>
   <g id="LineCollection_9">
    <path d="M 194.451875 542.482943 
L 194.451875 542.482943 
" clip-path="url(#pf9a35bb273)" style="fill: none; stroke: #32cd32"/>
    <path d="M 196.518542 510.643478 
L 196.518542 461.198662 
" clip-path="url(#pf9a35bb273)" style="fill: none; stroke: #32cd32"/>
    <path d="M 200.651875 490.041472 
L 200.651875 424.11505 
" clip-path="url(#pf9a35bb273)" style="fill: none; stroke: #32cd32"/>
    <path d="M 206.851875 465.693645 
L 206.851875 403.513043 
" clip-path="url(#pf9a35bb273)" style="fill: none; stroke: #32cd32"/>
    <path d="M 237.851875 543.606689 
L 237.851875 507.646823 
" clip-path="url(#pf9a35bb273)" style="fill: none; stroke: #32cd32"/>
    <path d="M 281.251875 599.044816 
L 281.251875 581.814047 
" clip-path="url(#pf9a35bb273)" style="fill: none; stroke: #32cd32"/>
    <path d="M 411.451875 619.646823 
L 411.451875 619.646823 
" clip-path="url(#pf9a35bb273)" style="fill: none; stroke: #32cd32"/>
   </g>
   <g id="line2d_41">
    <path d="M 64.230175 581.773587 
L 64.251875 581.79642 
L 64.273575 581.6843 
L 65.640675 575.386586 
L 66.964375 570.299075 
L 68.266375 566.154644 
L 69.524975 562.86813 
L 70.740175 560.29228 
L 71.911975 558.304111 
L 73.062075 556.775566 
L 74.168775 555.658617 
L 75.253775 554.865453 
L 76.338775 554.340136 
L 77.445475 554.051078 
L 78.573875 553.984935 
L 79.767375 554.137266 
L 81.069375 554.531737 
L 82.501575 555.202908 
L 84.129075 556.219871 
L 85.995275 557.657705 
L 88.208675 559.655517 
L 90.942875 562.437513 
L 94.718675 566.623617 
L 107.651875 581.278272 
L 107.651875 581.278272 
L 108.823675 575.812727 
L 110.147375 570.590816 
L 111.449375 566.330505 
L 112.707975 562.945768 
L 113.923175 560.286649 
L 115.116675 558.194096 
L 116.266775 556.612247 
L 117.395175 555.430829 
L 118.501875 554.591158 
L 119.586875 554.042441 
L 120.671875 553.736803 
L 121.800275 553.648881 
L 122.993775 553.781931 
L 124.274075 554.151207 
L 125.706275 554.804222 
L 127.312075 555.790915 
L 129.156575 557.196037 
L 131.326575 559.139856 
L 134.017375 561.865907 
L 137.662975 565.903215 
L 151.051875 581.145665 
L 151.051875 581.145665 
L 152.223675 575.684911 
L 153.547375 570.468204 
L 154.849375 566.212805 
L 156.107975 562.83263 
L 157.323175 560.177747 
L 158.516675 558.089199 
L 159.666775 556.511071 
L 160.795175 555.333175 
L 161.880175 554.510421 
L 162.965175 553.959722 
L 164.050175 553.652541 
L 165.178575 553.563432 
L 166.372075 553.695641 
L 167.652375 554.064432 
L 169.062875 554.705757 
L 170.668675 555.6895 
L 172.513175 557.092512 
L 174.683175 559.035299 
L 177.352275 561.738735 
L 180.954475 565.727616 
L 194.451875 581.111728 
L 194.451875 581.111728 
L 195.753875 575.096324 
L 197.055875 570.050576 
L 198.357875 565.86422 
L 199.659875 562.440676 
L 200.853375 559.898215 
L 202.046875 557.863307 
L 203.240375 556.281246 
L 204.325375 555.194183 
L 205.410375 554.406503 
L 206.495375 553.887288 
L 207.580375 553.608311 
L 208.665375 553.543821 
L 209.858875 553.692651 
L 211.160875 554.0854 
L 212.571375 554.745024 
L 214.198875 555.761408 
L 216.043375 557.183749 
L 218.213375 559.144004 
L 220.925875 561.908862 
L 224.614875 566.012129 
L 238.936875 582.258505 
L 243.168375 586.567209 
L 247.182875 590.342351 
L 251.088875 593.712351 
L 254.994875 596.785765 
L 258.900875 599.57301 
L 262.806875 602.089439 
L 266.821375 604.41265 
L 270.944375 606.542985 
L 275.284375 608.530769 
L 279.732875 610.324222 
L 284.506875 612.004367 
L 289.497875 613.522649 
L 294.814375 614.907118 
L 300.564875 616.172632 
L 306.857875 617.324283 
L 313.693375 618.346172 
L 321.288375 619.254443 
L 329.859875 620.052048 
L 339.733375 620.741697 
L 351.342875 621.322088 
L 365.447875 621.794679 
L 383.241875 622.157948 
L 407.545875 622.417115 
L 411.451875 622.443243 
L 411.451875 622.443243 
" clip-path="url(#pf9a35bb273)" style="fill: none; stroke: #dc143c; stroke-width: 2; stroke-linecap: square"/>
   </g>
   <g id="line2d_42">
    <path d="M 194.451875 590.429431 
L 196.518542 568.329097 
L 200.651875 555.967893 
L 206.851875 554.469565 
L 237.851875 590.054849 
L 281.251875 609.907692 
L 411.451875 621.894314 
" clip-path="url(#pf9a35bb273)" style="fill: none; stroke-dasharray: 3.7,1.6; stroke-dashoffset: 0; stroke: #dc143c"/>
    <g clip-path="url(#pf9a35bb273)">
     <use xlink:href="#mc1f7539c26" x="194.451875" y="590.429431" style="fill: #dc143c; stroke: #000000; stroke-linejoin: miter"/>
     <use xlink:href="#mc1f7539c26" x="196.518542" y="568.329097" style="fill: #dc143c; stroke: #000000; stroke-linejoin: miter"/>
     <use xlink:href="#mc1f7539c26" x="200.651875" y="555.967893" style="fill: #dc143c; stroke: #000000; stroke-linejoin: miter"/>
     <use xlink:href="#mc1f7539c26" x="206.851875" y="554.469565" style="fill: #dc143c; stroke: #000000; stroke-linejoin: miter"/>
     <use xlink:href="#mc1f7539c26" x="237.851875" y="590.054849" style="fill: #dc143c; stroke: #000000; stroke-linejoin: miter"/>
     <use xlink:href="#mc1f7539c26" x="281.251875" y="609.907692" style="fill: #dc143c; stroke: #000000; stroke-linejoin: miter"/>
     <use xlink:href="#mc1f7539c26" x="411.451875" y="621.894314" style="fill: #dc143c; stroke: #000000; stroke-linejoin: miter"/>
    </g>
   </g>
   <g id="line2d_43">
    <path d="M 64.230175 582.527333 
L 64.251875 582.549653 
L 64.251875 582.549653 
L 65.488775 569.435162 
L 66.877575 556.873306 
L 68.222975 546.639672 
L 69.546675 538.218654 
L 70.826975 531.454049 
L 72.063875 526.065324 
L 73.257375 521.818148 
L 74.407475 518.516561 
L 75.514175 515.996525 
L 76.555775 514.153902 
L 77.553975 512.822402 
L 78.508775 511.908844 
L 79.420175 511.334888 
L 80.309875 511.030028 
L 81.199575 510.954836 
L 82.132675 511.099982 
L 83.130875 511.484386 
L 84.237575 512.157824 
L 85.474475 513.181197 
L 86.884975 514.648676 
L 88.512475 516.675132 
L 90.443775 519.452026 
L 92.787375 523.230486 
L 95.847075 528.614465 
L 100.859775 537.956007 
L 107.651875 550.559575 
L 107.651875 550.559575 
L 108.845375 539.049987 
L 110.190775 528.057936 
L 111.492775 519.19789 
L 112.751375 512.109462 
L 113.966575 506.491797 
L 115.138375 502.093448 
L 116.245075 498.76194 
L 117.308375 496.237313 
L 118.306575 494.411334 
L 119.261375 493.111057 
L 120.151075 492.256509 
L 120.997375 491.735322 
L 121.821975 491.477838 
L 122.668275 491.448732 
L 123.536275 491.644824 
L 124.469375 492.087299 
L 125.510975 492.836222 
L 126.682775 493.963783 
L 128.028175 495.581628 
L 129.590575 497.826787 
L 131.435075 500.889048 
L 133.670175 505.057231 
L 136.512875 510.858553 
L 140.809475 520.192544 
L 149.641375 539.439232 
L 151.051875 542.372556 
L 151.051875 542.372556 
L 152.223675 531.352606 
L 153.547375 520.812263 
L 154.827675 512.33089 
L 156.064575 505.560558 
L 157.258075 500.210588 
L 158.408175 496.037861 
L 159.493175 492.894395 
L 160.534775 490.528564 
L 161.511275 488.83466 
L 162.444375 487.645698 
L 163.312375 486.882975 
L 164.136975 486.438515 
L 164.961575 486.244117 
L 165.786175 486.278835 
L 166.654175 486.541459 
L 167.608975 487.07336 
L 168.672275 487.934555 
L 169.865775 489.199308 
L 171.232875 490.983225 
L 172.838675 493.462735 
L 174.726575 496.805653 
L 177.048475 501.39585 
L 180.064775 507.887876 
L 184.990675 519.10033 
L 192.151675 535.309081 
L 194.451875 540.277296 
L 194.451875 540.277296 
L 195.753875 528.218552 
L 197.055875 518.10024 
L 198.357875 509.701785 
L 199.551375 503.348686 
L 200.744875 498.143821 
L 201.829875 494.305782 
L 202.914875 491.232552 
L 203.891375 489.057467 
L 204.867875 487.389139 
L 205.735875 486.293551 
L 206.603875 485.530673 
L 207.471875 485.072125 
L 208.339875 484.891538 
L 209.207875 484.964417 
L 210.075875 485.268016 
L 211.052375 485.859118 
L 212.137375 486.793386 
L 213.330875 488.118403 
L 214.741375 490.030541 
L 216.368875 492.626852 
L 218.321875 496.183422 
L 220.708875 501.017805 
L 223.855375 507.925891 
L 229.714375 521.4534 
L 235.681875 535.02031 
L 239.913375 544.086571 
L 243.710875 551.696185 
L 247.291375 558.369226 
L 250.654875 564.181262 
L 254.018375 569.553439 
L 257.273375 574.344567 
L 260.528375 578.750951 
L 263.783375 582.792208 
L 267.038375 586.489957 
L 270.401875 589.974065 
L 273.765375 593.140576 
L 277.237375 596.102254 
L 280.817875 598.857267 
L 284.398375 601.335442 
L 288.195875 603.689782 
L 292.101875 605.8463 
L 296.116375 607.812 
L 300.347875 609.639216 
L 304.796375 611.320917 
L 309.570375 612.886916 
L 314.669875 614.323097 
L 320.203375 615.644841 
L 326.170875 616.837055 
L 332.680875 617.908084 
L 339.950375 618.872934 
L 348.087875 619.722186 
L 357.310375 620.45615 
L 368.051875 621.082102 
L 380.854875 621.598851 
L 396.804375 622.010364 
L 411.451875 622.243774 
L 411.451875 622.243774 
" clip-path="url(#pf9a35bb273)" style="fill: none; stroke: #daa520; stroke-width: 2; stroke-linecap: square"/>
   </g>
   <g id="line2d_44">
    <path d="M 194.451875 564.95786 
L 196.518542 514.76388 
L 200.651875 497.158528 
L 206.851875 502.402676 
L 237.851875 560.462876 
L 281.251875 600.917726 
L 411.451875 620.021405 
" clip-path="url(#pf9a35bb273)" style="fill: none; stroke-dasharray: 3.7,1.6; stroke-dashoffset: 0; stroke: #daa520"/>
    <g clip-path="url(#pf9a35bb273)">
     <use xlink:href="#ma1900a36d8" x="194.451875" y="564.95786" style="fill: #daa520; stroke: #000000; stroke-linejoin: miter"/>
     <use xlink:href="#ma1900a36d8" x="196.518542" y="514.76388" style="fill: #daa520; stroke: #000000; stroke-linejoin: miter"/>
     <use xlink:href="#ma1900a36d8" x="200.651875" y="497.158528" style="fill: #daa520; stroke: #000000; stroke-linejoin: miter"/>
     <use xlink:href="#ma1900a36d8" x="206.851875" y="502.402676" style="fill: #daa520; stroke: #000000; stroke-linejoin: miter"/>
     <use xlink:href="#ma1900a36d8" x="237.851875" y="560.462876" style="fill: #daa520; stroke: #000000; stroke-linejoin: miter"/>
     <use xlink:href="#ma1900a36d8" x="281.251875" y="600.917726" style="fill: #daa520; stroke: #000000; stroke-linejoin: miter"/>
     <use xlink:href="#ma1900a36d8" x="411.451875" y="620.021405" style="fill: #daa520; stroke: #000000; stroke-linejoin: miter"/>
    </g>
   </g>
   <g id="line2d_45">
    <path d="M 64.230175 542.411187 
L 64.251875 542.455828 
L 64.251875 542.455828 
L 65.467075 523.855334 
L 66.834175 506.04367 
L 68.157875 491.587044 
L 69.438175 479.922317 
L 70.696775 470.431176 
L 71.890275 463.044385 
L 73.040375 457.254377 
L 74.147075 452.786463 
L 75.188675 449.470895 
L 76.165175 447.070187 
L 77.076575 445.390377 
L 77.922875 444.27293 
L 78.704075 443.588216 
L 79.441875 443.223216 
L 80.157975 443.110886 
L 80.895775 443.225698 
L 81.676975 443.582485 
L 82.544975 444.238783 
L 83.521475 445.273338 
L 84.628175 446.784184 
L 85.908475 448.924305 
L 87.405775 451.881573 
L 89.185175 455.917848 
L 91.333475 461.375298 
L 94.067675 468.970112 
L 98.060475 480.789769 
L 107.651875 509.38714 
L 107.651875 509.38714 
L 108.823675 492.598893 
L 110.147375 476.507779 
L 111.427675 463.525193 
L 112.686275 452.962738 
L 113.879775 444.743106 
L 115.029875 438.301222 
L 116.114875 433.41789 
L 117.156475 429.711666 
L 118.132975 427.026653 
L 119.044375 425.146442 
L 119.868975 423.920663 
L 120.628475 423.158635 
L 121.344575 422.737842 
L 122.038975 422.585531 
L 122.733375 422.66686 
L 123.449475 422.977532 
L 124.252375 423.578357 
L 125.163775 424.555748 
L 126.205375 426.01886 
L 127.398875 428.09632 
L 128.787675 430.97867 
L 130.436875 434.943373 
L 132.411575 440.306017 
L 134.841975 447.5848 
L 138.140375 458.222439 
L 151.051875 500.924077 
L 151.051875 500.924077 
L 152.223675 484.441591 
L 153.547375 468.682605 
L 154.827675 456.008388 
L 156.064575 445.897319 
L 157.258075 437.913628 
L 158.386475 431.797817 
L 159.471475 427.095659 
L 160.491375 423.624919 
L 161.446175 421.130109 
L 162.335875 419.402484 
L 163.138775 418.295678 
L 163.898275 417.611858 
L 164.592675 417.272356 
L 165.265375 417.184952 
L 165.959775 417.326321 
L 166.697575 417.71538 
L 167.522175 418.418192 
L 168.455275 419.524083 
L 169.518575 421.144917 
L 170.755475 423.455538 
L 172.187675 426.620762 
L 173.880275 430.922284 
L 175.920075 436.740861 
L 178.480675 444.754055 
L 182.061175 456.755151 
L 194.039575 497.435437 
L 194.451875 498.758172 
L 194.451875 498.758172 
L 195.753875 480.683518 
L 197.055875 465.518973 
L 198.357875 452.933695 
L 199.551375 443.414981 
L 200.744875 435.618214 
L 201.829875 429.870395 
L 202.914875 425.269479 
L 203.891375 422.01463 
L 204.867875 419.519682 
L 205.735875 417.882816 
L 206.495375 416.861287 
L 207.254875 416.193031 
L 207.905875 415.88101 
L 208.556875 415.792847 
L 209.207875 415.91347 
L 209.967375 416.299105 
L 210.835375 417.036814 
L 211.811875 418.210106 
L 212.896875 419.894656 
L 214.198875 422.379137 
L 215.717875 425.820844 
L 217.453875 430.341118 
L 219.623875 436.673161 
L 222.336375 445.338716 
L 226.242375 458.643173 
L 236.115875 492.55088 
L 240.130375 505.4015 
L 243.710875 516.150991 
L 247.182875 525.875641 
L 250.437875 534.349812 
L 253.692875 542.204721 
L 256.839375 549.22345 
L 259.985875 555.69905 
L 263.132375 561.657603 
L 266.170375 566.947237 
L 269.208375 571.809259 
L 272.354875 576.423787 
L 275.501375 580.640047 
L 278.647875 584.487852 
L 281.902875 588.111082 
L 285.157875 591.400767 
L 288.521375 594.479789 
L 291.884875 597.262092 
L 295.356875 599.851572 
L 298.937375 602.249978 
L 302.734875 604.522232 
L 306.640875 606.598517 
L 310.763875 608.535015 
L 315.103875 610.323409 
L 319.660875 611.959282 
L 324.543375 613.472948 
L 329.751375 614.85286 
L 335.393375 616.115183 
L 341.577875 617.265718 
L 348.304875 618.288586 
L 355.791375 619.200195 
L 364.254375 620.003316 
L 374.019375 620.700293 
L 385.411875 621.284583 
L 399.191375 621.761839 
L 411.451875 622.043553 
L 411.451875 622.043553 
" clip-path="url(#pf9a35bb273)" style="fill: none; stroke: #32cd32; stroke-width: 2; stroke-linecap: square"/>
   </g>
   <g id="line2d_46">
    <path d="M 194.451875 542.482943 
L 196.518542 485.92107 
L 200.651875 457.078261 
L 206.851875 434.603344 
L 237.851875 525.626756 
L 281.251875 590.429431 
L 411.451875 619.646823 
" clip-path="url(#pf9a35bb273)" style="fill: none; stroke-dasharray: 3.7,1.6; stroke-dashoffset: 0; stroke: #32cd32"/>
    <g clip-path="url(#pf9a35bb273)">
     <use xlink:href="#mb5d528e26d" x="194.451875" y="542.482943" style="fill: #32cd32; stroke: #000000; stroke-linejoin: miter"/>
     <use xlink:href="#mb5d528e26d" x="196.518542" y="485.92107" style="fill: #32cd32; stroke: #000000; stroke-linejoin: miter"/>
     <use xlink:href="#mb5d528e26d" x="200.651875" y="457.078261" style="fill: #32cd32; stroke: #000000; stroke-linejoin: miter"/>
     <use xlink:href="#mb5d528e26d" x="206.851875" y="434.603344" style="fill: #32cd32; stroke: #000000; stroke-linejoin: miter"/>
     <use xlink:href="#mb5d528e26d" x="237.851875" y="525.626756" style="fill: #32cd32; stroke: #000000; stroke-linejoin: miter"/>
     <use xlink:href="#mb5d528e26d" x="281.251875" y="590.429431" style="fill: #32cd32; stroke: #000000; stroke-linejoin: miter"/>
     <use xlink:href="#mb5d528e26d" x="411.451875" y="619.646823" style="fill: #32cd32; stroke: #000000; stroke-linejoin: miter"/>
    </g>
   </g>
   <g id="patch_9">
    <path d="M 64.251875 633.6 
L 64.251875 392.556522 
" style="fill: none; stroke: #000000; stroke-width: 0.8; stroke-linejoin: miter; stroke-linecap: square"/>
   </g>
   <g id="patch_10">
    <path d="M 454.851875 633.6 
L 454.851875 392.556522 
" style="fill: none; stroke: #000000; stroke-width: 0.8; stroke-linejoin: miter; stroke-linecap: square"/>
   </g>
   <g id="patch_11">
    <path d="M 64.251875 633.6 
L 454.851875 633.6 
" style="fill: none; stroke: #000000; stroke-width: 0.8; stroke-linejoin: miter; stroke-linecap: square"/>
   </g>
   <g id="patch_12">
    <path d="M 64.251875 392.556522 
L 454.851875 392.556522 
" style="fill: none; stroke: #000000; stroke-width: 0.8; stroke-linejoin: miter; stroke-linecap: square"/>
   </g>
   <g id="legend_2">
    <g id="patch_13">
     <path d="M 292.775312 488.625272 
L 447.851875 488.625272 
Q 449.851875 488.625272 449.851875 486.625272 
L 449.851875 399.556522 
Q 449.851875 397.556522 447.851875 397.556522 
L 292.775312 397.556522 
Q 290.775312 397.556522 290.775312 399.556522 
L 290.775312 486.625272 
Q 290.775312 488.625272 292.775312 488.625272 
z
" style="fill: #ffffff; opacity: 0.8; stroke: #cccccc; stroke-linejoin: miter"/>
    </g>
    <g id="line2d_47">
     <path d="M 294.775312 405.654959 
L 314.775312 405.654959 
" style="fill: none; stroke: #dc143c; stroke-width: 2; stroke-linecap: square"/>
    </g>
    <g id="line2d_48"/>
    <g id="text_33">
     <!-- Sim 5 mg tir -->
     <g transform="translate(322.775312 409.154959) scale(0.1 -0.1)">
      <use xlink:href="#DejaVuSans-53"/>
      <use xlink:href="#DejaVuSans-69" x="63.476562"/>
      <use xlink:href="#DejaVuSans-6d" x="91.259766"/>
      <use xlink:href="#DejaVuSans-20" x="188.671875"/>
      <use xlink:href="#DejaVuSans-35" x="220.458984"/>
      <use xlink:href="#DejaVuSans-20" x="284.082031"/>
      <use xlink:href="#DejaVuSans-6d" x="315.869141"/>
      <use xlink:href="#DejaVuSans-67" x="413.28125"/>
      <use xlink:href="#DejaVuSans-20" x="476.757812"/>
      <use xlink:href="#DejaVuSans-74" x="508.544922"/>
      <use xlink:href="#DejaVuSans-69" x="547.753906"/>
      <use xlink:href="#DejaVuSans-72" x="575.537109"/>
     </g>
    </g>
    <g id="LineCollection_10">
     <path d="M 304.775312 425.333084 
L 304.775312 415.333084 
" style="fill: none; stroke: #dc143c"/>
    </g>
    <g id="line2d_49">
     <path d="M 294.775312 420.333084 
L 314.775312 420.333084 
" style="fill: none; stroke-dasharray: 3.7,1.6; stroke-dashoffset: 0; stroke: #dc143c"/>
    </g>
    <g id="line2d_50">
     <g>
      <use xlink:href="#mc1f7539c26" x="304.775312" y="420.333084" style="fill: #dc143c; stroke: #000000; stroke-linejoin: miter"/>
     </g>
    </g>
    <g id="text_34">
     <!-- Data 5 mg±SD (n=11) -->
     <g transform="translate(322.775312 423.833084) scale(0.1 -0.1)">
      <use xlink:href="#DejaVuSans-44"/>
      <use xlink:href="#DejaVuSans-61" x="77.001953"/>
      <use xlink:href="#DejaVuSans-74" x="138.28125"/>
      <use xlink:href="#DejaVuSans-61" x="177.490234"/>
      <use xlink:href="#DejaVuSans-20" x="238.769531"/>
      <use xlink:href="#DejaVuSans-35" x="270.556641"/>
      <use xlink:href="#DejaVuSans-20" x="334.179688"/>
      <use xlink:href="#DejaVuSans-6d" x="365.966797"/>
      <use xlink:href="#DejaVuSans-67" x="463.378906"/>
      <use xlink:href="#DejaVuSans-b1" x="526.855469"/>
      <use xlink:href="#DejaVuSans-53" x="610.644531"/>
      <use xlink:href="#DejaVuSans-44" x="674.121094"/>
      <use xlink:href="#DejaVuSans-20" x="751.123047"/>
      <use xlink:href="#DejaVuSans-28" x="782.910156"/>
      <use xlink:href="#DejaVuSans-6e" x="821.923828"/>
      <use xlink:href="#DejaVuSans-3d" x="885.302734"/>
      <use xlink:href="#DejaVuSans-31" x="969.091797"/>
      <use xlink:href="#DejaVuSans-31" x="1032.714844"/>
      <use xlink:href="#DejaVuSans-29" x="1096.337891"/>
     </g>
    </g>
    <g id="line2d_51">
     <path d="M 294.775312 435.011209 
L 314.775312 435.011209 
" style="fill: none; stroke: #daa520; stroke-width: 2; stroke-linecap: square"/>
    </g>
    <g id="line2d_52"/>
    <g id="text_35">
     <!-- Sim 2.5 mg tir -->
     <g transform="translate(322.775312 438.511209) scale(0.1 -0.1)">
      <use xlink:href="#DejaVuSans-53"/>
      <use xlink:href="#DejaVuSans-69" x="63.476562"/>
      <use xlink:href="#DejaVuSans-6d" x="91.259766"/>
      <use xlink:href="#DejaVuSans-20" x="188.671875"/>
      <use xlink:href="#DejaVuSans-32" x="220.458984"/>
      <use xlink:href="#DejaVuSans-2e" x="284.082031"/>
      <use xlink:href="#DejaVuSans-35" x="315.869141"/>
      <use xlink:href="#DejaVuSans-20" x="379.492188"/>
      <use xlink:href="#DejaVuSans-6d" x="411.279297"/>
      <use xlink:href="#DejaVuSans-67" x="508.691406"/>
      <use xlink:href="#DejaVuSans-20" x="572.167969"/>
      <use xlink:href="#DejaVuSans-74" x="603.955078"/>
      <use xlink:href="#DejaVuSans-69" x="643.164062"/>
      <use xlink:href="#DejaVuSans-72" x="670.947266"/>
     </g>
    </g>
    <g id="LineCollection_11">
     <path d="M 304.775312 454.689334 
L 304.775312 444.689334 
" style="fill: none; stroke: #daa520"/>
    </g>
    <g id="line2d_53">
     <path d="M 294.775312 449.689334 
L 314.775312 449.689334 
" style="fill: none; stroke-dasharray: 3.7,1.6; stroke-dashoffset: 0; stroke: #daa520"/>
    </g>
    <g id="line2d_54">
     <g>
      <use xlink:href="#ma1900a36d8" x="304.775312" y="449.689334" style="fill: #daa520; stroke: #000000; stroke-linejoin: miter"/>
     </g>
    </g>
    <g id="text_36">
     <!-- Data 2.5 mg±SD (n=12) -->
     <g transform="translate(322.775312 453.189334) scale(0.1 -0.1)">
      <use xlink:href="#DejaVuSans-44"/>
      <use xlink:href="#DejaVuSans-61" x="77.001953"/>
      <use xlink:href="#DejaVuSans-74" x="138.28125"/>
      <use xlink:href="#DejaVuSans-61" x="177.490234"/>
      <use xlink:href="#DejaVuSans-20" x="238.769531"/>
      <use xlink:href="#DejaVuSans-32" x="270.556641"/>
      <use xlink:href="#DejaVuSans-2e" x="334.179688"/>
      <use xlink:href="#DejaVuSans-35" x="365.966797"/>
      <use xlink:href="#DejaVuSans-20" x="429.589844"/>
      <use xlink:href="#DejaVuSans-6d" x="461.376953"/>
      <use xlink:href="#DejaVuSans-67" x="558.789062"/>
      <use xlink:href="#DejaVuSans-b1" x="622.265625"/>
      <use xlink:href="#DejaVuSans-53" x="706.054688"/>
      <use xlink:href="#DejaVuSans-44" x="769.53125"/>
      <use xlink:href="#DejaVuSans-20" x="846.533203"/>
      <use xlink:href="#DejaVuSans-28" x="878.320312"/>
      <use xlink:href="#DejaVuSans-6e" x="917.333984"/>
      <use xlink:href="#DejaVuSans-3d" x="980.712891"/>
      <use xlink:href="#DejaVuSans-31" x="1064.501953"/>
      <use xlink:href="#DejaVuSans-32" x="1128.125"/>
      <use xlink:href="#DejaVuSans-29" x="1191.748047"/>
     </g>
    </g>
    <g id="line2d_55">
     <path d="M 294.775312 464.367459 
L 314.775312 464.367459 
" style="fill: none; stroke: #32cd32; stroke-width: 2; stroke-linecap: square"/>
    </g>
    <g id="line2d_56"/>
    <g id="text_37">
     <!-- Sim 5 mg tir -->
     <g transform="translate(322.775312 467.867459) scale(0.1 -0.1)">
      <use xlink:href="#DejaVuSans-53"/>
      <use xlink:href="#DejaVuSans-69" x="63.476562"/>
      <use xlink:href="#DejaVuSans-6d" x="91.259766"/>
      <use xlink:href="#DejaVuSans-20" x="188.671875"/>
      <use xlink:href="#DejaVuSans-35" x="220.458984"/>
      <use xlink:href="#DejaVuSans-20" x="284.082031"/>
      <use xlink:href="#DejaVuSans-6d" x="315.869141"/>
      <use xlink:href="#DejaVuSans-67" x="413.28125"/>
      <use xlink:href="#DejaVuSans-20" x="476.757812"/>
      <use xlink:href="#DejaVuSans-74" x="508.544922"/>
      <use xlink:href="#DejaVuSans-69" x="547.753906"/>
      <use xlink:href="#DejaVuSans-72" x="575.537109"/>
     </g>
    </g>
    <g id="LineCollection_12">
     <path d="M 304.775312 484.045584 
L 304.775312 474.045584 
" style="fill: none; stroke: #32cd32"/>
    </g>
    <g id="line2d_57">
     <path d="M 294.775312 479.045584 
L 314.775312 479.045584 
" style="fill: none; stroke-dasharray: 3.7,1.6; stroke-dashoffset: 0; stroke: #32cd32"/>
    </g>
    <g id="line2d_58">
     <g>
      <use xlink:href="#mb5d528e26d" x="304.775312" y="479.045584" style="fill: #32cd32; stroke: #000000; stroke-linejoin: miter"/>
     </g>
    </g>
    <g id="text_38">
     <!-- Data 5 mg±SD (n=16) -->
     <g transform="translate(322.775312 482.545584) scale(0.1 -0.1)">
      <use xlink:href="#DejaVuSans-44"/>
      <use xlink:href="#DejaVuSans-61" x="77.001953"/>
      <use xlink:href="#DejaVuSans-74" x="138.28125"/>
      <use xlink:href="#DejaVuSans-61" x="177.490234"/>
      <use xlink:href="#DejaVuSans-20" x="238.769531"/>
      <use xlink:href="#DejaVuSans-35" x="270.556641"/>
      <use xlink:href="#DejaVuSans-20" x="334.179688"/>
      <use xlink:href="#DejaVuSans-6d" x="365.966797"/>
      <use xlink:href="#DejaVuSans-67" x="463.378906"/>
      <use xlink:href="#DejaVuSans-b1" x="526.855469"/>
      <use xlink:href="#DejaVuSans-53" x="610.644531"/>
      <use xlink:href="#DejaVuSans-44" x="674.121094"/>
      <use xlink:href="#DejaVuSans-20" x="751.123047"/>
      <use xlink:href="#DejaVuSans-28" x="782.910156"/>
      <use xlink:href="#DejaVuSans-6e" x="821.923828"/>
      <use xlink:href="#DejaVuSans-3d" x="885.302734"/>
      <use xlink:href="#DejaVuSans-31" x="969.091797"/>
      <use xlink:href="#DejaVuSans-36" x="1032.714844"/>
      <use xlink:href="#DejaVuSans-29" x="1096.337891"/>
     </g>
    </g>
   </g>
  </g>
  <g id="text_39">
   <!-- Furihata2022 -->
   <g transform="translate(159.456953 26.196094) scale(0.25 -0.25)">
    <defs>
     <path id="DejaVuSans-Bold-46" d="M 588 4666 
L 3834 4666 
L 3834 3756 
L 1791 3756 
L 1791 2888 
L 3713 2888 
L 3713 1978 
L 1791 1978 
L 1791 0 
L 588 0 
L 588 4666 
z
" transform="scale(0.015625)"/>
     <path id="DejaVuSans-Bold-75" d="M 500 1363 
L 500 3500 
L 1625 3500 
L 1625 3150 
Q 1625 2866 1622 2436 
Q 1619 2006 1619 1863 
Q 1619 1441 1641 1255 
Q 1663 1069 1716 984 
Q 1784 875 1895 815 
Q 2006 756 2150 756 
Q 2500 756 2700 1025 
Q 2900 1294 2900 1772 
L 2900 3500 
L 4019 3500 
L 4019 0 
L 2900 0 
L 2900 506 
Q 2647 200 2364 54 
Q 2081 -91 1741 -91 
Q 1134 -91 817 281 
Q 500 653 500 1363 
z
" transform="scale(0.015625)"/>
     <path id="DejaVuSans-Bold-68" d="M 4056 2131 
L 4056 0 
L 2931 0 
L 2931 347 
L 2931 1625 
Q 2931 2084 2911 2256 
Q 2891 2428 2841 2509 
Q 2775 2619 2662 2680 
Q 2550 2741 2406 2741 
Q 2056 2741 1856 2470 
Q 1656 2200 1656 1722 
L 1656 0 
L 538 0 
L 538 4863 
L 1656 4863 
L 1656 2988 
Q 1909 3294 2193 3439 
Q 2478 3584 2822 3584 
Q 3428 3584 3742 3212 
Q 4056 2841 4056 2131 
z
" transform="scale(0.015625)"/>
     <path id="DejaVuSans-Bold-32" d="M 1844 884 
L 3897 884 
L 3897 0 
L 506 0 
L 506 884 
L 2209 2388 
Q 2438 2594 2547 2791 
Q 2656 2988 2656 3200 
Q 2656 3528 2436 3728 
Q 2216 3928 1850 3928 
Q 1569 3928 1234 3808 
Q 900 3688 519 3450 
L 519 4475 
Q 925 4609 1322 4679 
Q 1719 4750 2100 4750 
Q 2938 4750 3402 4381 
Q 3866 4013 3866 3353 
Q 3866 2972 3669 2642 
Q 3472 2313 2841 1759 
L 1844 884 
z
" transform="scale(0.015625)"/>
     <path id="DejaVuSans-Bold-30" d="M 2944 2338 
Q 2944 3213 2780 3570 
Q 2616 3928 2228 3928 
Q 1841 3928 1675 3570 
Q 1509 3213 1509 2338 
Q 1509 1453 1675 1090 
Q 1841 728 2228 728 
Q 2613 728 2778 1090 
Q 2944 1453 2944 2338 
z
M 4147 2328 
Q 4147 1169 3647 539 
Q 3147 -91 2228 -91 
Q 1306 -91 806 539 
Q 306 1169 306 2328 
Q 306 3491 806 4120 
Q 1306 4750 2228 4750 
Q 3147 4750 3647 4120 
Q 4147 3491 4147 2328 
z
" transform="scale(0.015625)"/>
    </defs>
    <use xlink:href="#DejaVuSans-Bold-46"/>
    <use xlink:href="#DejaVuSans-Bold-75" x="63.310547"/>
    <use xlink:href="#DejaVuSans-Bold-72" x="134.501953"/>
    <use xlink:href="#DejaVuSans-Bold-69" x="183.818359"/>
    <use xlink:href="#DejaVuSans-Bold-68" x="218.095703"/>
    <use xlink:href="#DejaVuSans-Bold-61" x="289.287109"/>
    <use xlink:href="#DejaVuSans-Bold-74" x="356.767578"/>
    <use xlink:href="#DejaVuSans-Bold-61" x="404.570312"/>
    <use xlink:href="#DejaVuSans-Bold-32" x="472.050781"/>
    <use xlink:href="#DejaVuSans-Bold-30" x="541.630859"/>
    <use xlink:href="#DejaVuSans-Bold-32" x="611.210938"/>
    <use xlink:href="#DejaVuSans-Bold-32" x="680.791016"/>
   </g>
  </g>
 </g>
 <defs>
  <clipPath id="pe7c77defa1">
   <rect x="64.251875" y="79.2" width="390.6" height="241.043478"/>
  </clipPath>
  <clipPath id="pf9a35bb273">
   <rect x="64.251875" y="392.556522" width="390.6" height="241.043478"/>
  </clipPath>
 </defs>
</svg>
