<?xml version="1.0" encoding="utf-8" standalone="no"?>
<!DOCTYPE svg PUBLIC "-//W3C//DTD SVG 1.1//EN"
  "http://www.w3.org/Graphics/SVG/1.1/DTD/svg11.dtd">
<svg xmlns:xlink="http://www.w3.org/1999/xlink" width="486.994812pt" height="996.937813pt" viewBox="0 0 486.994812 996.937813" xmlns="http://www.w3.org/2000/svg" version="1.1">
 <metadata>
  <rdf:RDF xmlns:dc="http://purl.org/dc/elements/1.1/" xmlns:cc="http://creativecommons.org/ns#" xmlns:rdf="http://www.w3.org/1999/02/22-rdf-syntax-ns#">
   <cc:Work>
    <dc:type rdf:resource="http://purl.org/dc/dcmitype/StillImage"/>
    <dc:date>2025-03-07T00:13:19.393478</dc:date>
    <dc:format>image/svg+xml</dc:format>
    <dc:creator>
     <cc:Agent>
      <dc:title>Matplotlib v3.9.1, https://matplotlib.org/</dc:title>
     </cc:Agent>
    </dc:creator>
   </cc:Work>
  </rdf:RDF>
 </metadata>
 <defs>
  <style type="text/css">*{stroke-linejoin: round; stroke-linecap: butt}</style>
 </defs>
 <g id="figure_1">
  <g id="patch_1">
   <path d="M 0 996.937813 
L 486.994812 996.937813 
L 486.994812 0 
L 0 0 
z
" style="fill: #ffffff"/>
  </g>
  <g id="axes_1">
   <g id="patch_2">
    <path d="M 89.194813 346.2 
L 479.794813 346.2 
L 479.794813 115.2 
L 89.194813 115.2 
z
" style="fill: #ffffff"/>
   </g>
   <g id="matplotlib.axis_1">
    <g id="xtick_1">
     <g id="line2d_1">
      <defs>
       <path id="m81d77c5f4b" d="M 0 0 
L 0 3.5 
" style="stroke: #000000; stroke-width: 0.8"/>
      </defs>
      <g>
       <use xlink:href="#m81d77c5f4b" x="106.949358" y="346.2" style="stroke: #000000; stroke-width: 0.8"/>
      </g>
     </g>
     <g id="text_1">
      <!-- 0 -->
      <g transform="translate(102.177483 364.597656) scale(0.15 -0.15)">
       <defs>
        <path id="DejaVuSans-30" d="M 2034 4250 
Q 1547 4250 1301 3770 
Q 1056 3291 1056 2328 
Q 1056 1369 1301 889 
Q 1547 409 2034 409 
Q 2525 409 2770 889 
Q 3016 1369 3016 2328 
Q 3016 3291 2770 3770 
Q 2525 4250 2034 4250 
z
M 2034 4750 
Q 2819 4750 3233 4129 
Q 3647 3509 3647 2328 
Q 3647 1150 3233 529 
Q 2819 -91 2034 -91 
Q 1250 -91 836 529 
Q 422 1150 422 2328 
Q 422 3509 836 4129 
Q 1250 4750 2034 4750 
z
" transform="scale(0.015625)"/>
       </defs>
       <use xlink:href="#DejaVuSans-30"/>
      </g>
     </g>
    </g>
    <g id="xtick_2">
     <g id="line2d_2">
      <g>
       <use xlink:href="#m81d77c5f4b" x="189.146328" y="346.2" style="stroke: #000000; stroke-width: 0.8"/>
      </g>
     </g>
     <g id="text_2">
      <!-- 200 -->
      <g transform="translate(174.830703 364.597656) scale(0.15 -0.15)">
       <defs>
        <path id="DejaVuSans-32" d="M 1228 531 
L 3431 531 
L 3431 0 
L 469 0 
L 469 531 
Q 828 903 1448 1529 
Q 2069 2156 2228 2338 
Q 2531 2678 2651 2914 
Q 2772 3150 2772 3378 
Q 2772 3750 2511 3984 
Q 2250 4219 1831 4219 
Q 1534 4219 1204 4116 
Q 875 4013 500 3803 
L 500 4441 
Q 881 4594 1212 4672 
Q 1544 4750 1819 4750 
Q 2544 4750 2975 4387 
Q 3406 4025 3406 3419 
Q 3406 3131 3298 2873 
Q 3191 2616 2906 2266 
Q 2828 2175 2409 1742 
Q 1991 1309 1228 531 
z
" transform="scale(0.015625)"/>
       </defs>
       <use xlink:href="#DejaVuSans-32"/>
       <use xlink:href="#DejaVuSans-30" x="63.623047"/>
       <use xlink:href="#DejaVuSans-30" x="127.246094"/>
      </g>
     </g>
    </g>
    <g id="xtick_3">
     <g id="line2d_3">
      <g>
       <use xlink:href="#m81d77c5f4b" x="271.343297" y="346.2" style="stroke: #000000; stroke-width: 0.8"/>
      </g>
     </g>
     <g id="text_3">
      <!-- 400 -->
      <g transform="translate(257.027672 364.597656) scale(0.15 -0.15)">
       <defs>
        <path id="DejaVuSans-34" d="M 2419 4116 
L 825 1625 
L 2419 1625 
L 2419 4116 
z
M 2253 4666 
L 3047 4666 
L 3047 1625 
L 3713 1625 
L 3713 1100 
L 3047 1100 
L 3047 0 
L 2419 0 
L 2419 1100 
L 313 1100 
L 313 1709 
L 2253 4666 
z
" transform="scale(0.015625)"/>
       </defs>
       <use xlink:href="#DejaVuSans-34"/>
       <use xlink:href="#DejaVuSans-30" x="63.623047"/>
       <use xlink:href="#DejaVuSans-30" x="127.246094"/>
      </g>
     </g>
    </g>
    <g id="xtick_4">
     <g id="line2d_4">
      <g>
       <use xlink:href="#m81d77c5f4b" x="353.540267" y="346.2" style="stroke: #000000; stroke-width: 0.8"/>
      </g>
     </g>
     <g id="text_4">
      <!-- 600 -->
      <g transform="translate(339.224642 364.597656) scale(0.15 -0.15)">
       <defs>
        <path id="DejaVuSans-36" d="M 2113 2584 
Q 1688 2584 1439 2293 
Q 1191 2003 1191 1497 
Q 1191 994 1439 701 
Q 1688 409 2113 409 
Q 2538 409 2786 701 
Q 3034 994 3034 1497 
Q 3034 2003 2786 2293 
Q 2538 2584 2113 2584 
z
M 3366 4563 
L 3366 3988 
Q 3128 4100 2886 4159 
Q 2644 4219 2406 4219 
Q 1781 4219 1451 3797 
Q 1122 3375 1075 2522 
Q 1259 2794 1537 2939 
Q 1816 3084 2150 3084 
Q 2853 3084 3261 2657 
Q 3669 2231 3669 1497 
Q 3669 778 3244 343 
Q 2819 -91 2113 -91 
Q 1303 -91 875 529 
Q 447 1150 447 2328 
Q 447 3434 972 4092 
Q 1497 4750 2381 4750 
Q 2619 4750 2861 4703 
Q 3103 4656 3366 4563 
z
" transform="scale(0.015625)"/>
       </defs>
       <use xlink:href="#DejaVuSans-36"/>
       <use xlink:href="#DejaVuSans-30" x="63.623047"/>
       <use xlink:href="#DejaVuSans-30" x="127.246094"/>
      </g>
     </g>
    </g>
    <g id="xtick_5">
     <g id="line2d_5">
      <g>
       <use xlink:href="#m81d77c5f4b" x="435.737237" y="346.2" style="stroke: #000000; stroke-width: 0.8"/>
      </g>
     </g>
     <g id="text_5">
      <!-- 800 -->
      <g transform="translate(421.421612 364.597656) scale(0.15 -0.15)">
       <defs>
        <path id="DejaVuSans-38" d="M 2034 2216 
Q 1584 2216 1326 1975 
Q 1069 1734 1069 1313 
Q 1069 891 1326 650 
Q 1584 409 2034 409 
Q 2484 409 2743 651 
Q 3003 894 3003 1313 
Q 3003 1734 2745 1975 
Q 2488 2216 2034 2216 
z
M 1403 2484 
Q 997 2584 770 2862 
Q 544 3141 544 3541 
Q 544 4100 942 4425 
Q 1341 4750 2034 4750 
Q 2731 4750 3128 4425 
Q 3525 4100 3525 3541 
Q 3525 3141 3298 2862 
Q 3072 2584 2669 2484 
Q 3125 2378 3379 2068 
Q 3634 1759 3634 1313 
Q 3634 634 3220 271 
Q 2806 -91 2034 -91 
Q 1263 -91 848 271 
Q 434 634 434 1313 
Q 434 1759 690 2068 
Q 947 2378 1403 2484 
z
M 1172 3481 
Q 1172 3119 1398 2916 
Q 1625 2713 2034 2713 
Q 2441 2713 2670 2916 
Q 2900 3119 2900 3481 
Q 2900 3844 2670 4047 
Q 2441 4250 2034 4250 
Q 1625 4250 1398 4047 
Q 1172 3844 1172 3481 
z
" transform="scale(0.015625)"/>
       </defs>
       <use xlink:href="#DejaVuSans-38"/>
       <use xlink:href="#DejaVuSans-30" x="63.623047"/>
       <use xlink:href="#DejaVuSans-30" x="127.246094"/>
      </g>
     </g>
    </g>
    <g id="text_6">
     <!-- time [hr] -->
     <g transform="translate(239.420281 385.394375) scale(0.18 -0.18)">
      <defs>
       <path id="DejaVuSans-Bold-74" d="M 1759 4494 
L 1759 3500 
L 2913 3500 
L 2913 2700 
L 1759 2700 
L 1759 1216 
Q 1759 972 1856 886 
Q 1953 800 2241 800 
L 2816 800 
L 2816 0 
L 1856 0 
Q 1194 0 917 276 
Q 641 553 641 1216 
L 641 2700 
L 84 2700 
L 84 3500 
L 641 3500 
L 641 4494 
L 1759 4494 
z
" transform="scale(0.015625)"/>
       <path id="DejaVuSans-Bold-69" d="M 538 3500 
L 1656 3500 
L 1656 0 
L 538 0 
L 538 3500 
z
M 538 4863 
L 1656 4863 
L 1656 3950 
L 538 3950 
L 538 4863 
z
" transform="scale(0.015625)"/>
       <path id="DejaVuSans-Bold-6d" d="M 3781 2919 
Q 3994 3244 4286 3414 
Q 4578 3584 4928 3584 
Q 5531 3584 5847 3212 
Q 6163 2841 6163 2131 
L 6163 0 
L 5038 0 
L 5038 1825 
Q 5041 1866 5042 1909 
Q 5044 1953 5044 2034 
Q 5044 2406 4934 2573 
Q 4825 2741 4581 2741 
Q 4263 2741 4089 2478 
Q 3916 2216 3909 1719 
L 3909 0 
L 2784 0 
L 2784 1825 
Q 2784 2406 2684 2573 
Q 2584 2741 2328 2741 
Q 2006 2741 1831 2477 
Q 1656 2213 1656 1722 
L 1656 0 
L 531 0 
L 531 3500 
L 1656 3500 
L 1656 2988 
Q 1863 3284 2130 3434 
Q 2397 3584 2719 3584 
Q 3081 3584 3359 3409 
Q 3638 3234 3781 2919 
z
" transform="scale(0.015625)"/>
       <path id="DejaVuSans-Bold-65" d="M 4031 1759 
L 4031 1441 
L 1416 1441 
Q 1456 1047 1700 850 
Q 1944 653 2381 653 
Q 2734 653 3104 758 
Q 3475 863 3866 1075 
L 3866 213 
Q 3469 63 3072 -14 
Q 2675 -91 2278 -91 
Q 1328 -91 801 392 
Q 275 875 275 1747 
Q 275 2603 792 3093 
Q 1309 3584 2216 3584 
Q 3041 3584 3536 3087 
Q 4031 2591 4031 1759 
z
M 2881 2131 
Q 2881 2450 2695 2645 
Q 2509 2841 2209 2841 
Q 1884 2841 1681 2658 
Q 1478 2475 1428 2131 
L 2881 2131 
z
" transform="scale(0.015625)"/>
       <path id="DejaVuSans-Bold-20" transform="scale(0.015625)"/>
       <path id="DejaVuSans-Bold-5b" d="M 550 4863 
L 2491 4863 
L 2491 4159 
L 1613 4159 
L 1613 -141 
L 2491 -141 
L 2491 -844 
L 550 -844 
L 550 4863 
z
" transform="scale(0.015625)"/>
       <path id="DejaVuSans-Bold-68" d="M 4056 2131 
L 4056 0 
L 2931 0 
L 2931 347 
L 2931 1625 
Q 2931 2084 2911 2256 
Q 2891 2428 2841 2509 
Q 2775 2619 2662 2680 
Q 2550 2741 2406 2741 
Q 2056 2741 1856 2470 
Q 1656 2200 1656 1722 
L 1656 0 
L 538 0 
L 538 4863 
L 1656 4863 
L 1656 2988 
Q 1909 3294 2193 3439 
Q 2478 3584 2822 3584 
Q 3428 3584 3742 3212 
Q 4056 2841 4056 2131 
z
" transform="scale(0.015625)"/>
       <path id="DejaVuSans-Bold-72" d="M 3138 2547 
Q 2991 2616 2845 2648 
Q 2700 2681 2553 2681 
Q 2122 2681 1889 2404 
Q 1656 2128 1656 1613 
L 1656 0 
L 538 0 
L 538 3500 
L 1656 3500 
L 1656 2925 
Q 1872 3269 2151 3426 
Q 2431 3584 2822 3584 
Q 2878 3584 2943 3579 
Q 3009 3575 3134 3559 
L 3138 2547 
z
" transform="scale(0.015625)"/>
       <path id="DejaVuSans-Bold-5d" d="M 2375 -844 
L 434 -844 
L 434 -141 
L 1313 -141 
L 1313 4159 
L 434 4159 
L 434 4863 
L 2375 4863 
L 2375 -844 
z
" transform="scale(0.015625)"/>
      </defs>
      <use xlink:href="#DejaVuSans-Bold-74"/>
      <use xlink:href="#DejaVuSans-Bold-69" x="47.802734"/>
      <use xlink:href="#DejaVuSans-Bold-6d" x="82.080078"/>
      <use xlink:href="#DejaVuSans-Bold-65" x="186.279297"/>
      <use xlink:href="#DejaVuSans-Bold-20" x="254.101562"/>
      <use xlink:href="#DejaVuSans-Bold-5b" x="288.916016"/>
      <use xlink:href="#DejaVuSans-Bold-68" x="334.619141"/>
      <use xlink:href="#DejaVuSans-Bold-72" x="405.810547"/>
      <use xlink:href="#DejaVuSans-Bold-5d" x="455.126953"/>
     </g>
    </g>
   </g>
   <g id="matplotlib.axis_2">
    <g id="ytick_1">
     <g id="line2d_6">
      <defs>
       <path id="md2fa9a3c7f" d="M 0 0 
L -3.5 0 
" style="stroke: #000000; stroke-width: 0.8"/>
      </defs>
      <g>
       <use xlink:href="#md2fa9a3c7f" x="89.194813" y="335.7" style="stroke: #000000; stroke-width: 0.8"/>
      </g>
     </g>
     <g id="text_7">
      <!-- 0 -->
      <g transform="translate(72.651063 341.398828) scale(0.15 -0.15)">
       <use xlink:href="#DejaVuSans-30"/>
      </g>
     </g>
    </g>
    <g id="ytick_2">
     <g id="line2d_7">
      <g>
       <use xlink:href="#md2fa9a3c7f" x="89.194813" y="292.11675" style="stroke: #000000; stroke-width: 0.8"/>
      </g>
     </g>
     <g id="text_8">
      <!-- 20 -->
      <g transform="translate(63.107313 297.815578) scale(0.15 -0.15)">
       <use xlink:href="#DejaVuSans-32"/>
       <use xlink:href="#DejaVuSans-30" x="63.623047"/>
      </g>
     </g>
    </g>
    <g id="ytick_3">
     <g id="line2d_8">
      <g>
       <use xlink:href="#md2fa9a3c7f" x="89.194813" y="248.5335" style="stroke: #000000; stroke-width: 0.8"/>
      </g>
     </g>
     <g id="text_9">
      <!-- 40 -->
      <g transform="translate(63.107313 254.232328) scale(0.15 -0.15)">
       <use xlink:href="#DejaVuSans-34"/>
       <use xlink:href="#DejaVuSans-30" x="63.623047"/>
      </g>
     </g>
    </g>
    <g id="ytick_4">
     <g id="line2d_9">
      <g>
       <use xlink:href="#md2fa9a3c7f" x="89.194813" y="204.950249" style="stroke: #000000; stroke-width: 0.8"/>
      </g>
     </g>
     <g id="text_10">
      <!-- 60 -->
      <g transform="translate(63.107313 210.649077) scale(0.15 -0.15)">
       <use xlink:href="#DejaVuSans-36"/>
       <use xlink:href="#DejaVuSans-30" x="63.623047"/>
      </g>
     </g>
    </g>
    <g id="ytick_5">
     <g id="line2d_10">
      <g>
       <use xlink:href="#md2fa9a3c7f" x="89.194813" y="161.366999" style="stroke: #000000; stroke-width: 0.8"/>
      </g>
     </g>
     <g id="text_11">
      <!-- 80 -->
      <g transform="translate(63.107313 167.065827) scale(0.15 -0.15)">
       <use xlink:href="#DejaVuSans-38"/>
       <use xlink:href="#DejaVuSans-30" x="63.623047"/>
      </g>
     </g>
    </g>
    <g id="ytick_6">
     <g id="line2d_11">
      <g>
       <use xlink:href="#md2fa9a3c7f" x="89.194813" y="117.783749" style="stroke: #000000; stroke-width: 0.8"/>
      </g>
     </g>
     <g id="text_12">
      <!-- 100 -->
      <g transform="translate(53.563563 123.482577) scale(0.15 -0.15)">
       <defs>
        <path id="DejaVuSans-31" d="M 794 531 
L 1825 531 
L 1825 4091 
L 703 3866 
L 703 4441 
L 1819 4666 
L 2450 4666 
L 2450 531 
L 3481 531 
L 3481 0 
L 794 0 
L 794 531 
z
" transform="scale(0.015625)"/>
       </defs>
       <use xlink:href="#DejaVuSans-31"/>
       <use xlink:href="#DejaVuSans-30" x="63.623047"/>
       <use xlink:href="#DejaVuSans-30" x="127.246094"/>
      </g>
     </g>
    </g>
    <g id="text_13">
     <!-- tirzepatide [nM] -->
     <g transform="translate(45.820125 313.040156) rotate(-90) scale(0.18 -0.18)">
      <defs>
       <path id="DejaVuSans-Bold-7a" d="M 366 3500 
L 3419 3500 
L 3419 2719 
L 1575 800 
L 3419 800 
L 3419 0 
L 288 0 
L 288 781 
L 2131 2700 
L 366 2700 
L 366 3500 
z
" transform="scale(0.015625)"/>
       <path id="DejaVuSans-Bold-70" d="M 1656 506 
L 1656 -1331 
L 538 -1331 
L 538 3500 
L 1656 3500 
L 1656 2988 
Q 1888 3294 2169 3439 
Q 2450 3584 2816 3584 
Q 3463 3584 3878 3070 
Q 4294 2556 4294 1747 
Q 4294 938 3878 423 
Q 3463 -91 2816 -91 
Q 2450 -91 2169 54 
Q 1888 200 1656 506 
z
M 2400 2772 
Q 2041 2772 1848 2508 
Q 1656 2244 1656 1747 
Q 1656 1250 1848 986 
Q 2041 722 2400 722 
Q 2759 722 2948 984 
Q 3138 1247 3138 1747 
Q 3138 2247 2948 2509 
Q 2759 2772 2400 2772 
z
" transform="scale(0.015625)"/>
       <path id="DejaVuSans-Bold-61" d="M 2106 1575 
Q 1756 1575 1579 1456 
Q 1403 1338 1403 1106 
Q 1403 894 1545 773 
Q 1688 653 1941 653 
Q 2256 653 2472 879 
Q 2688 1106 2688 1447 
L 2688 1575 
L 2106 1575 
z
M 3816 1997 
L 3816 0 
L 2688 0 
L 2688 519 
Q 2463 200 2181 54 
Q 1900 -91 1497 -91 
Q 953 -91 614 226 
Q 275 544 275 1050 
Q 275 1666 698 1953 
Q 1122 2241 2028 2241 
L 2688 2241 
L 2688 2328 
Q 2688 2594 2478 2717 
Q 2269 2841 1825 2841 
Q 1466 2841 1156 2769 
Q 847 2697 581 2553 
L 581 3406 
Q 941 3494 1303 3539 
Q 1666 3584 2028 3584 
Q 2975 3584 3395 3211 
Q 3816 2838 3816 1997 
z
" transform="scale(0.015625)"/>
       <path id="DejaVuSans-Bold-64" d="M 2919 2988 
L 2919 4863 
L 4044 4863 
L 4044 0 
L 2919 0 
L 2919 506 
Q 2688 197 2409 53 
Q 2131 -91 1766 -91 
Q 1119 -91 703 423 
Q 288 938 288 1747 
Q 288 2556 703 3070 
Q 1119 3584 1766 3584 
Q 2128 3584 2408 3439 
Q 2688 3294 2919 2988 
z
M 2181 722 
Q 2541 722 2730 984 
Q 2919 1247 2919 1747 
Q 2919 2247 2730 2509 
Q 2541 2772 2181 2772 
Q 1825 2772 1636 2509 
Q 1447 2247 1447 1747 
Q 1447 1247 1636 984 
Q 1825 722 2181 722 
z
" transform="scale(0.015625)"/>
       <path id="DejaVuSans-Bold-6e" d="M 4056 2131 
L 4056 0 
L 2931 0 
L 2931 347 
L 2931 1631 
Q 2931 2084 2911 2256 
Q 2891 2428 2841 2509 
Q 2775 2619 2662 2680 
Q 2550 2741 2406 2741 
Q 2056 2741 1856 2470 
Q 1656 2200 1656 1722 
L 1656 0 
L 538 0 
L 538 3500 
L 1656 3500 
L 1656 2988 
Q 1909 3294 2193 3439 
Q 2478 3584 2822 3584 
Q 3428 3584 3742 3212 
Q 4056 2841 4056 2131 
z
" transform="scale(0.015625)"/>
       <path id="DejaVuSans-Bold-4d" d="M 588 4666 
L 2119 4666 
L 3181 2169 
L 4250 4666 
L 5778 4666 
L 5778 0 
L 4641 0 
L 4641 3413 
L 3566 897 
L 2803 897 
L 1728 3413 
L 1728 0 
L 588 0 
L 588 4666 
z
" transform="scale(0.015625)"/>
      </defs>
      <use xlink:href="#DejaVuSans-Bold-74"/>
      <use xlink:href="#DejaVuSans-Bold-69" x="47.802734"/>
      <use xlink:href="#DejaVuSans-Bold-72" x="82.080078"/>
      <use xlink:href="#DejaVuSans-Bold-7a" x="131.396484"/>
      <use xlink:href="#DejaVuSans-Bold-65" x="189.599609"/>
      <use xlink:href="#DejaVuSans-Bold-70" x="257.421875"/>
      <use xlink:href="#DejaVuSans-Bold-61" x="329.003906"/>
      <use xlink:href="#DejaVuSans-Bold-74" x="396.484375"/>
      <use xlink:href="#DejaVuSans-Bold-69" x="444.287109"/>
      <use xlink:href="#DejaVuSans-Bold-64" x="478.564453"/>
      <use xlink:href="#DejaVuSans-Bold-65" x="550.146484"/>
      <use xlink:href="#DejaVuSans-Bold-20" x="617.96875"/>
      <use xlink:href="#DejaVuSans-Bold-5b" x="652.783203"/>
      <use xlink:href="#DejaVuSans-Bold-6e" x="698.486328"/>
      <use xlink:href="#DejaVuSans-Bold-4d" x="769.677734"/>
      <use xlink:href="#DejaVuSans-Bold-5d" x="869.189453"/>
     </g>
    </g>
   </g>
   <g id="LineCollection_1">
    <path d="M 110.237237 283.301608 
L 110.237237 132.387599 
" clip-path="url(#pfefb196464)" style="fill: none; stroke: #000000"/>
    <path d="M 116.812994 241.161702 
L 116.812994 125.7 
" clip-path="url(#pfefb196464)" style="fill: none; stroke: #000000"/>
    <path d="M 126.676631 243.459731 
L 126.676631 166.917957 
" clip-path="url(#pfefb196464)" style="fill: none; stroke: #000000"/>
    <path d="M 136.540267 244.280743 
L 136.540267 203.394861 
" clip-path="url(#pfefb196464)" style="fill: none; stroke: #000000"/>
    <path d="M 146.403903 248.625018 
L 146.403903 194.403475 
" clip-path="url(#pfefb196464)" style="fill: none; stroke: #000000"/>
    <path clip-path="url(#pfefb196464)" style="fill: none; stroke: #000000"/>
    <path d="M 166.131176 264.806294 
L 166.131176 220.660823 
" clip-path="url(#pfefb196464)" style="fill: none; stroke: #000000"/>
    <path d="M 175.994813 277.724755 
L 175.994813 215.232433 
" clip-path="url(#pfefb196464)" style="fill: none; stroke: #000000"/>
    <path d="M 205.585722 289.848966 
L 205.585722 251.801381 
" clip-path="url(#pfefb196464)" style="fill: none; stroke: #000000"/>
    <path d="M 225.312994 302.225436 
L 225.312994 261.342216 
" clip-path="url(#pfefb196464)" style="fill: none; stroke: #000000"/>
    <path d="M 245.040267 309.18956 
L 245.040267 272.593127 
" clip-path="url(#pfefb196464)" style="fill: none; stroke: #000000"/>
    <path d="M 323.949358 322.428219 
L 323.949358 306.219101 
" clip-path="url(#pfefb196464)" style="fill: none; stroke: #000000"/>
    <path d="M 392.994813 328.65939 
L 392.994813 317.689874 
" clip-path="url(#pfefb196464)" style="fill: none; stroke: #000000"/>
    <path d="M 462.040267 332.616069 
L 462.040267 327.196183 
" clip-path="url(#pfefb196464)" style="fill: none; stroke: #000000"/>
   </g>
   <g id="line2d_12">
    <path d="M 106.949358 335.7 
L 108.902358 312.907544 
L 110.855358 292.562264 
L 112.808358 274.640083 
L 114.583813 260.342705 
L 116.359267 247.811101 
L 118.134722 236.904238 
L 119.732631 228.361104 
L 121.33054 220.921943 
L 122.928449 214.493838 
L 124.526358 208.989834 
L 126.124267 204.329056 
L 127.544631 200.833335 
L 128.964994 197.895741 
L 130.385358 195.470795 
L 131.805722 193.516199 
L 133.04854 192.160783 
L 134.291358 191.110756 
L 135.534176 190.343086 
L 136.776994 189.836195 
L 138.019813 189.569875 
L 139.262631 189.525206 
L 140.505449 189.684479 
L 141.925813 190.095027 
L 143.346176 190.727317 
L 144.944085 191.677205 
L 146.71954 192.99624 
L 148.67254 194.727445 
L 150.980631 197.096534 
L 153.466267 199.972678 
L 156.48454 203.824203 
L 160.035449 208.7298 
L 164.829176 215.765928 
L 174.771722 230.890435 
L 182.228631 241.998091 
L 187.910085 250.066358 
L 193.058903 256.998054 
L 197.852631 263.092179 
L 202.646358 268.82415 
L 207.26254 273.997563 
L 211.878722 278.83436 
L 216.494903 283.342535 
L 221.111085 287.533508 
L 225.727267 291.42102 
L 230.343449 295.020278 
L 235.137176 298.470057 
L 239.930903 301.644582 
L 244.902176 304.665471 
L 249.873449 307.429918 
L 255.022267 310.043277 
L 260.348631 312.500701 
L 265.85254 314.799533 
L 271.71154 317.002428 
L 277.748085 319.033976 
L 284.139722 320.948633 
L 290.886449 322.73454 
L 297.988267 324.383752 
L 305.622722 325.925367 
L 313.789813 327.344299 
L 322.667085 328.655186 
L 332.25454 329.841838 
L 342.729722 330.911752 
L 354.447722 331.87927 
L 367.586085 332.733904 
L 382.499903 333.475043 
L 399.899358 334.109219 
L 420.672176 334.634344 
L 446.238722 335.049203 
L 462.040267 335.220192 
L 462.040267 335.220192 
" clip-path="url(#pfefb196464)" style="fill: none; stroke: #000000; stroke-width: 2; stroke-linecap: square"/>
   </g>
   <g id="line2d_13">
    <path d="M 110.237237 207.844603 
L 116.812994 183.430851 
L 126.676631 205.188844 
L 136.540267 223.837802 
L 146.403903 221.514247 
L 156.26754 227.234782 
L 166.131176 242.733559 
L 175.994813 246.478594 
L 205.585722 270.825174 
L 225.312994 281.783826 
L 245.040267 290.891344 
L 323.949358 314.32366 
L 392.994813 323.174632 
L 462.040267 329.906126 
" clip-path="url(#pfefb196464)" style="fill: none; stroke-dasharray: 3.7,1.6; stroke-dashoffset: 0; stroke: #000000"/>
    <defs>
     <path id="m1f382fd108" d="M -3 3 
L 3 3 
L 3 -3 
L -3 -3 
z
" style="stroke: #000000; stroke-linejoin: miter"/>
    </defs>
    <g clip-path="url(#pfefb196464)">
     <use xlink:href="#m1f382fd108" x="110.237237" y="207.844603" style="stroke: #000000; stroke-linejoin: miter"/>
     <use xlink:href="#m1f382fd108" x="116.812994" y="183.430851" style="stroke: #000000; stroke-linejoin: miter"/>
     <use xlink:href="#m1f382fd108" x="126.676631" y="205.188844" style="stroke: #000000; stroke-linejoin: miter"/>
     <use xlink:href="#m1f382fd108" x="136.540267" y="223.837802" style="stroke: #000000; stroke-linejoin: miter"/>
     <use xlink:href="#m1f382fd108" x="146.403903" y="221.514247" style="stroke: #000000; stroke-linejoin: miter"/>
     <use xlink:href="#m1f382fd108" x="156.26754" y="227.234782" style="stroke: #000000; stroke-linejoin: miter"/>
     <use xlink:href="#m1f382fd108" x="166.131176" y="242.733559" style="stroke: #000000; stroke-linejoin: miter"/>
     <use xlink:href="#m1f382fd108" x="175.994813" y="246.478594" style="stroke: #000000; stroke-linejoin: miter"/>
     <use xlink:href="#m1f382fd108" x="205.585722" y="270.825174" style="stroke: #000000; stroke-linejoin: miter"/>
     <use xlink:href="#m1f382fd108" x="225.312994" y="281.783826" style="stroke: #000000; stroke-linejoin: miter"/>
     <use xlink:href="#m1f382fd108" x="245.040267" y="290.891344" style="stroke: #000000; stroke-linejoin: miter"/>
     <use xlink:href="#m1f382fd108" x="323.949358" y="314.32366" style="stroke: #000000; stroke-linejoin: miter"/>
     <use xlink:href="#m1f382fd108" x="392.994813" y="323.174632" style="stroke: #000000; stroke-linejoin: miter"/>
     <use xlink:href="#m1f382fd108" x="462.040267" y="329.906126" style="stroke: #000000; stroke-linejoin: miter"/>
    </g>
   </g>
   <g id="patch_3">
    <path d="M 89.194813 346.2 
L 89.194813 115.2 
" style="fill: none; stroke: #000000; stroke-width: 0.8; stroke-linejoin: miter; stroke-linecap: square"/>
   </g>
   <g id="patch_4">
    <path d="M 479.794813 346.2 
L 479.794813 115.2 
" style="fill: none; stroke: #000000; stroke-width: 0.8; stroke-linejoin: miter; stroke-linecap: square"/>
   </g>
   <g id="patch_5">
    <path d="M 89.194813 346.2 
L 479.794813 346.2 
" style="fill: none; stroke: #000000; stroke-width: 0.8; stroke-linejoin: miter; stroke-linecap: square"/>
   </g>
   <g id="patch_6">
    <path d="M 89.194813 115.2 
L 479.794813 115.2 
" style="fill: none; stroke: #000000; stroke-width: 0.8; stroke-linejoin: miter; stroke-linecap: square"/>
   </g>
   <g id="legend_1">
    <g id="patch_7">
     <path d="M 277.885438 152.55625 
L 472.794813 152.55625 
Q 474.794813 152.55625 474.794813 150.55625 
L 474.794813 122.2 
Q 474.794813 120.2 472.794813 120.2 
L 277.885438 120.2 
Q 275.885438 120.2 275.885438 122.2 
L 275.885438 150.55625 
Q 275.885438 152.55625 277.885438 152.55625 
z
" style="fill: #ffffff; opacity: 0.8; stroke: #cccccc; stroke-linejoin: miter"/>
    </g>
    <g id="line2d_14">
     <path d="M 279.885438 128.298438 
L 299.885438 128.298438 
" style="fill: none; stroke: #000000; stroke-width: 2; stroke-linecap: square"/>
    </g>
    <g id="line2d_15"/>
    <g id="text_14">
     <!-- Sim -->
     <g transform="translate(307.885438 131.798438) scale(0.1 -0.1)">
      <defs>
       <path id="DejaVuSans-53" d="M 3425 4513 
L 3425 3897 
Q 3066 4069 2747 4153 
Q 2428 4238 2131 4238 
Q 1616 4238 1336 4038 
Q 1056 3838 1056 3469 
Q 1056 3159 1242 3001 
Q 1428 2844 1947 2747 
L 2328 2669 
Q 3034 2534 3370 2195 
Q 3706 1856 3706 1288 
Q 3706 609 3251 259 
Q 2797 -91 1919 -91 
Q 1588 -91 1214 -16 
Q 841 59 441 206 
L 441 856 
Q 825 641 1194 531 
Q 1563 422 1919 422 
Q 2459 422 2753 634 
Q 3047 847 3047 1241 
Q 3047 1584 2836 1778 
Q 2625 1972 2144 2069 
L 1759 2144 
Q 1053 2284 737 2584 
Q 422 2884 422 3419 
Q 422 4038 858 4394 
Q 1294 4750 2059 4750 
Q 2388 4750 2728 4690 
Q 3069 4631 3425 4513 
z
" transform="scale(0.015625)"/>
       <path id="DejaVuSans-69" d="M 603 3500 
L 1178 3500 
L 1178 0 
L 603 0 
L 603 3500 
z
M 603 4863 
L 1178 4863 
L 1178 4134 
L 603 4134 
L 603 4863 
z
" transform="scale(0.015625)"/>
       <path id="DejaVuSans-6d" d="M 3328 2828 
Q 3544 3216 3844 3400 
Q 4144 3584 4550 3584 
Q 5097 3584 5394 3201 
Q 5691 2819 5691 2113 
L 5691 0 
L 5113 0 
L 5113 2094 
Q 5113 2597 4934 2840 
Q 4756 3084 4391 3084 
Q 3944 3084 3684 2787 
Q 3425 2491 3425 1978 
L 3425 0 
L 2847 0 
L 2847 2094 
Q 2847 2600 2669 2842 
Q 2491 3084 2119 3084 
Q 1678 3084 1418 2786 
Q 1159 2488 1159 1978 
L 1159 0 
L 581 0 
L 581 3500 
L 1159 3500 
L 1159 2956 
Q 1356 3278 1631 3431 
Q 1906 3584 2284 3584 
Q 2666 3584 2933 3390 
Q 3200 3197 3328 2828 
z
" transform="scale(0.015625)"/>
      </defs>
      <use xlink:href="#DejaVuSans-53"/>
      <use xlink:href="#DejaVuSans-69" x="63.476562"/>
      <use xlink:href="#DejaVuSans-6d" x="91.259766"/>
     </g>
    </g>
    <g id="LineCollection_2">
     <path d="M 289.885438 147.976563 
L 289.885438 137.976563 
" style="fill: none; stroke: #000000"/>
    </g>
    <g id="line2d_16">
     <path d="M 279.885438 142.976563 
L 299.885438 142.976563 
" style="fill: none; stroke-dasharray: 3.7,1.6; stroke-dashoffset: 0; stroke: #000000"/>
    </g>
    <g id="line2d_17">
     <g>
      <use xlink:href="#m1f382fd108" x="289.885438" y="142.976563" style="stroke: #000000; stroke-linejoin: miter"/>
     </g>
    </g>
    <g id="text_15">
     <!-- Data TIRC14 (2.9 mg)±SD (n=6) -->
     <g transform="translate(307.885438 146.476563) scale(0.1 -0.1)">
      <defs>
       <path id="DejaVuSans-44" d="M 1259 4147 
L 1259 519 
L 2022 519 
Q 2988 519 3436 956 
Q 3884 1394 3884 2338 
Q 3884 3275 3436 3711 
Q 2988 4147 2022 4147 
L 1259 4147 
z
M 628 4666 
L 1925 4666 
Q 3281 4666 3915 4102 
Q 4550 3538 4550 2338 
Q 4550 1131 3912 565 
Q 3275 0 1925 0 
L 628 0 
L 628 4666 
z
" transform="scale(0.015625)"/>
       <path id="DejaVuSans-61" d="M 2194 1759 
Q 1497 1759 1228 1600 
Q 959 1441 959 1056 
Q 959 750 1161 570 
Q 1363 391 1709 391 
Q 2188 391 2477 730 
Q 2766 1069 2766 1631 
L 2766 1759 
L 2194 1759 
z
M 3341 1997 
L 3341 0 
L 2766 0 
L 2766 531 
Q 2569 213 2275 61 
Q 1981 -91 1556 -91 
Q 1019 -91 701 211 
Q 384 513 384 1019 
Q 384 1609 779 1909 
Q 1175 2209 1959 2209 
L 2766 2209 
L 2766 2266 
Q 2766 2663 2505 2880 
Q 2244 3097 1772 3097 
Q 1472 3097 1187 3025 
Q 903 2953 641 2809 
L 641 3341 
Q 956 3463 1253 3523 
Q 1550 3584 1831 3584 
Q 2591 3584 2966 3190 
Q 3341 2797 3341 1997 
z
" transform="scale(0.015625)"/>
       <path id="DejaVuSans-74" d="M 1172 4494 
L 1172 3500 
L 2356 3500 
L 2356 3053 
L 1172 3053 
L 1172 1153 
Q 1172 725 1289 603 
Q 1406 481 1766 481 
L 2356 481 
L 2356 0 
L 1766 0 
Q 1100 0 847 248 
Q 594 497 594 1153 
L 594 3053 
L 172 3053 
L 172 3500 
L 594 3500 
L 594 4494 
L 1172 4494 
z
" transform="scale(0.015625)"/>
       <path id="DejaVuSans-20" transform="scale(0.015625)"/>
       <path id="DejaVuSans-54" d="M -19 4666 
L 3928 4666 
L 3928 4134 
L 2272 4134 
L 2272 0 
L 1638 0 
L 1638 4134 
L -19 4134 
L -19 4666 
z
" transform="scale(0.015625)"/>
       <path id="DejaVuSans-49" d="M 628 4666 
L 1259 4666 
L 1259 0 
L 628 0 
L 628 4666 
z
" transform="scale(0.015625)"/>
       <path id="DejaVuSans-52" d="M 2841 2188 
Q 3044 2119 3236 1894 
Q 3428 1669 3622 1275 
L 4263 0 
L 3584 0 
L 2988 1197 
Q 2756 1666 2539 1819 
Q 2322 1972 1947 1972 
L 1259 1972 
L 1259 0 
L 628 0 
L 628 4666 
L 2053 4666 
Q 2853 4666 3247 4331 
Q 3641 3997 3641 3322 
Q 3641 2881 3436 2590 
Q 3231 2300 2841 2188 
z
M 1259 4147 
L 1259 2491 
L 2053 2491 
Q 2509 2491 2742 2702 
Q 2975 2913 2975 3322 
Q 2975 3731 2742 3939 
Q 2509 4147 2053 4147 
L 1259 4147 
z
" transform="scale(0.015625)"/>
       <path id="DejaVuSans-43" d="M 4122 4306 
L 4122 3641 
Q 3803 3938 3442 4084 
Q 3081 4231 2675 4231 
Q 1875 4231 1450 3742 
Q 1025 3253 1025 2328 
Q 1025 1406 1450 917 
Q 1875 428 2675 428 
Q 3081 428 3442 575 
Q 3803 722 4122 1019 
L 4122 359 
Q 3791 134 3420 21 
Q 3050 -91 2638 -91 
Q 1578 -91 968 557 
Q 359 1206 359 2328 
Q 359 3453 968 4101 
Q 1578 4750 2638 4750 
Q 3056 4750 3426 4639 
Q 3797 4528 4122 4306 
z
" transform="scale(0.015625)"/>
       <path id="DejaVuSans-28" d="M 1984 4856 
Q 1566 4138 1362 3434 
Q 1159 2731 1159 2009 
Q 1159 1288 1364 580 
Q 1569 -128 1984 -844 
L 1484 -844 
Q 1016 -109 783 600 
Q 550 1309 550 2009 
Q 550 2706 781 3412 
Q 1013 4119 1484 4856 
L 1984 4856 
z
" transform="scale(0.015625)"/>
       <path id="DejaVuSans-2e" d="M 684 794 
L 1344 794 
L 1344 0 
L 684 0 
L 684 794 
z
" transform="scale(0.015625)"/>
       <path id="DejaVuSans-39" d="M 703 97 
L 703 672 
Q 941 559 1184 500 
Q 1428 441 1663 441 
Q 2288 441 2617 861 
Q 2947 1281 2994 2138 
Q 2813 1869 2534 1725 
Q 2256 1581 1919 1581 
Q 1219 1581 811 2004 
Q 403 2428 403 3163 
Q 403 3881 828 4315 
Q 1253 4750 1959 4750 
Q 2769 4750 3195 4129 
Q 3622 3509 3622 2328 
Q 3622 1225 3098 567 
Q 2575 -91 1691 -91 
Q 1453 -91 1209 -44 
Q 966 3 703 97 
z
M 1959 2075 
Q 2384 2075 2632 2365 
Q 2881 2656 2881 3163 
Q 2881 3666 2632 3958 
Q 2384 4250 1959 4250 
Q 1534 4250 1286 3958 
Q 1038 3666 1038 3163 
Q 1038 2656 1286 2365 
Q 1534 2075 1959 2075 
z
" transform="scale(0.015625)"/>
       <path id="DejaVuSans-67" d="M 2906 1791 
Q 2906 2416 2648 2759 
Q 2391 3103 1925 3103 
Q 1463 3103 1205 2759 
Q 947 2416 947 1791 
Q 947 1169 1205 825 
Q 1463 481 1925 481 
Q 2391 481 2648 825 
Q 2906 1169 2906 1791 
z
M 3481 434 
Q 3481 -459 3084 -895 
Q 2688 -1331 1869 -1331 
Q 1566 -1331 1297 -1286 
Q 1028 -1241 775 -1147 
L 775 -588 
Q 1028 -725 1275 -790 
Q 1522 -856 1778 -856 
Q 2344 -856 2625 -561 
Q 2906 -266 2906 331 
L 2906 616 
Q 2728 306 2450 153 
Q 2172 0 1784 0 
Q 1141 0 747 490 
Q 353 981 353 1791 
Q 353 2603 747 3093 
Q 1141 3584 1784 3584 
Q 2172 3584 2450 3431 
Q 2728 3278 2906 2969 
L 2906 3500 
L 3481 3500 
L 3481 434 
z
" transform="scale(0.015625)"/>
       <path id="DejaVuSans-29" d="M 513 4856 
L 1013 4856 
Q 1481 4119 1714 3412 
Q 1947 2706 1947 2009 
Q 1947 1309 1714 600 
Q 1481 -109 1013 -844 
L 513 -844 
Q 928 -128 1133 580 
Q 1338 1288 1338 2009 
Q 1338 2731 1133 3434 
Q 928 4138 513 4856 
z
" transform="scale(0.015625)"/>
       <path id="DejaVuSans-b1" d="M 2944 4013 
L 2944 2803 
L 4684 2803 
L 4684 2272 
L 2944 2272 
L 2944 1063 
L 2419 1063 
L 2419 2272 
L 678 2272 
L 678 2803 
L 2419 2803 
L 2419 4013 
L 2944 4013 
z
M 678 531 
L 4684 531 
L 4684 0 
L 678 0 
L 678 531 
z
" transform="scale(0.015625)"/>
       <path id="DejaVuSans-6e" d="M 3513 2113 
L 3513 0 
L 2938 0 
L 2938 2094 
Q 2938 2591 2744 2837 
Q 2550 3084 2163 3084 
Q 1697 3084 1428 2787 
Q 1159 2491 1159 1978 
L 1159 0 
L 581 0 
L 581 3500 
L 1159 3500 
L 1159 2956 
Q 1366 3272 1645 3428 
Q 1925 3584 2291 3584 
Q 2894 3584 3203 3211 
Q 3513 2838 3513 2113 
z
" transform="scale(0.015625)"/>
       <path id="DejaVuSans-3d" d="M 678 2906 
L 4684 2906 
L 4684 2381 
L 678 2381 
L 678 2906 
z
M 678 1631 
L 4684 1631 
L 4684 1100 
L 678 1100 
L 678 1631 
z
" transform="scale(0.015625)"/>
      </defs>
      <use xlink:href="#DejaVuSans-44"/>
      <use xlink:href="#DejaVuSans-61" x="77.001953"/>
      <use xlink:href="#DejaVuSans-74" x="138.28125"/>
      <use xlink:href="#DejaVuSans-61" x="177.490234"/>
      <use xlink:href="#DejaVuSans-20" x="238.769531"/>
      <use xlink:href="#DejaVuSans-54" x="270.556641"/>
      <use xlink:href="#DejaVuSans-49" x="331.640625"/>
      <use xlink:href="#DejaVuSans-52" x="361.132812"/>
      <use xlink:href="#DejaVuSans-43" x="425.615234"/>
      <use xlink:href="#DejaVuSans-31" x="495.439453"/>
      <use xlink:href="#DejaVuSans-34" x="559.0625"/>
      <use xlink:href="#DejaVuSans-20" x="622.685547"/>
      <use xlink:href="#DejaVuSans-28" x="654.472656"/>
      <use xlink:href="#DejaVuSans-32" x="693.486328"/>
      <use xlink:href="#DejaVuSans-2e" x="757.109375"/>
      <use xlink:href="#DejaVuSans-39" x="788.896484"/>
      <use xlink:href="#DejaVuSans-20" x="852.519531"/>
      <use xlink:href="#DejaVuSans-6d" x="884.306641"/>
      <use xlink:href="#DejaVuSans-67" x="981.71875"/>
      <use xlink:href="#DejaVuSans-29" x="1045.195312"/>
      <use xlink:href="#DejaVuSans-b1" x="1084.208984"/>
      <use xlink:href="#DejaVuSans-53" x="1167.998047"/>
      <use xlink:href="#DejaVuSans-44" x="1231.474609"/>
      <use xlink:href="#DejaVuSans-20" x="1308.476562"/>
      <use xlink:href="#DejaVuSans-28" x="1340.263672"/>
      <use xlink:href="#DejaVuSans-6e" x="1379.277344"/>
      <use xlink:href="#DejaVuSans-3d" x="1442.65625"/>
      <use xlink:href="#DejaVuSans-36" x="1526.445312"/>
      <use xlink:href="#DejaVuSans-29" x="1590.068359"/>
     </g>
    </g>
   </g>
  </g>
  <g id="axes_2">
   <g id="patch_8">
    <path d="M 89.194813 646.5 
L 479.794813 646.5 
L 479.794813 415.5 
L 89.194813 415.5 
z
" style="fill: #ffffff"/>
   </g>
   <g id="matplotlib.axis_3">
    <g id="xtick_6">
     <g id="line2d_18">
      <g>
       <use xlink:href="#m81d77c5f4b" x="106.949358" y="646.5" style="stroke: #000000; stroke-width: 0.8"/>
      </g>
     </g>
     <g id="text_16">
      <!-- 0 -->
      <g transform="translate(102.177483 664.897656) scale(0.15 -0.15)">
       <use xlink:href="#DejaVuSans-30"/>
      </g>
     </g>
    </g>
    <g id="xtick_7">
     <g id="line2d_19">
      <g>
       <use xlink:href="#m81d77c5f4b" x="189.146328" y="646.5" style="stroke: #000000; stroke-width: 0.8"/>
      </g>
     </g>
     <g id="text_17">
      <!-- 200 -->
      <g transform="translate(174.830703 664.897656) scale(0.15 -0.15)">
       <use xlink:href="#DejaVuSans-32"/>
       <use xlink:href="#DejaVuSans-30" x="63.623047"/>
       <use xlink:href="#DejaVuSans-30" x="127.246094"/>
      </g>
     </g>
    </g>
    <g id="xtick_8">
     <g id="line2d_20">
      <g>
       <use xlink:href="#m81d77c5f4b" x="271.343297" y="646.5" style="stroke: #000000; stroke-width: 0.8"/>
      </g>
     </g>
     <g id="text_18">
      <!-- 400 -->
      <g transform="translate(257.027672 664.897656) scale(0.15 -0.15)">
       <use xlink:href="#DejaVuSans-34"/>
       <use xlink:href="#DejaVuSans-30" x="63.623047"/>
       <use xlink:href="#DejaVuSans-30" x="127.246094"/>
      </g>
     </g>
    </g>
    <g id="xtick_9">
     <g id="line2d_21">
      <g>
       <use xlink:href="#m81d77c5f4b" x="353.540267" y="646.5" style="stroke: #000000; stroke-width: 0.8"/>
      </g>
     </g>
     <g id="text_19">
      <!-- 600 -->
      <g transform="translate(339.224642 664.897656) scale(0.15 -0.15)">
       <use xlink:href="#DejaVuSans-36"/>
       <use xlink:href="#DejaVuSans-30" x="63.623047"/>
       <use xlink:href="#DejaVuSans-30" x="127.246094"/>
      </g>
     </g>
    </g>
    <g id="xtick_10">
     <g id="line2d_22">
      <g>
       <use xlink:href="#m81d77c5f4b" x="435.737237" y="646.5" style="stroke: #000000; stroke-width: 0.8"/>
      </g>
     </g>
     <g id="text_20">
      <!-- 800 -->
      <g transform="translate(421.421612 664.897656) scale(0.15 -0.15)">
       <use xlink:href="#DejaVuSans-38"/>
       <use xlink:href="#DejaVuSans-30" x="63.623047"/>
       <use xlink:href="#DejaVuSans-30" x="127.246094"/>
      </g>
     </g>
    </g>
    <g id="text_21">
     <!-- time [hr] -->
     <g transform="translate(239.420281 685.694375) scale(0.18 -0.18)">
      <use xlink:href="#DejaVuSans-Bold-74"/>
      <use xlink:href="#DejaVuSans-Bold-69" x="47.802734"/>
      <use xlink:href="#DejaVuSans-Bold-6d" x="82.080078"/>
      <use xlink:href="#DejaVuSans-Bold-65" x="186.279297"/>
      <use xlink:href="#DejaVuSans-Bold-20" x="254.101562"/>
      <use xlink:href="#DejaVuSans-Bold-5b" x="288.916016"/>
      <use xlink:href="#DejaVuSans-Bold-68" x="334.619141"/>
      <use xlink:href="#DejaVuSans-Bold-72" x="405.810547"/>
      <use xlink:href="#DejaVuSans-Bold-5d" x="455.126953"/>
     </g>
    </g>
   </g>
   <g id="matplotlib.axis_4">
    <g id="ytick_7">
     <g id="line2d_23">
      <g>
       <use xlink:href="#md2fa9a3c7f" x="89.194813" y="636" style="stroke: #000000; stroke-width: 0.8"/>
      </g>
     </g>
     <g id="text_22">
      <!-- 0.0 -->
      <g transform="translate(58.340125 641.698828) scale(0.15 -0.15)">
       <use xlink:href="#DejaVuSans-30"/>
       <use xlink:href="#DejaVuSans-2e" x="63.623047"/>
       <use xlink:href="#DejaVuSans-30" x="95.410156"/>
      </g>
     </g>
    </g>
    <g id="ytick_8">
     <g id="line2d_24">
      <g>
       <use xlink:href="#md2fa9a3c7f" x="89.194813" y="588.459026" style="stroke: #000000; stroke-width: 0.8"/>
      </g>
     </g>
     <g id="text_23">
      <!-- 0.1 -->
      <g transform="translate(58.340125 594.157854) scale(0.15 -0.15)">
       <use xlink:href="#DejaVuSans-30"/>
       <use xlink:href="#DejaVuSans-2e" x="63.623047"/>
       <use xlink:href="#DejaVuSans-31" x="95.410156"/>
      </g>
     </g>
    </g>
    <g id="ytick_9">
     <g id="line2d_25">
      <g>
       <use xlink:href="#md2fa9a3c7f" x="89.194813" y="540.918052" style="stroke: #000000; stroke-width: 0.8"/>
      </g>
     </g>
     <g id="text_24">
      <!-- 0.2 -->
      <g transform="translate(58.340125 546.61688) scale(0.15 -0.15)">
       <use xlink:href="#DejaVuSans-30"/>
       <use xlink:href="#DejaVuSans-2e" x="63.623047"/>
       <use xlink:href="#DejaVuSans-32" x="95.410156"/>
      </g>
     </g>
    </g>
    <g id="ytick_10">
     <g id="line2d_26">
      <g>
       <use xlink:href="#md2fa9a3c7f" x="89.194813" y="493.377078" style="stroke: #000000; stroke-width: 0.8"/>
      </g>
     </g>
     <g id="text_25">
      <!-- 0.3 -->
      <g transform="translate(58.340125 499.075906) scale(0.15 -0.15)">
       <defs>
        <path id="DejaVuSans-33" d="M 2597 2516 
Q 3050 2419 3304 2112 
Q 3559 1806 3559 1356 
Q 3559 666 3084 287 
Q 2609 -91 1734 -91 
Q 1441 -91 1130 -33 
Q 819 25 488 141 
L 488 750 
Q 750 597 1062 519 
Q 1375 441 1716 441 
Q 2309 441 2620 675 
Q 2931 909 2931 1356 
Q 2931 1769 2642 2001 
Q 2353 2234 1838 2234 
L 1294 2234 
L 1294 2753 
L 1863 2753 
Q 2328 2753 2575 2939 
Q 2822 3125 2822 3475 
Q 2822 3834 2567 4026 
Q 2313 4219 1838 4219 
Q 1578 4219 1281 4162 
Q 984 4106 628 3988 
L 628 4550 
Q 988 4650 1302 4700 
Q 1616 4750 1894 4750 
Q 2613 4750 3031 4423 
Q 3450 4097 3450 3541 
Q 3450 3153 3228 2886 
Q 3006 2619 2597 2516 
z
" transform="scale(0.015625)"/>
       </defs>
       <use xlink:href="#DejaVuSans-30"/>
       <use xlink:href="#DejaVuSans-2e" x="63.623047"/>
       <use xlink:href="#DejaVuSans-33" x="95.410156"/>
      </g>
     </g>
    </g>
    <g id="ytick_11">
     <g id="line2d_27">
      <g>
       <use xlink:href="#md2fa9a3c7f" x="89.194813" y="445.836104" style="stroke: #000000; stroke-width: 0.8"/>
      </g>
     </g>
     <g id="text_26">
      <!-- 0.4 -->
      <g transform="translate(58.340125 451.534933) scale(0.15 -0.15)">
       <use xlink:href="#DejaVuSans-30"/>
       <use xlink:href="#DejaVuSans-2e" x="63.623047"/>
       <use xlink:href="#DejaVuSans-34" x="95.410156"/>
      </g>
     </g>
    </g>
    <g id="text_27">
     <!-- tirzepatide metabolites -->
     <g transform="translate(30.420938 650.167031) rotate(-90) scale(0.18 -0.18)">
      <defs>
       <path id="DejaVuSans-Bold-62" d="M 2400 722 
Q 2759 722 2948 984 
Q 3138 1247 3138 1747 
Q 3138 2247 2948 2509 
Q 2759 2772 2400 2772 
Q 2041 2772 1848 2508 
Q 1656 2244 1656 1747 
Q 1656 1250 1848 986 
Q 2041 722 2400 722 
z
M 1656 2988 
Q 1888 3294 2169 3439 
Q 2450 3584 2816 3584 
Q 3463 3584 3878 3070 
Q 4294 2556 4294 1747 
Q 4294 938 3878 423 
Q 3463 -91 2816 -91 
Q 2450 -91 2169 54 
Q 1888 200 1656 506 
L 1656 0 
L 538 0 
L 538 4863 
L 1656 4863 
L 1656 2988 
z
" transform="scale(0.015625)"/>
       <path id="DejaVuSans-Bold-6f" d="M 2203 2784 
Q 1831 2784 1636 2517 
Q 1441 2250 1441 1747 
Q 1441 1244 1636 976 
Q 1831 709 2203 709 
Q 2569 709 2762 976 
Q 2956 1244 2956 1747 
Q 2956 2250 2762 2517 
Q 2569 2784 2203 2784 
z
M 2203 3584 
Q 3106 3584 3614 3096 
Q 4122 2609 4122 1747 
Q 4122 884 3614 396 
Q 3106 -91 2203 -91 
Q 1297 -91 786 396 
Q 275 884 275 1747 
Q 275 2609 786 3096 
Q 1297 3584 2203 3584 
z
" transform="scale(0.015625)"/>
       <path id="DejaVuSans-Bold-6c" d="M 538 4863 
L 1656 4863 
L 1656 0 
L 538 0 
L 538 4863 
z
" transform="scale(0.015625)"/>
       <path id="DejaVuSans-Bold-73" d="M 3272 3391 
L 3272 2541 
Q 2913 2691 2578 2766 
Q 2244 2841 1947 2841 
Q 1628 2841 1473 2761 
Q 1319 2681 1319 2516 
Q 1319 2381 1436 2309 
Q 1553 2238 1856 2203 
L 2053 2175 
Q 2913 2066 3209 1816 
Q 3506 1566 3506 1031 
Q 3506 472 3093 190 
Q 2681 -91 1863 -91 
Q 1516 -91 1145 -36 
Q 775 19 384 128 
L 384 978 
Q 719 816 1070 734 
Q 1422 653 1784 653 
Q 2113 653 2278 743 
Q 2444 834 2444 1013 
Q 2444 1163 2330 1236 
Q 2216 1309 1875 1350 
L 1678 1375 
Q 931 1469 631 1722 
Q 331 1975 331 2491 
Q 331 3047 712 3315 
Q 1094 3584 1881 3584 
Q 2191 3584 2531 3537 
Q 2872 3491 3272 3391 
z
" transform="scale(0.015625)"/>
      </defs>
      <use xlink:href="#DejaVuSans-Bold-74"/>
      <use xlink:href="#DejaVuSans-Bold-69" x="47.802734"/>
      <use xlink:href="#DejaVuSans-Bold-72" x="82.080078"/>
      <use xlink:href="#DejaVuSans-Bold-7a" x="131.396484"/>
      <use xlink:href="#DejaVuSans-Bold-65" x="189.599609"/>
      <use xlink:href="#DejaVuSans-Bold-70" x="257.421875"/>
      <use xlink:href="#DejaVuSans-Bold-61" x="329.003906"/>
      <use xlink:href="#DejaVuSans-Bold-74" x="396.484375"/>
      <use xlink:href="#DejaVuSans-Bold-69" x="444.287109"/>
      <use xlink:href="#DejaVuSans-Bold-64" x="478.564453"/>
      <use xlink:href="#DejaVuSans-Bold-65" x="550.146484"/>
      <use xlink:href="#DejaVuSans-Bold-20" x="617.96875"/>
      <use xlink:href="#DejaVuSans-Bold-6d" x="652.783203"/>
      <use xlink:href="#DejaVuSans-Bold-65" x="756.982422"/>
      <use xlink:href="#DejaVuSans-Bold-74" x="824.804688"/>
      <use xlink:href="#DejaVuSans-Bold-61" x="872.607422"/>
      <use xlink:href="#DejaVuSans-Bold-62" x="940.087891"/>
      <use xlink:href="#DejaVuSans-Bold-6f" x="1011.669922"/>
      <use xlink:href="#DejaVuSans-Bold-6c" x="1080.371094"/>
      <use xlink:href="#DejaVuSans-Bold-69" x="1114.648438"/>
      <use xlink:href="#DejaVuSans-Bold-74" x="1148.925781"/>
      <use xlink:href="#DejaVuSans-Bold-65" x="1196.728516"/>
      <use xlink:href="#DejaVuSans-Bold-73" x="1264.550781"/>
     </g>
     <!-- urine [µmole] -->
     <g transform="translate(50.577 600.174844) rotate(-90) scale(0.18 -0.18)">
      <defs>
       <path id="DejaVuSans-Bold-75" d="M 500 1363 
L 500 3500 
L 1625 3500 
L 1625 3150 
Q 1625 2866 1622 2436 
Q 1619 2006 1619 1863 
Q 1619 1441 1641 1255 
Q 1663 1069 1716 984 
Q 1784 875 1895 815 
Q 2006 756 2150 756 
Q 2500 756 2700 1025 
Q 2900 1294 2900 1772 
L 2900 3500 
L 4019 3500 
L 4019 0 
L 2900 0 
L 2900 506 
Q 2647 200 2364 54 
Q 2081 -91 1741 -91 
Q 1134 -91 817 281 
Q 500 653 500 1363 
z
" transform="scale(0.015625)"/>
       <path id="DejaVuSans-Bold-b5" d="M 544 -1338 
L 544 3500 
L 1672 3500 
L 1672 1466 
Q 1672 1103 1828 926 
Q 1984 750 2303 750 
Q 2625 750 2781 926 
Q 2938 1103 2938 1466 
L 2938 3500 
L 4063 3500 
L 4063 1159 
Q 4063 938 4114 850 
Q 4166 763 4288 763 
Q 4344 763 4395 778 
Q 4447 794 4506 831 
L 4506 50 
Q 4341 -22 4195 -56 
Q 4050 -91 3909 -91 
Q 3631 -91 3454 26 
Q 3278 144 3169 403 
Q 3022 156 2811 32 
Q 2600 -91 2322 -91 
Q 2091 -91 1928 -17 
Q 1766 56 1672 206 
L 1672 -1338 
L 544 -1338 
z
" transform="scale(0.015625)"/>
      </defs>
      <use xlink:href="#DejaVuSans-Bold-75"/>
      <use xlink:href="#DejaVuSans-Bold-72" x="71.191406"/>
      <use xlink:href="#DejaVuSans-Bold-69" x="120.507812"/>
      <use xlink:href="#DejaVuSans-Bold-6e" x="154.785156"/>
      <use xlink:href="#DejaVuSans-Bold-65" x="225.976562"/>
      <use xlink:href="#DejaVuSans-Bold-20" x="293.798828"/>
      <use xlink:href="#DejaVuSans-Bold-5b" x="328.613281"/>
      <use xlink:href="#DejaVuSans-Bold-b5" x="374.316406"/>
      <use xlink:href="#DejaVuSans-Bold-6d" x="447.900391"/>
      <use xlink:href="#DejaVuSans-Bold-6f" x="552.099609"/>
      <use xlink:href="#DejaVuSans-Bold-6c" x="620.800781"/>
      <use xlink:href="#DejaVuSans-Bold-65" x="655.078125"/>
      <use xlink:href="#DejaVuSans-Bold-5d" x="722.900391"/>
     </g>
    </g>
   </g>
   <g id="LineCollection_3">
    <path d="M 195.722085 632.73932 
L 195.722085 632.73932 
" clip-path="url(#p7c82fa06e7)" style="fill: none; stroke: #ff7f0e"/>
    <path d="M 205.585722 630.577494 
L 205.585722 630.577494 
" clip-path="url(#p7c82fa06e7)" style="fill: none; stroke: #ff7f0e"/>
    <path d="M 215.449358 623.49998 
L 215.449358 623.49998 
" clip-path="url(#p7c82fa06e7)" style="fill: none; stroke: #ff7f0e"/>
    <path d="M 225.312994 614.170937 
L 225.312994 614.170937 
" clip-path="url(#p7c82fa06e7)" style="fill: none; stroke: #ff7f0e"/>
    <path d="M 235.176631 609.177583 
L 235.176631 595.554637 
" clip-path="url(#p7c82fa06e7)" style="fill: none; stroke: #ff7f0e"/>
    <path d="M 245.040267 596.678154 
L 245.040267 584.417502 
" clip-path="url(#p7c82fa06e7)" style="fill: none; stroke: #ff7f0e"/>
    <path d="M 254.903903 586.903313 
L 254.903903 570.555777 
" clip-path="url(#p7c82fa06e7)" style="fill: none; stroke: #ff7f0e"/>
    <path d="M 264.76754 574.760539 
L 264.76754 558.478921 
" clip-path="url(#p7c82fa06e7)" style="fill: none; stroke: #ff7f0e"/>
    <path d="M 274.631176 566.144422 
L 274.631176 545.710002 
" clip-path="url(#p7c82fa06e7)" style="fill: none; stroke: #ff7f0e"/>
    <path d="M 284.494813 554.83588 
L 284.494813 534.467377 
" clip-path="url(#p7c82fa06e7)" style="fill: none; stroke: #ff7f0e"/>
    <path d="M 294.358449 545.816692 
L 294.358449 522.657683 
" clip-path="url(#p7c82fa06e7)" style="fill: none; stroke: #ff7f0e"/>
    <path d="M 304.222085 538.544547 
L 304.222085 511.298654 
" clip-path="url(#p7c82fa06e7)" style="fill: none; stroke: #ff7f0e"/>
    <path d="M 314.085722 530.466261 
L 314.085722 501.858073 
" clip-path="url(#p7c82fa06e7)" style="fill: none; stroke: #ff7f0e"/>
    <path d="M 323.949358 524.459509 
L 323.949358 493.126732 
" clip-path="url(#p7c82fa06e7)" style="fill: none; stroke: #ff7f0e"/>
    <path d="M 333.812994 518.17468 
L 333.812994 484.117313 
" clip-path="url(#p7c82fa06e7)" style="fill: none; stroke: #ff7f0e"/>
    <path d="M 343.676631 513.683307 
L 343.676631 475.539056 
" clip-path="url(#p7c82fa06e7)" style="fill: none; stroke: #ff7f0e"/>
    <path d="M 353.540267 508.510787 
L 353.540267 467.641947 
" clip-path="url(#p7c82fa06e7)" style="fill: none; stroke: #ff7f0e"/>
    <path d="M 363.403903 504.450575 
L 363.403903 460.857146 
" clip-path="url(#p7c82fa06e7)" style="fill: none; stroke: #ff7f0e"/>
    <path d="M 373.26754 500.668441 
L 373.26754 454.350423 
" clip-path="url(#p7c82fa06e7)" style="fill: none; stroke: #ff7f0e"/>
    <path d="M 383.131176 495.491054 
L 383.131176 449.238952 
" clip-path="url(#p7c82fa06e7)" style="fill: none; stroke: #ff7f0e"/>
    <path d="M 392.994813 493.132264 
L 392.994813 444.089656 
" clip-path="url(#p7c82fa06e7)" style="fill: none; stroke: #ff7f0e"/>
    <path d="M 402.858449 487.784264 
L 402.858449 441.400328 
" clip-path="url(#p7c82fa06e7)" style="fill: none; stroke: #ff7f0e"/>
    <path d="M 412.722085 484.989446 
L 412.722085 437.243215 
" clip-path="url(#p7c82fa06e7)" style="fill: none; stroke: #ff7f0e"/>
    <path d="M 422.585722 479.793736 
L 422.585722 434.903929 
" clip-path="url(#p7c82fa06e7)" style="fill: none; stroke: #ff7f0e"/>
    <path d="M 432.449358 477.601486 
L 432.449358 431.283467 
" clip-path="url(#p7c82fa06e7)" style="fill: none; stroke: #ff7f0e"/>
    <path d="M 442.312994 474.681675 
L 442.312994 428.363656 
" clip-path="url(#p7c82fa06e7)" style="fill: none; stroke: #ff7f0e"/>
    <path d="M 452.176631 472.318019 
L 452.176631 426 
" clip-path="url(#p7c82fa06e7)" style="fill: none; stroke: #ff7f0e"/>
   </g>
   <g id="line2d_28">
    <path d="M 106.949358 636 
L 109.434994 635.906804 
L 111.210449 635.600906 
L 112.808358 635.095909 
L 114.406267 634.363746 
L 116.181722 633.291971 
L 118.134722 631.822122 
L 120.265267 629.908614 
L 122.573358 627.520896 
L 125.23654 624.428241 
L 128.254813 620.577215 
L 131.983267 615.448812 
L 137.132085 607.948214 
L 155.596812 580.691635 
L 161.100722 573.145403 
L 166.071994 566.695478 
L 170.865722 560.83074 
L 175.481903 555.522431 
L 180.098085 550.547999 
L 184.714267 545.902509 
L 189.330449 541.57678 
L 193.946631 537.558668 
L 198.562813 533.834067 
L 203.178994 530.387667 
L 207.972722 527.086092 
L 212.766449 524.049304 
L 217.737722 521.160612 
L 222.88654 518.427976 
L 228.212903 515.856879 
L 233.716813 513.450467 
L 239.398267 511.209719 
L 245.434813 509.074217 
L 251.648903 507.113572 
L 258.218085 505.27528 
L 265.142358 503.569169 
L 272.599267 501.965689 
L 280.588813 500.482155 
L 289.110994 499.130084 
L 298.343358 497.89377 
L 308.463449 496.767621 
L 319.648813 495.752738 
L 332.076994 494.853623 
L 346.103085 494.066406 
L 362.259722 493.387639 
L 381.257085 492.817959 
L 404.51554 492.35256 
L 433.988085 491.996079 
L 462.040267 491.801498 
L 462.040267 491.801498 
" clip-path="url(#p7c82fa06e7)" style="fill: none; stroke: #ff7f0e; stroke-width: 2; stroke-linecap: square"/>
   </g>
   <g id="line2d_29">
    <path d="M 195.722085 632.73932 
L 205.585722 630.577494 
L 215.449358 623.49998 
L 225.312994 614.170937 
L 235.176631 602.36611 
L 245.040267 590.547828 
L 254.903903 578.729545 
L 264.76754 566.61973 
L 274.631176 555.927212 
L 284.494813 544.651629 
L 294.358449 534.237188 
L 304.222085 524.9216 
L 314.085722 516.162167 
L 323.949358 508.793121 
L 333.812994 501.145997 
L 343.676631 494.611182 
L 353.540267 488.076367 
L 363.403903 482.653861 
L 373.26754 477.509432 
L 383.131176 472.365003 
L 392.994813 468.61096 
L 402.858449 464.592296 
L 412.722085 461.11633 
L 422.585722 457.348832 
L 432.449358 454.442477 
L 442.312994 451.522666 
L 452.176631 449.159009 
" clip-path="url(#p7c82fa06e7)" style="fill: none; stroke-dasharray: 3.7,1.6; stroke-dashoffset: 0; stroke: #ff7f0e"/>
    <defs>
     <path id="m49b7655def" d="M -3 3 
L 3 3 
L 3 -3 
L -3 -3 
z
" style="stroke: #000000; stroke-linejoin: miter"/>
    </defs>
    <g clip-path="url(#p7c82fa06e7)">
     <use xlink:href="#m49b7655def" x="195.722085" y="632.73932" style="fill: #ff7f0e; stroke: #000000; stroke-linejoin: miter"/>
     <use xlink:href="#m49b7655def" x="205.585722" y="630.577494" style="fill: #ff7f0e; stroke: #000000; stroke-linejoin: miter"/>
     <use xlink:href="#m49b7655def" x="215.449358" y="623.49998" style="fill: #ff7f0e; stroke: #000000; stroke-linejoin: miter"/>
     <use xlink:href="#m49b7655def" x="225.312994" y="614.170937" style="fill: #ff7f0e; stroke: #000000; stroke-linejoin: miter"/>
     <use xlink:href="#m49b7655def" x="235.176631" y="602.36611" style="fill: #ff7f0e; stroke: #000000; stroke-linejoin: miter"/>
     <use xlink:href="#m49b7655def" x="245.040267" y="590.547828" style="fill: #ff7f0e; stroke: #000000; stroke-linejoin: miter"/>
     <use xlink:href="#m49b7655def" x="254.903903" y="578.729545" style="fill: #ff7f0e; stroke: #000000; stroke-linejoin: miter"/>
     <use xlink:href="#m49b7655def" x="264.76754" y="566.61973" style="fill: #ff7f0e; stroke: #000000; stroke-linejoin: miter"/>
     <use xlink:href="#m49b7655def" x="274.631176" y="555.927212" style="fill: #ff7f0e; stroke: #000000; stroke-linejoin: miter"/>
     <use xlink:href="#m49b7655def" x="284.494813" y="544.651629" style="fill: #ff7f0e; stroke: #000000; stroke-linejoin: miter"/>
     <use xlink:href="#m49b7655def" x="294.358449" y="534.237188" style="fill: #ff7f0e; stroke: #000000; stroke-linejoin: miter"/>
     <use xlink:href="#m49b7655def" x="304.222085" y="524.9216" style="fill: #ff7f0e; stroke: #000000; stroke-linejoin: miter"/>
     <use xlink:href="#m49b7655def" x="314.085722" y="516.162167" style="fill: #ff7f0e; stroke: #000000; stroke-linejoin: miter"/>
     <use xlink:href="#m49b7655def" x="323.949358" y="508.793121" style="fill: #ff7f0e; stroke: #000000; stroke-linejoin: miter"/>
     <use xlink:href="#m49b7655def" x="333.812994" y="501.145997" style="fill: #ff7f0e; stroke: #000000; stroke-linejoin: miter"/>
     <use xlink:href="#m49b7655def" x="343.676631" y="494.611182" style="fill: #ff7f0e; stroke: #000000; stroke-linejoin: miter"/>
     <use xlink:href="#m49b7655def" x="353.540267" y="488.076367" style="fill: #ff7f0e; stroke: #000000; stroke-linejoin: miter"/>
     <use xlink:href="#m49b7655def" x="363.403903" y="482.653861" style="fill: #ff7f0e; stroke: #000000; stroke-linejoin: miter"/>
     <use xlink:href="#m49b7655def" x="373.26754" y="477.509432" style="fill: #ff7f0e; stroke: #000000; stroke-linejoin: miter"/>
     <use xlink:href="#m49b7655def" x="383.131176" y="472.365003" style="fill: #ff7f0e; stroke: #000000; stroke-linejoin: miter"/>
     <use xlink:href="#m49b7655def" x="392.994813" y="468.61096" style="fill: #ff7f0e; stroke: #000000; stroke-linejoin: miter"/>
     <use xlink:href="#m49b7655def" x="402.858449" y="464.592296" style="fill: #ff7f0e; stroke: #000000; stroke-linejoin: miter"/>
     <use xlink:href="#m49b7655def" x="412.722085" y="461.11633" style="fill: #ff7f0e; stroke: #000000; stroke-linejoin: miter"/>
     <use xlink:href="#m49b7655def" x="422.585722" y="457.348832" style="fill: #ff7f0e; stroke: #000000; stroke-linejoin: miter"/>
     <use xlink:href="#m49b7655def" x="432.449358" y="454.442477" style="fill: #ff7f0e; stroke: #000000; stroke-linejoin: miter"/>
     <use xlink:href="#m49b7655def" x="442.312994" y="451.522666" style="fill: #ff7f0e; stroke: #000000; stroke-linejoin: miter"/>
     <use xlink:href="#m49b7655def" x="452.176631" y="449.159009" style="fill: #ff7f0e; stroke: #000000; stroke-linejoin: miter"/>
    </g>
   </g>
   <g id="patch_9">
    <path d="M 89.194813 646.5 
L 89.194813 415.5 
" style="fill: none; stroke: #000000; stroke-width: 0.8; stroke-linejoin: miter; stroke-linecap: square"/>
   </g>
   <g id="patch_10">
    <path d="M 479.794813 646.5 
L 479.794813 415.5 
" style="fill: none; stroke: #000000; stroke-width: 0.8; stroke-linejoin: miter; stroke-linecap: square"/>
   </g>
   <g id="patch_11">
    <path d="M 89.194813 646.5 
L 479.794813 646.5 
" style="fill: none; stroke: #000000; stroke-width: 0.8; stroke-linejoin: miter; stroke-linecap: square"/>
   </g>
   <g id="patch_12">
    <path d="M 89.194813 415.5 
L 479.794813 415.5 
" style="fill: none; stroke: #000000; stroke-width: 0.8; stroke-linejoin: miter; stroke-linecap: square"/>
   </g>
   <g id="legend_2">
    <g id="patch_13">
     <path d="M 96.194813 452.85625 
L 291.104188 452.85625 
Q 293.104188 452.85625 293.104188 450.85625 
L 293.104188 422.5 
Q 293.104188 420.5 291.104188 420.5 
L 96.194813 420.5 
Q 94.194813 420.5 94.194813 422.5 
L 94.194813 450.85625 
Q 94.194813 452.85625 96.194813 452.85625 
z
" style="fill: #ffffff; opacity: 0.8; stroke: #cccccc; stroke-linejoin: miter"/>
    </g>
    <g id="line2d_30">
     <path d="M 98.194813 428.598438 
L 118.194813 428.598438 
" style="fill: none; stroke: #ff7f0e; stroke-width: 2; stroke-linecap: square"/>
    </g>
    <g id="line2d_31"/>
    <g id="text_28">
     <!-- Sim -->
     <g transform="translate(126.194813 432.098438) scale(0.1 -0.1)">
      <use xlink:href="#DejaVuSans-53"/>
      <use xlink:href="#DejaVuSans-69" x="63.476562"/>
      <use xlink:href="#DejaVuSans-6d" x="91.259766"/>
     </g>
    </g>
    <g id="LineCollection_4">
     <path d="M 108.194813 448.276563 
L 108.194813 438.276563 
" style="fill: none; stroke: #ff7f0e"/>
    </g>
    <g id="line2d_32">
     <path d="M 98.194813 443.276563 
L 118.194813 443.276563 
" style="fill: none; stroke-dasharray: 3.7,1.6; stroke-dashoffset: 0; stroke: #ff7f0e"/>
    </g>
    <g id="line2d_33">
     <g>
      <use xlink:href="#m49b7655def" x="108.194813" y="443.276563" style="fill: #ff7f0e; stroke: #000000; stroke-linejoin: miter"/>
     </g>
    </g>
    <g id="text_29">
     <!-- Data TIRC14 (2.9 mg)±SD (n=6) -->
     <g transform="translate(126.194813 446.776563) scale(0.1 -0.1)">
      <use xlink:href="#DejaVuSans-44"/>
      <use xlink:href="#DejaVuSans-61" x="77.001953"/>
      <use xlink:href="#DejaVuSans-74" x="138.28125"/>
      <use xlink:href="#DejaVuSans-61" x="177.490234"/>
      <use xlink:href="#DejaVuSans-20" x="238.769531"/>
      <use xlink:href="#DejaVuSans-54" x="270.556641"/>
      <use xlink:href="#DejaVuSans-49" x="331.640625"/>
      <use xlink:href="#DejaVuSans-52" x="361.132812"/>
      <use xlink:href="#DejaVuSans-43" x="425.615234"/>
      <use xlink:href="#DejaVuSans-31" x="495.439453"/>
      <use xlink:href="#DejaVuSans-34" x="559.0625"/>
      <use xlink:href="#DejaVuSans-20" x="622.685547"/>
      <use xlink:href="#DejaVuSans-28" x="654.472656"/>
      <use xlink:href="#DejaVuSans-32" x="693.486328"/>
      <use xlink:href="#DejaVuSans-2e" x="757.109375"/>
      <use xlink:href="#DejaVuSans-39" x="788.896484"/>
      <use xlink:href="#DejaVuSans-20" x="852.519531"/>
      <use xlink:href="#DejaVuSans-6d" x="884.306641"/>
      <use xlink:href="#DejaVuSans-67" x="981.71875"/>
      <use xlink:href="#DejaVuSans-29" x="1045.195312"/>
      <use xlink:href="#DejaVuSans-b1" x="1084.208984"/>
      <use xlink:href="#DejaVuSans-53" x="1167.998047"/>
      <use xlink:href="#DejaVuSans-44" x="1231.474609"/>
      <use xlink:href="#DejaVuSans-20" x="1308.476562"/>
      <use xlink:href="#DejaVuSans-28" x="1340.263672"/>
      <use xlink:href="#DejaVuSans-6e" x="1379.277344"/>
      <use xlink:href="#DejaVuSans-3d" x="1442.65625"/>
      <use xlink:href="#DejaVuSans-36" x="1526.445312"/>
      <use xlink:href="#DejaVuSans-29" x="1590.068359"/>
     </g>
    </g>
   </g>
  </g>
  <g id="axes_3">
   <g id="patch_14">
    <path d="M 89.194813 946.8 
L 479.794813 946.8 
L 479.794813 715.8 
L 89.194813 715.8 
z
" style="fill: #ffffff"/>
   </g>
   <g id="matplotlib.axis_5">
    <g id="xtick_11">
     <g id="line2d_34">
      <g>
       <use xlink:href="#m81d77c5f4b" x="106.949358" y="946.8" style="stroke: #000000; stroke-width: 0.8"/>
      </g>
     </g>
     <g id="text_30">
      <!-- 0 -->
      <g transform="translate(102.177483 965.197656) scale(0.15 -0.15)">
       <use xlink:href="#DejaVuSans-30"/>
      </g>
     </g>
    </g>
    <g id="xtick_12">
     <g id="line2d_35">
      <g>
       <use xlink:href="#m81d77c5f4b" x="189.146328" y="946.8" style="stroke: #000000; stroke-width: 0.8"/>
      </g>
     </g>
     <g id="text_31">
      <!-- 200 -->
      <g transform="translate(174.830703 965.197656) scale(0.15 -0.15)">
       <use xlink:href="#DejaVuSans-32"/>
       <use xlink:href="#DejaVuSans-30" x="63.623047"/>
       <use xlink:href="#DejaVuSans-30" x="127.246094"/>
      </g>
     </g>
    </g>
    <g id="xtick_13">
     <g id="line2d_36">
      <g>
       <use xlink:href="#m81d77c5f4b" x="271.343297" y="946.8" style="stroke: #000000; stroke-width: 0.8"/>
      </g>
     </g>
     <g id="text_32">
      <!-- 400 -->
      <g transform="translate(257.027672 965.197656) scale(0.15 -0.15)">
       <use xlink:href="#DejaVuSans-34"/>
       <use xlink:href="#DejaVuSans-30" x="63.623047"/>
       <use xlink:href="#DejaVuSans-30" x="127.246094"/>
      </g>
     </g>
    </g>
    <g id="xtick_14">
     <g id="line2d_37">
      <g>
       <use xlink:href="#m81d77c5f4b" x="353.540267" y="946.8" style="stroke: #000000; stroke-width: 0.8"/>
      </g>
     </g>
     <g id="text_33">
      <!-- 600 -->
      <g transform="translate(339.224642 965.197656) scale(0.15 -0.15)">
       <use xlink:href="#DejaVuSans-36"/>
       <use xlink:href="#DejaVuSans-30" x="63.623047"/>
       <use xlink:href="#DejaVuSans-30" x="127.246094"/>
      </g>
     </g>
    </g>
    <g id="xtick_15">
     <g id="line2d_38">
      <g>
       <use xlink:href="#m81d77c5f4b" x="435.737237" y="946.8" style="stroke: #000000; stroke-width: 0.8"/>
      </g>
     </g>
     <g id="text_34">
      <!-- 800 -->
      <g transform="translate(421.421612 965.197656) scale(0.15 -0.15)">
       <use xlink:href="#DejaVuSans-38"/>
       <use xlink:href="#DejaVuSans-30" x="63.623047"/>
       <use xlink:href="#DejaVuSans-30" x="127.246094"/>
      </g>
     </g>
    </g>
    <g id="text_35">
     <!-- time [hr] -->
     <g transform="translate(239.420281 985.994375) scale(0.18 -0.18)">
      <use xlink:href="#DejaVuSans-Bold-74"/>
      <use xlink:href="#DejaVuSans-Bold-69" x="47.802734"/>
      <use xlink:href="#DejaVuSans-Bold-6d" x="82.080078"/>
      <use xlink:href="#DejaVuSans-Bold-65" x="186.279297"/>
      <use xlink:href="#DejaVuSans-Bold-20" x="254.101562"/>
      <use xlink:href="#DejaVuSans-Bold-5b" x="288.916016"/>
      <use xlink:href="#DejaVuSans-Bold-68" x="334.619141"/>
      <use xlink:href="#DejaVuSans-Bold-72" x="405.810547"/>
      <use xlink:href="#DejaVuSans-Bold-5d" x="455.126953"/>
     </g>
    </g>
   </g>
   <g id="matplotlib.axis_6">
    <g id="ytick_12">
     <g id="line2d_39">
      <g>
       <use xlink:href="#md2fa9a3c7f" x="89.194813" y="933.853654" style="stroke: #000000; stroke-width: 0.8"/>
      </g>
     </g>
     <g id="text_36">
      <!-- 0.00 -->
      <g transform="translate(48.796375 939.552482) scale(0.15 -0.15)">
       <use xlink:href="#DejaVuSans-30"/>
       <use xlink:href="#DejaVuSans-2e" x="63.623047"/>
       <use xlink:href="#DejaVuSans-30" x="95.410156"/>
       <use xlink:href="#DejaVuSans-30" x="159.033203"/>
      </g>
     </g>
    </g>
    <g id="ytick_13">
     <g id="line2d_40">
      <g>
       <use xlink:href="#md2fa9a3c7f" x="89.194813" y="898.360389" style="stroke: #000000; stroke-width: 0.8"/>
      </g>
     </g>
     <g id="text_37">
      <!-- 0.05 -->
      <g transform="translate(48.796375 904.059217) scale(0.15 -0.15)">
       <defs>
        <path id="DejaVuSans-35" d="M 691 4666 
L 3169 4666 
L 3169 4134 
L 1269 4134 
L 1269 2991 
Q 1406 3038 1543 3061 
Q 1681 3084 1819 3084 
Q 2600 3084 3056 2656 
Q 3513 2228 3513 1497 
Q 3513 744 3044 326 
Q 2575 -91 1722 -91 
Q 1428 -91 1123 -41 
Q 819 9 494 109 
L 494 744 
Q 775 591 1075 516 
Q 1375 441 1709 441 
Q 2250 441 2565 725 
Q 2881 1009 2881 1497 
Q 2881 1984 2565 2268 
Q 2250 2553 1709 2553 
Q 1456 2553 1204 2497 
Q 953 2441 691 2322 
L 691 4666 
z
" transform="scale(0.015625)"/>
       </defs>
       <use xlink:href="#DejaVuSans-30"/>
       <use xlink:href="#DejaVuSans-2e" x="63.623047"/>
       <use xlink:href="#DejaVuSans-30" x="95.410156"/>
       <use xlink:href="#DejaVuSans-35" x="159.033203"/>
      </g>
     </g>
    </g>
    <g id="ytick_14">
     <g id="line2d_41">
      <g>
       <use xlink:href="#md2fa9a3c7f" x="89.194813" y="862.867124" style="stroke: #000000; stroke-width: 0.8"/>
      </g>
     </g>
     <g id="text_38">
      <!-- 0.10 -->
      <g transform="translate(48.796375 868.565952) scale(0.15 -0.15)">
       <use xlink:href="#DejaVuSans-30"/>
       <use xlink:href="#DejaVuSans-2e" x="63.623047"/>
       <use xlink:href="#DejaVuSans-31" x="95.410156"/>
       <use xlink:href="#DejaVuSans-30" x="159.033203"/>
      </g>
     </g>
    </g>
    <g id="ytick_15">
     <g id="line2d_42">
      <g>
       <use xlink:href="#md2fa9a3c7f" x="89.194813" y="827.373859" style="stroke: #000000; stroke-width: 0.8"/>
      </g>
     </g>
     <g id="text_39">
      <!-- 0.15 -->
      <g transform="translate(48.796375 833.072687) scale(0.15 -0.15)">
       <use xlink:href="#DejaVuSans-30"/>
       <use xlink:href="#DejaVuSans-2e" x="63.623047"/>
       <use xlink:href="#DejaVuSans-31" x="95.410156"/>
       <use xlink:href="#DejaVuSans-35" x="159.033203"/>
      </g>
     </g>
    </g>
    <g id="ytick_16">
     <g id="line2d_43">
      <g>
       <use xlink:href="#md2fa9a3c7f" x="89.194813" y="791.880594" style="stroke: #000000; stroke-width: 0.8"/>
      </g>
     </g>
     <g id="text_40">
      <!-- 0.20 -->
      <g transform="translate(48.796375 797.579422) scale(0.15 -0.15)">
       <use xlink:href="#DejaVuSans-30"/>
       <use xlink:href="#DejaVuSans-2e" x="63.623047"/>
       <use xlink:href="#DejaVuSans-32" x="95.410156"/>
       <use xlink:href="#DejaVuSans-30" x="159.033203"/>
      </g>
     </g>
    </g>
    <g id="ytick_17">
     <g id="line2d_44">
      <g>
       <use xlink:href="#md2fa9a3c7f" x="89.194813" y="756.387329" style="stroke: #000000; stroke-width: 0.8"/>
      </g>
     </g>
     <g id="text_41">
      <!-- 0.25 -->
      <g transform="translate(48.796375 762.086157) scale(0.15 -0.15)">
       <use xlink:href="#DejaVuSans-30"/>
       <use xlink:href="#DejaVuSans-2e" x="63.623047"/>
       <use xlink:href="#DejaVuSans-32" x="95.410156"/>
       <use xlink:href="#DejaVuSans-35" x="159.033203"/>
      </g>
     </g>
    </g>
    <g id="ytick_18">
     <g id="line2d_45">
      <g>
       <use xlink:href="#md2fa9a3c7f" x="89.194813" y="720.894064" style="stroke: #000000; stroke-width: 0.8"/>
      </g>
     </g>
     <g id="text_42">
      <!-- 0.30 -->
      <g transform="translate(48.796375 726.592892) scale(0.15 -0.15)">
       <use xlink:href="#DejaVuSans-30"/>
       <use xlink:href="#DejaVuSans-2e" x="63.623047"/>
       <use xlink:href="#DejaVuSans-33" x="95.410156"/>
       <use xlink:href="#DejaVuSans-30" x="159.033203"/>
      </g>
     </g>
    </g>
    <g id="text_43">
     <!-- tirzepatide metabolites -->
     <g transform="translate(20.877188 950.467031) rotate(-90) scale(0.18 -0.18)">
      <use xlink:href="#DejaVuSans-Bold-74"/>
      <use xlink:href="#DejaVuSans-Bold-69" x="47.802734"/>
      <use xlink:href="#DejaVuSans-Bold-72" x="82.080078"/>
      <use xlink:href="#DejaVuSans-Bold-7a" x="131.396484"/>
      <use xlink:href="#DejaVuSans-Bold-65" x="189.599609"/>
      <use xlink:href="#DejaVuSans-Bold-70" x="257.421875"/>
      <use xlink:href="#DejaVuSans-Bold-61" x="329.003906"/>
      <use xlink:href="#DejaVuSans-Bold-74" x="396.484375"/>
      <use xlink:href="#DejaVuSans-Bold-69" x="444.287109"/>
      <use xlink:href="#DejaVuSans-Bold-64" x="478.564453"/>
      <use xlink:href="#DejaVuSans-Bold-65" x="550.146484"/>
      <use xlink:href="#DejaVuSans-Bold-20" x="617.96875"/>
      <use xlink:href="#DejaVuSans-Bold-6d" x="652.783203"/>
      <use xlink:href="#DejaVuSans-Bold-65" x="756.982422"/>
      <use xlink:href="#DejaVuSans-Bold-74" x="824.804688"/>
      <use xlink:href="#DejaVuSans-Bold-61" x="872.607422"/>
      <use xlink:href="#DejaVuSans-Bold-62" x="940.087891"/>
      <use xlink:href="#DejaVuSans-Bold-6f" x="1011.669922"/>
      <use xlink:href="#DejaVuSans-Bold-6c" x="1080.371094"/>
      <use xlink:href="#DejaVuSans-Bold-69" x="1114.648438"/>
      <use xlink:href="#DejaVuSans-Bold-74" x="1148.925781"/>
      <use xlink:href="#DejaVuSans-Bold-65" x="1196.728516"/>
      <use xlink:href="#DejaVuSans-Bold-73" x="1264.550781"/>
     </g>
     <!-- feces [µmole] -->
     <g transform="translate(41.03325 900.848906) rotate(-90) scale(0.18 -0.18)">
      <defs>
       <path id="DejaVuSans-Bold-66" d="M 2841 4863 
L 2841 4128 
L 2222 4128 
Q 1984 4128 1890 4042 
Q 1797 3956 1797 3744 
L 1797 3500 
L 2753 3500 
L 2753 2700 
L 1797 2700 
L 1797 0 
L 678 0 
L 678 2700 
L 122 2700 
L 122 3500 
L 678 3500 
L 678 3744 
Q 678 4316 997 4589 
Q 1316 4863 1984 4863 
L 2841 4863 
z
" transform="scale(0.015625)"/>
       <path id="DejaVuSans-Bold-63" d="M 3366 3391 
L 3366 2478 
Q 3138 2634 2908 2709 
Q 2678 2784 2431 2784 
Q 1963 2784 1702 2511 
Q 1441 2238 1441 1747 
Q 1441 1256 1702 982 
Q 1963 709 2431 709 
Q 2694 709 2930 787 
Q 3166 866 3366 1019 
L 3366 103 
Q 3103 6 2833 -42 
Q 2563 -91 2291 -91 
Q 1344 -91 809 395 
Q 275 881 275 1747 
Q 275 2613 809 3098 
Q 1344 3584 2291 3584 
Q 2566 3584 2833 3536 
Q 3100 3488 3366 3391 
z
" transform="scale(0.015625)"/>
      </defs>
      <use xlink:href="#DejaVuSans-Bold-66"/>
      <use xlink:href="#DejaVuSans-Bold-65" x="43.505859"/>
      <use xlink:href="#DejaVuSans-Bold-63" x="111.328125"/>
      <use xlink:href="#DejaVuSans-Bold-65" x="170.605469"/>
      <use xlink:href="#DejaVuSans-Bold-73" x="238.427734"/>
      <use xlink:href="#DejaVuSans-Bold-20" x="297.949219"/>
      <use xlink:href="#DejaVuSans-Bold-5b" x="332.763672"/>
      <use xlink:href="#DejaVuSans-Bold-b5" x="378.466797"/>
      <use xlink:href="#DejaVuSans-Bold-6d" x="452.050781"/>
      <use xlink:href="#DejaVuSans-Bold-6f" x="556.25"/>
      <use xlink:href="#DejaVuSans-Bold-6c" x="624.951172"/>
      <use xlink:href="#DejaVuSans-Bold-65" x="659.228516"/>
      <use xlink:href="#DejaVuSans-Bold-5d" x="727.050781"/>
     </g>
    </g>
   </g>
   <g id="LineCollection_5">
    <path d="M 116.812994 933.853654 
L 116.812994 933.853654 
" clip-path="url(#pae1168330e)" style="fill: none; stroke: #8c564b"/>
    <path d="M 126.676631 932.212884 
L 126.676631 932.212884 
" clip-path="url(#pae1168330e)" style="fill: none; stroke: #8c564b"/>
    <path d="M 136.540267 928.663463 
L 136.540267 928.663463 
" clip-path="url(#pae1168330e)" style="fill: none; stroke: #8c564b"/>
    <path d="M 146.403903 936.3 
L 146.403903 909.856296 
" clip-path="url(#pae1168330e)" style="fill: none; stroke: #8c564b"/>
    <path d="M 156.26754 930.030707 
L 156.26754 901.552873 
" clip-path="url(#pae1168330e)" style="fill: none; stroke: #8c564b"/>
    <path d="M 166.131176 926.479523 
L 166.131176 893.933427 
" clip-path="url(#pae1168330e)" style="fill: none; stroke: #8c564b"/>
    <path d="M 175.994813 916.694606 
L 175.994813 888.315197 
" clip-path="url(#pae1168330e)" style="fill: none; stroke: #8c564b"/>
    <path d="M 185.858449 911.718409 
L 185.858449 877.138181 
" clip-path="url(#pae1168330e)" style="fill: none; stroke: #8c564b"/>
    <path d="M 195.722085 903.019861 
L 195.722085 870.473764 
" clip-path="url(#pae1168330e)" style="fill: none; stroke: #8c564b"/>
    <path d="M 205.585722 900.582983 
L 205.585722 859.998788 
" clip-path="url(#pae1168330e)" style="fill: none; stroke: #8c564b"/>
    <path d="M 215.449358 896.665797 
L 215.449358 851.914913 
" clip-path="url(#pae1168330e)" style="fill: none; stroke: #8c564b"/>
    <path d="M 225.312994 892.194787 
L 225.312994 843.474068 
" clip-path="url(#pae1168330e)" style="fill: none; stroke: #8c564b"/>
    <path d="M 235.176631 884.098089 
L 235.176631 835.37737 
" clip-path="url(#pae1168330e)" style="fill: none; stroke: #8c564b"/>
    <path d="M 245.040267 872.76356 
L 245.040267 832.179365 
" clip-path="url(#pae1168330e)" style="fill: none; stroke: #8c564b"/>
    <path d="M 254.903903 861.08312 
L 254.903903 828.537023 
" clip-path="url(#pae1168330e)" style="fill: none; stroke: #8c564b"/>
    <path d="M 264.76754 852.799787 
L 264.76754 822.287821 
" clip-path="url(#pae1168330e)" style="fill: none; stroke: #8c564b"/>
    <path d="M 274.631176 846.086158 
L 274.631176 813.638486 
" clip-path="url(#pae1168330e)" style="fill: none; stroke: #8c564b"/>
    <path d="M 284.494813 845.822018 
L 284.494813 801.071135 
" clip-path="url(#pae1168330e)" style="fill: none; stroke: #8c564b"/>
    <path d="M 294.358449 844.58884 
L 294.358449 787.731597 
" clip-path="url(#pae1168330e)" style="fill: none; stroke: #8c564b"/>
    <path d="M 304.222085 845.992829 
L 304.222085 772.665686 
" clip-path="url(#pae1168330e)" style="fill: none; stroke: #8c564b"/>
    <path d="M 314.085722 844.379114 
L 314.085722 767.18056 
" clip-path="url(#pae1168330e)" style="fill: none; stroke: #8c564b"/>
    <path d="M 323.949358 843.970285 
L 323.949358 760.570912 
" clip-path="url(#pae1168330e)" style="fill: none; stroke: #8c564b"/>
    <path d="M 333.812994 842.890301 
L 333.812994 755.422666 
" clip-path="url(#pae1168330e)" style="fill: none; stroke: #8c564b"/>
    <path d="M 343.676631 840.378037 
L 343.676631 750.876271 
" clip-path="url(#pae1168330e)" style="fill: none; stroke: #8c564b"/>
    <path d="M 353.540267 839.22875 
L 353.540267 745.757147 
" clip-path="url(#pae1168330e)" style="fill: none; stroke: #8c564b"/>
    <path d="M 363.403903 837.61622 
L 363.403903 742.012061 
" clip-path="url(#pae1168330e)" style="fill: none; stroke: #8c564b"/>
    <path d="M 373.26754 833.949468 
L 373.26754 740.281014 
" clip-path="url(#pae1168330e)" style="fill: none; stroke: #8c564b"/>
    <path d="M 383.131176 831.201356 
L 383.131176 737.631328 
" clip-path="url(#pae1168330e)" style="fill: none; stroke: #8c564b"/>
    <path d="M 392.994813 827.96991 
L 392.994813 736.335588 
" clip-path="url(#pae1168330e)" style="fill: none; stroke: #8c564b"/>
    <path d="M 402.858449 824.599857 
L 402.858449 735.098091 
" clip-path="url(#pae1168330e)" style="fill: none; stroke: #8c564b"/>
    <path d="M 412.722085 822.731388 
L 412.722085 733.229622 
" clip-path="url(#pae1168330e)" style="fill: none; stroke: #8c564b"/>
    <path d="M 422.585722 819.430639 
L 422.585722 731.963004 
" clip-path="url(#pae1168330e)" style="fill: none; stroke: #8c564b"/>
    <path d="M 432.449358 816.545105 
L 432.449358 731.111601 
" clip-path="url(#pae1168330e)" style="fill: none; stroke: #8c564b"/>
    <path d="M 442.312994 816.059704 
L 442.312994 728.690495 
" clip-path="url(#pae1168330e)" style="fill: none; stroke: #8c564b"/>
    <path d="M 452.176631 813.707902 
L 452.176631 728.175972 
" clip-path="url(#pae1168330e)" style="fill: none; stroke: #8c564b"/>
   </g>
   <g id="line2d_46">
    <path d="M 106.949358 933.853654 
L 145.654267 933.743652 
L 153.643813 933.480134 
L 159.680358 933.061971 
L 164.651631 932.503477 
L 169.090267 931.791497 
L 173.173812 930.921843 
L 177.079813 929.868229 
L 180.808267 928.637039 
L 184.536722 927.166313 
L 188.087631 925.528397 
L 191.63854 923.648178 
L 195.189449 921.518224 
L 198.740358 919.134462 
L 202.468813 916.357647 
L 206.197267 913.303441 
L 210.103267 909.81397 
L 214.186813 905.862015 
L 218.447903 901.426907 
L 223.064085 896.292887 
L 228.035358 890.423185 
L 233.539267 883.574013 
L 239.930903 875.254622 
L 248.097994 864.237191 
L 274.552267 828.267268 
L 281.831631 818.90774 
L 288.400813 810.822505 
L 294.437358 803.738191 
L 300.296358 797.20506 
L 305.977813 791.20829 
L 311.481722 785.725007 
L 316.808085 780.727056 
L 322.134449 776.031494 
L 327.460813 771.634208 
L 332.787176 767.528517 
L 338.11354 763.705668 
L 343.439903 760.155278 
L 348.766267 756.865738 
L 354.270176 753.727317 
L 359.774085 750.839688 
L 365.45554 748.106337 
L 371.31454 745.53376 
L 377.351085 743.126178 
L 383.565176 740.885616 
L 390.134358 738.757575 
L 396.881085 736.806317 
L 403.982903 734.984031 
L 411.439813 733.299768 
L 419.429358 731.726289 
L 427.95154 730.279116 
L 437.006358 728.96818 
L 446.948903 727.758611 
L 457.779176 726.671195 
L 462.040267 726.3 
L 462.040267 726.3 
" clip-path="url(#pae1168330e)" style="fill: none; stroke: #8c564b; stroke-width: 2; stroke-linecap: square"/>
   </g>
   <g id="line2d_47">
    <path d="M 116.812994 933.853654 
L 126.676631 932.212884 
L 136.540267 928.663463 
L 146.403903 923.078148 
L 156.26754 915.79179 
L 166.131176 910.206475 
L 175.994813 902.504902 
L 185.858449 894.428295 
L 195.722085 886.746813 
L 205.585722 880.290885 
L 215.449358 874.290355 
L 225.312994 867.834427 
L 235.176631 859.73773 
L 245.040267 852.471463 
L 254.903903 844.810071 
L 264.76754 837.543804 
L 274.631176 829.862322 
L 284.494813 823.446577 
L 294.358449 816.160218 
L 304.222085 809.329258 
L 314.085722 805.779837 
L 323.949358 802.270598 
L 333.812994 799.156484 
L 343.676631 795.627154 
L 353.540267 792.492948 
L 363.403903 789.81414 
L 373.26754 787.115241 
L 383.131176 784.416342 
L 392.994813 782.152749 
L 402.858449 779.848974 
L 412.722085 777.980505 
L 422.585722 775.696821 
L 432.449358 773.828353 
L 442.312994 772.375099 
L 452.176631 770.941937 
" clip-path="url(#pae1168330e)" style="fill: none; stroke-dasharray: 3.7,1.6; stroke-dashoffset: 0; stroke: #8c564b"/>
    <defs>
     <path id="m08ed5bfbee" d="M -3 3 
L 3 3 
L 3 -3 
L -3 -3 
z
" style="stroke: #000000; stroke-linejoin: miter"/>
    </defs>
    <g clip-path="url(#pae1168330e)">
     <use xlink:href="#m08ed5bfbee" x="116.812994" y="933.853654" style="fill: #8c564b; stroke: #000000; stroke-linejoin: miter"/>
     <use xlink:href="#m08ed5bfbee" x="126.676631" y="932.212884" style="fill: #8c564b; stroke: #000000; stroke-linejoin: miter"/>
     <use xlink:href="#m08ed5bfbee" x="136.540267" y="928.663463" style="fill: #8c564b; stroke: #000000; stroke-linejoin: miter"/>
     <use xlink:href="#m08ed5bfbee" x="146.403903" y="923.078148" style="fill: #8c564b; stroke: #000000; stroke-linejoin: miter"/>
     <use xlink:href="#m08ed5bfbee" x="156.26754" y="915.79179" style="fill: #8c564b; stroke: #000000; stroke-linejoin: miter"/>
     <use xlink:href="#m08ed5bfbee" x="166.131176" y="910.206475" style="fill: #8c564b; stroke: #000000; stroke-linejoin: miter"/>
     <use xlink:href="#m08ed5bfbee" x="175.994813" y="902.504902" style="fill: #8c564b; stroke: #000000; stroke-linejoin: miter"/>
     <use xlink:href="#m08ed5bfbee" x="185.858449" y="894.428295" style="fill: #8c564b; stroke: #000000; stroke-linejoin: miter"/>
     <use xlink:href="#m08ed5bfbee" x="195.722085" y="886.746813" style="fill: #8c564b; stroke: #000000; stroke-linejoin: miter"/>
     <use xlink:href="#m08ed5bfbee" x="205.585722" y="880.290885" style="fill: #8c564b; stroke: #000000; stroke-linejoin: miter"/>
     <use xlink:href="#m08ed5bfbee" x="215.449358" y="874.290355" style="fill: #8c564b; stroke: #000000; stroke-linejoin: miter"/>
     <use xlink:href="#m08ed5bfbee" x="225.312994" y="867.834427" style="fill: #8c564b; stroke: #000000; stroke-linejoin: miter"/>
     <use xlink:href="#m08ed5bfbee" x="235.176631" y="859.73773" style="fill: #8c564b; stroke: #000000; stroke-linejoin: miter"/>
     <use xlink:href="#m08ed5bfbee" x="245.040267" y="852.471463" style="fill: #8c564b; stroke: #000000; stroke-linejoin: miter"/>
     <use xlink:href="#m08ed5bfbee" x="254.903903" y="844.810071" style="fill: #8c564b; stroke: #000000; stroke-linejoin: miter"/>
     <use xlink:href="#m08ed5bfbee" x="264.76754" y="837.543804" style="fill: #8c564b; stroke: #000000; stroke-linejoin: miter"/>
     <use xlink:href="#m08ed5bfbee" x="274.631176" y="829.862322" style="fill: #8c564b; stroke: #000000; stroke-linejoin: miter"/>
     <use xlink:href="#m08ed5bfbee" x="284.494813" y="823.446577" style="fill: #8c564b; stroke: #000000; stroke-linejoin: miter"/>
     <use xlink:href="#m08ed5bfbee" x="294.358449" y="816.160218" style="fill: #8c564b; stroke: #000000; stroke-linejoin: miter"/>
     <use xlink:href="#m08ed5bfbee" x="304.222085" y="809.329258" style="fill: #8c564b; stroke: #000000; stroke-linejoin: miter"/>
     <use xlink:href="#m08ed5bfbee" x="314.085722" y="805.779837" style="fill: #8c564b; stroke: #000000; stroke-linejoin: miter"/>
     <use xlink:href="#m08ed5bfbee" x="323.949358" y="802.270598" style="fill: #8c564b; stroke: #000000; stroke-linejoin: miter"/>
     <use xlink:href="#m08ed5bfbee" x="333.812994" y="799.156484" style="fill: #8c564b; stroke: #000000; stroke-linejoin: miter"/>
     <use xlink:href="#m08ed5bfbee" x="343.676631" y="795.627154" style="fill: #8c564b; stroke: #000000; stroke-linejoin: miter"/>
     <use xlink:href="#m08ed5bfbee" x="353.540267" y="792.492948" style="fill: #8c564b; stroke: #000000; stroke-linejoin: miter"/>
     <use xlink:href="#m08ed5bfbee" x="363.403903" y="789.81414" style="fill: #8c564b; stroke: #000000; stroke-linejoin: miter"/>
     <use xlink:href="#m08ed5bfbee" x="373.26754" y="787.115241" style="fill: #8c564b; stroke: #000000; stroke-linejoin: miter"/>
     <use xlink:href="#m08ed5bfbee" x="383.131176" y="784.416342" style="fill: #8c564b; stroke: #000000; stroke-linejoin: miter"/>
     <use xlink:href="#m08ed5bfbee" x="392.994813" y="782.152749" style="fill: #8c564b; stroke: #000000; stroke-linejoin: miter"/>
     <use xlink:href="#m08ed5bfbee" x="402.858449" y="779.848974" style="fill: #8c564b; stroke: #000000; stroke-linejoin: miter"/>
     <use xlink:href="#m08ed5bfbee" x="412.722085" y="777.980505" style="fill: #8c564b; stroke: #000000; stroke-linejoin: miter"/>
     <use xlink:href="#m08ed5bfbee" x="422.585722" y="775.696821" style="fill: #8c564b; stroke: #000000; stroke-linejoin: miter"/>
     <use xlink:href="#m08ed5bfbee" x="432.449358" y="773.828353" style="fill: #8c564b; stroke: #000000; stroke-linejoin: miter"/>
     <use xlink:href="#m08ed5bfbee" x="442.312994" y="772.375099" style="fill: #8c564b; stroke: #000000; stroke-linejoin: miter"/>
     <use xlink:href="#m08ed5bfbee" x="452.176631" y="770.941937" style="fill: #8c564b; stroke: #000000; stroke-linejoin: miter"/>
    </g>
   </g>
   <g id="patch_15">
    <path d="M 89.194813 946.8 
L 89.194813 715.8 
" style="fill: none; stroke: #000000; stroke-width: 0.8; stroke-linejoin: miter; stroke-linecap: square"/>
   </g>
   <g id="patch_16">
    <path d="M 479.794813 946.8 
L 479.794813 715.8 
" style="fill: none; stroke: #000000; stroke-width: 0.8; stroke-linejoin: miter; stroke-linecap: square"/>
   </g>
   <g id="patch_17">
    <path d="M 89.194813 946.8 
L 479.794813 946.8 
" style="fill: none; stroke: #000000; stroke-width: 0.8; stroke-linejoin: miter; stroke-linecap: square"/>
   </g>
   <g id="patch_18">
    <path d="M 89.194813 715.8 
L 479.794813 715.8 
" style="fill: none; stroke: #000000; stroke-width: 0.8; stroke-linejoin: miter; stroke-linecap: square"/>
   </g>
   <g id="legend_3">
    <g id="patch_19">
     <path d="M 96.194813 753.15625 
L 291.104188 753.15625 
Q 293.104188 753.15625 293.104188 751.15625 
L 293.104188 722.8 
Q 293.104188 720.8 291.104188 720.8 
L 96.194813 720.8 
Q 94.194813 720.8 94.194813 722.8 
L 94.194813 751.15625 
Q 94.194813 753.15625 96.194813 753.15625 
z
" style="fill: #ffffff; opacity: 0.8; stroke: #cccccc; stroke-linejoin: miter"/>
    </g>
    <g id="line2d_48">
     <path d="M 98.194813 728.898438 
L 118.194813 728.898438 
" style="fill: none; stroke: #8c564b; stroke-width: 2; stroke-linecap: square"/>
    </g>
    <g id="line2d_49"/>
    <g id="text_44">
     <!-- Sim -->
     <g transform="translate(126.194813 732.398438) scale(0.1 -0.1)">
      <use xlink:href="#DejaVuSans-53"/>
      <use xlink:href="#DejaVuSans-69" x="63.476562"/>
      <use xlink:href="#DejaVuSans-6d" x="91.259766"/>
     </g>
    </g>
    <g id="LineCollection_6">
     <path d="M 108.194813 748.576563 
L 108.194813 738.576563 
" style="fill: none; stroke: #8c564b"/>
    </g>
    <g id="line2d_50">
     <path d="M 98.194813 743.576563 
L 118.194813 743.576563 
" style="fill: none; stroke-dasharray: 3.7,1.6; stroke-dashoffset: 0; stroke: #8c564b"/>
    </g>
    <g id="line2d_51">
     <g>
      <use xlink:href="#m08ed5bfbee" x="108.194813" y="743.576563" style="fill: #8c564b; stroke: #000000; stroke-linejoin: miter"/>
     </g>
    </g>
    <g id="text_45">
     <!-- Data TIRC14 (2.9 mg)±SD (n=6) -->
     <g transform="translate(126.194813 747.076563) scale(0.1 -0.1)">
      <use xlink:href="#DejaVuSans-44"/>
      <use xlink:href="#DejaVuSans-61" x="77.001953"/>
      <use xlink:href="#DejaVuSans-74" x="138.28125"/>
      <use xlink:href="#DejaVuSans-61" x="177.490234"/>
      <use xlink:href="#DejaVuSans-20" x="238.769531"/>
      <use xlink:href="#DejaVuSans-54" x="270.556641"/>
      <use xlink:href="#DejaVuSans-49" x="331.640625"/>
      <use xlink:href="#DejaVuSans-52" x="361.132812"/>
      <use xlink:href="#DejaVuSans-43" x="425.615234"/>
      <use xlink:href="#DejaVuSans-31" x="495.439453"/>
      <use xlink:href="#DejaVuSans-34" x="559.0625"/>
      <use xlink:href="#DejaVuSans-20" x="622.685547"/>
      <use xlink:href="#DejaVuSans-28" x="654.472656"/>
      <use xlink:href="#DejaVuSans-32" x="693.486328"/>
      <use xlink:href="#DejaVuSans-2e" x="757.109375"/>
      <use xlink:href="#DejaVuSans-39" x="788.896484"/>
      <use xlink:href="#DejaVuSans-20" x="852.519531"/>
      <use xlink:href="#DejaVuSans-6d" x="884.306641"/>
      <use xlink:href="#DejaVuSans-67" x="981.71875"/>
      <use xlink:href="#DejaVuSans-29" x="1045.195312"/>
      <use xlink:href="#DejaVuSans-b1" x="1084.208984"/>
      <use xlink:href="#DejaVuSans-53" x="1167.998047"/>
      <use xlink:href="#DejaVuSans-44" x="1231.474609"/>
      <use xlink:href="#DejaVuSans-20" x="1308.476562"/>
      <use xlink:href="#DejaVuSans-28" x="1340.263672"/>
      <use xlink:href="#DejaVuSans-6e" x="1379.277344"/>
      <use xlink:href="#DejaVuSans-3d" x="1442.65625"/>
      <use xlink:href="#DejaVuSans-36" x="1526.445312"/>
      <use xlink:href="#DejaVuSans-29" x="1590.068359"/>
     </g>
    </g>
   </g>
  </g>
  <g id="text_46">
   <!-- Martin2024 -->
   <g transform="translate(197.208484 26.196094) scale(0.25 -0.25)">
    <defs>
     <path id="DejaVuSans-Bold-32" d="M 1844 884 
L 3897 884 
L 3897 0 
L 506 0 
L 506 884 
L 2209 2388 
Q 2438 2594 2547 2791 
Q 2656 2988 2656 3200 
Q 2656 3528 2436 3728 
Q 2216 3928 1850 3928 
Q 1569 3928 1234 3808 
Q 900 3688 519 3450 
L 519 4475 
Q 925 4609 1322 4679 
Q 1719 4750 2100 4750 
Q 2938 4750 3402 4381 
Q 3866 4013 3866 3353 
Q 3866 2972 3669 2642 
Q 3472 2313 2841 1759 
L 1844 884 
z
" transform="scale(0.015625)"/>
     <path id="DejaVuSans-Bold-30" d="M 2944 2338 
Q 2944 3213 2780 3570 
Q 2616 3928 2228 3928 
Q 1841 3928 1675 3570 
Q 1509 3213 1509 2338 
Q 1509 1453 1675 1090 
Q 1841 728 2228 728 
Q 2613 728 2778 1090 
Q 2944 1453 2944 2338 
z
M 4147 2328 
Q 4147 1169 3647 539 
Q 3147 -91 2228 -91 
Q 1306 -91 806 539 
Q 306 1169 306 2328 
Q 306 3491 806 4120 
Q 1306 4750 2228 4750 
Q 3147 4750 3647 4120 
Q 4147 3491 4147 2328 
z
" transform="scale(0.015625)"/>
     <path id="DejaVuSans-Bold-34" d="M 2356 3675 
L 1038 1722 
L 2356 1722 
L 2356 3675 
z
M 2156 4666 
L 3494 4666 
L 3494 1722 
L 4159 1722 
L 4159 850 
L 3494 850 
L 3494 0 
L 2356 0 
L 2356 850 
L 288 850 
L 288 1881 
L 2156 4666 
z
" transform="scale(0.015625)"/>
    </defs>
    <use xlink:href="#DejaVuSans-Bold-4d"/>
    <use xlink:href="#DejaVuSans-Bold-61" x="99.511719"/>
    <use xlink:href="#DejaVuSans-Bold-72" x="166.992188"/>
    <use xlink:href="#DejaVuSans-Bold-74" x="216.308594"/>
    <use xlink:href="#DejaVuSans-Bold-69" x="264.111328"/>
    <use xlink:href="#DejaVuSans-Bold-6e" x="298.388672"/>
    <use xlink:href="#DejaVuSans-Bold-32" x="369.580078"/>
    <use xlink:href="#DejaVuSans-Bold-30" x="439.160156"/>
    <use xlink:href="#DejaVuSans-Bold-32" x="508.740234"/>
    <use xlink:href="#DejaVuSans-Bold-34" x="578.320312"/>
   </g>
  </g>
 </g>
 <defs>
  <clipPath id="pfefb196464">
   <rect x="89.194813" y="115.2" width="390.6" height="231"/>
  </clipPath>
  <clipPath id="p7c82fa06e7">
   <rect x="89.194813" y="415.5" width="390.6" height="231"/>
  </clipPath>
  <clipPath id="pae1168330e">
   <rect x="89.194813" y="715.8" width="390.6" height="231"/>
  </clipPath>
 </defs>
</svg>
