<?xml version="1.0" encoding="utf-8" standalone="no"?>
<!DOCTYPE svg PUBLIC "-//W3C//DTD SVG 1.1//EN"
  "http://www.w3.org/Graphics/SVG/1.1/DTD/svg11.dtd">
<svg xmlns:xlink="http://www.w3.org/1999/xlink" width="466.049531pt" height="370.537812pt" viewBox="0 0 466.049531 370.537812" xmlns="http://www.w3.org/2000/svg" version="1.1">
 <metadata>
  <rdf:RDF xmlns:dc="http://purl.org/dc/elements/1.1/" xmlns:cc="http://creativecommons.org/ns#" xmlns:rdf="http://www.w3.org/1999/02/22-rdf-syntax-ns#">
   <cc:Work>
    <dc:type rdf:resource="http://purl.org/dc/dcmitype/StillImage"/>
    <dc:date>2025-03-07T00:13:20.715385</dc:date>
    <dc:format>image/svg+xml</dc:format>
    <dc:creator>
     <cc:Agent>
      <dc:title>Matplotlib v3.9.1, https://matplotlib.org/</dc:title>
     </cc:Agent>
    </dc:creator>
   </cc:Work>
  </rdf:RDF>
 </metadata>
 <defs>
  <style type="text/css">*{stroke-linejoin: round; stroke-linecap: butt}</style>
 </defs>
 <g id="figure_1">
  <g id="patch_1">
   <path d="M 0 370.537812 
L 466.049531 370.537812 
L 466.049531 0 
L 0 0 
z
" style="fill: #ffffff"/>
  </g>
  <g id="axes_1">
   <g id="patch_2">
    <path d="M 64.251875 320.4 
L 454.851875 320.4 
L 454.851875 43.2 
L 64.251875 43.2 
z
" style="fill: #ffffff"/>
   </g>
   <g id="matplotlib.axis_1">
    <g id="xtick_1">
     <g id="line2d_1">
      <defs>
       <path id="m25b71558b1" d="M 0 0 
L 0 3.5 
" style="stroke: #000000; stroke-width: 0.8"/>
      </defs>
      <g>
       <use xlink:href="#m25b71558b1" x="82.00642" y="320.4" style="stroke: #000000; stroke-width: 0.8"/>
      </g>
     </g>
     <g id="text_1">
      <!-- 0 -->
      <g transform="translate(77.234545 338.797656) scale(0.15 -0.15)">
       <defs>
        <path id="DejaVuSans-30" d="M 2034 4250 
Q 1547 4250 1301 3770 
Q 1056 3291 1056 2328 
Q 1056 1369 1301 889 
Q 1547 409 2034 409 
Q 2525 409 2770 889 
Q 3016 1369 3016 2328 
Q 3016 3291 2770 3770 
Q 2525 4250 2034 4250 
z
M 2034 4750 
Q 2819 4750 3233 4129 
Q 3647 3509 3647 2328 
Q 3647 1150 3233 529 
Q 2819 -91 2034 -91 
Q 1250 -91 836 529 
Q 422 1150 422 2328 
Q 422 3509 836 4129 
Q 1250 4750 2034 4750 
z
" transform="scale(0.015625)"/>
       </defs>
       <use xlink:href="#DejaVuSans-30"/>
      </g>
     </g>
    </g>
    <g id="xtick_2">
     <g id="line2d_2">
      <g>
       <use xlink:href="#m25b71558b1" x="153.024602" y="320.4" style="stroke: #000000; stroke-width: 0.8"/>
      </g>
     </g>
     <g id="text_2">
      <!-- 1 -->
      <g transform="translate(148.252727 338.797656) scale(0.15 -0.15)">
       <defs>
        <path id="DejaVuSans-31" d="M 794 531 
L 1825 531 
L 1825 4091 
L 703 3866 
L 703 4441 
L 1819 4666 
L 2450 4666 
L 2450 531 
L 3481 531 
L 3481 0 
L 794 0 
L 794 531 
z
" transform="scale(0.015625)"/>
       </defs>
       <use xlink:href="#DejaVuSans-31"/>
      </g>
     </g>
    </g>
    <g id="xtick_3">
     <g id="line2d_3">
      <g>
       <use xlink:href="#m25b71558b1" x="224.042784" y="320.4" style="stroke: #000000; stroke-width: 0.8"/>
      </g>
     </g>
     <g id="text_3">
      <!-- 2 -->
      <g transform="translate(219.270909 338.797656) scale(0.15 -0.15)">
       <defs>
        <path id="DejaVuSans-32" d="M 1228 531 
L 3431 531 
L 3431 0 
L 469 0 
L 469 531 
Q 828 903 1448 1529 
Q 2069 2156 2228 2338 
Q 2531 2678 2651 2914 
Q 2772 3150 2772 3378 
Q 2772 3750 2511 3984 
Q 2250 4219 1831 4219 
Q 1534 4219 1204 4116 
Q 875 4013 500 3803 
L 500 4441 
Q 881 4594 1212 4672 
Q 1544 4750 1819 4750 
Q 2544 4750 2975 4387 
Q 3406 4025 3406 3419 
Q 3406 3131 3298 2873 
Q 3191 2616 2906 2266 
Q 2828 2175 2409 1742 
Q 1991 1309 1228 531 
z
" transform="scale(0.015625)"/>
       </defs>
       <use xlink:href="#DejaVuSans-32"/>
      </g>
     </g>
    </g>
    <g id="xtick_4">
     <g id="line2d_4">
      <g>
       <use xlink:href="#m25b71558b1" x="295.060966" y="320.4" style="stroke: #000000; stroke-width: 0.8"/>
      </g>
     </g>
     <g id="text_4">
      <!-- 3 -->
      <g transform="translate(290.289091 338.797656) scale(0.15 -0.15)">
       <defs>
        <path id="DejaVuSans-33" d="M 2597 2516 
Q 3050 2419 3304 2112 
Q 3559 1806 3559 1356 
Q 3559 666 3084 287 
Q 2609 -91 1734 -91 
Q 1441 -91 1130 -33 
Q 819 25 488 141 
L 488 750 
Q 750 597 1062 519 
Q 1375 441 1716 441 
Q 2309 441 2620 675 
Q 2931 909 2931 1356 
Q 2931 1769 2642 2001 
Q 2353 2234 1838 2234 
L 1294 2234 
L 1294 2753 
L 1863 2753 
Q 2328 2753 2575 2939 
Q 2822 3125 2822 3475 
Q 2822 3834 2567 4026 
Q 2313 4219 1838 4219 
Q 1578 4219 1281 4162 
Q 984 4106 628 3988 
L 628 4550 
Q 988 4650 1302 4700 
Q 1616 4750 1894 4750 
Q 2613 4750 3031 4423 
Q 3450 4097 3450 3541 
Q 3450 3153 3228 2886 
Q 3006 2619 2597 2516 
z
" transform="scale(0.015625)"/>
       </defs>
       <use xlink:href="#DejaVuSans-33"/>
      </g>
     </g>
    </g>
    <g id="xtick_5">
     <g id="line2d_5">
      <g>
       <use xlink:href="#m25b71558b1" x="366.079148" y="320.4" style="stroke: #000000; stroke-width: 0.8"/>
      </g>
     </g>
     <g id="text_5">
      <!-- 4 -->
      <g transform="translate(361.307273 338.797656) scale(0.15 -0.15)">
       <defs>
        <path id="DejaVuSans-34" d="M 2419 4116 
L 825 1625 
L 2419 1625 
L 2419 4116 
z
M 2253 4666 
L 3047 4666 
L 3047 1625 
L 3713 1625 
L 3713 1100 
L 3047 1100 
L 3047 0 
L 2419 0 
L 2419 1100 
L 313 1100 
L 313 1709 
L 2253 4666 
z
" transform="scale(0.015625)"/>
       </defs>
       <use xlink:href="#DejaVuSans-34"/>
      </g>
     </g>
    </g>
    <g id="xtick_6">
     <g id="line2d_6">
      <g>
       <use xlink:href="#m25b71558b1" x="437.09733" y="320.4" style="stroke: #000000; stroke-width: 0.8"/>
      </g>
     </g>
     <g id="text_6">
      <!-- 5 -->
      <g transform="translate(432.325455 338.797656) scale(0.15 -0.15)">
       <defs>
        <path id="DejaVuSans-35" d="M 691 4666 
L 3169 4666 
L 3169 4134 
L 1269 4134 
L 1269 2991 
Q 1406 3038 1543 3061 
Q 1681 3084 1819 3084 
Q 2600 3084 3056 2656 
Q 3513 2228 3513 1497 
Q 3513 744 3044 326 
Q 2575 -91 1722 -91 
Q 1428 -91 1123 -41 
Q 819 9 494 109 
L 494 744 
Q 775 591 1075 516 
Q 1375 441 1709 441 
Q 2250 441 2565 725 
Q 2881 1009 2881 1497 
Q 2881 1984 2565 2268 
Q 2250 2553 1709 2553 
Q 1456 2553 1204 2497 
Q 953 2441 691 2322 
L 691 4666 
z
" transform="scale(0.015625)"/>
       </defs>
       <use xlink:href="#DejaVuSans-35"/>
      </g>
     </g>
    </g>
    <g id="text_7">
     <!-- time [week] -->
     <g transform="translate(198.813125 359.594375) scale(0.18 -0.18)">
      <defs>
       <path id="DejaVuSans-Bold-74" d="M 1759 4494 
L 1759 3500 
L 2913 3500 
L 2913 2700 
L 1759 2700 
L 1759 1216 
Q 1759 972 1856 886 
Q 1953 800 2241 800 
L 2816 800 
L 2816 0 
L 1856 0 
Q 1194 0 917 276 
Q 641 553 641 1216 
L 641 2700 
L 84 2700 
L 84 3500 
L 641 3500 
L 641 4494 
L 1759 4494 
z
" transform="scale(0.015625)"/>
       <path id="DejaVuSans-Bold-69" d="M 538 3500 
L 1656 3500 
L 1656 0 
L 538 0 
L 538 3500 
z
M 538 4863 
L 1656 4863 
L 1656 3950 
L 538 3950 
L 538 4863 
z
" transform="scale(0.015625)"/>
       <path id="DejaVuSans-Bold-6d" d="M 3781 2919 
Q 3994 3244 4286 3414 
Q 4578 3584 4928 3584 
Q 5531 3584 5847 3212 
Q 6163 2841 6163 2131 
L 6163 0 
L 5038 0 
L 5038 1825 
Q 5041 1866 5042 1909 
Q 5044 1953 5044 2034 
Q 5044 2406 4934 2573 
Q 4825 2741 4581 2741 
Q 4263 2741 4089 2478 
Q 3916 2216 3909 1719 
L 3909 0 
L 2784 0 
L 2784 1825 
Q 2784 2406 2684 2573 
Q 2584 2741 2328 2741 
Q 2006 2741 1831 2477 
Q 1656 2213 1656 1722 
L 1656 0 
L 531 0 
L 531 3500 
L 1656 3500 
L 1656 2988 
Q 1863 3284 2130 3434 
Q 2397 3584 2719 3584 
Q 3081 3584 3359 3409 
Q 3638 3234 3781 2919 
z
" transform="scale(0.015625)"/>
       <path id="DejaVuSans-Bold-65" d="M 4031 1759 
L 4031 1441 
L 1416 1441 
Q 1456 1047 1700 850 
Q 1944 653 2381 653 
Q 2734 653 3104 758 
Q 3475 863 3866 1075 
L 3866 213 
Q 3469 63 3072 -14 
Q 2675 -91 2278 -91 
Q 1328 -91 801 392 
Q 275 875 275 1747 
Q 275 2603 792 3093 
Q 1309 3584 2216 3584 
Q 3041 3584 3536 3087 
Q 4031 2591 4031 1759 
z
M 2881 2131 
Q 2881 2450 2695 2645 
Q 2509 2841 2209 2841 
Q 1884 2841 1681 2658 
Q 1478 2475 1428 2131 
L 2881 2131 
z
" transform="scale(0.015625)"/>
       <path id="DejaVuSans-Bold-20" transform="scale(0.015625)"/>
       <path id="DejaVuSans-Bold-5b" d="M 550 4863 
L 2491 4863 
L 2491 4159 
L 1613 4159 
L 1613 -141 
L 2491 -141 
L 2491 -844 
L 550 -844 
L 550 4863 
z
" transform="scale(0.015625)"/>
       <path id="DejaVuSans-Bold-77" d="M 225 3500 
L 1313 3500 
L 1900 1088 
L 2491 3500 
L 3425 3500 
L 4013 1113 
L 4603 3500 
L 5691 3500 
L 4769 0 
L 3547 0 
L 2956 2406 
L 2369 0 
L 1147 0 
L 225 3500 
z
" transform="scale(0.015625)"/>
       <path id="DejaVuSans-Bold-6b" d="M 538 4863 
L 1656 4863 
L 1656 2216 
L 2944 3500 
L 4244 3500 
L 2534 1894 
L 4378 0 
L 3022 0 
L 1656 1459 
L 1656 0 
L 538 0 
L 538 4863 
z
" transform="scale(0.015625)"/>
       <path id="DejaVuSans-Bold-5d" d="M 2375 -844 
L 434 -844 
L 434 -141 
L 1313 -141 
L 1313 4159 
L 434 4159 
L 434 4863 
L 2375 4863 
L 2375 -844 
z
" transform="scale(0.015625)"/>
      </defs>
      <use xlink:href="#DejaVuSans-Bold-74"/>
      <use xlink:href="#DejaVuSans-Bold-69" x="47.802734"/>
      <use xlink:href="#DejaVuSans-Bold-6d" x="82.080078"/>
      <use xlink:href="#DejaVuSans-Bold-65" x="186.279297"/>
      <use xlink:href="#DejaVuSans-Bold-20" x="254.101562"/>
      <use xlink:href="#DejaVuSans-Bold-5b" x="288.916016"/>
      <use xlink:href="#DejaVuSans-Bold-77" x="334.619141"/>
      <use xlink:href="#DejaVuSans-Bold-65" x="427.001953"/>
      <use xlink:href="#DejaVuSans-Bold-65" x="494.824219"/>
      <use xlink:href="#DejaVuSans-Bold-6b" x="562.646484"/>
      <use xlink:href="#DejaVuSans-Bold-5d" x="629.150391"/>
     </g>
    </g>
   </g>
   <g id="matplotlib.axis_2">
    <g id="ytick_1">
     <g id="line2d_7">
      <defs>
       <path id="m3e688c2e3c" d="M 0 0 
L -3.5 0 
" style="stroke: #000000; stroke-width: 0.8"/>
      </defs>
      <g>
       <use xlink:href="#m3e688c2e3c" x="64.251875" y="301.064151" style="stroke: #000000; stroke-width: 0.8"/>
      </g>
     </g>
     <g id="text_8">
      <!-- 0 -->
      <g transform="translate(47.708125 306.762979) scale(0.15 -0.15)">
       <use xlink:href="#DejaVuSans-30"/>
      </g>
     </g>
    </g>
    <g id="ytick_2">
     <g id="line2d_8">
      <g>
       <use xlink:href="#m3e688c2e3c" x="64.251875" y="254.527335" style="stroke: #000000; stroke-width: 0.8"/>
      </g>
     </g>
     <g id="text_9">
      <!-- 20 -->
      <g transform="translate(38.164375 260.226163) scale(0.15 -0.15)">
       <use xlink:href="#DejaVuSans-32"/>
       <use xlink:href="#DejaVuSans-30" x="63.623047"/>
      </g>
     </g>
    </g>
    <g id="ytick_3">
     <g id="line2d_9">
      <g>
       <use xlink:href="#m3e688c2e3c" x="64.251875" y="207.990519" style="stroke: #000000; stroke-width: 0.8"/>
      </g>
     </g>
     <g id="text_10">
      <!-- 40 -->
      <g transform="translate(38.164375 213.689348) scale(0.15 -0.15)">
       <use xlink:href="#DejaVuSans-34"/>
       <use xlink:href="#DejaVuSans-30" x="63.623047"/>
      </g>
     </g>
    </g>
    <g id="ytick_4">
     <g id="line2d_10">
      <g>
       <use xlink:href="#m3e688c2e3c" x="64.251875" y="161.453704" style="stroke: #000000; stroke-width: 0.8"/>
      </g>
     </g>
     <g id="text_11">
      <!-- 60 -->
      <g transform="translate(38.164375 167.152532) scale(0.15 -0.15)">
       <defs>
        <path id="DejaVuSans-36" d="M 2113 2584 
Q 1688 2584 1439 2293 
Q 1191 2003 1191 1497 
Q 1191 994 1439 701 
Q 1688 409 2113 409 
Q 2538 409 2786 701 
Q 3034 994 3034 1497 
Q 3034 2003 2786 2293 
Q 2538 2584 2113 2584 
z
M 3366 4563 
L 3366 3988 
Q 3128 4100 2886 4159 
Q 2644 4219 2406 4219 
Q 1781 4219 1451 3797 
Q 1122 3375 1075 2522 
Q 1259 2794 1537 2939 
Q 1816 3084 2150 3084 
Q 2853 3084 3261 2657 
Q 3669 2231 3669 1497 
Q 3669 778 3244 343 
Q 2819 -91 2113 -91 
Q 1303 -91 875 529 
Q 447 1150 447 2328 
Q 447 3434 972 4092 
Q 1497 4750 2381 4750 
Q 2619 4750 2861 4703 
Q 3103 4656 3366 4563 
z
" transform="scale(0.015625)"/>
       </defs>
       <use xlink:href="#DejaVuSans-36"/>
       <use xlink:href="#DejaVuSans-30" x="63.623047"/>
      </g>
     </g>
    </g>
    <g id="ytick_5">
     <g id="line2d_11">
      <g>
       <use xlink:href="#m3e688c2e3c" x="64.251875" y="114.916888" style="stroke: #000000; stroke-width: 0.8"/>
      </g>
     </g>
     <g id="text_12">
      <!-- 80 -->
      <g transform="translate(38.164375 120.615716) scale(0.15 -0.15)">
       <defs>
        <path id="DejaVuSans-38" d="M 2034 2216 
Q 1584 2216 1326 1975 
Q 1069 1734 1069 1313 
Q 1069 891 1326 650 
Q 1584 409 2034 409 
Q 2484 409 2743 651 
Q 3003 894 3003 1313 
Q 3003 1734 2745 1975 
Q 2488 2216 2034 2216 
z
M 1403 2484 
Q 997 2584 770 2862 
Q 544 3141 544 3541 
Q 544 4100 942 4425 
Q 1341 4750 2034 4750 
Q 2731 4750 3128 4425 
Q 3525 4100 3525 3541 
Q 3525 3141 3298 2862 
Q 3072 2584 2669 2484 
Q 3125 2378 3379 2068 
Q 3634 1759 3634 1313 
Q 3634 634 3220 271 
Q 2806 -91 2034 -91 
Q 1263 -91 848 271 
Q 434 634 434 1313 
Q 434 1759 690 2068 
Q 947 2378 1403 2484 
z
M 1172 3481 
Q 1172 3119 1398 2916 
Q 1625 2713 2034 2713 
Q 2441 2713 2670 2916 
Q 2900 3119 2900 3481 
Q 2900 3844 2670 4047 
Q 2441 4250 2034 4250 
Q 1625 4250 1398 4047 
Q 1172 3844 1172 3481 
z
" transform="scale(0.015625)"/>
       </defs>
       <use xlink:href="#DejaVuSans-38"/>
       <use xlink:href="#DejaVuSans-30" x="63.623047"/>
      </g>
     </g>
    </g>
    <g id="ytick_6">
     <g id="line2d_12">
      <g>
       <use xlink:href="#m3e688c2e3c" x="64.251875" y="68.380072" style="stroke: #000000; stroke-width: 0.8"/>
      </g>
     </g>
     <g id="text_13">
      <!-- 100 -->
      <g transform="translate(28.620625 74.0789) scale(0.15 -0.15)">
       <use xlink:href="#DejaVuSans-31"/>
       <use xlink:href="#DejaVuSans-30" x="63.623047"/>
       <use xlink:href="#DejaVuSans-30" x="127.246094"/>
      </g>
     </g>
    </g>
    <g id="text_14">
     <!-- tirzepatide [nM] -->
     <g transform="translate(20.877187 264.140156) rotate(-90) scale(0.18 -0.18)">
      <defs>
       <path id="DejaVuSans-Bold-72" d="M 3138 2547 
Q 2991 2616 2845 2648 
Q 2700 2681 2553 2681 
Q 2122 2681 1889 2404 
Q 1656 2128 1656 1613 
L 1656 0 
L 538 0 
L 538 3500 
L 1656 3500 
L 1656 2925 
Q 1872 3269 2151 3426 
Q 2431 3584 2822 3584 
Q 2878 3584 2943 3579 
Q 3009 3575 3134 3559 
L 3138 2547 
z
" transform="scale(0.015625)"/>
       <path id="DejaVuSans-Bold-7a" d="M 366 3500 
L 3419 3500 
L 3419 2719 
L 1575 800 
L 3419 800 
L 3419 0 
L 288 0 
L 288 781 
L 2131 2700 
L 366 2700 
L 366 3500 
z
" transform="scale(0.015625)"/>
       <path id="DejaVuSans-Bold-70" d="M 1656 506 
L 1656 -1331 
L 538 -1331 
L 538 3500 
L 1656 3500 
L 1656 2988 
Q 1888 3294 2169 3439 
Q 2450 3584 2816 3584 
Q 3463 3584 3878 3070 
Q 4294 2556 4294 1747 
Q 4294 938 3878 423 
Q 3463 -91 2816 -91 
Q 2450 -91 2169 54 
Q 1888 200 1656 506 
z
M 2400 2772 
Q 2041 2772 1848 2508 
Q 1656 2244 1656 1747 
Q 1656 1250 1848 986 
Q 2041 722 2400 722 
Q 2759 722 2948 984 
Q 3138 1247 3138 1747 
Q 3138 2247 2948 2509 
Q 2759 2772 2400 2772 
z
" transform="scale(0.015625)"/>
       <path id="DejaVuSans-Bold-61" d="M 2106 1575 
Q 1756 1575 1579 1456 
Q 1403 1338 1403 1106 
Q 1403 894 1545 773 
Q 1688 653 1941 653 
Q 2256 653 2472 879 
Q 2688 1106 2688 1447 
L 2688 1575 
L 2106 1575 
z
M 3816 1997 
L 3816 0 
L 2688 0 
L 2688 519 
Q 2463 200 2181 54 
Q 1900 -91 1497 -91 
Q 953 -91 614 226 
Q 275 544 275 1050 
Q 275 1666 698 1953 
Q 1122 2241 2028 2241 
L 2688 2241 
L 2688 2328 
Q 2688 2594 2478 2717 
Q 2269 2841 1825 2841 
Q 1466 2841 1156 2769 
Q 847 2697 581 2553 
L 581 3406 
Q 941 3494 1303 3539 
Q 1666 3584 2028 3584 
Q 2975 3584 3395 3211 
Q 3816 2838 3816 1997 
z
" transform="scale(0.015625)"/>
       <path id="DejaVuSans-Bold-64" d="M 2919 2988 
L 2919 4863 
L 4044 4863 
L 4044 0 
L 2919 0 
L 2919 506 
Q 2688 197 2409 53 
Q 2131 -91 1766 -91 
Q 1119 -91 703 423 
Q 288 938 288 1747 
Q 288 2556 703 3070 
Q 1119 3584 1766 3584 
Q 2128 3584 2408 3439 
Q 2688 3294 2919 2988 
z
M 2181 722 
Q 2541 722 2730 984 
Q 2919 1247 2919 1747 
Q 2919 2247 2730 2509 
Q 2541 2772 2181 2772 
Q 1825 2772 1636 2509 
Q 1447 2247 1447 1747 
Q 1447 1247 1636 984 
Q 1825 722 2181 722 
z
" transform="scale(0.015625)"/>
       <path id="DejaVuSans-Bold-6e" d="M 4056 2131 
L 4056 0 
L 2931 0 
L 2931 347 
L 2931 1631 
Q 2931 2084 2911 2256 
Q 2891 2428 2841 2509 
Q 2775 2619 2662 2680 
Q 2550 2741 2406 2741 
Q 2056 2741 1856 2470 
Q 1656 2200 1656 1722 
L 1656 0 
L 538 0 
L 538 3500 
L 1656 3500 
L 1656 2988 
Q 1909 3294 2193 3439 
Q 2478 3584 2822 3584 
Q 3428 3584 3742 3212 
Q 4056 2841 4056 2131 
z
" transform="scale(0.015625)"/>
       <path id="DejaVuSans-Bold-4d" d="M 588 4666 
L 2119 4666 
L 3181 2169 
L 4250 4666 
L 5778 4666 
L 5778 0 
L 4641 0 
L 4641 3413 
L 3566 897 
L 2803 897 
L 1728 3413 
L 1728 0 
L 588 0 
L 588 4666 
z
" transform="scale(0.015625)"/>
      </defs>
      <use xlink:href="#DejaVuSans-Bold-74"/>
      <use xlink:href="#DejaVuSans-Bold-69" x="47.802734"/>
      <use xlink:href="#DejaVuSans-Bold-72" x="82.080078"/>
      <use xlink:href="#DejaVuSans-Bold-7a" x="131.396484"/>
      <use xlink:href="#DejaVuSans-Bold-65" x="189.599609"/>
      <use xlink:href="#DejaVuSans-Bold-70" x="257.421875"/>
      <use xlink:href="#DejaVuSans-Bold-61" x="329.003906"/>
      <use xlink:href="#DejaVuSans-Bold-74" x="396.484375"/>
      <use xlink:href="#DejaVuSans-Bold-69" x="444.287109"/>
      <use xlink:href="#DejaVuSans-Bold-64" x="478.564453"/>
      <use xlink:href="#DejaVuSans-Bold-65" x="550.146484"/>
      <use xlink:href="#DejaVuSans-Bold-20" x="617.96875"/>
      <use xlink:href="#DejaVuSans-Bold-5b" x="652.783203"/>
      <use xlink:href="#DejaVuSans-Bold-6e" x="698.486328"/>
      <use xlink:href="#DejaVuSans-Bold-4d" x="769.677734"/>
      <use xlink:href="#DejaVuSans-Bold-5d" x="869.189453"/>
     </g>
    </g>
   </g>
   <g id="LineCollection_1">
    <path clip-path="url(#p447c3f63ea)" style="fill: none; stroke: #000000"/>
    <path d="M 85.388239 227.366038 
L 85.388239 151.290566 
" clip-path="url(#p447c3f63ea)" style="fill: none; stroke: #000000"/>
    <path d="M 87.079148 205.573585 
L 87.079148 119.196226 
" clip-path="url(#p447c3f63ea)" style="fill: none; stroke: #000000"/>
    <path d="M 92.151875 185.762264 
L 92.151875 100.969811 
" clip-path="url(#p447c3f63ea)" style="fill: none; stroke: #000000"/>
    <path d="M 102.29733 178.630189 
L 102.29733 104.139623 
" clip-path="url(#p447c3f63ea)" style="fill: none; stroke: #000000"/>
    <path d="M 112.442784 179.818868 
L 112.442784 118.007547 
" clip-path="url(#p447c3f63ea)" style="fill: none; stroke: #000000"/>
    <path d="M 122.588239 169.120755 
L 122.588239 139.007547 
" clip-path="url(#p447c3f63ea)" style="fill: none; stroke: #000000"/>
    <path d="M 153.024602 214.686792 
L 153.024602 179.026415 
" clip-path="url(#p447c3f63ea)" style="fill: none; stroke: #000000"/>
    <path d="M 224.042784 274.516981 
L 224.042784 246.781132 
" clip-path="url(#p447c3f63ea)" style="fill: none; stroke: #000000"/>
    <path d="M 355.933693 307.8 
L 355.933693 282.441509 
" clip-path="url(#p447c3f63ea)" style="fill: none; stroke: #000000"/>
   </g>
   <g id="LineCollection_2">
    <path clip-path="url(#p447c3f63ea)" style="fill: none; stroke: #66c2a4"/>
    <path d="M 85.388239 217.856604 
L 85.388239 137.026415 
" clip-path="url(#p447c3f63ea)" style="fill: none; stroke: #66c2a4"/>
    <path d="M 87.079148 248.366038 
L 87.079148 80.366038 
" clip-path="url(#p447c3f63ea)" style="fill: none; stroke: #66c2a4"/>
    <path d="M 92.151875 202.007547 
L 92.151875 81.554717 
" clip-path="url(#p447c3f63ea)" style="fill: none; stroke: #66c2a4"/>
    <path d="M 102.29733 149.309434 
L 102.29733 90.667925 
" clip-path="url(#p447c3f63ea)" style="fill: none; stroke: #66c2a4"/>
    <path d="M 112.442784 177.045283 
L 112.442784 109.686792 
" clip-path="url(#p447c3f63ea)" style="fill: none; stroke: #66c2a4"/>
    <path d="M 122.588239 168.724528 
L 122.588239 114.837736 
" clip-path="url(#p447c3f63ea)" style="fill: none; stroke: #66c2a4"/>
    <path d="M 153.024602 251.535849 
L 153.024602 134.25283 
" clip-path="url(#p447c3f63ea)" style="fill: none; stroke: #66c2a4"/>
    <path d="M 224.042784 293.139623 
L 224.042784 226.573585 
" clip-path="url(#p447c3f63ea)" style="fill: none; stroke: #66c2a4"/>
    <path d="M 355.933693 306.215094 
L 355.933693 282.441509 
" clip-path="url(#p447c3f63ea)" style="fill: none; stroke: #66c2a4"/>
   </g>
   <g id="LineCollection_3">
    <path clip-path="url(#p447c3f63ea)" style="fill: none; stroke: #2ca25f"/>
    <path d="M 85.388239 247.573585 
L 85.388239 151.686792 
" clip-path="url(#p447c3f63ea)" style="fill: none; stroke: #2ca25f"/>
    <path d="M 87.079148 202.403774 
L 87.079148 119.196226 
" clip-path="url(#p447c3f63ea)" style="fill: none; stroke: #2ca25f"/>
    <path d="M 92.151875 213.498113 
L 92.151875 79.573585 
" clip-path="url(#p447c3f63ea)" style="fill: none; stroke: #2ca25f"/>
    <path d="M 102.29733 174.271698 
L 102.29733 91.064151 
" clip-path="url(#p447c3f63ea)" style="fill: none; stroke: #2ca25f"/>
    <path d="M 112.442784 181.403774 
L 112.442784 97.403774 
" clip-path="url(#p447c3f63ea)" style="fill: none; stroke: #2ca25f"/>
    <path d="M 122.588239 183.384906 
L 122.588239 81.158491 
" clip-path="url(#p447c3f63ea)" style="fill: none; stroke: #2ca25f"/>
    <path d="M 153.024602 205.573585 
L 153.024602 134.25283 
" clip-path="url(#p447c3f63ea)" style="fill: none; stroke: #2ca25f"/>
    <path d="M 224.042784 261.837736 
L 224.042784 226.969811 
" clip-path="url(#p447c3f63ea)" style="fill: none; stroke: #2ca25f"/>
    <path d="M 355.933693 287.592453 
L 355.933693 287.592453 
" clip-path="url(#p447c3f63ea)" style="fill: none; stroke: #2ca25f"/>
   </g>
   <g id="LineCollection_4">
    <path clip-path="url(#p447c3f63ea)" style="fill: none; stroke: #006d2c"/>
    <path d="M 85.388239 173.875472 
L 85.388239 106.516981 
" clip-path="url(#p447c3f63ea)" style="fill: none; stroke: #006d2c"/>
    <path d="M 87.079148 141.781132 
L 87.079148 75.215094 
" clip-path="url(#p447c3f63ea)" style="fill: none; stroke: #006d2c"/>
    <path d="M 92.151875 143.762264 
L 92.151875 73.233962 
" clip-path="url(#p447c3f63ea)" style="fill: none; stroke: #006d2c"/>
    <path d="M 102.29733 175.460377 
L 102.29733 55.8 
" clip-path="url(#p447c3f63ea)" style="fill: none; stroke: #006d2c"/>
    <path d="M 112.442784 186.950943 
L 112.442784 87.101887 
" clip-path="url(#p447c3f63ea)" style="fill: none; stroke: #006d2c"/>
    <path d="M 122.588239 187.743396 
L 122.588239 114.837736 
" clip-path="url(#p447c3f63ea)" style="fill: none; stroke: #006d2c"/>
    <path d="M 153.024602 238.856604 
L 153.024602 178.630189 
" clip-path="url(#p447c3f63ea)" style="fill: none; stroke: #006d2c"/>
    <path d="M 224.042784 285.611321 
L 224.042784 246.781132 
" clip-path="url(#p447c3f63ea)" style="fill: none; stroke: #006d2c"/>
    <path d="M 355.933693 290.366038 
L 355.933693 290.366038 
" clip-path="url(#p447c3f63ea)" style="fill: none; stroke: #006d2c"/>
   </g>
   <g id="line2d_13">
    <path d="M 82.00642 301.064151 
L 83.781875 269.622671 
L 85.734875 238.94099 
L 87.687875 211.956818 
L 89.46333 190.336356 
L 91.238784 171.236602 
L 93.014239 154.434826 
L 94.789693 139.726622 
L 96.565148 126.924435 
L 98.163057 116.889601 
L 99.760966 108.143563 
L 101.358875 100.579459 
L 102.956784 94.098462 
L 104.377148 89.172821 
L 105.797511 84.971091 
L 107.217875 81.43772 
L 108.638239 78.52092 
L 109.881057 76.436476 
L 111.123875 74.75683 
L 112.366693 73.453538 
L 113.609511 72.499869 
L 114.674784 71.94163 
L 115.740057 71.606854 
L 116.80533 71.481398 
L 118.048148 71.581749 
L 119.290966 71.928717 
L 120.533784 72.503457 
L 121.954148 73.416566 
L 123.552057 74.741203 
L 125.327511 76.544389 
L 127.280511 78.883793 
L 129.411057 81.805071 
L 131.896693 85.625872 
L 134.73742 90.438471 
L 138.110784 96.633966 
L 142.19433 104.633236 
L 147.875784 116.302199 
L 164.742602 151.239189 
L 170.601602 162.704117 
L 175.927966 172.639468 
L 180.899239 181.450704 
L 185.692966 189.505655 
L 190.486693 197.120316 
L 195.102875 204.038311 
L 199.719057 210.556341 
L 204.335239 216.685017 
L 208.95142 222.437648 
L 213.567602 227.829384 
L 218.183784 232.876544 
L 222.799966 237.596095 
L 227.416148 242.005259 
L 232.209875 246.273892 
L 237.003602 250.245241 
L 241.974875 254.069348 
L 246.946148 257.613318 
L 252.094966 261.008709 
L 257.42133 264.247549 
L 262.747693 267.228723 
L 268.251602 270.059344 
L 273.933057 272.735947 
L 279.969602 275.329519 
L 286.183693 277.753514 
L 292.57533 280.010321 
L 299.322057 282.15715 
L 306.423875 284.181912 
L 313.880784 286.075764 
L 321.87033 287.870409 
L 330.214966 289.51629 
L 339.269784 291.071188 
L 348.857239 292.490245 
L 359.33242 293.811576 
L 370.69533 295.015819 
L 383.123511 296.105341 
L 396.972057 297.089913 
L 412.418511 297.959354 
L 429.995511 298.719821 
L 437.09733 298.971393 
L 437.09733 298.971393 
" clip-path="url(#p447c3f63ea)" style="fill: none; stroke: #000000; stroke-width: 2; stroke-linecap: square"/>
   </g>
   <g id="line2d_14">
    <path d="M 82.00642 301.064151 
L 83.95942 268.526636 
L 85.91242 239.779291 
L 87.86542 214.45219 
L 89.640875 194.122011 
L 91.41633 176.12723 
L 93.191784 160.263245 
L 94.967239 146.342214 
L 96.742693 134.191709 
L 98.518148 123.653478 
L 100.116057 115.427295 
L 101.713966 108.291756 
L 103.311875 102.156632 
L 104.909784 96.938454 
L 106.330148 93.007316 
L 107.750511 89.689258 
L 109.170875 86.937326 
L 110.591239 84.707738 
L 111.834057 83.153177 
L 113.076875 81.941647 
L 114.319693 81.049082 
L 115.562511 80.452861 
L 116.80533 80.131722 
L 118.048148 80.065685 
L 119.290966 80.235979 
L 120.533784 80.624972 
L 121.954148 81.316134 
L 123.374511 82.248241 
L 124.97242 83.558162 
L 126.747875 85.305035 
L 128.700875 87.539897 
L 131.008966 90.547406 
L 133.494602 94.161146 
L 136.33533 98.679857 
L 139.708693 104.465224 
L 143.969784 112.236821 
L 150.00633 123.760201 
L 165.98542 154.469276 
L 172.021966 165.479394 
L 177.525875 175.061522 
L 182.674693 183.58727 
L 187.645966 191.396921 
L 192.439693 198.52786 
L 197.23342 205.266994 
L 202.027148 211.620382 
L 206.820875 217.597931 
L 211.614602 223.212267 
L 216.40833 228.477865 
L 221.202057 233.410374 
L 225.995784 238.026094 
L 230.789511 242.341582 
L 235.760784 246.517447 
L 240.732057 250.406313 
L 245.880875 254.150312 
L 251.029693 257.624229 
L 256.356057 260.952929 
L 261.859966 264.129385 
L 267.54142 267.148412 
L 273.40042 270.00658 
L 279.436966 272.702096 
L 285.651057 275.234684 
L 292.220239 277.668116 
L 298.966966 279.930145 
L 306.068784 282.076364 
L 313.525693 284.096514 
L 321.337693 285.983345 
L 329.68233 287.768131 
L 338.559602 289.435921 
L 347.969511 290.976231 
L 358.089602 292.406056 
L 369.09742 293.732327 
L 380.992966 294.938231 
L 394.13133 296.041056 
L 408.512511 297.021997 
L 424.669148 297.897491 
L 437.09733 298.439615 
L 437.09733 298.439615 
" clip-path="url(#p447c3f63ea)" style="fill: none; stroke: #66c2a4; stroke-width: 2; stroke-linecap: square"/>
   </g>
   <g id="line2d_15">
    <path d="M 82.00642 301.064151 
L 83.781875 268.070559 
L 85.734875 235.926667 
L 87.51033 210.122809 
L 89.285784 187.278585 
L 91.061239 167.132156 
L 92.836693 149.443267 
L 94.612148 133.991513 
L 96.387602 120.57474 
L 97.985511 110.086013 
L 99.58342 100.97085 
L 101.18133 93.114216 
L 102.779239 86.409767 
L 104.199602 81.337898 
L 105.619966 77.034582 
L 107.04033 73.440122 
L 108.283148 70.832629 
L 109.525966 68.690341 
L 110.768784 66.980496 
L 112.011602 65.672308 
L 113.076875 64.848723 
L 114.142148 64.281781 
L 115.20742 63.955205 
L 116.272693 63.853576 
L 117.337966 63.962288 
L 118.580784 64.336552 
L 119.823602 64.95761 
L 121.243966 65.944724 
L 122.66433 67.201778 
L 124.262239 68.907386 
L 126.037693 71.125762 
L 127.990693 73.911206 
L 130.298784 77.603246 
L 132.961966 82.311003 
L 135.980239 88.107426 
L 139.708693 95.768759 
L 144.679966 106.538007 
L 166.162966 153.737008 
L 171.48933 164.588484 
L 176.460602 174.227091 
L 181.25433 183.043148 
L 185.870511 191.075998 
L 190.486693 198.658417 
L 194.92533 205.528871 
L 199.363966 211.996169 
L 203.802602 218.072406 
L 208.241239 223.771962 
L 212.679875 229.110742 
L 217.118511 234.105594 
L 221.557148 238.773848 
L 226.17333 243.301146 
L 230.789511 247.513565 
L 235.405693 251.430192 
L 240.19942 255.20422 
L 244.993148 258.699162 
L 249.96442 262.049106 
L 255.113239 265.245317 
L 260.262057 268.18418 
L 265.58842 270.974582 
L 271.09233 273.612524 
L 276.95133 276.169648 
L 282.987875 278.557525 
L 289.201966 280.778334 
L 295.771148 282.889638 
L 302.69542 284.878793 
L 309.974784 286.736579 
L 317.609239 288.457044 
L 325.77633 290.070041 
L 334.476057 291.562316 
L 343.885966 292.949578 
L 354.006057 294.216598 
L 365.19142 295.388309 
L 377.442057 296.442991 
L 391.113057 297.390396 
L 406.381966 298.220903 
L 423.958966 298.947308 
L 437.09733 299.366242 
L 437.09733 299.366242 
" clip-path="url(#p447c3f63ea)" style="fill: none; stroke: #2ca25f; stroke-width: 2; stroke-linecap: square"/>
   </g>
   <g id="line2d_16">
    <path d="M 82.00642 301.064151 
L 83.781875 267.276306 
L 85.734875 234.38607 
L 87.51033 208.007369 
L 89.285784 184.676839 
L 91.061239 164.123674 
L 92.836693 146.099443 
L 94.612148 130.37629 
L 96.387602 116.745269 
L 97.985511 106.107462 
L 99.58342 96.88038 
L 101.18133 88.945204 
L 102.779239 82.192125 
L 104.199602 77.09956 
L 105.619966 72.794609 
L 107.04033 69.215672 
L 108.283148 66.63445 
L 109.525966 64.529131 
L 110.768784 62.865932 
L 111.834057 61.768116 
L 112.89933 60.952929 
L 113.964602 60.402509 
L 115.029875 60.09994 
L 116.095148 60.029196 
L 117.16042 60.175103 
L 118.403239 60.600026 
L 119.646057 61.278806 
L 121.06642 62.33959 
L 122.486784 63.677552 
L 124.084693 65.481662 
L 125.860148 67.817344 
L 127.990693 71.021884 
L 130.298784 74.91489 
L 132.961966 79.855535 
L 136.157784 86.283262 
L 140.063784 94.674966 
L 145.390148 106.695608 
L 162.967148 146.766867 
L 168.471057 158.566187 
L 173.619875 169.078291 
L 178.413602 178.365055 
L 183.029784 186.832482 
L 187.46842 194.528493 
L 191.907057 201.789546 
L 196.345693 208.623188 
L 200.78433 215.04098 
L 205.222966 221.05734 
L 209.661602 226.688646 
L 214.100239 231.952524 
L 218.538875 236.867302 
L 222.977511 241.45158 
L 227.416148 245.723911 
L 232.03233 249.855847 
L 236.648511 253.69013 
L 241.442239 257.377512 
L 246.235966 260.785386 
L 251.207239 264.04526 
L 256.356057 267.149037 
L 261.504875 269.996859 
L 266.831239 272.69501 
L 272.335148 275.240086 
L 278.194148 277.701461 
L 284.230693 279.994344 
L 290.62233 282.179009 
L 297.191511 284.189894 
L 304.115784 286.079221 
L 311.572693 287.878895 
L 319.384693 289.533596 
L 327.72933 291.072953 
L 336.784148 292.512162 
L 346.549148 293.833133 
L 357.02433 295.024447 
L 368.564784 296.111173 
L 381.348057 297.08833 
L 395.729239 297.95926 
L 412.06342 298.719522 
L 430.883239 299.367731 
L 437.09733 299.539652 
L 437.09733 299.539652 
" clip-path="url(#p447c3f63ea)" style="fill: none; stroke: #006d2c; stroke-width: 2; stroke-linecap: square"/>
   </g>
   <g id="line2d_17">
    <path d="M 82.00642 301.064151 
L 85.388239 189.328302 
L 87.079148 162.384906 
L 92.151875 143.366038 
L 102.29733 141.384906 
L 112.442784 148.913208 
L 122.588239 154.064151 
L 153.024602 196.856604 
L 224.042784 260.649057 
L 355.933693 295.120755 
" clip-path="url(#p447c3f63ea)" style="fill: none; stroke-dasharray: 3.7,1.6; stroke-dashoffset: 0; stroke: #000000"/>
    <defs>
     <path id="me84e21b294" d="M -3 3 
L 3 3 
L 3 -3 
L -3 -3 
z
" style="stroke: #000000; stroke-linejoin: miter"/>
    </defs>
    <g clip-path="url(#p447c3f63ea)">
     <use xlink:href="#me84e21b294" x="82.00642" y="301.064151" style="stroke: #000000; stroke-linejoin: miter"/>
     <use xlink:href="#me84e21b294" x="85.388239" y="189.328302" style="stroke: #000000; stroke-linejoin: miter"/>
     <use xlink:href="#me84e21b294" x="87.079148" y="162.384906" style="stroke: #000000; stroke-linejoin: miter"/>
     <use xlink:href="#me84e21b294" x="92.151875" y="143.366038" style="stroke: #000000; stroke-linejoin: miter"/>
     <use xlink:href="#me84e21b294" x="102.29733" y="141.384906" style="stroke: #000000; stroke-linejoin: miter"/>
     <use xlink:href="#me84e21b294" x="112.442784" y="148.913208" style="stroke: #000000; stroke-linejoin: miter"/>
     <use xlink:href="#me84e21b294" x="122.588239" y="154.064151" style="stroke: #000000; stroke-linejoin: miter"/>
     <use xlink:href="#me84e21b294" x="153.024602" y="196.856604" style="stroke: #000000; stroke-linejoin: miter"/>
     <use xlink:href="#me84e21b294" x="224.042784" y="260.649057" style="stroke: #000000; stroke-linejoin: miter"/>
     <use xlink:href="#me84e21b294" x="355.933693" y="295.120755" style="stroke: #000000; stroke-linejoin: miter"/>
    </g>
   </g>
   <g id="line2d_18">
    <path d="M 82.00642 301.064151 
L 85.388239 177.441509 
L 87.079148 164.366038 
L 92.151875 141.781132 
L 102.29733 119.988679 
L 112.442784 143.366038 
L 122.588239 141.781132 
L 153.024602 192.89434 
L 224.042784 259.856604 
L 355.933693 294.328302 
" clip-path="url(#p447c3f63ea)" style="fill: none; stroke-dasharray: 3.7,1.6; stroke-dashoffset: 0; stroke: #66c2a4"/>
    <defs>
     <path id="m580d27d341" d="M -3 3 
L 3 3 
L 3 -3 
L -3 -3 
z
" style="stroke: #000000; stroke-linejoin: miter"/>
    </defs>
    <g clip-path="url(#p447c3f63ea)">
     <use xlink:href="#m580d27d341" x="82.00642" y="301.064151" style="fill: #66c2a4; stroke: #000000; stroke-linejoin: miter"/>
     <use xlink:href="#m580d27d341" x="85.388239" y="177.441509" style="fill: #66c2a4; stroke: #000000; stroke-linejoin: miter"/>
     <use xlink:href="#m580d27d341" x="87.079148" y="164.366038" style="fill: #66c2a4; stroke: #000000; stroke-linejoin: miter"/>
     <use xlink:href="#m580d27d341" x="92.151875" y="141.781132" style="fill: #66c2a4; stroke: #000000; stroke-linejoin: miter"/>
     <use xlink:href="#m580d27d341" x="102.29733" y="119.988679" style="fill: #66c2a4; stroke: #000000; stroke-linejoin: miter"/>
     <use xlink:href="#m580d27d341" x="112.442784" y="143.366038" style="fill: #66c2a4; stroke: #000000; stroke-linejoin: miter"/>
     <use xlink:href="#m580d27d341" x="122.588239" y="141.781132" style="fill: #66c2a4; stroke: #000000; stroke-linejoin: miter"/>
     <use xlink:href="#m580d27d341" x="153.024602" y="192.89434" style="fill: #66c2a4; stroke: #000000; stroke-linejoin: miter"/>
     <use xlink:href="#m580d27d341" x="224.042784" y="259.856604" style="fill: #66c2a4; stroke: #000000; stroke-linejoin: miter"/>
     <use xlink:href="#m580d27d341" x="355.933693" y="294.328302" style="fill: #66c2a4; stroke: #000000; stroke-linejoin: miter"/>
    </g>
   </g>
   <g id="line2d_19">
    <path d="M 82.00642 301.064151 
L 85.388239 199.630189 
L 87.079148 160.8 
L 92.151875 146.535849 
L 102.29733 132.667925 
L 112.442784 139.403774 
L 122.588239 132.271698 
L 153.024602 169.913208 
L 224.042784 244.403774 
L 355.933693 287.592453 
" clip-path="url(#p447c3f63ea)" style="fill: none; stroke-dasharray: 3.7,1.6; stroke-dashoffset: 0; stroke: #2ca25f"/>
    <defs>
     <path id="m3889d3fe1b" d="M -3 3 
L 3 3 
L 3 -3 
L -3 -3 
z
" style="stroke: #000000; stroke-linejoin: miter"/>
    </defs>
    <g clip-path="url(#p447c3f63ea)">
     <use xlink:href="#m3889d3fe1b" x="82.00642" y="301.064151" style="fill: #2ca25f; stroke: #000000; stroke-linejoin: miter"/>
     <use xlink:href="#m3889d3fe1b" x="85.388239" y="199.630189" style="fill: #2ca25f; stroke: #000000; stroke-linejoin: miter"/>
     <use xlink:href="#m3889d3fe1b" x="87.079148" y="160.8" style="fill: #2ca25f; stroke: #000000; stroke-linejoin: miter"/>
     <use xlink:href="#m3889d3fe1b" x="92.151875" y="146.535849" style="fill: #2ca25f; stroke: #000000; stroke-linejoin: miter"/>
     <use xlink:href="#m3889d3fe1b" x="102.29733" y="132.667925" style="fill: #2ca25f; stroke: #000000; stroke-linejoin: miter"/>
     <use xlink:href="#m3889d3fe1b" x="112.442784" y="139.403774" style="fill: #2ca25f; stroke: #000000; stroke-linejoin: miter"/>
     <use xlink:href="#m3889d3fe1b" x="122.588239" y="132.271698" style="fill: #2ca25f; stroke: #000000; stroke-linejoin: miter"/>
     <use xlink:href="#m3889d3fe1b" x="153.024602" y="169.913208" style="fill: #2ca25f; stroke: #000000; stroke-linejoin: miter"/>
     <use xlink:href="#m3889d3fe1b" x="224.042784" y="244.403774" style="fill: #2ca25f; stroke: #000000; stroke-linejoin: miter"/>
     <use xlink:href="#m3889d3fe1b" x="355.933693" y="287.592453" style="fill: #2ca25f; stroke: #000000; stroke-linejoin: miter"/>
    </g>
   </g>
   <g id="line2d_20">
    <path d="M 82.00642 301.064151 
L 85.388239 140.196226 
L 87.079148 108.498113 
L 92.151875 108.498113 
L 102.29733 115.630189 
L 112.442784 137.026415 
L 122.588239 151.290566 
L 153.024602 208.743396 
L 224.042784 266.196226 
L 355.933693 290.366038 
" clip-path="url(#p447c3f63ea)" style="fill: none; stroke-dasharray: 3.7,1.6; stroke-dashoffset: 0; stroke: #006d2c"/>
    <defs>
     <path id="m8bf0d02feb" d="M -3 3 
L 3 3 
L 3 -3 
L -3 -3 
z
" style="stroke: #000000; stroke-linejoin: miter"/>
    </defs>
    <g clip-path="url(#p447c3f63ea)">
     <use xlink:href="#m8bf0d02feb" x="82.00642" y="301.064151" style="fill: #006d2c; stroke: #000000; stroke-linejoin: miter"/>
     <use xlink:href="#m8bf0d02feb" x="85.388239" y="140.196226" style="fill: #006d2c; stroke: #000000; stroke-linejoin: miter"/>
     <use xlink:href="#m8bf0d02feb" x="87.079148" y="108.498113" style="fill: #006d2c; stroke: #000000; stroke-linejoin: miter"/>
     <use xlink:href="#m8bf0d02feb" x="92.151875" y="108.498113" style="fill: #006d2c; stroke: #000000; stroke-linejoin: miter"/>
     <use xlink:href="#m8bf0d02feb" x="102.29733" y="115.630189" style="fill: #006d2c; stroke: #000000; stroke-linejoin: miter"/>
     <use xlink:href="#m8bf0d02feb" x="112.442784" y="137.026415" style="fill: #006d2c; stroke: #000000; stroke-linejoin: miter"/>
     <use xlink:href="#m8bf0d02feb" x="122.588239" y="151.290566" style="fill: #006d2c; stroke: #000000; stroke-linejoin: miter"/>
     <use xlink:href="#m8bf0d02feb" x="153.024602" y="208.743396" style="fill: #006d2c; stroke: #000000; stroke-linejoin: miter"/>
     <use xlink:href="#m8bf0d02feb" x="224.042784" y="266.196226" style="fill: #006d2c; stroke: #000000; stroke-linejoin: miter"/>
     <use xlink:href="#m8bf0d02feb" x="355.933693" y="290.366038" style="fill: #006d2c; stroke: #000000; stroke-linejoin: miter"/>
    </g>
   </g>
   <g id="patch_3">
    <path d="M 64.251875 320.4 
L 64.251875 43.2 
" style="fill: none; stroke: #000000; stroke-width: 0.8; stroke-linejoin: miter; stroke-linecap: square"/>
   </g>
   <g id="patch_4">
    <path d="M 454.851875 320.4 
L 454.851875 43.2 
" style="fill: none; stroke: #000000; stroke-width: 0.8; stroke-linejoin: miter; stroke-linecap: square"/>
   </g>
   <g id="patch_5">
    <path d="M 64.251875 320.4 
L 454.851875 320.4 
" style="fill: none; stroke: #000000; stroke-width: 0.8; stroke-linejoin: miter; stroke-linecap: square"/>
   </g>
   <g id="patch_6">
    <path d="M 64.251875 43.2 
L 454.851875 43.2 
" style="fill: none; stroke: #000000; stroke-width: 0.8; stroke-linejoin: miter; stroke-linecap: square"/>
   </g>
   <g id="legend_1">
    <g id="patch_7">
     <path d="M 312.689375 168.625 
L 447.851875 168.625 
Q 449.851875 168.625 449.851875 166.625 
L 449.851875 50.2 
Q 449.851875 48.2 447.851875 48.2 
L 312.689375 48.2 
Q 310.689375 48.2 310.689375 50.2 
L 310.689375 166.625 
Q 310.689375 168.625 312.689375 168.625 
z
" style="fill: #ffffff; opacity: 0.8; stroke: #cccccc; stroke-linejoin: miter"/>
    </g>
    <g id="line2d_21">
     <path d="M 314.689375 56.298437 
L 334.689375 56.298437 
" style="fill: none; stroke: #000000; stroke-width: 2; stroke-linecap: square"/>
    </g>
    <g id="line2d_22"/>
    <g id="text_15">
     <!-- normal -->
     <g transform="translate(342.689375 59.798437) scale(0.1 -0.1)">
      <defs>
       <path id="DejaVuSans-6e" d="M 3513 2113 
L 3513 0 
L 2938 0 
L 2938 2094 
Q 2938 2591 2744 2837 
Q 2550 3084 2163 3084 
Q 1697 3084 1428 2787 
Q 1159 2491 1159 1978 
L 1159 0 
L 581 0 
L 581 3500 
L 1159 3500 
L 1159 2956 
Q 1366 3272 1645 3428 
Q 1925 3584 2291 3584 
Q 2894 3584 3203 3211 
Q 3513 2838 3513 2113 
z
" transform="scale(0.015625)"/>
       <path id="DejaVuSans-6f" d="M 1959 3097 
Q 1497 3097 1228 2736 
Q 959 2375 959 1747 
Q 959 1119 1226 758 
Q 1494 397 1959 397 
Q 2419 397 2687 759 
Q 2956 1122 2956 1747 
Q 2956 2369 2687 2733 
Q 2419 3097 1959 3097 
z
M 1959 3584 
Q 2709 3584 3137 3096 
Q 3566 2609 3566 1747 
Q 3566 888 3137 398 
Q 2709 -91 1959 -91 
Q 1206 -91 779 398 
Q 353 888 353 1747 
Q 353 2609 779 3096 
Q 1206 3584 1959 3584 
z
" transform="scale(0.015625)"/>
       <path id="DejaVuSans-72" d="M 2631 2963 
Q 2534 3019 2420 3045 
Q 2306 3072 2169 3072 
Q 1681 3072 1420 2755 
Q 1159 2438 1159 1844 
L 1159 0 
L 581 0 
L 581 3500 
L 1159 3500 
L 1159 2956 
Q 1341 3275 1631 3429 
Q 1922 3584 2338 3584 
Q 2397 3584 2469 3576 
Q 2541 3569 2628 3553 
L 2631 2963 
z
" transform="scale(0.015625)"/>
       <path id="DejaVuSans-6d" d="M 3328 2828 
Q 3544 3216 3844 3400 
Q 4144 3584 4550 3584 
Q 5097 3584 5394 3201 
Q 5691 2819 5691 2113 
L 5691 0 
L 5113 0 
L 5113 2094 
Q 5113 2597 4934 2840 
Q 4756 3084 4391 3084 
Q 3944 3084 3684 2787 
Q 3425 2491 3425 1978 
L 3425 0 
L 2847 0 
L 2847 2094 
Q 2847 2600 2669 2842 
Q 2491 3084 2119 3084 
Q 1678 3084 1418 2786 
Q 1159 2488 1159 1978 
L 1159 0 
L 581 0 
L 581 3500 
L 1159 3500 
L 1159 2956 
Q 1356 3278 1631 3431 
Q 1906 3584 2284 3584 
Q 2666 3584 2933 3390 
Q 3200 3197 3328 2828 
z
" transform="scale(0.015625)"/>
       <path id="DejaVuSans-61" d="M 2194 1759 
Q 1497 1759 1228 1600 
Q 959 1441 959 1056 
Q 959 750 1161 570 
Q 1363 391 1709 391 
Q 2188 391 2477 730 
Q 2766 1069 2766 1631 
L 2766 1759 
L 2194 1759 
z
M 3341 1997 
L 3341 0 
L 2766 0 
L 2766 531 
Q 2569 213 2275 61 
Q 1981 -91 1556 -91 
Q 1019 -91 701 211 
Q 384 513 384 1019 
Q 384 1609 779 1909 
Q 1175 2209 1959 2209 
L 2766 2209 
L 2766 2266 
Q 2766 2663 2505 2880 
Q 2244 3097 1772 3097 
Q 1472 3097 1187 3025 
Q 903 2953 641 2809 
L 641 3341 
Q 956 3463 1253 3523 
Q 1550 3584 1831 3584 
Q 2591 3584 2966 3190 
Q 3341 2797 3341 1997 
z
" transform="scale(0.015625)"/>
       <path id="DejaVuSans-6c" d="M 603 4863 
L 1178 4863 
L 1178 0 
L 603 0 
L 603 4863 
z
" transform="scale(0.015625)"/>
      </defs>
      <use xlink:href="#DejaVuSans-6e"/>
      <use xlink:href="#DejaVuSans-6f" x="63.378906"/>
      <use xlink:href="#DejaVuSans-72" x="124.560547"/>
      <use xlink:href="#DejaVuSans-6d" x="163.923828"/>
      <use xlink:href="#DejaVuSans-61" x="261.335938"/>
      <use xlink:href="#DejaVuSans-6c" x="322.615234"/>
     </g>
    </g>
    <g id="line2d_23">
     <path d="M 314.689375 70.976562 
L 334.689375 70.976562 
" style="fill: none; stroke: #66c2a4; stroke-width: 2; stroke-linecap: square"/>
    </g>
    <g id="line2d_24"/>
    <g id="text_16">
     <!-- mild -->
     <g transform="translate(342.689375 74.476562) scale(0.1 -0.1)">
      <defs>
       <path id="DejaVuSans-69" d="M 603 3500 
L 1178 3500 
L 1178 0 
L 603 0 
L 603 3500 
z
M 603 4863 
L 1178 4863 
L 1178 4134 
L 603 4134 
L 603 4863 
z
" transform="scale(0.015625)"/>
       <path id="DejaVuSans-64" d="M 2906 2969 
L 2906 4863 
L 3481 4863 
L 3481 0 
L 2906 0 
L 2906 525 
Q 2725 213 2448 61 
Q 2172 -91 1784 -91 
Q 1150 -91 751 415 
Q 353 922 353 1747 
Q 353 2572 751 3078 
Q 1150 3584 1784 3584 
Q 2172 3584 2448 3432 
Q 2725 3281 2906 2969 
z
M 947 1747 
Q 947 1113 1208 752 
Q 1469 391 1925 391 
Q 2381 391 2643 752 
Q 2906 1113 2906 1747 
Q 2906 2381 2643 2742 
Q 2381 3103 1925 3103 
Q 1469 3103 1208 2742 
Q 947 2381 947 1747 
z
" transform="scale(0.015625)"/>
      </defs>
      <use xlink:href="#DejaVuSans-6d"/>
      <use xlink:href="#DejaVuSans-69" x="97.412109"/>
      <use xlink:href="#DejaVuSans-6c" x="125.195312"/>
      <use xlink:href="#DejaVuSans-64" x="152.978516"/>
     </g>
    </g>
    <g id="line2d_25">
     <path d="M 314.689375 85.654687 
L 334.689375 85.654687 
" style="fill: none; stroke: #2ca25f; stroke-width: 2; stroke-linecap: square"/>
    </g>
    <g id="line2d_26"/>
    <g id="text_17">
     <!-- moderate -->
     <g transform="translate(342.689375 89.154687) scale(0.1 -0.1)">
      <defs>
       <path id="DejaVuSans-65" d="M 3597 1894 
L 3597 1613 
L 953 1613 
Q 991 1019 1311 708 
Q 1631 397 2203 397 
Q 2534 397 2845 478 
Q 3156 559 3463 722 
L 3463 178 
Q 3153 47 2828 -22 
Q 2503 -91 2169 -91 
Q 1331 -91 842 396 
Q 353 884 353 1716 
Q 353 2575 817 3079 
Q 1281 3584 2069 3584 
Q 2775 3584 3186 3129 
Q 3597 2675 3597 1894 
z
M 3022 2063 
Q 3016 2534 2758 2815 
Q 2500 3097 2075 3097 
Q 1594 3097 1305 2825 
Q 1016 2553 972 2059 
L 3022 2063 
z
" transform="scale(0.015625)"/>
       <path id="DejaVuSans-74" d="M 1172 4494 
L 1172 3500 
L 2356 3500 
L 2356 3053 
L 1172 3053 
L 1172 1153 
Q 1172 725 1289 603 
Q 1406 481 1766 481 
L 2356 481 
L 2356 0 
L 1766 0 
Q 1100 0 847 248 
Q 594 497 594 1153 
L 594 3053 
L 172 3053 
L 172 3500 
L 594 3500 
L 594 4494 
L 1172 4494 
z
" transform="scale(0.015625)"/>
      </defs>
      <use xlink:href="#DejaVuSans-6d"/>
      <use xlink:href="#DejaVuSans-6f" x="97.412109"/>
      <use xlink:href="#DejaVuSans-64" x="158.59375"/>
      <use xlink:href="#DejaVuSans-65" x="222.070312"/>
      <use xlink:href="#DejaVuSans-72" x="283.59375"/>
      <use xlink:href="#DejaVuSans-61" x="324.707031"/>
      <use xlink:href="#DejaVuSans-74" x="385.986328"/>
      <use xlink:href="#DejaVuSans-65" x="425.195312"/>
     </g>
    </g>
    <g id="line2d_27">
     <path d="M 314.689375 100.332812 
L 334.689375 100.332812 
" style="fill: none; stroke: #006d2c; stroke-width: 2; stroke-linecap: square"/>
    </g>
    <g id="line2d_28"/>
    <g id="text_18">
     <!-- severe -->
     <g transform="translate(342.689375 103.832812) scale(0.1 -0.1)">
      <defs>
       <path id="DejaVuSans-73" d="M 2834 3397 
L 2834 2853 
Q 2591 2978 2328 3040 
Q 2066 3103 1784 3103 
Q 1356 3103 1142 2972 
Q 928 2841 928 2578 
Q 928 2378 1081 2264 
Q 1234 2150 1697 2047 
L 1894 2003 
Q 2506 1872 2764 1633 
Q 3022 1394 3022 966 
Q 3022 478 2636 193 
Q 2250 -91 1575 -91 
Q 1294 -91 989 -36 
Q 684 19 347 128 
L 347 722 
Q 666 556 975 473 
Q 1284 391 1588 391 
Q 1994 391 2212 530 
Q 2431 669 2431 922 
Q 2431 1156 2273 1281 
Q 2116 1406 1581 1522 
L 1381 1569 
Q 847 1681 609 1914 
Q 372 2147 372 2553 
Q 372 3047 722 3315 
Q 1072 3584 1716 3584 
Q 2034 3584 2315 3537 
Q 2597 3491 2834 3397 
z
" transform="scale(0.015625)"/>
       <path id="DejaVuSans-76" d="M 191 3500 
L 800 3500 
L 1894 563 
L 2988 3500 
L 3597 3500 
L 2284 0 
L 1503 0 
L 191 3500 
z
" transform="scale(0.015625)"/>
      </defs>
      <use xlink:href="#DejaVuSans-73"/>
      <use xlink:href="#DejaVuSans-65" x="52.099609"/>
      <use xlink:href="#DejaVuSans-76" x="113.623047"/>
      <use xlink:href="#DejaVuSans-65" x="172.802734"/>
      <use xlink:href="#DejaVuSans-72" x="234.326172"/>
      <use xlink:href="#DejaVuSans-65" x="273.189453"/>
     </g>
    </g>
    <g id="LineCollection_5">
     <path d="M 324.689375 120.010937 
L 324.689375 110.010937 
" style="fill: none; stroke: #000000"/>
    </g>
    <g id="line2d_29">
     <path d="M 314.689375 115.010937 
L 334.689375 115.010937 
" style="fill: none; stroke-dasharray: 3.7,1.6; stroke-dashoffset: 0; stroke: #000000"/>
    </g>
    <g id="line2d_30">
     <g>
      <use xlink:href="#me84e21b294" x="324.689375" y="115.010937" style="stroke: #000000; stroke-linejoin: miter"/>
     </g>
    </g>
    <g id="text_19">
     <!-- normal±SD (n=13) -->
     <g transform="translate(342.689375 118.510937) scale(0.1 -0.1)">
      <defs>
       <path id="DejaVuSans-b1" d="M 2944 4013 
L 2944 2803 
L 4684 2803 
L 4684 2272 
L 2944 2272 
L 2944 1063 
L 2419 1063 
L 2419 2272 
L 678 2272 
L 678 2803 
L 2419 2803 
L 2419 4013 
L 2944 4013 
z
M 678 531 
L 4684 531 
L 4684 0 
L 678 0 
L 678 531 
z
" transform="scale(0.015625)"/>
       <path id="DejaVuSans-53" d="M 3425 4513 
L 3425 3897 
Q 3066 4069 2747 4153 
Q 2428 4238 2131 4238 
Q 1616 4238 1336 4038 
Q 1056 3838 1056 3469 
Q 1056 3159 1242 3001 
Q 1428 2844 1947 2747 
L 2328 2669 
Q 3034 2534 3370 2195 
Q 3706 1856 3706 1288 
Q 3706 609 3251 259 
Q 2797 -91 1919 -91 
Q 1588 -91 1214 -16 
Q 841 59 441 206 
L 441 856 
Q 825 641 1194 531 
Q 1563 422 1919 422 
Q 2459 422 2753 634 
Q 3047 847 3047 1241 
Q 3047 1584 2836 1778 
Q 2625 1972 2144 2069 
L 1759 2144 
Q 1053 2284 737 2584 
Q 422 2884 422 3419 
Q 422 4038 858 4394 
Q 1294 4750 2059 4750 
Q 2388 4750 2728 4690 
Q 3069 4631 3425 4513 
z
" transform="scale(0.015625)"/>
       <path id="DejaVuSans-44" d="M 1259 4147 
L 1259 519 
L 2022 519 
Q 2988 519 3436 956 
Q 3884 1394 3884 2338 
Q 3884 3275 3436 3711 
Q 2988 4147 2022 4147 
L 1259 4147 
z
M 628 4666 
L 1925 4666 
Q 3281 4666 3915 4102 
Q 4550 3538 4550 2338 
Q 4550 1131 3912 565 
Q 3275 0 1925 0 
L 628 0 
L 628 4666 
z
" transform="scale(0.015625)"/>
       <path id="DejaVuSans-20" transform="scale(0.015625)"/>
       <path id="DejaVuSans-28" d="M 1984 4856 
Q 1566 4138 1362 3434 
Q 1159 2731 1159 2009 
Q 1159 1288 1364 580 
Q 1569 -128 1984 -844 
L 1484 -844 
Q 1016 -109 783 600 
Q 550 1309 550 2009 
Q 550 2706 781 3412 
Q 1013 4119 1484 4856 
L 1984 4856 
z
" transform="scale(0.015625)"/>
       <path id="DejaVuSans-3d" d="M 678 2906 
L 4684 2906 
L 4684 2381 
L 678 2381 
L 678 2906 
z
M 678 1631 
L 4684 1631 
L 4684 1100 
L 678 1100 
L 678 1631 
z
" transform="scale(0.015625)"/>
       <path id="DejaVuSans-29" d="M 513 4856 
L 1013 4856 
Q 1481 4119 1714 3412 
Q 1947 2706 1947 2009 
Q 1947 1309 1714 600 
Q 1481 -109 1013 -844 
L 513 -844 
Q 928 -128 1133 580 
Q 1338 1288 1338 2009 
Q 1338 2731 1133 3434 
Q 928 4138 513 4856 
z
" transform="scale(0.015625)"/>
      </defs>
      <use xlink:href="#DejaVuSans-6e"/>
      <use xlink:href="#DejaVuSans-6f" x="63.378906"/>
      <use xlink:href="#DejaVuSans-72" x="124.560547"/>
      <use xlink:href="#DejaVuSans-6d" x="163.923828"/>
      <use xlink:href="#DejaVuSans-61" x="261.335938"/>
      <use xlink:href="#DejaVuSans-6c" x="322.615234"/>
      <use xlink:href="#DejaVuSans-b1" x="350.398438"/>
      <use xlink:href="#DejaVuSans-53" x="434.1875"/>
      <use xlink:href="#DejaVuSans-44" x="497.664062"/>
      <use xlink:href="#DejaVuSans-20" x="574.666016"/>
      <use xlink:href="#DejaVuSans-28" x="606.453125"/>
      <use xlink:href="#DejaVuSans-6e" x="645.466797"/>
      <use xlink:href="#DejaVuSans-3d" x="708.845703"/>
      <use xlink:href="#DejaVuSans-31" x="792.634766"/>
      <use xlink:href="#DejaVuSans-33" x="856.257812"/>
      <use xlink:href="#DejaVuSans-29" x="919.880859"/>
     </g>
    </g>
    <g id="LineCollection_6">
     <path d="M 324.689375 134.689062 
L 324.689375 124.689062 
" style="fill: none; stroke: #66c2a4"/>
    </g>
    <g id="line2d_31">
     <path d="M 314.689375 129.689062 
L 334.689375 129.689062 
" style="fill: none; stroke-dasharray: 3.7,1.6; stroke-dashoffset: 0; stroke: #66c2a4"/>
    </g>
    <g id="line2d_32">
     <g>
      <use xlink:href="#m580d27d341" x="324.689375" y="129.689062" style="fill: #66c2a4; stroke: #000000; stroke-linejoin: miter"/>
     </g>
    </g>
    <g id="text_20">
     <!-- mild±SD (n=8) -->
     <g transform="translate(342.689375 133.189062) scale(0.1 -0.1)">
      <use xlink:href="#DejaVuSans-6d"/>
      <use xlink:href="#DejaVuSans-69" x="97.412109"/>
      <use xlink:href="#DejaVuSans-6c" x="125.195312"/>
      <use xlink:href="#DejaVuSans-64" x="152.978516"/>
      <use xlink:href="#DejaVuSans-b1" x="216.455078"/>
      <use xlink:href="#DejaVuSans-53" x="300.244141"/>
      <use xlink:href="#DejaVuSans-44" x="363.720703"/>
      <use xlink:href="#DejaVuSans-20" x="440.722656"/>
      <use xlink:href="#DejaVuSans-28" x="472.509766"/>
      <use xlink:href="#DejaVuSans-6e" x="511.523438"/>
      <use xlink:href="#DejaVuSans-3d" x="574.902344"/>
      <use xlink:href="#DejaVuSans-38" x="658.691406"/>
      <use xlink:href="#DejaVuSans-29" x="722.314453"/>
     </g>
    </g>
    <g id="LineCollection_7">
     <path d="M 324.689375 149.367187 
L 324.689375 139.367187 
" style="fill: none; stroke: #2ca25f"/>
    </g>
    <g id="line2d_33">
     <path d="M 314.689375 144.367187 
L 334.689375 144.367187 
" style="fill: none; stroke-dasharray: 3.7,1.6; stroke-dashoffset: 0; stroke: #2ca25f"/>
    </g>
    <g id="line2d_34">
     <g>
      <use xlink:href="#m3889d3fe1b" x="324.689375" y="144.367187" style="fill: #2ca25f; stroke: #000000; stroke-linejoin: miter"/>
     </g>
    </g>
    <g id="text_21">
     <!-- moderate±SD (n=8) -->
     <g transform="translate(342.689375 147.867187) scale(0.1 -0.1)">
      <use xlink:href="#DejaVuSans-6d"/>
      <use xlink:href="#DejaVuSans-6f" x="97.412109"/>
      <use xlink:href="#DejaVuSans-64" x="158.59375"/>
      <use xlink:href="#DejaVuSans-65" x="222.070312"/>
      <use xlink:href="#DejaVuSans-72" x="283.59375"/>
      <use xlink:href="#DejaVuSans-61" x="324.707031"/>
      <use xlink:href="#DejaVuSans-74" x="385.986328"/>
      <use xlink:href="#DejaVuSans-65" x="425.195312"/>
      <use xlink:href="#DejaVuSans-b1" x="486.71875"/>
      <use xlink:href="#DejaVuSans-53" x="570.507812"/>
      <use xlink:href="#DejaVuSans-44" x="633.984375"/>
      <use xlink:href="#DejaVuSans-20" x="710.986328"/>
      <use xlink:href="#DejaVuSans-28" x="742.773438"/>
      <use xlink:href="#DejaVuSans-6e" x="781.787109"/>
      <use xlink:href="#DejaVuSans-3d" x="845.166016"/>
      <use xlink:href="#DejaVuSans-38" x="928.955078"/>
      <use xlink:href="#DejaVuSans-29" x="992.578125"/>
     </g>
    </g>
    <g id="LineCollection_8">
     <path d="M 324.689375 164.045312 
L 324.689375 154.045312 
" style="fill: none; stroke: #006d2c"/>
    </g>
    <g id="line2d_35">
     <path d="M 314.689375 159.045312 
L 334.689375 159.045312 
" style="fill: none; stroke-dasharray: 3.7,1.6; stroke-dashoffset: 0; stroke: #006d2c"/>
    </g>
    <g id="line2d_36">
     <g>
      <use xlink:href="#m8bf0d02feb" x="324.689375" y="159.045312" style="fill: #006d2c; stroke: #000000; stroke-linejoin: miter"/>
     </g>
    </g>
    <g id="text_22">
     <!-- severe±SD (n=6) -->
     <g transform="translate(342.689375 162.545312) scale(0.1 -0.1)">
      <use xlink:href="#DejaVuSans-73"/>
      <use xlink:href="#DejaVuSans-65" x="52.099609"/>
      <use xlink:href="#DejaVuSans-76" x="113.623047"/>
      <use xlink:href="#DejaVuSans-65" x="172.802734"/>
      <use xlink:href="#DejaVuSans-72" x="234.326172"/>
      <use xlink:href="#DejaVuSans-65" x="273.189453"/>
      <use xlink:href="#DejaVuSans-b1" x="334.712891"/>
      <use xlink:href="#DejaVuSans-53" x="418.501953"/>
      <use xlink:href="#DejaVuSans-44" x="481.978516"/>
      <use xlink:href="#DejaVuSans-20" x="558.980469"/>
      <use xlink:href="#DejaVuSans-28" x="590.767578"/>
      <use xlink:href="#DejaVuSans-6e" x="629.78125"/>
      <use xlink:href="#DejaVuSans-3d" x="693.160156"/>
      <use xlink:href="#DejaVuSans-36" x="776.949219"/>
      <use xlink:href="#DejaVuSans-29" x="840.572266"/>
     </g>
    </g>
   </g>
  </g>
  <g id="text_23">
   <!-- Urva2021 (renal impairment) -->
   <g transform="translate(47.654219 26.196094) scale(0.25 -0.25)">
    <defs>
     <path id="DejaVuSans-Bold-55" d="M 588 4666 
L 1791 4666 
L 1791 1869 
Q 1791 1291 1980 1042 
Q 2169 794 2597 794 
Q 3028 794 3217 1042 
Q 3406 1291 3406 1869 
L 3406 4666 
L 4609 4666 
L 4609 1869 
Q 4609 878 4112 393 
Q 3616 -91 2597 -91 
Q 1581 -91 1084 393 
Q 588 878 588 1869 
L 588 4666 
z
" transform="scale(0.015625)"/>
     <path id="DejaVuSans-Bold-76" d="M 97 3500 
L 1216 3500 
L 2088 1081 
L 2956 3500 
L 4078 3500 
L 2700 0 
L 1472 0 
L 97 3500 
z
" transform="scale(0.015625)"/>
     <path id="DejaVuSans-Bold-32" d="M 1844 884 
L 3897 884 
L 3897 0 
L 506 0 
L 506 884 
L 2209 2388 
Q 2438 2594 2547 2791 
Q 2656 2988 2656 3200 
Q 2656 3528 2436 3728 
Q 2216 3928 1850 3928 
Q 1569 3928 1234 3808 
Q 900 3688 519 3450 
L 519 4475 
Q 925 4609 1322 4679 
Q 1719 4750 2100 4750 
Q 2938 4750 3402 4381 
Q 3866 4013 3866 3353 
Q 3866 2972 3669 2642 
Q 3472 2313 2841 1759 
L 1844 884 
z
" transform="scale(0.015625)"/>
     <path id="DejaVuSans-Bold-30" d="M 2944 2338 
Q 2944 3213 2780 3570 
Q 2616 3928 2228 3928 
Q 1841 3928 1675 3570 
Q 1509 3213 1509 2338 
Q 1509 1453 1675 1090 
Q 1841 728 2228 728 
Q 2613 728 2778 1090 
Q 2944 1453 2944 2338 
z
M 4147 2328 
Q 4147 1169 3647 539 
Q 3147 -91 2228 -91 
Q 1306 -91 806 539 
Q 306 1169 306 2328 
Q 306 3491 806 4120 
Q 1306 4750 2228 4750 
Q 3147 4750 3647 4120 
Q 4147 3491 4147 2328 
z
" transform="scale(0.015625)"/>
     <path id="DejaVuSans-Bold-31" d="M 750 831 
L 1813 831 
L 1813 3847 
L 722 3622 
L 722 4441 
L 1806 4666 
L 2950 4666 
L 2950 831 
L 4013 831 
L 4013 0 
L 750 0 
L 750 831 
z
" transform="scale(0.015625)"/>
     <path id="DejaVuSans-Bold-28" d="M 2413 -844 
L 1484 -844 
Q 1006 -72 778 623 
Q 550 1319 550 2003 
Q 550 2688 779 3389 
Q 1009 4091 1484 4856 
L 2413 4856 
Q 2013 4116 1813 3408 
Q 1613 2700 1613 2009 
Q 1613 1319 1811 609 
Q 2009 -100 2413 -844 
z
" transform="scale(0.015625)"/>
     <path id="DejaVuSans-Bold-6c" d="M 538 4863 
L 1656 4863 
L 1656 0 
L 538 0 
L 538 4863 
z
" transform="scale(0.015625)"/>
     <path id="DejaVuSans-Bold-29" d="M 513 -844 
Q 913 -100 1113 609 
Q 1313 1319 1313 2009 
Q 1313 2700 1113 3408 
Q 913 4116 513 4856 
L 1441 4856 
Q 1916 4091 2145 3389 
Q 2375 2688 2375 2003 
Q 2375 1319 2147 623 
Q 1919 -72 1441 -844 
L 513 -844 
z
" transform="scale(0.015625)"/>
    </defs>
    <use xlink:href="#DejaVuSans-Bold-55"/>
    <use xlink:href="#DejaVuSans-Bold-72" x="81.201172"/>
    <use xlink:href="#DejaVuSans-Bold-76" x="130.517578"/>
    <use xlink:href="#DejaVuSans-Bold-61" x="195.703125"/>
    <use xlink:href="#DejaVuSans-Bold-32" x="263.183594"/>
    <use xlink:href="#DejaVuSans-Bold-30" x="332.763672"/>
    <use xlink:href="#DejaVuSans-Bold-32" x="402.34375"/>
    <use xlink:href="#DejaVuSans-Bold-31" x="471.923828"/>
    <use xlink:href="#DejaVuSans-Bold-20" x="541.503906"/>
    <use xlink:href="#DejaVuSans-Bold-28" x="576.318359"/>
    <use xlink:href="#DejaVuSans-Bold-72" x="622.021484"/>
    <use xlink:href="#DejaVuSans-Bold-65" x="671.337891"/>
    <use xlink:href="#DejaVuSans-Bold-6e" x="739.160156"/>
    <use xlink:href="#DejaVuSans-Bold-61" x="810.351562"/>
    <use xlink:href="#DejaVuSans-Bold-6c" x="877.832031"/>
    <use xlink:href="#DejaVuSans-Bold-20" x="912.109375"/>
    <use xlink:href="#DejaVuSans-Bold-69" x="946.923828"/>
    <use xlink:href="#DejaVuSans-Bold-6d" x="981.201172"/>
    <use xlink:href="#DejaVuSans-Bold-70" x="1085.400391"/>
    <use xlink:href="#DejaVuSans-Bold-61" x="1156.982422"/>
    <use xlink:href="#DejaVuSans-Bold-69" x="1224.462891"/>
    <use xlink:href="#DejaVuSans-Bold-72" x="1258.740234"/>
    <use xlink:href="#DejaVuSans-Bold-6d" x="1308.056641"/>
    <use xlink:href="#DejaVuSans-Bold-65" x="1412.255859"/>
    <use xlink:href="#DejaVuSans-Bold-6e" x="1480.078125"/>
    <use xlink:href="#DejaVuSans-Bold-74" x="1551.269531"/>
    <use xlink:href="#DejaVuSans-Bold-29" x="1599.072266"/>
   </g>
  </g>
 </g>
 <defs>
  <clipPath id="p447c3f63ea">
   <rect x="64.251875" y="43.2" width="390.6" height="277.2"/>
  </clipPath>
 </defs>
</svg>
