<?xml version="1.0" encoding="utf-8" standalone="no"?>
<!DOCTYPE svg PUBLIC "-//W3C//DTD SVG 1.1//EN"
  "http://www.w3.org/Graphics/SVG/1.1/DTD/svg11.dtd">
<svg xmlns:xlink="http://www.w3.org/1999/xlink" width="360pt" height="360pt" viewBox="0 0 360 360" xmlns="http://www.w3.org/2000/svg" version="1.1">
 <metadata>
  <rdf:RDF xmlns:dc="http://purl.org/dc/elements/1.1/" xmlns:cc="http://creativecommons.org/ns#" xmlns:rdf="http://www.w3.org/1999/02/22-rdf-syntax-ns#">
   <cc:Work>
    <dc:type rdf:resource="http://purl.org/dc/dcmitype/StillImage"/>
    <dc:date>2025-03-06T23:51:18.464724</dc:date>
    <dc:format>image/svg+xml</dc:format>
    <dc:creator>
     <cc:Agent>
      <dc:title>Matplotlib v3.9.1, https://matplotlib.org/</dc:title>
     </cc:Agent>
    </dc:creator>
   </cc:Work>
  </rdf:RDF>
 </metadata>
 <defs>
  <style type="text/css">*{stroke-linejoin: round; stroke-linecap: butt}</style>
 </defs>
 <g id="figure_1">
  <g id="patch_1">
   <path d="M 0 360 
L 360 360 
L 360 0 
L 0 0 
z
" style="fill: #ffffff"/>
  </g>
  <g id="axes_1">
   <g id="patch_2">
    <path d="M 43.21399 324.707885 
L 356.99976 324.707885 
L 356.99976 3.00024 
L 43.21399 3.00024 
z
" style="fill: #ffffff"/>
   </g>
   <g id="matplotlib.axis_1">
    <g id="xtick_1">
     <g id="line2d_1">
      <defs>
       <path id="m058ce776f5" d="M 0 0 
L 0 3.5 
" style="stroke: #000000; stroke-width: 0.8"/>
      </defs>
      <g>
       <use xlink:href="#m058ce776f5" x="57.47698" y="324.707885" style="stroke: #000000; stroke-width: 0.8"/>
      </g>
     </g>
     <g id="text_1">
      <!-- 0 -->
      <g transform="translate(54.29573 339.306323) scale(0.1 -0.1)">
       <defs>
        <path id="DejaVuSans-30" d="M 2034 4250 
Q 1547 4250 1301 3770 
Q 1056 3291 1056 2328 
Q 1056 1369 1301 889 
Q 1547 409 2034 409 
Q 2525 409 2770 889 
Q 3016 1369 3016 2328 
Q 3016 3291 2770 3770 
Q 2525 4250 2034 4250 
z
M 2034 4750 
Q 2819 4750 3233 4129 
Q 3647 3509 3647 2328 
Q 3647 1150 3233 529 
Q 2819 -91 2034 -91 
Q 1250 -91 836 529 
Q 422 1150 422 2328 
Q 422 3509 836 4129 
Q 1250 4750 2034 4750 
z
" transform="scale(0.015625)"/>
       </defs>
       <use xlink:href="#DejaVuSans-30"/>
      </g>
     </g>
    </g>
    <g id="xtick_2">
     <g id="line2d_2">
      <g>
       <use xlink:href="#m058ce776f5" x="115.10522" y="324.707885" style="stroke: #000000; stroke-width: 0.8"/>
      </g>
     </g>
     <g id="text_2">
      <!-- 20 -->
      <g transform="translate(108.74272 339.306323) scale(0.1 -0.1)">
       <defs>
        <path id="DejaVuSans-32" d="M 1228 531 
L 3431 531 
L 3431 0 
L 469 0 
L 469 531 
Q 828 903 1448 1529 
Q 2069 2156 2228 2338 
Q 2531 2678 2651 2914 
Q 2772 3150 2772 3378 
Q 2772 3750 2511 3984 
Q 2250 4219 1831 4219 
Q 1534 4219 1204 4116 
Q 875 4013 500 3803 
L 500 4441 
Q 881 4594 1212 4672 
Q 1544 4750 1819 4750 
Q 2544 4750 2975 4387 
Q 3406 4025 3406 3419 
Q 3406 3131 3298 2873 
Q 3191 2616 2906 2266 
Q 2828 2175 2409 1742 
Q 1991 1309 1228 531 
z
" transform="scale(0.015625)"/>
       </defs>
       <use xlink:href="#DejaVuSans-32"/>
       <use xlink:href="#DejaVuSans-30" x="63.623047"/>
      </g>
     </g>
    </g>
    <g id="xtick_3">
     <g id="line2d_3">
      <g>
       <use xlink:href="#m058ce776f5" x="172.733461" y="324.707885" style="stroke: #000000; stroke-width: 0.8"/>
      </g>
     </g>
     <g id="text_3">
      <!-- 40 -->
      <g transform="translate(166.370961 339.306323) scale(0.1 -0.1)">
       <defs>
        <path id="DejaVuSans-34" d="M 2419 4116 
L 825 1625 
L 2419 1625 
L 2419 4116 
z
M 2253 4666 
L 3047 4666 
L 3047 1625 
L 3713 1625 
L 3713 1100 
L 3047 1100 
L 3047 0 
L 2419 0 
L 2419 1100 
L 313 1100 
L 313 1709 
L 2253 4666 
z
" transform="scale(0.015625)"/>
       </defs>
       <use xlink:href="#DejaVuSans-34"/>
       <use xlink:href="#DejaVuSans-30" x="63.623047"/>
      </g>
     </g>
    </g>
    <g id="xtick_4">
     <g id="line2d_4">
      <g>
       <use xlink:href="#m058ce776f5" x="230.361701" y="324.707885" style="stroke: #000000; stroke-width: 0.8"/>
      </g>
     </g>
     <g id="text_4">
      <!-- 60 -->
      <g transform="translate(223.999201 339.306323) scale(0.1 -0.1)">
       <defs>
        <path id="DejaVuSans-36" d="M 2113 2584 
Q 1688 2584 1439 2293 
Q 1191 2003 1191 1497 
Q 1191 994 1439 701 
Q 1688 409 2113 409 
Q 2538 409 2786 701 
Q 3034 994 3034 1497 
Q 3034 2003 2786 2293 
Q 2538 2584 2113 2584 
z
M 3366 4563 
L 3366 3988 
Q 3128 4100 2886 4159 
Q 2644 4219 2406 4219 
Q 1781 4219 1451 3797 
Q 1122 3375 1075 2522 
Q 1259 2794 1537 2939 
Q 1816 3084 2150 3084 
Q 2853 3084 3261 2657 
Q 3669 2231 3669 1497 
Q 3669 778 3244 343 
Q 2819 -91 2113 -91 
Q 1303 -91 875 529 
Q 447 1150 447 2328 
Q 447 3434 972 4092 
Q 1497 4750 2381 4750 
Q 2619 4750 2861 4703 
Q 3103 4656 3366 4563 
z
" transform="scale(0.015625)"/>
       </defs>
       <use xlink:href="#DejaVuSans-36"/>
       <use xlink:href="#DejaVuSans-30" x="63.623047"/>
      </g>
     </g>
    </g>
    <g id="xtick_5">
     <g id="line2d_5">
      <g>
       <use xlink:href="#m058ce776f5" x="287.989942" y="324.707885" style="stroke: #000000; stroke-width: 0.8"/>
      </g>
     </g>
     <g id="text_5">
      <!-- 80 -->
      <g transform="translate(281.627442 339.306323) scale(0.1 -0.1)">
       <defs>
        <path id="DejaVuSans-38" d="M 2034 2216 
Q 1584 2216 1326 1975 
Q 1069 1734 1069 1313 
Q 1069 891 1326 650 
Q 1584 409 2034 409 
Q 2484 409 2743 651 
Q 3003 894 3003 1313 
Q 3003 1734 2745 1975 
Q 2488 2216 2034 2216 
z
M 1403 2484 
Q 997 2584 770 2862 
Q 544 3141 544 3541 
Q 544 4100 942 4425 
Q 1341 4750 2034 4750 
Q 2731 4750 3128 4425 
Q 3525 4100 3525 3541 
Q 3525 3141 3298 2862 
Q 3072 2584 2669 2484 
Q 3125 2378 3379 2068 
Q 3634 1759 3634 1313 
Q 3634 634 3220 271 
Q 2806 -91 2034 -91 
Q 1263 -91 848 271 
Q 434 634 434 1313 
Q 434 1759 690 2068 
Q 947 2378 1403 2484 
z
M 1172 3481 
Q 1172 3119 1398 2916 
Q 1625 2713 2034 2713 
Q 2441 2713 2670 2916 
Q 2900 3119 2900 3481 
Q 2900 3844 2670 4047 
Q 2441 4250 2034 4250 
Q 1625 4250 1398 4047 
Q 1172 3844 1172 3481 
z
" transform="scale(0.015625)"/>
       </defs>
       <use xlink:href="#DejaVuSans-38"/>
       <use xlink:href="#DejaVuSans-30" x="63.623047"/>
      </g>
     </g>
    </g>
    <g id="xtick_6">
     <g id="line2d_6">
      <g>
       <use xlink:href="#m058ce776f5" x="345.618182" y="324.707885" style="stroke: #000000; stroke-width: 0.8"/>
      </g>
     </g>
     <g id="text_6">
      <!-- 100 -->
      <g transform="translate(336.074432 339.306323) scale(0.1 -0.1)">
       <defs>
        <path id="DejaVuSans-31" d="M 794 531 
L 1825 531 
L 1825 4091 
L 703 3866 
L 703 4441 
L 1819 4666 
L 2450 4666 
L 2450 531 
L 3481 531 
L 3481 0 
L 794 0 
L 794 531 
z
" transform="scale(0.015625)"/>
       </defs>
       <use xlink:href="#DejaVuSans-31"/>
       <use xlink:href="#DejaVuSans-30" x="63.623047"/>
       <use xlink:href="#DejaVuSans-30" x="127.246094"/>
      </g>
     </g>
    </g>
    <g id="text_7">
     <!-- Index (ordered optimizer run) -->
     <g transform="translate(111.42875 354.504135) scale(0.12 -0.12)">
      <defs>
       <path id="DejaVuSans-49" d="M 628 4666 
L 1259 4666 
L 1259 0 
L 628 0 
L 628 4666 
z
" transform="scale(0.015625)"/>
       <path id="DejaVuSans-6e" d="M 3513 2113 
L 3513 0 
L 2938 0 
L 2938 2094 
Q 2938 2591 2744 2837 
Q 2550 3084 2163 3084 
Q 1697 3084 1428 2787 
Q 1159 2491 1159 1978 
L 1159 0 
L 581 0 
L 581 3500 
L 1159 3500 
L 1159 2956 
Q 1366 3272 1645 3428 
Q 1925 3584 2291 3584 
Q 2894 3584 3203 3211 
Q 3513 2838 3513 2113 
z
" transform="scale(0.015625)"/>
       <path id="DejaVuSans-64" d="M 2906 2969 
L 2906 4863 
L 3481 4863 
L 3481 0 
L 2906 0 
L 2906 525 
Q 2725 213 2448 61 
Q 2172 -91 1784 -91 
Q 1150 -91 751 415 
Q 353 922 353 1747 
Q 353 2572 751 3078 
Q 1150 3584 1784 3584 
Q 2172 3584 2448 3432 
Q 2725 3281 2906 2969 
z
M 947 1747 
Q 947 1113 1208 752 
Q 1469 391 1925 391 
Q 2381 391 2643 752 
Q 2906 1113 2906 1747 
Q 2906 2381 2643 2742 
Q 2381 3103 1925 3103 
Q 1469 3103 1208 2742 
Q 947 2381 947 1747 
z
" transform="scale(0.015625)"/>
       <path id="DejaVuSans-65" d="M 3597 1894 
L 3597 1613 
L 953 1613 
Q 991 1019 1311 708 
Q 1631 397 2203 397 
Q 2534 397 2845 478 
Q 3156 559 3463 722 
L 3463 178 
Q 3153 47 2828 -22 
Q 2503 -91 2169 -91 
Q 1331 -91 842 396 
Q 353 884 353 1716 
Q 353 2575 817 3079 
Q 1281 3584 2069 3584 
Q 2775 3584 3186 3129 
Q 3597 2675 3597 1894 
z
M 3022 2063 
Q 3016 2534 2758 2815 
Q 2500 3097 2075 3097 
Q 1594 3097 1305 2825 
Q 1016 2553 972 2059 
L 3022 2063 
z
" transform="scale(0.015625)"/>
       <path id="DejaVuSans-78" d="M 3513 3500 
L 2247 1797 
L 3578 0 
L 2900 0 
L 1881 1375 
L 863 0 
L 184 0 
L 1544 1831 
L 300 3500 
L 978 3500 
L 1906 2253 
L 2834 3500 
L 3513 3500 
z
" transform="scale(0.015625)"/>
       <path id="DejaVuSans-20" transform="scale(0.015625)"/>
       <path id="DejaVuSans-28" d="M 1984 4856 
Q 1566 4138 1362 3434 
Q 1159 2731 1159 2009 
Q 1159 1288 1364 580 
Q 1569 -128 1984 -844 
L 1484 -844 
Q 1016 -109 783 600 
Q 550 1309 550 2009 
Q 550 2706 781 3412 
Q 1013 4119 1484 4856 
L 1984 4856 
z
" transform="scale(0.015625)"/>
       <path id="DejaVuSans-6f" d="M 1959 3097 
Q 1497 3097 1228 2736 
Q 959 2375 959 1747 
Q 959 1119 1226 758 
Q 1494 397 1959 397 
Q 2419 397 2687 759 
Q 2956 1122 2956 1747 
Q 2956 2369 2687 2733 
Q 2419 3097 1959 3097 
z
M 1959 3584 
Q 2709 3584 3137 3096 
Q 3566 2609 3566 1747 
Q 3566 888 3137 398 
Q 2709 -91 1959 -91 
Q 1206 -91 779 398 
Q 353 888 353 1747 
Q 353 2609 779 3096 
Q 1206 3584 1959 3584 
z
" transform="scale(0.015625)"/>
       <path id="DejaVuSans-72" d="M 2631 2963 
Q 2534 3019 2420 3045 
Q 2306 3072 2169 3072 
Q 1681 3072 1420 2755 
Q 1159 2438 1159 1844 
L 1159 0 
L 581 0 
L 581 3500 
L 1159 3500 
L 1159 2956 
Q 1341 3275 1631 3429 
Q 1922 3584 2338 3584 
Q 2397 3584 2469 3576 
Q 2541 3569 2628 3553 
L 2631 2963 
z
" transform="scale(0.015625)"/>
       <path id="DejaVuSans-70" d="M 1159 525 
L 1159 -1331 
L 581 -1331 
L 581 3500 
L 1159 3500 
L 1159 2969 
Q 1341 3281 1617 3432 
Q 1894 3584 2278 3584 
Q 2916 3584 3314 3078 
Q 3713 2572 3713 1747 
Q 3713 922 3314 415 
Q 2916 -91 2278 -91 
Q 1894 -91 1617 61 
Q 1341 213 1159 525 
z
M 3116 1747 
Q 3116 2381 2855 2742 
Q 2594 3103 2138 3103 
Q 1681 3103 1420 2742 
Q 1159 2381 1159 1747 
Q 1159 1113 1420 752 
Q 1681 391 2138 391 
Q 2594 391 2855 752 
Q 3116 1113 3116 1747 
z
" transform="scale(0.015625)"/>
       <path id="DejaVuSans-74" d="M 1172 4494 
L 1172 3500 
L 2356 3500 
L 2356 3053 
L 1172 3053 
L 1172 1153 
Q 1172 725 1289 603 
Q 1406 481 1766 481 
L 2356 481 
L 2356 0 
L 1766 0 
Q 1100 0 847 248 
Q 594 497 594 1153 
L 594 3053 
L 172 3053 
L 172 3500 
L 594 3500 
L 594 4494 
L 1172 4494 
z
" transform="scale(0.015625)"/>
       <path id="DejaVuSans-69" d="M 603 3500 
L 1178 3500 
L 1178 0 
L 603 0 
L 603 3500 
z
M 603 4863 
L 1178 4863 
L 1178 4134 
L 603 4134 
L 603 4863 
z
" transform="scale(0.015625)"/>
       <path id="DejaVuSans-6d" d="M 3328 2828 
Q 3544 3216 3844 3400 
Q 4144 3584 4550 3584 
Q 5097 3584 5394 3201 
Q 5691 2819 5691 2113 
L 5691 0 
L 5113 0 
L 5113 2094 
Q 5113 2597 4934 2840 
Q 4756 3084 4391 3084 
Q 3944 3084 3684 2787 
Q 3425 2491 3425 1978 
L 3425 0 
L 2847 0 
L 2847 2094 
Q 2847 2600 2669 2842 
Q 2491 3084 2119 3084 
Q 1678 3084 1418 2786 
Q 1159 2488 1159 1978 
L 1159 0 
L 581 0 
L 581 3500 
L 1159 3500 
L 1159 2956 
Q 1356 3278 1631 3431 
Q 1906 3584 2284 3584 
Q 2666 3584 2933 3390 
Q 3200 3197 3328 2828 
z
" transform="scale(0.015625)"/>
       <path id="DejaVuSans-7a" d="M 353 3500 
L 3084 3500 
L 3084 2975 
L 922 459 
L 3084 459 
L 3084 0 
L 275 0 
L 275 525 
L 2438 3041 
L 353 3041 
L 353 3500 
z
" transform="scale(0.015625)"/>
       <path id="DejaVuSans-75" d="M 544 1381 
L 544 3500 
L 1119 3500 
L 1119 1403 
Q 1119 906 1312 657 
Q 1506 409 1894 409 
Q 2359 409 2629 706 
Q 2900 1003 2900 1516 
L 2900 3500 
L 3475 3500 
L 3475 0 
L 2900 0 
L 2900 538 
Q 2691 219 2414 64 
Q 2138 -91 1772 -91 
Q 1169 -91 856 284 
Q 544 659 544 1381 
z
M 1991 3584 
L 1991 3584 
z
" transform="scale(0.015625)"/>
       <path id="DejaVuSans-29" d="M 513 4856 
L 1013 4856 
Q 1481 4119 1714 3412 
Q 1947 2706 1947 2009 
Q 1947 1309 1714 600 
Q 1481 -109 1013 -844 
L 513 -844 
Q 928 -128 1133 580 
Q 1338 1288 1338 2009 
Q 1338 2731 1133 3434 
Q 928 4138 513 4856 
z
" transform="scale(0.015625)"/>
      </defs>
      <use xlink:href="#DejaVuSans-49"/>
      <use xlink:href="#DejaVuSans-6e" x="29.492188"/>
      <use xlink:href="#DejaVuSans-64" x="92.871094"/>
      <use xlink:href="#DejaVuSans-65" x="156.347656"/>
      <use xlink:href="#DejaVuSans-78" x="216.121094"/>
      <use xlink:href="#DejaVuSans-20" x="275.300781"/>
      <use xlink:href="#DejaVuSans-28" x="307.087891"/>
      <use xlink:href="#DejaVuSans-6f" x="346.101562"/>
      <use xlink:href="#DejaVuSans-72" x="407.283203"/>
      <use xlink:href="#DejaVuSans-64" x="446.646484"/>
      <use xlink:href="#DejaVuSans-65" x="510.123047"/>
      <use xlink:href="#DejaVuSans-72" x="571.646484"/>
      <use xlink:href="#DejaVuSans-65" x="610.509766"/>
      <use xlink:href="#DejaVuSans-64" x="672.033203"/>
      <use xlink:href="#DejaVuSans-20" x="735.509766"/>
      <use xlink:href="#DejaVuSans-6f" x="767.296875"/>
      <use xlink:href="#DejaVuSans-70" x="828.478516"/>
      <use xlink:href="#DejaVuSans-74" x="891.955078"/>
      <use xlink:href="#DejaVuSans-69" x="931.164062"/>
      <use xlink:href="#DejaVuSans-6d" x="958.947266"/>
      <use xlink:href="#DejaVuSans-69" x="1056.359375"/>
      <use xlink:href="#DejaVuSans-7a" x="1084.142578"/>
      <use xlink:href="#DejaVuSans-65" x="1136.632812"/>
      <use xlink:href="#DejaVuSans-72" x="1198.15625"/>
      <use xlink:href="#DejaVuSans-20" x="1239.269531"/>
      <use xlink:href="#DejaVuSans-72" x="1271.056641"/>
      <use xlink:href="#DejaVuSans-75" x="1312.169922"/>
      <use xlink:href="#DejaVuSans-6e" x="1375.548828"/>
      <use xlink:href="#DejaVuSans-29" x="1438.927734"/>
     </g>
    </g>
   </g>
   <g id="matplotlib.axis_2">
    <g id="ytick_1">
     <g id="line2d_7">
      <defs>
       <path id="ma6cea6f271" d="M 0 0 
L -3.5 0 
" style="stroke: #000000; stroke-width: 0.8"/>
      </defs>
      <g>
       <use xlink:href="#ma6cea6f271" x="43.21399" y="310.08481" style="stroke: #000000; stroke-width: 0.8"/>
      </g>
     </g>
     <g id="text_8">
      <!-- $\mathdefault{10^{0}}$ -->
      <g transform="translate(18.61399 313.884029) scale(0.1 -0.1)">
       <use xlink:href="#DejaVuSans-31" transform="translate(0 0.765625)"/>
       <use xlink:href="#DejaVuSans-30" transform="translate(63.623047 0.765625)"/>
       <use xlink:href="#DejaVuSans-30" transform="translate(128.203125 39.046875) scale(0.7)"/>
      </g>
     </g>
    </g>
    <g id="ytick_2">
     <g id="line2d_8">
      <g>
       <use xlink:href="#ma6cea6f271" x="43.21399" y="211.14337" style="stroke: #000000; stroke-width: 0.8"/>
      </g>
     </g>
     <g id="text_9">
      <!-- $\mathdefault{10^{1}}$ -->
      <g transform="translate(18.61399 214.942589) scale(0.1 -0.1)">
       <use xlink:href="#DejaVuSans-31" transform="translate(0 0.684375)"/>
       <use xlink:href="#DejaVuSans-30" transform="translate(63.623047 0.684375)"/>
       <use xlink:href="#DejaVuSans-31" transform="translate(128.203125 38.965625) scale(0.7)"/>
      </g>
     </g>
    </g>
    <g id="ytick_3">
     <g id="line2d_9">
      <g>
       <use xlink:href="#ma6cea6f271" x="43.21399" y="112.20193" style="stroke: #000000; stroke-width: 0.8"/>
      </g>
     </g>
     <g id="text_10">
      <!-- $\mathdefault{10^{2}}$ -->
      <g transform="translate(18.61399 116.001149) scale(0.1 -0.1)">
       <use xlink:href="#DejaVuSans-31" transform="translate(0 0.765625)"/>
       <use xlink:href="#DejaVuSans-30" transform="translate(63.623047 0.765625)"/>
       <use xlink:href="#DejaVuSans-32" transform="translate(128.203125 39.046875) scale(0.7)"/>
      </g>
     </g>
    </g>
    <g id="ytick_4">
     <g id="line2d_10">
      <g>
       <use xlink:href="#ma6cea6f271" x="43.21399" y="13.26049" style="stroke: #000000; stroke-width: 0.8"/>
      </g>
     </g>
     <g id="text_11">
      <!-- $\mathdefault{10^{3}}$ -->
      <g transform="translate(18.61399 17.059709) scale(0.1 -0.1)">
       <defs>
        <path id="DejaVuSans-33" d="M 2597 2516 
Q 3050 2419 3304 2112 
Q 3559 1806 3559 1356 
Q 3559 666 3084 287 
Q 2609 -91 1734 -91 
Q 1441 -91 1130 -33 
Q 819 25 488 141 
L 488 750 
Q 750 597 1062 519 
Q 1375 441 1716 441 
Q 2309 441 2620 675 
Q 2931 909 2931 1356 
Q 2931 1769 2642 2001 
Q 2353 2234 1838 2234 
L 1294 2234 
L 1294 2753 
L 1863 2753 
Q 2328 2753 2575 2939 
Q 2822 3125 2822 3475 
Q 2822 3834 2567 4026 
Q 2313 4219 1838 4219 
Q 1578 4219 1281 4162 
Q 984 4106 628 3988 
L 628 4550 
Q 988 4650 1302 4700 
Q 1616 4750 1894 4750 
Q 2613 4750 3031 4423 
Q 3450 4097 3450 3541 
Q 3450 3153 3228 2886 
Q 3006 2619 2597 2516 
z
" transform="scale(0.015625)"/>
       </defs>
       <use xlink:href="#DejaVuSans-31" transform="translate(0 0.765625)"/>
       <use xlink:href="#DejaVuSans-30" transform="translate(63.623047 0.765625)"/>
       <use xlink:href="#DejaVuSans-33" transform="translate(128.203125 39.046875) scale(0.7)"/>
      </g>
     </g>
    </g>
    <g id="ytick_5">
     <g id="line2d_11">
      <defs>
       <path id="m36604a9c0d" d="M 0 0 
L -2 0 
" style="stroke: #000000; stroke-width: 0.6"/>
      </defs>
      <g>
       <use xlink:href="#m36604a9c0d" x="43.21399" y="319.673226" style="stroke: #000000; stroke-width: 0.6"/>
      </g>
     </g>
    </g>
    <g id="ytick_6">
     <g id="line2d_12">
      <g>
       <use xlink:href="#m36604a9c0d" x="43.21399" y="314.612122" style="stroke: #000000; stroke-width: 0.6"/>
      </g>
     </g>
    </g>
    <g id="ytick_7">
     <g id="line2d_13">
      <g>
       <use xlink:href="#m36604a9c0d" x="43.21399" y="280.300469" style="stroke: #000000; stroke-width: 0.6"/>
      </g>
     </g>
    </g>
    <g id="ytick_8">
     <g id="line2d_14">
      <g>
       <use xlink:href="#m36604a9c0d" x="43.21399" y="262.877746" style="stroke: #000000; stroke-width: 0.6"/>
      </g>
     </g>
    </g>
    <g id="ytick_9">
     <g id="line2d_15">
      <g>
       <use xlink:href="#m36604a9c0d" x="43.21399" y="250.516128" style="stroke: #000000; stroke-width: 0.6"/>
      </g>
     </g>
    </g>
    <g id="ytick_10">
     <g id="line2d_16">
      <g>
       <use xlink:href="#m36604a9c0d" x="43.21399" y="240.927712" style="stroke: #000000; stroke-width: 0.6"/>
      </g>
     </g>
    </g>
    <g id="ytick_11">
     <g id="line2d_17">
      <g>
       <use xlink:href="#m36604a9c0d" x="43.21399" y="233.093405" style="stroke: #000000; stroke-width: 0.6"/>
      </g>
     </g>
    </g>
    <g id="ytick_12">
     <g id="line2d_18">
      <g>
       <use xlink:href="#m36604a9c0d" x="43.21399" y="226.469593" style="stroke: #000000; stroke-width: 0.6"/>
      </g>
     </g>
    </g>
    <g id="ytick_13">
     <g id="line2d_19">
      <g>
       <use xlink:href="#m36604a9c0d" x="43.21399" y="220.731787" style="stroke: #000000; stroke-width: 0.6"/>
      </g>
     </g>
    </g>
    <g id="ytick_14">
     <g id="line2d_20">
      <g>
       <use xlink:href="#m36604a9c0d" x="43.21399" y="215.670682" style="stroke: #000000; stroke-width: 0.6"/>
      </g>
     </g>
    </g>
    <g id="ytick_15">
     <g id="line2d_21">
      <g>
       <use xlink:href="#m36604a9c0d" x="43.21399" y="181.359029" style="stroke: #000000; stroke-width: 0.6"/>
      </g>
     </g>
    </g>
    <g id="ytick_16">
     <g id="line2d_22">
      <g>
       <use xlink:href="#m36604a9c0d" x="43.21399" y="163.936306" style="stroke: #000000; stroke-width: 0.6"/>
      </g>
     </g>
    </g>
    <g id="ytick_17">
     <g id="line2d_23">
      <g>
       <use xlink:href="#m36604a9c0d" x="43.21399" y="151.574688" style="stroke: #000000; stroke-width: 0.6"/>
      </g>
     </g>
    </g>
    <g id="ytick_18">
     <g id="line2d_24">
      <g>
       <use xlink:href="#m36604a9c0d" x="43.21399" y="141.986272" style="stroke: #000000; stroke-width: 0.6"/>
      </g>
     </g>
    </g>
    <g id="ytick_19">
     <g id="line2d_25">
      <g>
       <use xlink:href="#m36604a9c0d" x="43.21399" y="134.151965" style="stroke: #000000; stroke-width: 0.6"/>
      </g>
     </g>
    </g>
    <g id="ytick_20">
     <g id="line2d_26">
      <g>
       <use xlink:href="#m36604a9c0d" x="43.21399" y="127.528153" style="stroke: #000000; stroke-width: 0.6"/>
      </g>
     </g>
    </g>
    <g id="ytick_21">
     <g id="line2d_27">
      <g>
       <use xlink:href="#m36604a9c0d" x="43.21399" y="121.790347" style="stroke: #000000; stroke-width: 0.6"/>
      </g>
     </g>
    </g>
    <g id="ytick_22">
     <g id="line2d_28">
      <g>
       <use xlink:href="#m36604a9c0d" x="43.21399" y="116.729242" style="stroke: #000000; stroke-width: 0.6"/>
      </g>
     </g>
    </g>
    <g id="ytick_23">
     <g id="line2d_29">
      <g>
       <use xlink:href="#m36604a9c0d" x="43.21399" y="82.417589" style="stroke: #000000; stroke-width: 0.6"/>
      </g>
     </g>
    </g>
    <g id="ytick_24">
     <g id="line2d_30">
      <g>
       <use xlink:href="#m36604a9c0d" x="43.21399" y="64.994866" style="stroke: #000000; stroke-width: 0.6"/>
      </g>
     </g>
    </g>
    <g id="ytick_25">
     <g id="line2d_31">
      <g>
       <use xlink:href="#m36604a9c0d" x="43.21399" y="52.633248" style="stroke: #000000; stroke-width: 0.6"/>
      </g>
     </g>
    </g>
    <g id="ytick_26">
     <g id="line2d_32">
      <g>
       <use xlink:href="#m36604a9c0d" x="43.21399" y="43.044832" style="stroke: #000000; stroke-width: 0.6"/>
      </g>
     </g>
    </g>
    <g id="ytick_27">
     <g id="line2d_33">
      <g>
       <use xlink:href="#m36604a9c0d" x="43.21399" y="35.210525" style="stroke: #000000; stroke-width: 0.6"/>
      </g>
     </g>
    </g>
    <g id="ytick_28">
     <g id="line2d_34">
      <g>
       <use xlink:href="#m36604a9c0d" x="43.21399" y="28.586713" style="stroke: #000000; stroke-width: 0.6"/>
      </g>
     </g>
    </g>
    <g id="ytick_29">
     <g id="line2d_35">
      <g>
       <use xlink:href="#m36604a9c0d" x="43.21399" y="22.848907" style="stroke: #000000; stroke-width: 0.6"/>
      </g>
     </g>
    </g>
    <g id="ytick_30">
     <g id="line2d_36">
      <g>
       <use xlink:href="#m36604a9c0d" x="43.21399" y="17.787802" style="stroke: #000000; stroke-width: 0.6"/>
      </g>
     </g>
    </g>
    <g id="text_12">
     <!-- Offset cost value (relative to best start) -->
     <g transform="translate(12.118365 282.536875) rotate(-90) scale(0.12 -0.12)">
      <defs>
       <path id="DejaVuSans-4f" d="M 2522 4238 
Q 1834 4238 1429 3725 
Q 1025 3213 1025 2328 
Q 1025 1447 1429 934 
Q 1834 422 2522 422 
Q 3209 422 3611 934 
Q 4013 1447 4013 2328 
Q 4013 3213 3611 3725 
Q 3209 4238 2522 4238 
z
M 2522 4750 
Q 3503 4750 4090 4092 
Q 4678 3434 4678 2328 
Q 4678 1225 4090 567 
Q 3503 -91 2522 -91 
Q 1538 -91 948 565 
Q 359 1222 359 2328 
Q 359 3434 948 4092 
Q 1538 4750 2522 4750 
z
" transform="scale(0.015625)"/>
       <path id="DejaVuSans-66" d="M 2375 4863 
L 2375 4384 
L 1825 4384 
Q 1516 4384 1395 4259 
Q 1275 4134 1275 3809 
L 1275 3500 
L 2222 3500 
L 2222 3053 
L 1275 3053 
L 1275 0 
L 697 0 
L 697 3053 
L 147 3053 
L 147 3500 
L 697 3500 
L 697 3744 
Q 697 4328 969 4595 
Q 1241 4863 1831 4863 
L 2375 4863 
z
" transform="scale(0.015625)"/>
       <path id="DejaVuSans-73" d="M 2834 3397 
L 2834 2853 
Q 2591 2978 2328 3040 
Q 2066 3103 1784 3103 
Q 1356 3103 1142 2972 
Q 928 2841 928 2578 
Q 928 2378 1081 2264 
Q 1234 2150 1697 2047 
L 1894 2003 
Q 2506 1872 2764 1633 
Q 3022 1394 3022 966 
Q 3022 478 2636 193 
Q 2250 -91 1575 -91 
Q 1294 -91 989 -36 
Q 684 19 347 128 
L 347 722 
Q 666 556 975 473 
Q 1284 391 1588 391 
Q 1994 391 2212 530 
Q 2431 669 2431 922 
Q 2431 1156 2273 1281 
Q 2116 1406 1581 1522 
L 1381 1569 
Q 847 1681 609 1914 
Q 372 2147 372 2553 
Q 372 3047 722 3315 
Q 1072 3584 1716 3584 
Q 2034 3584 2315 3537 
Q 2597 3491 2834 3397 
z
" transform="scale(0.015625)"/>
       <path id="DejaVuSans-63" d="M 3122 3366 
L 3122 2828 
Q 2878 2963 2633 3030 
Q 2388 3097 2138 3097 
Q 1578 3097 1268 2742 
Q 959 2388 959 1747 
Q 959 1106 1268 751 
Q 1578 397 2138 397 
Q 2388 397 2633 464 
Q 2878 531 3122 666 
L 3122 134 
Q 2881 22 2623 -34 
Q 2366 -91 2075 -91 
Q 1284 -91 818 406 
Q 353 903 353 1747 
Q 353 2603 823 3093 
Q 1294 3584 2113 3584 
Q 2378 3584 2631 3529 
Q 2884 3475 3122 3366 
z
" transform="scale(0.015625)"/>
       <path id="DejaVuSans-76" d="M 191 3500 
L 800 3500 
L 1894 563 
L 2988 3500 
L 3597 3500 
L 2284 0 
L 1503 0 
L 191 3500 
z
" transform="scale(0.015625)"/>
       <path id="DejaVuSans-61" d="M 2194 1759 
Q 1497 1759 1228 1600 
Q 959 1441 959 1056 
Q 959 750 1161 570 
Q 1363 391 1709 391 
Q 2188 391 2477 730 
Q 2766 1069 2766 1631 
L 2766 1759 
L 2194 1759 
z
M 3341 1997 
L 3341 0 
L 2766 0 
L 2766 531 
Q 2569 213 2275 61 
Q 1981 -91 1556 -91 
Q 1019 -91 701 211 
Q 384 513 384 1019 
Q 384 1609 779 1909 
Q 1175 2209 1959 2209 
L 2766 2209 
L 2766 2266 
Q 2766 2663 2505 2880 
Q 2244 3097 1772 3097 
Q 1472 3097 1187 3025 
Q 903 2953 641 2809 
L 641 3341 
Q 956 3463 1253 3523 
Q 1550 3584 1831 3584 
Q 2591 3584 2966 3190 
Q 3341 2797 3341 1997 
z
" transform="scale(0.015625)"/>
       <path id="DejaVuSans-6c" d="M 603 4863 
L 1178 4863 
L 1178 0 
L 603 0 
L 603 4863 
z
" transform="scale(0.015625)"/>
       <path id="DejaVuSans-62" d="M 3116 1747 
Q 3116 2381 2855 2742 
Q 2594 3103 2138 3103 
Q 1681 3103 1420 2742 
Q 1159 2381 1159 1747 
Q 1159 1113 1420 752 
Q 1681 391 2138 391 
Q 2594 391 2855 752 
Q 3116 1113 3116 1747 
z
M 1159 2969 
Q 1341 3281 1617 3432 
Q 1894 3584 2278 3584 
Q 2916 3584 3314 3078 
Q 3713 2572 3713 1747 
Q 3713 922 3314 415 
Q 2916 -91 2278 -91 
Q 1894 -91 1617 61 
Q 1341 213 1159 525 
L 1159 0 
L 581 0 
L 581 4863 
L 1159 4863 
L 1159 2969 
z
" transform="scale(0.015625)"/>
      </defs>
      <use xlink:href="#DejaVuSans-4f"/>
      <use xlink:href="#DejaVuSans-66" x="78.710938"/>
      <use xlink:href="#DejaVuSans-66" x="113.916016"/>
      <use xlink:href="#DejaVuSans-73" x="149.121094"/>
      <use xlink:href="#DejaVuSans-65" x="201.220703"/>
      <use xlink:href="#DejaVuSans-74" x="262.744141"/>
      <use xlink:href="#DejaVuSans-20" x="301.953125"/>
      <use xlink:href="#DejaVuSans-63" x="333.740234"/>
      <use xlink:href="#DejaVuSans-6f" x="388.720703"/>
      <use xlink:href="#DejaVuSans-73" x="449.902344"/>
      <use xlink:href="#DejaVuSans-74" x="502.001953"/>
      <use xlink:href="#DejaVuSans-20" x="541.210938"/>
      <use xlink:href="#DejaVuSans-76" x="572.998047"/>
      <use xlink:href="#DejaVuSans-61" x="632.177734"/>
      <use xlink:href="#DejaVuSans-6c" x="693.457031"/>
      <use xlink:href="#DejaVuSans-75" x="721.240234"/>
      <use xlink:href="#DejaVuSans-65" x="784.619141"/>
      <use xlink:href="#DejaVuSans-20" x="846.142578"/>
      <use xlink:href="#DejaVuSans-28" x="877.929688"/>
      <use xlink:href="#DejaVuSans-72" x="916.943359"/>
      <use xlink:href="#DejaVuSans-65" x="955.806641"/>
      <use xlink:href="#DejaVuSans-6c" x="1017.330078"/>
      <use xlink:href="#DejaVuSans-61" x="1045.113281"/>
      <use xlink:href="#DejaVuSans-74" x="1106.392578"/>
      <use xlink:href="#DejaVuSans-69" x="1145.601562"/>
      <use xlink:href="#DejaVuSans-76" x="1173.384766"/>
      <use xlink:href="#DejaVuSans-65" x="1232.564453"/>
      <use xlink:href="#DejaVuSans-20" x="1294.087891"/>
      <use xlink:href="#DejaVuSans-74" x="1325.875"/>
      <use xlink:href="#DejaVuSans-6f" x="1365.083984"/>
      <use xlink:href="#DejaVuSans-20" x="1426.265625"/>
      <use xlink:href="#DejaVuSans-62" x="1458.052734"/>
      <use xlink:href="#DejaVuSans-65" x="1521.529297"/>
      <use xlink:href="#DejaVuSans-73" x="1583.052734"/>
      <use xlink:href="#DejaVuSans-74" x="1635.152344"/>
      <use xlink:href="#DejaVuSans-20" x="1674.361328"/>
      <use xlink:href="#DejaVuSans-73" x="1706.148438"/>
      <use xlink:href="#DejaVuSans-74" x="1758.248047"/>
      <use xlink:href="#DejaVuSans-61" x="1797.457031"/>
      <use xlink:href="#DejaVuSans-72" x="1858.736328"/>
      <use xlink:href="#DejaVuSans-74" x="1899.849609"/>
      <use xlink:href="#DejaVuSans-29" x="1939.058594"/>
     </g>
    </g>
   </g>
   <g id="line2d_37">
    <path d="M 57.47698 310.08481 
L 60.358392 307.903969 
L 63.239804 293.564835 
L 66.121216 284.094046 
L 69.002628 281.035974 
L 71.88404 271.496413 
L 74.765452 259.183259 
L 77.646864 256.99523 
L 80.528276 251.393077 
L 83.409688 250.141299 
L 86.2911 248.195623 
L 89.172512 246.184818 
L 92.053924 243.516795 
L 94.935336 243.064537 
L 97.816748 241.09143 
L 100.69816 240.957098 
L 103.579572 239.216539 
L 106.460984 234.381727 
L 109.342396 230.801528 
L 112.223808 229.797413 
L 115.10522 229.021908 
L 117.986632 228.20101 
L 120.868044 227.681859 
L 123.749456 227.244359 
L 126.630868 226.945319 
L 129.51228 226.711647 
L 132.393692 225.639557 
L 135.275104 225.494593 
L 138.156516 225.007296 
L 141.037928 224.752183 
L 143.91934 224.396553 
L 146.800752 224.299793 
L 149.682164 223.857907 
L 152.563577 223.61699 
L 155.444989 223.554601 
L 158.326401 223.305214 
L 161.207813 223.191315 
L 164.089225 223.119241 
L 166.970637 223.104339 
L 169.852049 223.0075 
L 172.733461 222.992736 
L 175.614873 222.680211 
L 178.496285 222.330883 
L 181.377697 222.302907 
L 184.259109 222.275336 
L 187.140521 222.169246 
L 190.021933 221.894932 
L 192.903345 221.852414 
L 195.784757 220.956019 
L 198.666169 220.815205 
L 201.547581 220.489246 
L 204.428993 220.246411 
L 207.310405 218.902735 
L 210.191817 217.784555 
L 213.073229 217.365121 
L 215.954641 217.204879 
L 218.836053 216.124096 
L 221.717465 214.440298 
L 224.598877 209.20631 
L 227.480289 209.169971 
L 230.361701 208.822172 
L 233.243113 207.452023 
L 236.124525 196.256728 
L 239.005937 194.305631 
L 241.887349 194.248078 
L 244.768761 187.112102 
L 247.650173 184.161529 
L 250.531586 181.664613 
L 253.412998 181.182122 
L 256.29441 180.567071 
L 259.175822 180.146613 
L 262.057234 179.937938 
L 264.938646 179.8281 
L 267.820058 163.261786 
L 270.70147 162.134174 
L 273.582882 161.643662 
L 276.464294 159.874392 
L 279.345706 158.913873 
L 282.227118 158.006489 
L 285.10853 157.005236 
L 287.989942 156.283211 
L 290.871354 155.652109 
L 293.752766 19.729122 
L 296.634178 19.605048 
L 299.51559 19.538047 
L 302.397002 19.522483 
L 305.278414 19.520835 
L 308.159826 19.436165 
L 311.041238 19.36272 
L 313.92265 19.339528 
L 316.804062 19.30343 
L 319.685474 19.197674 
L 322.566886 19.086142 
L 325.448298 18.983409 
L 328.32971 18.969874 
L 331.211122 18.766661 
L 334.092534 18.358422 
L 336.973946 18.281487 
L 339.855358 18.129858 
L 342.73677 17.623315 
" clip-path="url(#p27d6691dcb)" style="fill: none; stroke: #000000; stroke-width: 1.5; stroke-linecap: square"/>
    <defs>
     <path id="m49e8bacb99" d="M 0 3 
C 0.795609 3 1.55874 2.683901 2.12132 2.12132 
C 2.683901 1.55874 3 0.795609 3 0 
C 3 -0.795609 2.683901 -1.55874 2.12132 -2.12132 
C 1.55874 -2.683901 0.795609 -3 0 -3 
C -0.795609 -3 -1.55874 -2.683901 -2.12132 -2.12132 
C -2.683901 -1.55874 -3 -0.795609 -3 0 
C -3 0.795609 -2.683901 1.55874 -2.12132 2.12132 
C -1.55874 2.683901 -0.795609 3 0 3 
z
" style="stroke: #000000"/>
    </defs>
    <g clip-path="url(#p27d6691dcb)">
     <use xlink:href="#m49e8bacb99" x="57.47698" y="310.08481" style="stroke: #000000"/>
     <use xlink:href="#m49e8bacb99" x="60.358392" y="307.903969" style="stroke: #000000"/>
     <use xlink:href="#m49e8bacb99" x="63.239804" y="293.564835" style="stroke: #000000"/>
     <use xlink:href="#m49e8bacb99" x="66.121216" y="284.094046" style="stroke: #000000"/>
     <use xlink:href="#m49e8bacb99" x="69.002628" y="281.035974" style="stroke: #000000"/>
     <use xlink:href="#m49e8bacb99" x="71.88404" y="271.496413" style="stroke: #000000"/>
     <use xlink:href="#m49e8bacb99" x="74.765452" y="259.183259" style="stroke: #000000"/>
     <use xlink:href="#m49e8bacb99" x="77.646864" y="256.99523" style="stroke: #000000"/>
     <use xlink:href="#m49e8bacb99" x="80.528276" y="251.393077" style="stroke: #000000"/>
     <use xlink:href="#m49e8bacb99" x="83.409688" y="250.141299" style="stroke: #000000"/>
     <use xlink:href="#m49e8bacb99" x="86.2911" y="248.195623" style="stroke: #000000"/>
     <use xlink:href="#m49e8bacb99" x="89.172512" y="246.184818" style="stroke: #000000"/>
     <use xlink:href="#m49e8bacb99" x="92.053924" y="243.516795" style="stroke: #000000"/>
     <use xlink:href="#m49e8bacb99" x="94.935336" y="243.064537" style="stroke: #000000"/>
     <use xlink:href="#m49e8bacb99" x="97.816748" y="241.09143" style="stroke: #000000"/>
     <use xlink:href="#m49e8bacb99" x="100.69816" y="240.957098" style="stroke: #000000"/>
     <use xlink:href="#m49e8bacb99" x="103.579572" y="239.216539" style="stroke: #000000"/>
     <use xlink:href="#m49e8bacb99" x="106.460984" y="234.381727" style="stroke: #000000"/>
     <use xlink:href="#m49e8bacb99" x="109.342396" y="230.801528" style="stroke: #000000"/>
     <use xlink:href="#m49e8bacb99" x="112.223808" y="229.797413" style="stroke: #000000"/>
     <use xlink:href="#m49e8bacb99" x="115.10522" y="229.021908" style="stroke: #000000"/>
     <use xlink:href="#m49e8bacb99" x="117.986632" y="228.20101" style="stroke: #000000"/>
     <use xlink:href="#m49e8bacb99" x="120.868044" y="227.681859" style="stroke: #000000"/>
     <use xlink:href="#m49e8bacb99" x="123.749456" y="227.244359" style="stroke: #000000"/>
     <use xlink:href="#m49e8bacb99" x="126.630868" y="226.945319" style="stroke: #000000"/>
     <use xlink:href="#m49e8bacb99" x="129.51228" y="226.711647" style="stroke: #000000"/>
     <use xlink:href="#m49e8bacb99" x="132.393692" y="225.639557" style="stroke: #000000"/>
     <use xlink:href="#m49e8bacb99" x="135.275104" y="225.494593" style="stroke: #000000"/>
     <use xlink:href="#m49e8bacb99" x="138.156516" y="225.007296" style="stroke: #000000"/>
     <use xlink:href="#m49e8bacb99" x="141.037928" y="224.752183" style="stroke: #000000"/>
     <use xlink:href="#m49e8bacb99" x="143.91934" y="224.396553" style="stroke: #000000"/>
     <use xlink:href="#m49e8bacb99" x="146.800752" y="224.299793" style="stroke: #000000"/>
     <use xlink:href="#m49e8bacb99" x="149.682164" y="223.857907" style="stroke: #000000"/>
     <use xlink:href="#m49e8bacb99" x="152.563577" y="223.61699" style="stroke: #000000"/>
     <use xlink:href="#m49e8bacb99" x="155.444989" y="223.554601" style="stroke: #000000"/>
     <use xlink:href="#m49e8bacb99" x="158.326401" y="223.305214" style="stroke: #000000"/>
     <use xlink:href="#m49e8bacb99" x="161.207813" y="223.191315" style="stroke: #000000"/>
     <use xlink:href="#m49e8bacb99" x="164.089225" y="223.119241" style="stroke: #000000"/>
     <use xlink:href="#m49e8bacb99" x="166.970637" y="223.104339" style="stroke: #000000"/>
     <use xlink:href="#m49e8bacb99" x="169.852049" y="223.0075" style="stroke: #000000"/>
     <use xlink:href="#m49e8bacb99" x="172.733461" y="222.992736" style="stroke: #000000"/>
     <use xlink:href="#m49e8bacb99" x="175.614873" y="222.680211" style="stroke: #000000"/>
     <use xlink:href="#m49e8bacb99" x="178.496285" y="222.330883" style="stroke: #000000"/>
     <use xlink:href="#m49e8bacb99" x="181.377697" y="222.302907" style="stroke: #000000"/>
     <use xlink:href="#m49e8bacb99" x="184.259109" y="222.275336" style="stroke: #000000"/>
     <use xlink:href="#m49e8bacb99" x="187.140521" y="222.169246" style="stroke: #000000"/>
     <use xlink:href="#m49e8bacb99" x="190.021933" y="221.894932" style="stroke: #000000"/>
     <use xlink:href="#m49e8bacb99" x="192.903345" y="221.852414" style="stroke: #000000"/>
     <use xlink:href="#m49e8bacb99" x="195.784757" y="220.956019" style="stroke: #000000"/>
     <use xlink:href="#m49e8bacb99" x="198.666169" y="220.815205" style="stroke: #000000"/>
     <use xlink:href="#m49e8bacb99" x="201.547581" y="220.489246" style="stroke: #000000"/>
     <use xlink:href="#m49e8bacb99" x="204.428993" y="220.246411" style="stroke: #000000"/>
     <use xlink:href="#m49e8bacb99" x="207.310405" y="218.902735" style="stroke: #000000"/>
     <use xlink:href="#m49e8bacb99" x="210.191817" y="217.784555" style="stroke: #000000"/>
     <use xlink:href="#m49e8bacb99" x="213.073229" y="217.365121" style="stroke: #000000"/>
     <use xlink:href="#m49e8bacb99" x="215.954641" y="217.204879" style="stroke: #000000"/>
     <use xlink:href="#m49e8bacb99" x="218.836053" y="216.124096" style="stroke: #000000"/>
     <use xlink:href="#m49e8bacb99" x="221.717465" y="214.440298" style="stroke: #000000"/>
     <use xlink:href="#m49e8bacb99" x="224.598877" y="209.20631" style="stroke: #000000"/>
     <use xlink:href="#m49e8bacb99" x="227.480289" y="209.169971" style="stroke: #000000"/>
     <use xlink:href="#m49e8bacb99" x="230.361701" y="208.822172" style="stroke: #000000"/>
     <use xlink:href="#m49e8bacb99" x="233.243113" y="207.452023" style="stroke: #000000"/>
     <use xlink:href="#m49e8bacb99" x="236.124525" y="196.256728" style="stroke: #000000"/>
     <use xlink:href="#m49e8bacb99" x="239.005937" y="194.305631" style="stroke: #000000"/>
     <use xlink:href="#m49e8bacb99" x="241.887349" y="194.248078" style="stroke: #000000"/>
     <use xlink:href="#m49e8bacb99" x="244.768761" y="187.112102" style="stroke: #000000"/>
     <use xlink:href="#m49e8bacb99" x="247.650173" y="184.161529" style="stroke: #000000"/>
     <use xlink:href="#m49e8bacb99" x="250.531586" y="181.664613" style="stroke: #000000"/>
     <use xlink:href="#m49e8bacb99" x="253.412998" y="181.182122" style="stroke: #000000"/>
     <use xlink:href="#m49e8bacb99" x="256.29441" y="180.567071" style="stroke: #000000"/>
     <use xlink:href="#m49e8bacb99" x="259.175822" y="180.146613" style="stroke: #000000"/>
     <use xlink:href="#m49e8bacb99" x="262.057234" y="179.937938" style="stroke: #000000"/>
     <use xlink:href="#m49e8bacb99" x="264.938646" y="179.8281" style="stroke: #000000"/>
     <use xlink:href="#m49e8bacb99" x="267.820058" y="163.261786" style="stroke: #000000"/>
     <use xlink:href="#m49e8bacb99" x="270.70147" y="162.134174" style="stroke: #000000"/>
     <use xlink:href="#m49e8bacb99" x="273.582882" y="161.643662" style="stroke: #000000"/>
     <use xlink:href="#m49e8bacb99" x="276.464294" y="159.874392" style="stroke: #000000"/>
     <use xlink:href="#m49e8bacb99" x="279.345706" y="158.913873" style="stroke: #000000"/>
     <use xlink:href="#m49e8bacb99" x="282.227118" y="158.006489" style="stroke: #000000"/>
     <use xlink:href="#m49e8bacb99" x="285.10853" y="157.005236" style="stroke: #000000"/>
     <use xlink:href="#m49e8bacb99" x="287.989942" y="156.283211" style="stroke: #000000"/>
     <use xlink:href="#m49e8bacb99" x="290.871354" y="155.652109" style="stroke: #000000"/>
     <use xlink:href="#m49e8bacb99" x="293.752766" y="19.729122" style="stroke: #000000"/>
     <use xlink:href="#m49e8bacb99" x="296.634178" y="19.605048" style="stroke: #000000"/>
     <use xlink:href="#m49e8bacb99" x="299.51559" y="19.538047" style="stroke: #000000"/>
     <use xlink:href="#m49e8bacb99" x="302.397002" y="19.522483" style="stroke: #000000"/>
     <use xlink:href="#m49e8bacb99" x="305.278414" y="19.520835" style="stroke: #000000"/>
     <use xlink:href="#m49e8bacb99" x="308.159826" y="19.436165" style="stroke: #000000"/>
     <use xlink:href="#m49e8bacb99" x="311.041238" y="19.36272" style="stroke: #000000"/>
     <use xlink:href="#m49e8bacb99" x="313.92265" y="19.339528" style="stroke: #000000"/>
     <use xlink:href="#m49e8bacb99" x="316.804062" y="19.30343" style="stroke: #000000"/>
     <use xlink:href="#m49e8bacb99" x="319.685474" y="19.197674" style="stroke: #000000"/>
     <use xlink:href="#m49e8bacb99" x="322.566886" y="19.086142" style="stroke: #000000"/>
     <use xlink:href="#m49e8bacb99" x="325.448298" y="18.983409" style="stroke: #000000"/>
     <use xlink:href="#m49e8bacb99" x="328.32971" y="18.969874" style="stroke: #000000"/>
     <use xlink:href="#m49e8bacb99" x="331.211122" y="18.766661" style="stroke: #000000"/>
     <use xlink:href="#m49e8bacb99" x="334.092534" y="18.358422" style="stroke: #000000"/>
     <use xlink:href="#m49e8bacb99" x="336.973946" y="18.281487" style="stroke: #000000"/>
     <use xlink:href="#m49e8bacb99" x="339.855358" y="18.129858" style="stroke: #000000"/>
     <use xlink:href="#m49e8bacb99" x="342.73677" y="17.623315" style="stroke: #000000"/>
    </g>
   </g>
   <g id="patch_3">
    <path d="M 43.21399 324.707885 
L 43.21399 3.00024 
" style="fill: none; stroke: #000000; stroke-width: 0.8; stroke-linejoin: miter; stroke-linecap: square"/>
   </g>
   <g id="patch_4">
    <path d="M 356.99976 324.707885 
L 356.99976 3.00024 
" style="fill: none; stroke: #000000; stroke-width: 0.8; stroke-linejoin: miter; stroke-linecap: square"/>
   </g>
   <g id="patch_5">
    <path d="M 43.21399 324.707885 
L 356.99976 324.707885 
" style="fill: none; stroke: #000000; stroke-width: 0.8; stroke-linejoin: miter; stroke-linecap: square"/>
   </g>
   <g id="patch_6">
    <path d="M 43.21399 3.00024 
L 356.99976 3.00024 
" style="fill: none; stroke: #000000; stroke-width: 0.8; stroke-linejoin: miter; stroke-linecap: square"/>
   </g>
  </g>
 </g>
 <defs>
  <clipPath id="p27d6691dcb">
   <rect x="43.21399" y="3.00024" width="313.78577" height="321.707645"/>
  </clipPath>
 </defs>
</svg>
