<?xml version="1.0" encoding="utf-8" standalone="no"?>
<!DOCTYPE svg PUBLIC "-//W3C//DTD SVG 1.1//EN"
  "http://www.w3.org/Graphics/SVG/1.1/DTD/svg11.dtd">
<svg xmlns:xlink="http://www.w3.org/1999/xlink" width="466.82375pt" height="683.737812pt" viewBox="0 0 466.82375 683.737812" xmlns="http://www.w3.org/2000/svg" version="1.1">
 <metadata>
  <rdf:RDF xmlns:dc="http://purl.org/dc/elements/1.1/" xmlns:cc="http://creativecommons.org/ns#" xmlns:rdf="http://www.w3.org/1999/02/22-rdf-syntax-ns#">
   <cc:Work>
    <dc:type rdf:resource="http://purl.org/dc/dcmitype/StillImage"/>
    <dc:date>2025-03-07T00:13:14.992586</dc:date>
    <dc:format>image/svg+xml</dc:format>
    <dc:creator>
     <cc:Agent>
      <dc:title>Matplotlib v3.9.1, https://matplotlib.org/</dc:title>
     </cc:Agent>
    </dc:creator>
   </cc:Work>
  </rdf:RDF>
 </metadata>
 <defs>
  <style type="text/css">*{stroke-linejoin: round; stroke-linecap: butt}</style>
 </defs>
 <g id="figure_1">
  <g id="patch_1">
   <path d="M 0 683.737812 
L 466.82375 683.737812 
L 466.82375 0 
L 0 0 
z
" style="fill: #ffffff"/>
  </g>
  <g id="axes_1">
   <g id="patch_2">
    <path d="M 64.251875 320.243478 
L 454.851875 320.243478 
L 454.851875 79.2 
L 64.251875 79.2 
z
" style="fill: #ffffff"/>
   </g>
   <g id="matplotlib.axis_1">
    <g id="xtick_1">
     <g id="line2d_1">
      <defs>
       <path id="m0b1f281d91" d="M 0 0 
L 0 3.5 
" style="stroke: #000000; stroke-width: 0.8"/>
      </defs>
      <g>
       <use xlink:href="#m0b1f281d91" x="107.651875" y="320.243478" style="stroke: #000000; stroke-width: 0.8"/>
      </g>
     </g>
     <g id="text_1">
      <!-- −2 -->
      <g transform="translate(96.595234 338.641135) scale(0.15 -0.15)">
       <defs>
        <path id="DejaVuSans-2212" d="M 678 2272 
L 4684 2272 
L 4684 1741 
L 678 1741 
L 678 2272 
z
" transform="scale(0.015625)"/>
        <path id="DejaVuSans-32" d="M 1228 531 
L 3431 531 
L 3431 0 
L 469 0 
L 469 531 
Q 828 903 1448 1529 
Q 2069 2156 2228 2338 
Q 2531 2678 2651 2914 
Q 2772 3150 2772 3378 
Q 2772 3750 2511 3984 
Q 2250 4219 1831 4219 
Q 1534 4219 1204 4116 
Q 875 4013 500 3803 
L 500 4441 
Q 881 4594 1212 4672 
Q 1544 4750 1819 4750 
Q 2544 4750 2975 4387 
Q 3406 4025 3406 3419 
Q 3406 3131 3298 2873 
Q 3191 2616 2906 2266 
Q 2828 2175 2409 1742 
Q 1991 1309 1228 531 
z
" transform="scale(0.015625)"/>
       </defs>
       <use xlink:href="#DejaVuSans-2212"/>
       <use xlink:href="#DejaVuSans-32" x="83.789062"/>
      </g>
     </g>
    </g>
    <g id="xtick_2">
     <g id="line2d_2">
      <g>
       <use xlink:href="#m0b1f281d91" x="194.451875" y="320.243478" style="stroke: #000000; stroke-width: 0.8"/>
      </g>
     </g>
     <g id="text_2">
      <!-- 0 -->
      <g transform="translate(189.68 338.641135) scale(0.15 -0.15)">
       <defs>
        <path id="DejaVuSans-30" d="M 2034 4250 
Q 1547 4250 1301 3770 
Q 1056 3291 1056 2328 
Q 1056 1369 1301 889 
Q 1547 409 2034 409 
Q 2525 409 2770 889 
Q 3016 1369 3016 2328 
Q 3016 3291 2770 3770 
Q 2525 4250 2034 4250 
z
M 2034 4750 
Q 2819 4750 3233 4129 
Q 3647 3509 3647 2328 
Q 3647 1150 3233 529 
Q 2819 -91 2034 -91 
Q 1250 -91 836 529 
Q 422 1150 422 2328 
Q 422 3509 836 4129 
Q 1250 4750 2034 4750 
z
" transform="scale(0.015625)"/>
       </defs>
       <use xlink:href="#DejaVuSans-30"/>
      </g>
     </g>
    </g>
    <g id="xtick_3">
     <g id="line2d_3">
      <g>
       <use xlink:href="#m0b1f281d91" x="281.251875" y="320.243478" style="stroke: #000000; stroke-width: 0.8"/>
      </g>
     </g>
     <g id="text_3">
      <!-- 2 -->
      <g transform="translate(276.48 338.641135) scale(0.15 -0.15)">
       <use xlink:href="#DejaVuSans-32"/>
      </g>
     </g>
    </g>
    <g id="xtick_4">
     <g id="line2d_4">
      <g>
       <use xlink:href="#m0b1f281d91" x="368.051875" y="320.243478" style="stroke: #000000; stroke-width: 0.8"/>
      </g>
     </g>
     <g id="text_4">
      <!-- 4 -->
      <g transform="translate(363.28 338.641135) scale(0.15 -0.15)">
       <defs>
        <path id="DejaVuSans-34" d="M 2419 4116 
L 825 1625 
L 2419 1625 
L 2419 4116 
z
M 2253 4666 
L 3047 4666 
L 3047 1625 
L 3713 1625 
L 3713 1100 
L 3047 1100 
L 3047 0 
L 2419 0 
L 2419 1100 
L 313 1100 
L 313 1709 
L 2253 4666 
z
" transform="scale(0.015625)"/>
       </defs>
       <use xlink:href="#DejaVuSans-34"/>
      </g>
     </g>
    </g>
    <g id="xtick_5">
     <g id="line2d_5">
      <g>
       <use xlink:href="#m0b1f281d91" x="454.851875" y="320.243478" style="stroke: #000000; stroke-width: 0.8"/>
      </g>
     </g>
     <g id="text_5">
      <!-- 6 -->
      <g transform="translate(450.08 338.641135) scale(0.15 -0.15)">
       <defs>
        <path id="DejaVuSans-36" d="M 2113 2584 
Q 1688 2584 1439 2293 
Q 1191 2003 1191 1497 
Q 1191 994 1439 701 
Q 1688 409 2113 409 
Q 2538 409 2786 701 
Q 3034 994 3034 1497 
Q 3034 2003 2786 2293 
Q 2538 2584 2113 2584 
z
M 3366 4563 
L 3366 3988 
Q 3128 4100 2886 4159 
Q 2644 4219 2406 4219 
Q 1781 4219 1451 3797 
Q 1122 3375 1075 2522 
Q 1259 2794 1537 2939 
Q 1816 3084 2150 3084 
Q 2853 3084 3261 2657 
Q 3669 2231 3669 1497 
Q 3669 778 3244 343 
Q 2819 -91 2113 -91 
Q 1303 -91 875 529 
Q 447 1150 447 2328 
Q 447 3434 972 4092 
Q 1497 4750 2381 4750 
Q 2619 4750 2861 4703 
Q 3103 4656 3366 4563 
z
" transform="scale(0.015625)"/>
       </defs>
       <use xlink:href="#DejaVuSans-36"/>
      </g>
     </g>
    </g>
    <g id="text_6">
     <!-- time [week] -->
     <g transform="translate(198.813125 359.437853) scale(0.18 -0.18)">
      <defs>
       <path id="DejaVuSans-Bold-74" d="M 1759 4494 
L 1759 3500 
L 2913 3500 
L 2913 2700 
L 1759 2700 
L 1759 1216 
Q 1759 972 1856 886 
Q 1953 800 2241 800 
L 2816 800 
L 2816 0 
L 1856 0 
Q 1194 0 917 276 
Q 641 553 641 1216 
L 641 2700 
L 84 2700 
L 84 3500 
L 641 3500 
L 641 4494 
L 1759 4494 
z
" transform="scale(0.015625)"/>
       <path id="DejaVuSans-Bold-69" d="M 538 3500 
L 1656 3500 
L 1656 0 
L 538 0 
L 538 3500 
z
M 538 4863 
L 1656 4863 
L 1656 3950 
L 538 3950 
L 538 4863 
z
" transform="scale(0.015625)"/>
       <path id="DejaVuSans-Bold-6d" d="M 3781 2919 
Q 3994 3244 4286 3414 
Q 4578 3584 4928 3584 
Q 5531 3584 5847 3212 
Q 6163 2841 6163 2131 
L 6163 0 
L 5038 0 
L 5038 1825 
Q 5041 1866 5042 1909 
Q 5044 1953 5044 2034 
Q 5044 2406 4934 2573 
Q 4825 2741 4581 2741 
Q 4263 2741 4089 2478 
Q 3916 2216 3909 1719 
L 3909 0 
L 2784 0 
L 2784 1825 
Q 2784 2406 2684 2573 
Q 2584 2741 2328 2741 
Q 2006 2741 1831 2477 
Q 1656 2213 1656 1722 
L 1656 0 
L 531 0 
L 531 3500 
L 1656 3500 
L 1656 2988 
Q 1863 3284 2130 3434 
Q 2397 3584 2719 3584 
Q 3081 3584 3359 3409 
Q 3638 3234 3781 2919 
z
" transform="scale(0.015625)"/>
       <path id="DejaVuSans-Bold-65" d="M 4031 1759 
L 4031 1441 
L 1416 1441 
Q 1456 1047 1700 850 
Q 1944 653 2381 653 
Q 2734 653 3104 758 
Q 3475 863 3866 1075 
L 3866 213 
Q 3469 63 3072 -14 
Q 2675 -91 2278 -91 
Q 1328 -91 801 392 
Q 275 875 275 1747 
Q 275 2603 792 3093 
Q 1309 3584 2216 3584 
Q 3041 3584 3536 3087 
Q 4031 2591 4031 1759 
z
M 2881 2131 
Q 2881 2450 2695 2645 
Q 2509 2841 2209 2841 
Q 1884 2841 1681 2658 
Q 1478 2475 1428 2131 
L 2881 2131 
z
" transform="scale(0.015625)"/>
       <path id="DejaVuSans-Bold-20" transform="scale(0.015625)"/>
       <path id="DejaVuSans-Bold-5b" d="M 550 4863 
L 2491 4863 
L 2491 4159 
L 1613 4159 
L 1613 -141 
L 2491 -141 
L 2491 -844 
L 550 -844 
L 550 4863 
z
" transform="scale(0.015625)"/>
       <path id="DejaVuSans-Bold-77" d="M 225 3500 
L 1313 3500 
L 1900 1088 
L 2491 3500 
L 3425 3500 
L 4013 1113 
L 4603 3500 
L 5691 3500 
L 4769 0 
L 3547 0 
L 2956 2406 
L 2369 0 
L 1147 0 
L 225 3500 
z
" transform="scale(0.015625)"/>
       <path id="DejaVuSans-Bold-6b" d="M 538 4863 
L 1656 4863 
L 1656 2216 
L 2944 3500 
L 4244 3500 
L 2534 1894 
L 4378 0 
L 3022 0 
L 1656 1459 
L 1656 0 
L 538 0 
L 538 4863 
z
" transform="scale(0.015625)"/>
       <path id="DejaVuSans-Bold-5d" d="M 2375 -844 
L 434 -844 
L 434 -141 
L 1313 -141 
L 1313 4159 
L 434 4159 
L 434 4863 
L 2375 4863 
L 2375 -844 
z
" transform="scale(0.015625)"/>
      </defs>
      <use xlink:href="#DejaVuSans-Bold-74"/>
      <use xlink:href="#DejaVuSans-Bold-69" x="47.802734"/>
      <use xlink:href="#DejaVuSans-Bold-6d" x="82.080078"/>
      <use xlink:href="#DejaVuSans-Bold-65" x="186.279297"/>
      <use xlink:href="#DejaVuSans-Bold-20" x="254.101562"/>
      <use xlink:href="#DejaVuSans-Bold-5b" x="288.916016"/>
      <use xlink:href="#DejaVuSans-Bold-77" x="334.619141"/>
      <use xlink:href="#DejaVuSans-Bold-65" x="427.001953"/>
      <use xlink:href="#DejaVuSans-Bold-65" x="494.824219"/>
      <use xlink:href="#DejaVuSans-Bold-6b" x="562.646484"/>
      <use xlink:href="#DejaVuSans-Bold-5d" x="629.150391"/>
     </g>
    </g>
   </g>
   <g id="matplotlib.axis_2">
    <g id="ytick_1">
     <g id="line2d_6">
      <defs>
       <path id="m42f8667563" d="M 0 0 
L -3.5 0 
" style="stroke: #000000; stroke-width: 0.8"/>
      </defs>
      <g>
       <use xlink:href="#m42f8667563" x="64.251875" y="306.986375" style="stroke: #000000; stroke-width: 0.8"/>
      </g>
     </g>
     <g id="text_7">
      <!-- 0 -->
      <g transform="translate(47.708125 312.685203) scale(0.15 -0.15)">
       <use xlink:href="#DejaVuSans-30"/>
      </g>
     </g>
    </g>
    <g id="ytick_2">
     <g id="line2d_7">
      <g>
       <use xlink:href="#m42f8667563" x="64.251875" y="266.012894" style="stroke: #000000; stroke-width: 0.8"/>
      </g>
     </g>
     <g id="text_8">
      <!-- 100 -->
      <g transform="translate(28.620625 271.711723) scale(0.15 -0.15)">
       <defs>
        <path id="DejaVuSans-31" d="M 794 531 
L 1825 531 
L 1825 4091 
L 703 3866 
L 703 4441 
L 1819 4666 
L 2450 4666 
L 2450 531 
L 3481 531 
L 3481 0 
L 794 0 
L 794 531 
z
" transform="scale(0.015625)"/>
       </defs>
       <use xlink:href="#DejaVuSans-31"/>
       <use xlink:href="#DejaVuSans-30" x="63.623047"/>
       <use xlink:href="#DejaVuSans-30" x="127.246094"/>
      </g>
     </g>
    </g>
    <g id="ytick_3">
     <g id="line2d_8">
      <g>
       <use xlink:href="#m42f8667563" x="64.251875" y="225.039414" style="stroke: #000000; stroke-width: 0.8"/>
      </g>
     </g>
     <g id="text_9">
      <!-- 200 -->
      <g transform="translate(28.620625 230.738242) scale(0.15 -0.15)">
       <use xlink:href="#DejaVuSans-32"/>
       <use xlink:href="#DejaVuSans-30" x="63.623047"/>
       <use xlink:href="#DejaVuSans-30" x="127.246094"/>
      </g>
     </g>
    </g>
    <g id="ytick_4">
     <g id="line2d_9">
      <g>
       <use xlink:href="#m42f8667563" x="64.251875" y="184.065934" style="stroke: #000000; stroke-width: 0.8"/>
      </g>
     </g>
     <g id="text_10">
      <!-- 300 -->
      <g transform="translate(28.620625 189.764762) scale(0.15 -0.15)">
       <defs>
        <path id="DejaVuSans-33" d="M 2597 2516 
Q 3050 2419 3304 2112 
Q 3559 1806 3559 1356 
Q 3559 666 3084 287 
Q 2609 -91 1734 -91 
Q 1441 -91 1130 -33 
Q 819 25 488 141 
L 488 750 
Q 750 597 1062 519 
Q 1375 441 1716 441 
Q 2309 441 2620 675 
Q 2931 909 2931 1356 
Q 2931 1769 2642 2001 
Q 2353 2234 1838 2234 
L 1294 2234 
L 1294 2753 
L 1863 2753 
Q 2328 2753 2575 2939 
Q 2822 3125 2822 3475 
Q 2822 3834 2567 4026 
Q 2313 4219 1838 4219 
Q 1578 4219 1281 4162 
Q 984 4106 628 3988 
L 628 4550 
Q 988 4650 1302 4700 
Q 1616 4750 1894 4750 
Q 2613 4750 3031 4423 
Q 3450 4097 3450 3541 
Q 3450 3153 3228 2886 
Q 3006 2619 2597 2516 
z
" transform="scale(0.015625)"/>
       </defs>
       <use xlink:href="#DejaVuSans-33"/>
       <use xlink:href="#DejaVuSans-30" x="63.623047"/>
       <use xlink:href="#DejaVuSans-30" x="127.246094"/>
      </g>
     </g>
    </g>
    <g id="ytick_5">
     <g id="line2d_10">
      <g>
       <use xlink:href="#m42f8667563" x="64.251875" y="143.092454" style="stroke: #000000; stroke-width: 0.8"/>
      </g>
     </g>
     <g id="text_11">
      <!-- 400 -->
      <g transform="translate(28.620625 148.791282) scale(0.15 -0.15)">
       <use xlink:href="#DejaVuSans-34"/>
       <use xlink:href="#DejaVuSans-30" x="63.623047"/>
       <use xlink:href="#DejaVuSans-30" x="127.246094"/>
      </g>
     </g>
    </g>
    <g id="ytick_6">
     <g id="line2d_11">
      <g>
       <use xlink:href="#m42f8667563" x="64.251875" y="102.118974" style="stroke: #000000; stroke-width: 0.8"/>
      </g>
     </g>
     <g id="text_12">
      <!-- 500 -->
      <g transform="translate(28.620625 107.817802) scale(0.15 -0.15)">
       <defs>
        <path id="DejaVuSans-35" d="M 691 4666 
L 3169 4666 
L 3169 4134 
L 1269 4134 
L 1269 2991 
Q 1406 3038 1543 3061 
Q 1681 3084 1819 3084 
Q 2600 3084 3056 2656 
Q 3513 2228 3513 1497 
Q 3513 744 3044 326 
Q 2575 -91 1722 -91 
Q 1428 -91 1123 -41 
Q 819 9 494 109 
L 494 744 
Q 775 591 1075 516 
Q 1375 441 1709 441 
Q 2250 441 2565 725 
Q 2881 1009 2881 1497 
Q 2881 1984 2565 2268 
Q 2250 2553 1709 2553 
Q 1456 2553 1204 2497 
Q 953 2441 691 2322 
L 691 4666 
z
" transform="scale(0.015625)"/>
       </defs>
       <use xlink:href="#DejaVuSans-35"/>
       <use xlink:href="#DejaVuSans-30" x="63.623047"/>
       <use xlink:href="#DejaVuSans-30" x="127.246094"/>
      </g>
     </g>
    </g>
    <g id="text_13">
     <!-- tirzepatide [nM] -->
     <g transform="translate(20.877187 282.061895) rotate(-90) scale(0.18 -0.18)">
      <defs>
       <path id="DejaVuSans-Bold-72" d="M 3138 2547 
Q 2991 2616 2845 2648 
Q 2700 2681 2553 2681 
Q 2122 2681 1889 2404 
Q 1656 2128 1656 1613 
L 1656 0 
L 538 0 
L 538 3500 
L 1656 3500 
L 1656 2925 
Q 1872 3269 2151 3426 
Q 2431 3584 2822 3584 
Q 2878 3584 2943 3579 
Q 3009 3575 3134 3559 
L 3138 2547 
z
" transform="scale(0.015625)"/>
       <path id="DejaVuSans-Bold-7a" d="M 366 3500 
L 3419 3500 
L 3419 2719 
L 1575 800 
L 3419 800 
L 3419 0 
L 288 0 
L 288 781 
L 2131 2700 
L 366 2700 
L 366 3500 
z
" transform="scale(0.015625)"/>
       <path id="DejaVuSans-Bold-70" d="M 1656 506 
L 1656 -1331 
L 538 -1331 
L 538 3500 
L 1656 3500 
L 1656 2988 
Q 1888 3294 2169 3439 
Q 2450 3584 2816 3584 
Q 3463 3584 3878 3070 
Q 4294 2556 4294 1747 
Q 4294 938 3878 423 
Q 3463 -91 2816 -91 
Q 2450 -91 2169 54 
Q 1888 200 1656 506 
z
M 2400 2772 
Q 2041 2772 1848 2508 
Q 1656 2244 1656 1747 
Q 1656 1250 1848 986 
Q 2041 722 2400 722 
Q 2759 722 2948 984 
Q 3138 1247 3138 1747 
Q 3138 2247 2948 2509 
Q 2759 2772 2400 2772 
z
" transform="scale(0.015625)"/>
       <path id="DejaVuSans-Bold-61" d="M 2106 1575 
Q 1756 1575 1579 1456 
Q 1403 1338 1403 1106 
Q 1403 894 1545 773 
Q 1688 653 1941 653 
Q 2256 653 2472 879 
Q 2688 1106 2688 1447 
L 2688 1575 
L 2106 1575 
z
M 3816 1997 
L 3816 0 
L 2688 0 
L 2688 519 
Q 2463 200 2181 54 
Q 1900 -91 1497 -91 
Q 953 -91 614 226 
Q 275 544 275 1050 
Q 275 1666 698 1953 
Q 1122 2241 2028 2241 
L 2688 2241 
L 2688 2328 
Q 2688 2594 2478 2717 
Q 2269 2841 1825 2841 
Q 1466 2841 1156 2769 
Q 847 2697 581 2553 
L 581 3406 
Q 941 3494 1303 3539 
Q 1666 3584 2028 3584 
Q 2975 3584 3395 3211 
Q 3816 2838 3816 1997 
z
" transform="scale(0.015625)"/>
       <path id="DejaVuSans-Bold-64" d="M 2919 2988 
L 2919 4863 
L 4044 4863 
L 4044 0 
L 2919 0 
L 2919 506 
Q 2688 197 2409 53 
Q 2131 -91 1766 -91 
Q 1119 -91 703 423 
Q 288 938 288 1747 
Q 288 2556 703 3070 
Q 1119 3584 1766 3584 
Q 2128 3584 2408 3439 
Q 2688 3294 2919 2988 
z
M 2181 722 
Q 2541 722 2730 984 
Q 2919 1247 2919 1747 
Q 2919 2247 2730 2509 
Q 2541 2772 2181 2772 
Q 1825 2772 1636 2509 
Q 1447 2247 1447 1747 
Q 1447 1247 1636 984 
Q 1825 722 2181 722 
z
" transform="scale(0.015625)"/>
       <path id="DejaVuSans-Bold-6e" d="M 4056 2131 
L 4056 0 
L 2931 0 
L 2931 347 
L 2931 1631 
Q 2931 2084 2911 2256 
Q 2891 2428 2841 2509 
Q 2775 2619 2662 2680 
Q 2550 2741 2406 2741 
Q 2056 2741 1856 2470 
Q 1656 2200 1656 1722 
L 1656 0 
L 538 0 
L 538 3500 
L 1656 3500 
L 1656 2988 
Q 1909 3294 2193 3439 
Q 2478 3584 2822 3584 
Q 3428 3584 3742 3212 
Q 4056 2841 4056 2131 
z
" transform="scale(0.015625)"/>
       <path id="DejaVuSans-Bold-4d" d="M 588 4666 
L 2119 4666 
L 3181 2169 
L 4250 4666 
L 5778 4666 
L 5778 0 
L 4641 0 
L 4641 3413 
L 3566 897 
L 2803 897 
L 1728 3413 
L 1728 0 
L 588 0 
L 588 4666 
z
" transform="scale(0.015625)"/>
      </defs>
      <use xlink:href="#DejaVuSans-Bold-74"/>
      <use xlink:href="#DejaVuSans-Bold-69" x="47.802734"/>
      <use xlink:href="#DejaVuSans-Bold-72" x="82.080078"/>
      <use xlink:href="#DejaVuSans-Bold-7a" x="131.396484"/>
      <use xlink:href="#DejaVuSans-Bold-65" x="189.599609"/>
      <use xlink:href="#DejaVuSans-Bold-70" x="257.421875"/>
      <use xlink:href="#DejaVuSans-Bold-61" x="329.003906"/>
      <use xlink:href="#DejaVuSans-Bold-74" x="396.484375"/>
      <use xlink:href="#DejaVuSans-Bold-69" x="444.287109"/>
      <use xlink:href="#DejaVuSans-Bold-64" x="478.564453"/>
      <use xlink:href="#DejaVuSans-Bold-65" x="550.146484"/>
      <use xlink:href="#DejaVuSans-Bold-20" x="617.96875"/>
      <use xlink:href="#DejaVuSans-Bold-5b" x="652.783203"/>
      <use xlink:href="#DejaVuSans-Bold-6e" x="698.486328"/>
      <use xlink:href="#DejaVuSans-Bold-4d" x="769.677734"/>
      <use xlink:href="#DejaVuSans-Bold-5d" x="869.189453"/>
     </g>
    </g>
   </g>
   <g id="LineCollection_1">
    <path d="M 194.451875 309.286957 
L 194.451875 303.535502 
" clip-path="url(#p92000fd3bb)" style="fill: none; stroke: #dc143c"/>
    <path d="M 196.518542 293.182883 
L 196.518542 273.627936 
" clip-path="url(#p92000fd3bb)" style="fill: none; stroke: #dc143c"/>
    <path d="M 200.651875 288.006573 
L 200.651875 276.503663 
" clip-path="url(#p92000fd3bb)" style="fill: none; stroke: #dc143c"/>
    <path d="M 206.851875 289.156864 
L 206.851875 282.255118 
" clip-path="url(#p92000fd3bb)" style="fill: none; stroke: #dc143c"/>
    <path d="M 213.051875 289.156864 
L 213.051875 284.5557 
" clip-path="url(#p92000fd3bb)" style="fill: none; stroke: #dc143c"/>
    <path d="M 237.851875 296.633756 
L 237.851875 292.032592 
" clip-path="url(#p92000fd3bb)" style="fill: none; stroke: #dc143c"/>
   </g>
   <g id="LineCollection_2">
    <path d="M 194.451875 275.928518 
L 194.451875 259.824444 
" clip-path="url(#p92000fd3bb)" style="fill: none; stroke: #daa520"/>
    <path d="M 196.518542 243.72037 
L 196.518542 216.113386 
" clip-path="url(#p92000fd3bb)" style="fill: none; stroke: #daa520"/>
    <path d="M 200.651875 229.916878 
L 200.651875 206.911058 
" clip-path="url(#p92000fd3bb)" style="fill: none; stroke: #daa520"/>
    <path d="M 206.851875 240.844642 
L 206.851875 218.989113 
" clip-path="url(#p92000fd3bb)" style="fill: none; stroke: #daa520"/>
    <path d="M 213.051875 251.197261 
L 213.051875 224.740568 
" clip-path="url(#p92000fd3bb)" style="fill: none; stroke: #daa520"/>
    <path d="M 237.851875 275.353372 
L 237.851875 253.497843 
" clip-path="url(#p92000fd3bb)" style="fill: none; stroke: #daa520"/>
   </g>
   <g id="LineCollection_3">
    <path d="M 194.451875 238.54406 
L 194.451875 206.335912 
" clip-path="url(#p92000fd3bb)" style="fill: none; stroke: #32cd32"/>
    <path d="M 196.518542 167.801164 
L 196.518542 110.286614 
" clip-path="url(#p92000fd3bb)" style="fill: none; stroke: #32cd32"/>
    <path d="M 200.651875 148.821363 
L 200.651875 90.156522 
" clip-path="url(#p92000fd3bb)" style="fill: none; stroke: #32cd32"/>
    <path d="M 206.851875 171.827182 
L 206.851875 114.312633 
" clip-path="url(#p92000fd3bb)" style="fill: none; stroke: #32cd32"/>
    <path d="M 213.051875 185.055529 
L 213.051875 139.043889 
" clip-path="url(#p92000fd3bb)" style="fill: none; stroke: #32cd32"/>
    <path d="M 237.851875 227.04115 
L 237.851875 198.283875 
" clip-path="url(#p92000fd3bb)" style="fill: none; stroke: #32cd32"/>
    <path d="M 281.225856 279.954536 
L 281.225856 260.399589 
" clip-path="url(#p92000fd3bb)" style="fill: none; stroke: #32cd32"/>
    <path d="M 411.451875 305.260938 
L 411.451875 300.659774 
" clip-path="url(#p92000fd3bb)" style="fill: none; stroke: #32cd32"/>
   </g>
   <g id="line2d_12">
    <path d="M 194.451875 306.986375 
L 195.732175 302.634196 
L 197.186075 298.415026 
L 198.618275 294.921795 
L 200.028775 292.046988 
L 201.439275 289.665522 
L 202.828075 287.744284 
L 204.216875 286.191974 
L 205.605675 284.963067 
L 207.016175 284.004281 
L 208.470075 283.281477 
L 209.989075 282.77493 
L 211.594875 282.475577 
L 213.330875 282.381956 
L 215.240475 282.506803 
L 217.388775 282.875924 
L 219.884275 283.537791 
L 222.922275 284.584474 
L 226.958475 286.227031 
L 235.508275 290.020962 
L 237.851875 291.044728 
L 237.851875 291.044728 
" clip-path="url(#p92000fd3bb)" style="fill: none; stroke: #dc143c; stroke-width: 2; stroke-linecap: square"/>
   </g>
   <g id="line2d_13">
    <path d="M 194.451875 306.411229 
L 196.518542 283.405409 
L 200.651875 282.255118 
L 206.851875 285.705991 
L 213.051875 286.856282 
L 237.851875 294.333174 
" clip-path="url(#p92000fd3bb)" style="fill: none; stroke-dasharray: 3.7,1.6; stroke-dashoffset: 0; stroke: #dc143c"/>
    <defs>
     <path id="m33c58cb1d7" d="M -3 3 
L 3 3 
L 3 -3 
L -3 -3 
z
" style="stroke: #000000; stroke-linejoin: miter"/>
    </defs>
    <g clip-path="url(#p92000fd3bb)">
     <use xlink:href="#m33c58cb1d7" x="194.451875" y="306.411229" style="fill: #dc143c; stroke: #000000; stroke-linejoin: miter"/>
     <use xlink:href="#m33c58cb1d7" x="196.518542" y="283.405409" style="fill: #dc143c; stroke: #000000; stroke-linejoin: miter"/>
     <use xlink:href="#m33c58cb1d7" x="200.651875" y="282.255118" style="fill: #dc143c; stroke: #000000; stroke-linejoin: miter"/>
     <use xlink:href="#m33c58cb1d7" x="206.851875" y="285.705991" style="fill: #dc143c; stroke: #000000; stroke-linejoin: miter"/>
     <use xlink:href="#m33c58cb1d7" x="213.051875" y="286.856282" style="fill: #dc143c; stroke: #000000; stroke-linejoin: miter"/>
     <use xlink:href="#m33c58cb1d7" x="237.851875" y="294.333174" style="fill: #dc143c; stroke: #000000; stroke-linejoin: miter"/>
    </g>
   </g>
   <g id="line2d_14">
    <path d="M 64.230175 286.866748 
L 64.251875 286.879313 
L 64.273575 286.81399 
L 65.640675 283.151887 
L 66.986075 280.163597 
L 68.309775 277.749622 
L 69.611775 275.824679 
L 70.892075 274.315636 
L 72.172375 273.142458 
L 73.452675 272.265226 
L 74.754675 271.639711 
L 76.100075 271.240158 
L 77.510575 271.054824 
L 79.029575 271.084311 
L 80.678775 271.342979 
L 82.523275 271.862193 
L 84.649875 272.699902 
L 87.167075 273.939655 
L 90.356975 275.772608 
L 95.109275 278.789429 
L 105.655475 285.533364 
L 107.651875 286.720775 
L 107.651875 286.720775 
L 108.867075 279.282502 
L 110.234175 272.164302 
L 111.579575 266.303198 
L 112.881575 261.586939 
L 114.161875 257.760974 
L 115.398775 254.742678 
L 116.592275 252.391433 
L 117.764075 250.560098 
L 118.892475 249.194899 
L 119.999175 248.194625 
L 121.084175 247.504704 
L 122.169175 247.071658 
L 123.275875 246.865533 
L 124.447675 246.876792 
L 125.684575 247.113326 
L 127.051675 247.606926 
L 128.570675 248.397907 
L 130.306675 249.559524 
L 132.346475 251.201752 
L 134.841975 253.51094 
L 138.140375 256.888612 
L 144.389975 263.683423 
L 150.444275 270.124141 
L 151.051875 270.745036 
L 151.073575 270.611339 
L 152.418975 263.208427 
L 153.742675 257.12777 
L 155.022975 252.251597 
L 156.259875 248.373392 
L 157.475075 245.271376 
L 158.646875 242.871853 
L 159.775275 241.050778 
L 160.860275 239.704621 
L 161.923575 238.730191 
L 162.965175 238.072244 
L 164.006775 237.677213 
L 165.048375 237.517312 
L 166.133375 237.573435 
L 167.305175 237.859599 
L 168.585475 238.405855 
L 170.017675 239.264395 
L 171.666875 240.522767 
L 173.598175 242.29023 
L 175.920075 244.730751 
L 178.936375 248.246053 
L 183.753775 254.252502 
L 191.348775 263.684022 
L 194.451875 267.309512 
L 194.451875 267.309512 
L 195.769375 260.179626 
L 197.086875 254.232433 
L 198.404375 249.329116 
L 199.612083 245.647437 
L 200.819792 242.656451 
L 202.0275 240.28001 
L 203.125417 238.594868 
L 204.223333 237.31379 
L 205.211458 236.470912 
L 206.199583 235.8922 
L 207.187708 235.551492 
L 208.285625 235.42292 
L 209.383542 235.528468 
L 210.59125 235.882419 
L 211.90875 236.515403 
L 213.336042 237.448955 
L 214.982917 238.792104 
L 216.959167 240.703625 
L 219.374583 243.369983 
L 222.558542 247.245773 
L 228.267708 254.624487 
L 234.525833 262.585801 
L 238.807708 267.674572 
L 242.650417 271.907937 
L 246.383333 275.691613 
L 250.006458 279.048633 
L 253.629583 282.100753 
L 257.252708 284.860698 
L 260.875833 287.345455 
L 264.60875 289.63812 
L 268.451458 291.737995 
L 272.403958 293.647826 
L 276.576042 295.416738 
L 280.967708 297.035373 
L 285.578958 298.499169 
L 290.519583 299.835227 
L 295.899375 301.05658 
L 301.718333 302.147432 
L 308.196042 303.130112 
L 315.442292 303.996861 
L 323.566875 304.740597 
L 333.008958 305.376709 
L 344.3175 305.906747 
L 358.261042 306.326945 
L 376.486458 306.640353 
L 402.616875 306.84917 
L 414.035208 306.894797 
L 414.035208 306.894797 
" clip-path="url(#p92000fd3bb)" style="fill: none; stroke: #daa520; stroke-width: 2; stroke-linecap: square"/>
   </g>
   <g id="line2d_15">
    <path d="M 194.451875 267.876481 
L 196.518542 229.916878 
L 200.651875 218.413968 
L 206.851875 229.916878 
L 213.051875 237.968915 
L 237.851875 264.425608 
" clip-path="url(#p92000fd3bb)" style="fill: none; stroke-dasharray: 3.7,1.6; stroke-dashoffset: 0; stroke: #daa520"/>
    <defs>
     <path id="m27f184f7f7" d="M -3 3 
L 3 3 
L 3 -3 
L -3 -3 
z
" style="stroke: #000000; stroke-linejoin: miter"/>
    </defs>
    <g clip-path="url(#p92000fd3bb)">
     <use xlink:href="#m27f184f7f7" x="194.451875" y="267.876481" style="fill: #daa520; stroke: #000000; stroke-linejoin: miter"/>
     <use xlink:href="#m27f184f7f7" x="196.518542" y="229.916878" style="fill: #daa520; stroke: #000000; stroke-linejoin: miter"/>
     <use xlink:href="#m27f184f7f7" x="200.651875" y="218.413968" style="fill: #daa520; stroke: #000000; stroke-linejoin: miter"/>
     <use xlink:href="#m27f184f7f7" x="206.851875" y="229.916878" style="fill: #daa520; stroke: #000000; stroke-linejoin: miter"/>
     <use xlink:href="#m27f184f7f7" x="213.051875" y="237.968915" style="fill: #daa520; stroke: #000000; stroke-linejoin: miter"/>
     <use xlink:href="#m27f184f7f7" x="237.851875" y="264.425608" style="fill: #daa520; stroke: #000000; stroke-linejoin: miter"/>
    </g>
   </g>
   <g id="line2d_16">
    <path d="M 64.230175 246.223674 
L 64.251875 246.26168 
L 64.251875 246.26168 
L 65.401975 236.870767 
L 66.703975 227.887088 
L 67.962575 220.68108 
L 69.177775 214.948829 
L 70.349575 210.436871 
L 71.477975 206.933596 
L 72.562975 204.262175 
L 73.582875 202.310749 
L 74.559375 200.90041 
L 75.492475 199.931356 
L 76.382175 199.319856 
L 77.250175 198.990421 
L 78.118175 198.900906 
L 79.007875 199.035136 
L 79.962675 199.408931 
L 81.025975 200.075383 
L 82.219475 201.099806 
L 83.586575 202.582543 
L 85.170675 204.645972 
L 87.036875 207.457939 
L 89.337075 211.348524 
L 92.353375 216.918623 
L 97.648175 227.25363 
L 103.854375 239.215864 
L 107.651875 246.102802 
L 107.651875 246.102802 
L 108.845375 232.315064 
L 110.169075 219.348116 
L 111.471075 208.709956 
L 112.729675 200.195552 
L 113.944875 193.44076 
L 115.116675 188.141949 
L 116.223375 184.115824 
L 117.286675 181.049881 
L 118.284875 178.815508 
L 119.217975 177.236345 
L 120.107675 176.146711 
L 120.932275 175.467395 
L 121.735175 175.085364 
L 122.516375 174.956173 
L 123.319275 175.051665 
L 124.165575 175.380972 
L 125.098675 175.990422 
L 126.140275 176.943907 
L 127.333775 178.348055 
L 128.722575 180.341658 
L 130.350075 183.086612 
L 132.303075 186.840597 
L 134.733475 192.02361 
L 138.053575 199.671651 
L 151.030175 230.079473 
L 151.051875 230.12699 
L 151.051875 230.12699 
L 152.223675 217.220837 
L 153.525675 205.101671 
L 154.805975 195.208812 
L 156.042875 187.343513 
L 157.214675 181.257144 
L 158.343075 176.516588 
L 159.428075 172.886663 
L 160.447975 170.220063 
L 161.402775 168.314335 
L 162.292475 167.004625 
L 163.138775 166.138771 
L 163.919975 165.640319 
L 164.679475 165.409774 
L 165.438975 165.4095 
L 166.241875 165.638858 
L 167.109875 166.128924 
L 168.086375 166.951559 
L 169.193075 168.192606 
L 170.451675 169.951325 
L 171.927275 172.412288 
L 173.684975 175.801787 
L 175.811575 180.413588 
L 178.545775 186.910657 
L 182.690475 197.403198 
L 190.936475 218.326598 
L 194.451875 226.69145 
L 194.451875 226.69145 
L 195.769375 212.474584 
L 197.086875 200.621146 
L 198.294583 191.593987 
L 199.502292 184.131342 
L 200.71 178.063265 
L 201.807917 173.62742 
L 202.905833 170.1122 
L 203.893958 167.656534 
L 204.882083 165.805415 
L 205.760417 164.620049 
L 206.528958 163.906773 
L 207.2975 163.47095 
L 208.066042 163.290421 
L 208.834583 163.344459 
L 209.603125 163.613683 
L 210.481458 164.16168 
L 211.469583 165.05466 
L 212.5675 166.351739 
L 213.885 168.276087 
L 215.422083 170.948472 
L 217.17875 174.458223 
L 219.374583 179.364202 
L 222.229167 186.325142 
L 226.840417 198.244628 
L 233.867083 216.325274 
L 237.929375 226.13365 
L 241.5525 234.301586 
L 244.956042 241.423969 
L 248.14 247.588827 
L 251.323958 253.274458 
L 254.398125 258.321145 
L 257.472292 262.950465 
L 260.546458 267.183896 
L 263.620625 271.045209 
L 266.694792 274.559294 
L 269.87875 277.859646 
L 273.062708 280.842007 
L 276.356458 283.620873 
L 279.76 286.194498 
L 283.273333 288.563995 
L 286.896458 290.732998 
L 290.629375 292.707307 
L 294.581875 294.542216 
L 298.753958 296.22815 
L 303.145625 297.760073 
L 307.866667 299.167239 
L 312.917083 300.438024 
L 318.406667 301.587907 
L 324.445208 302.622301 
L 331.1425 303.540408 
L 338.718125 304.349092 
L 347.391667 305.045248 
L 357.602292 305.633511 
L 369.898958 306.110753 
L 385.489375 306.482093 
L 406.569375 306.747286 
L 414.035208 306.802825 
L 414.035208 306.802825 
" clip-path="url(#p92000fd3bb)" style="fill: none; stroke: #32cd32; stroke-width: 2; stroke-linecap: square"/>
   </g>
   <g id="line2d_17">
    <path d="M 194.451875 222.439986 
L 196.518542 139.043889 
L 200.651875 119.488942 
L 206.851875 143.069908 
L 213.051875 162.049709 
L 237.851875 212.662513 
L 281.225856 270.177063 
L 411.451875 302.960356 
" clip-path="url(#p92000fd3bb)" style="fill: none; stroke-dasharray: 3.7,1.6; stroke-dashoffset: 0; stroke: #32cd32"/>
    <defs>
     <path id="m12ef4f2230" d="M -3 3 
L 3 3 
L 3 -3 
L -3 -3 
z
" style="stroke: #000000; stroke-linejoin: miter"/>
    </defs>
    <g clip-path="url(#p92000fd3bb)">
     <use xlink:href="#m12ef4f2230" x="194.451875" y="222.439986" style="fill: #32cd32; stroke: #000000; stroke-linejoin: miter"/>
     <use xlink:href="#m12ef4f2230" x="196.518542" y="139.043889" style="fill: #32cd32; stroke: #000000; stroke-linejoin: miter"/>
     <use xlink:href="#m12ef4f2230" x="200.651875" y="119.488942" style="fill: #32cd32; stroke: #000000; stroke-linejoin: miter"/>
     <use xlink:href="#m12ef4f2230" x="206.851875" y="143.069908" style="fill: #32cd32; stroke: #000000; stroke-linejoin: miter"/>
     <use xlink:href="#m12ef4f2230" x="213.051875" y="162.049709" style="fill: #32cd32; stroke: #000000; stroke-linejoin: miter"/>
     <use xlink:href="#m12ef4f2230" x="237.851875" y="212.662513" style="fill: #32cd32; stroke: #000000; stroke-linejoin: miter"/>
     <use xlink:href="#m12ef4f2230" x="281.225856" y="270.177063" style="fill: #32cd32; stroke: #000000; stroke-linejoin: miter"/>
     <use xlink:href="#m12ef4f2230" x="411.451875" y="302.960356" style="fill: #32cd32; stroke: #000000; stroke-linejoin: miter"/>
    </g>
   </g>
   <g id="patch_3">
    <path d="M 64.251875 320.243478 
L 64.251875 79.2 
" style="fill: none; stroke: #000000; stroke-width: 0.8; stroke-linejoin: miter; stroke-linecap: square"/>
   </g>
   <g id="patch_4">
    <path d="M 454.851875 320.243478 
L 454.851875 79.2 
" style="fill: none; stroke: #000000; stroke-width: 0.8; stroke-linejoin: miter; stroke-linecap: square"/>
   </g>
   <g id="patch_5">
    <path d="M 64.251875 320.243478 
L 454.851875 320.243478 
" style="fill: none; stroke: #000000; stroke-width: 0.8; stroke-linejoin: miter; stroke-linecap: square"/>
   </g>
   <g id="patch_6">
    <path d="M 64.251875 79.2 
L 454.851875 79.2 
" style="fill: none; stroke: #000000; stroke-width: 0.8; stroke-linejoin: miter; stroke-linecap: square"/>
   </g>
   <g id="legend_1">
    <g id="patch_7">
     <path d="M 292.775312 175.26875 
L 447.851875 175.26875 
Q 449.851875 175.26875 449.851875 173.26875 
L 449.851875 86.2 
Q 449.851875 84.2 447.851875 84.2 
L 292.775312 84.2 
Q 290.775312 84.2 290.775312 86.2 
L 290.775312 173.26875 
Q 290.775312 175.26875 292.775312 175.26875 
z
" style="fill: #ffffff; opacity: 0.8; stroke: #cccccc; stroke-linejoin: miter"/>
    </g>
    <g id="line2d_18">
     <path d="M 294.775312 92.298437 
L 314.775312 92.298437 
" style="fill: none; stroke: #dc143c; stroke-width: 2; stroke-linecap: square"/>
    </g>
    <g id="line2d_19"/>
    <g id="text_14">
     <!-- Sim 2.5 mg tir -->
     <g transform="translate(322.775312 95.798437) scale(0.1 -0.1)">
      <defs>
       <path id="DejaVuSans-53" d="M 3425 4513 
L 3425 3897 
Q 3066 4069 2747 4153 
Q 2428 4238 2131 4238 
Q 1616 4238 1336 4038 
Q 1056 3838 1056 3469 
Q 1056 3159 1242 3001 
Q 1428 2844 1947 2747 
L 2328 2669 
Q 3034 2534 3370 2195 
Q 3706 1856 3706 1288 
Q 3706 609 3251 259 
Q 2797 -91 1919 -91 
Q 1588 -91 1214 -16 
Q 841 59 441 206 
L 441 856 
Q 825 641 1194 531 
Q 1563 422 1919 422 
Q 2459 422 2753 634 
Q 3047 847 3047 1241 
Q 3047 1584 2836 1778 
Q 2625 1972 2144 2069 
L 1759 2144 
Q 1053 2284 737 2584 
Q 422 2884 422 3419 
Q 422 4038 858 4394 
Q 1294 4750 2059 4750 
Q 2388 4750 2728 4690 
Q 3069 4631 3425 4513 
z
" transform="scale(0.015625)"/>
       <path id="DejaVuSans-69" d="M 603 3500 
L 1178 3500 
L 1178 0 
L 603 0 
L 603 3500 
z
M 603 4863 
L 1178 4863 
L 1178 4134 
L 603 4134 
L 603 4863 
z
" transform="scale(0.015625)"/>
       <path id="DejaVuSans-6d" d="M 3328 2828 
Q 3544 3216 3844 3400 
Q 4144 3584 4550 3584 
Q 5097 3584 5394 3201 
Q 5691 2819 5691 2113 
L 5691 0 
L 5113 0 
L 5113 2094 
Q 5113 2597 4934 2840 
Q 4756 3084 4391 3084 
Q 3944 3084 3684 2787 
Q 3425 2491 3425 1978 
L 3425 0 
L 2847 0 
L 2847 2094 
Q 2847 2600 2669 2842 
Q 2491 3084 2119 3084 
Q 1678 3084 1418 2786 
Q 1159 2488 1159 1978 
L 1159 0 
L 581 0 
L 581 3500 
L 1159 3500 
L 1159 2956 
Q 1356 3278 1631 3431 
Q 1906 3584 2284 3584 
Q 2666 3584 2933 3390 
Q 3200 3197 3328 2828 
z
" transform="scale(0.015625)"/>
       <path id="DejaVuSans-20" transform="scale(0.015625)"/>
       <path id="DejaVuSans-2e" d="M 684 794 
L 1344 794 
L 1344 0 
L 684 0 
L 684 794 
z
" transform="scale(0.015625)"/>
       <path id="DejaVuSans-67" d="M 2906 1791 
Q 2906 2416 2648 2759 
Q 2391 3103 1925 3103 
Q 1463 3103 1205 2759 
Q 947 2416 947 1791 
Q 947 1169 1205 825 
Q 1463 481 1925 481 
Q 2391 481 2648 825 
Q 2906 1169 2906 1791 
z
M 3481 434 
Q 3481 -459 3084 -895 
Q 2688 -1331 1869 -1331 
Q 1566 -1331 1297 -1286 
Q 1028 -1241 775 -1147 
L 775 -588 
Q 1028 -725 1275 -790 
Q 1522 -856 1778 -856 
Q 2344 -856 2625 -561 
Q 2906 -266 2906 331 
L 2906 616 
Q 2728 306 2450 153 
Q 2172 0 1784 0 
Q 1141 0 747 490 
Q 353 981 353 1791 
Q 353 2603 747 3093 
Q 1141 3584 1784 3584 
Q 2172 3584 2450 3431 
Q 2728 3278 2906 2969 
L 2906 3500 
L 3481 3500 
L 3481 434 
z
" transform="scale(0.015625)"/>
       <path id="DejaVuSans-74" d="M 1172 4494 
L 1172 3500 
L 2356 3500 
L 2356 3053 
L 1172 3053 
L 1172 1153 
Q 1172 725 1289 603 
Q 1406 481 1766 481 
L 2356 481 
L 2356 0 
L 1766 0 
Q 1100 0 847 248 
Q 594 497 594 1153 
L 594 3053 
L 172 3053 
L 172 3500 
L 594 3500 
L 594 4494 
L 1172 4494 
z
" transform="scale(0.015625)"/>
       <path id="DejaVuSans-72" d="M 2631 2963 
Q 2534 3019 2420 3045 
Q 2306 3072 2169 3072 
Q 1681 3072 1420 2755 
Q 1159 2438 1159 1844 
L 1159 0 
L 581 0 
L 581 3500 
L 1159 3500 
L 1159 2956 
Q 1341 3275 1631 3429 
Q 1922 3584 2338 3584 
Q 2397 3584 2469 3576 
Q 2541 3569 2628 3553 
L 2631 2963 
z
" transform="scale(0.015625)"/>
      </defs>
      <use xlink:href="#DejaVuSans-53"/>
      <use xlink:href="#DejaVuSans-69" x="63.476562"/>
      <use xlink:href="#DejaVuSans-6d" x="91.259766"/>
      <use xlink:href="#DejaVuSans-20" x="188.671875"/>
      <use xlink:href="#DejaVuSans-32" x="220.458984"/>
      <use xlink:href="#DejaVuSans-2e" x="284.082031"/>
      <use xlink:href="#DejaVuSans-35" x="315.869141"/>
      <use xlink:href="#DejaVuSans-20" x="379.492188"/>
      <use xlink:href="#DejaVuSans-6d" x="411.279297"/>
      <use xlink:href="#DejaVuSans-67" x="508.691406"/>
      <use xlink:href="#DejaVuSans-20" x="572.167969"/>
      <use xlink:href="#DejaVuSans-74" x="603.955078"/>
      <use xlink:href="#DejaVuSans-69" x="643.164062"/>
      <use xlink:href="#DejaVuSans-72" x="670.947266"/>
     </g>
    </g>
    <g id="LineCollection_4">
     <path d="M 304.775312 111.976562 
L 304.775312 101.976562 
" style="fill: none; stroke: #dc143c"/>
    </g>
    <g id="line2d_20">
     <path d="M 294.775312 106.976562 
L 314.775312 106.976562 
" style="fill: none; stroke-dasharray: 3.7,1.6; stroke-dashoffset: 0; stroke: #dc143c"/>
    </g>
    <g id="line2d_21">
     <g>
      <use xlink:href="#m33c58cb1d7" x="304.775312" y="106.976562" style="fill: #dc143c; stroke: #000000; stroke-linejoin: miter"/>
     </g>
    </g>
    <g id="text_15">
     <!-- Data 2.5 mg±SD (n=10) -->
     <g transform="translate(322.775312 110.476562) scale(0.1 -0.1)">
      <defs>
       <path id="DejaVuSans-44" d="M 1259 4147 
L 1259 519 
L 2022 519 
Q 2988 519 3436 956 
Q 3884 1394 3884 2338 
Q 3884 3275 3436 3711 
Q 2988 4147 2022 4147 
L 1259 4147 
z
M 628 4666 
L 1925 4666 
Q 3281 4666 3915 4102 
Q 4550 3538 4550 2338 
Q 4550 1131 3912 565 
Q 3275 0 1925 0 
L 628 0 
L 628 4666 
z
" transform="scale(0.015625)"/>
       <path id="DejaVuSans-61" d="M 2194 1759 
Q 1497 1759 1228 1600 
Q 959 1441 959 1056 
Q 959 750 1161 570 
Q 1363 391 1709 391 
Q 2188 391 2477 730 
Q 2766 1069 2766 1631 
L 2766 1759 
L 2194 1759 
z
M 3341 1997 
L 3341 0 
L 2766 0 
L 2766 531 
Q 2569 213 2275 61 
Q 1981 -91 1556 -91 
Q 1019 -91 701 211 
Q 384 513 384 1019 
Q 384 1609 779 1909 
Q 1175 2209 1959 2209 
L 2766 2209 
L 2766 2266 
Q 2766 2663 2505 2880 
Q 2244 3097 1772 3097 
Q 1472 3097 1187 3025 
Q 903 2953 641 2809 
L 641 3341 
Q 956 3463 1253 3523 
Q 1550 3584 1831 3584 
Q 2591 3584 2966 3190 
Q 3341 2797 3341 1997 
z
" transform="scale(0.015625)"/>
       <path id="DejaVuSans-b1" d="M 2944 4013 
L 2944 2803 
L 4684 2803 
L 4684 2272 
L 2944 2272 
L 2944 1063 
L 2419 1063 
L 2419 2272 
L 678 2272 
L 678 2803 
L 2419 2803 
L 2419 4013 
L 2944 4013 
z
M 678 531 
L 4684 531 
L 4684 0 
L 678 0 
L 678 531 
z
" transform="scale(0.015625)"/>
       <path id="DejaVuSans-28" d="M 1984 4856 
Q 1566 4138 1362 3434 
Q 1159 2731 1159 2009 
Q 1159 1288 1364 580 
Q 1569 -128 1984 -844 
L 1484 -844 
Q 1016 -109 783 600 
Q 550 1309 550 2009 
Q 550 2706 781 3412 
Q 1013 4119 1484 4856 
L 1984 4856 
z
" transform="scale(0.015625)"/>
       <path id="DejaVuSans-6e" d="M 3513 2113 
L 3513 0 
L 2938 0 
L 2938 2094 
Q 2938 2591 2744 2837 
Q 2550 3084 2163 3084 
Q 1697 3084 1428 2787 
Q 1159 2491 1159 1978 
L 1159 0 
L 581 0 
L 581 3500 
L 1159 3500 
L 1159 2956 
Q 1366 3272 1645 3428 
Q 1925 3584 2291 3584 
Q 2894 3584 3203 3211 
Q 3513 2838 3513 2113 
z
" transform="scale(0.015625)"/>
       <path id="DejaVuSans-3d" d="M 678 2906 
L 4684 2906 
L 4684 2381 
L 678 2381 
L 678 2906 
z
M 678 1631 
L 4684 1631 
L 4684 1100 
L 678 1100 
L 678 1631 
z
" transform="scale(0.015625)"/>
       <path id="DejaVuSans-29" d="M 513 4856 
L 1013 4856 
Q 1481 4119 1714 3412 
Q 1947 2706 1947 2009 
Q 1947 1309 1714 600 
Q 1481 -109 1013 -844 
L 513 -844 
Q 928 -128 1133 580 
Q 1338 1288 1338 2009 
Q 1338 2731 1133 3434 
Q 928 4138 513 4856 
z
" transform="scale(0.015625)"/>
      </defs>
      <use xlink:href="#DejaVuSans-44"/>
      <use xlink:href="#DejaVuSans-61" x="77.001953"/>
      <use xlink:href="#DejaVuSans-74" x="138.28125"/>
      <use xlink:href="#DejaVuSans-61" x="177.490234"/>
      <use xlink:href="#DejaVuSans-20" x="238.769531"/>
      <use xlink:href="#DejaVuSans-32" x="270.556641"/>
      <use xlink:href="#DejaVuSans-2e" x="334.179688"/>
      <use xlink:href="#DejaVuSans-35" x="365.966797"/>
      <use xlink:href="#DejaVuSans-20" x="429.589844"/>
      <use xlink:href="#DejaVuSans-6d" x="461.376953"/>
      <use xlink:href="#DejaVuSans-67" x="558.789062"/>
      <use xlink:href="#DejaVuSans-b1" x="622.265625"/>
      <use xlink:href="#DejaVuSans-53" x="706.054688"/>
      <use xlink:href="#DejaVuSans-44" x="769.53125"/>
      <use xlink:href="#DejaVuSans-20" x="846.533203"/>
      <use xlink:href="#DejaVuSans-28" x="878.320312"/>
      <use xlink:href="#DejaVuSans-6e" x="917.333984"/>
      <use xlink:href="#DejaVuSans-3d" x="980.712891"/>
      <use xlink:href="#DejaVuSans-31" x="1064.501953"/>
      <use xlink:href="#DejaVuSans-30" x="1128.125"/>
      <use xlink:href="#DejaVuSans-29" x="1191.748047"/>
     </g>
    </g>
    <g id="line2d_22">
     <path d="M 294.775312 121.654688 
L 314.775312 121.654688 
" style="fill: none; stroke: #daa520; stroke-width: 2; stroke-linecap: square"/>
    </g>
    <g id="line2d_23"/>
    <g id="text_16">
     <!-- Sim 5 mg tir -->
     <g transform="translate(322.775312 125.154688) scale(0.1 -0.1)">
      <use xlink:href="#DejaVuSans-53"/>
      <use xlink:href="#DejaVuSans-69" x="63.476562"/>
      <use xlink:href="#DejaVuSans-6d" x="91.259766"/>
      <use xlink:href="#DejaVuSans-20" x="188.671875"/>
      <use xlink:href="#DejaVuSans-35" x="220.458984"/>
      <use xlink:href="#DejaVuSans-20" x="284.082031"/>
      <use xlink:href="#DejaVuSans-6d" x="315.869141"/>
      <use xlink:href="#DejaVuSans-67" x="413.28125"/>
      <use xlink:href="#DejaVuSans-20" x="476.757812"/>
      <use xlink:href="#DejaVuSans-74" x="508.544922"/>
      <use xlink:href="#DejaVuSans-69" x="547.753906"/>
      <use xlink:href="#DejaVuSans-72" x="575.537109"/>
     </g>
    </g>
    <g id="LineCollection_5">
     <path d="M 304.775312 141.332812 
L 304.775312 131.332812 
" style="fill: none; stroke: #daa520"/>
    </g>
    <g id="line2d_24">
     <path d="M 294.775312 136.332812 
L 314.775312 136.332812 
" style="fill: none; stroke-dasharray: 3.7,1.6; stroke-dashoffset: 0; stroke: #daa520"/>
    </g>
    <g id="line2d_25">
     <g>
      <use xlink:href="#m27f184f7f7" x="304.775312" y="136.332812" style="fill: #daa520; stroke: #000000; stroke-linejoin: miter"/>
     </g>
    </g>
    <g id="text_17">
     <!-- Data 5 mg±SD (n=10) -->
     <g transform="translate(322.775312 139.832812) scale(0.1 -0.1)">
      <use xlink:href="#DejaVuSans-44"/>
      <use xlink:href="#DejaVuSans-61" x="77.001953"/>
      <use xlink:href="#DejaVuSans-74" x="138.28125"/>
      <use xlink:href="#DejaVuSans-61" x="177.490234"/>
      <use xlink:href="#DejaVuSans-20" x="238.769531"/>
      <use xlink:href="#DejaVuSans-35" x="270.556641"/>
      <use xlink:href="#DejaVuSans-20" x="334.179688"/>
      <use xlink:href="#DejaVuSans-6d" x="365.966797"/>
      <use xlink:href="#DejaVuSans-67" x="463.378906"/>
      <use xlink:href="#DejaVuSans-b1" x="526.855469"/>
      <use xlink:href="#DejaVuSans-53" x="610.644531"/>
      <use xlink:href="#DejaVuSans-44" x="674.121094"/>
      <use xlink:href="#DejaVuSans-20" x="751.123047"/>
      <use xlink:href="#DejaVuSans-28" x="782.910156"/>
      <use xlink:href="#DejaVuSans-6e" x="821.923828"/>
      <use xlink:href="#DejaVuSans-3d" x="885.302734"/>
      <use xlink:href="#DejaVuSans-31" x="969.091797"/>
      <use xlink:href="#DejaVuSans-30" x="1032.714844"/>
      <use xlink:href="#DejaVuSans-29" x="1096.337891"/>
     </g>
    </g>
    <g id="line2d_26">
     <path d="M 294.775312 151.010937 
L 314.775312 151.010937 
" style="fill: none; stroke: #32cd32; stroke-width: 2; stroke-linecap: square"/>
    </g>
    <g id="line2d_27"/>
    <g id="text_18">
     <!-- Sim 10 mg tir -->
     <g transform="translate(322.775312 154.510937) scale(0.1 -0.1)">
      <use xlink:href="#DejaVuSans-53"/>
      <use xlink:href="#DejaVuSans-69" x="63.476562"/>
      <use xlink:href="#DejaVuSans-6d" x="91.259766"/>
      <use xlink:href="#DejaVuSans-20" x="188.671875"/>
      <use xlink:href="#DejaVuSans-31" x="220.458984"/>
      <use xlink:href="#DejaVuSans-30" x="284.082031"/>
      <use xlink:href="#DejaVuSans-20" x="347.705078"/>
      <use xlink:href="#DejaVuSans-6d" x="379.492188"/>
      <use xlink:href="#DejaVuSans-67" x="476.904297"/>
      <use xlink:href="#DejaVuSans-20" x="540.380859"/>
      <use xlink:href="#DejaVuSans-74" x="572.167969"/>
      <use xlink:href="#DejaVuSans-69" x="611.376953"/>
      <use xlink:href="#DejaVuSans-72" x="639.160156"/>
     </g>
    </g>
    <g id="LineCollection_6">
     <path d="M 304.775312 170.689062 
L 304.775312 160.689062 
" style="fill: none; stroke: #32cd32"/>
    </g>
    <g id="line2d_28">
     <path d="M 294.775312 165.689062 
L 314.775312 165.689062 
" style="fill: none; stroke-dasharray: 3.7,1.6; stroke-dashoffset: 0; stroke: #32cd32"/>
    </g>
    <g id="line2d_29">
     <g>
      <use xlink:href="#m12ef4f2230" x="304.775312" y="165.689062" style="fill: #32cd32; stroke: #000000; stroke-linejoin: miter"/>
     </g>
    </g>
    <g id="text_19">
     <!-- Data 10 mg±SD (n=10) -->
     <g transform="translate(322.775312 169.189062) scale(0.1 -0.1)">
      <use xlink:href="#DejaVuSans-44"/>
      <use xlink:href="#DejaVuSans-61" x="77.001953"/>
      <use xlink:href="#DejaVuSans-74" x="138.28125"/>
      <use xlink:href="#DejaVuSans-61" x="177.490234"/>
      <use xlink:href="#DejaVuSans-20" x="238.769531"/>
      <use xlink:href="#DejaVuSans-31" x="270.556641"/>
      <use xlink:href="#DejaVuSans-30" x="334.179688"/>
      <use xlink:href="#DejaVuSans-20" x="397.802734"/>
      <use xlink:href="#DejaVuSans-6d" x="429.589844"/>
      <use xlink:href="#DejaVuSans-67" x="527.001953"/>
      <use xlink:href="#DejaVuSans-b1" x="590.478516"/>
      <use xlink:href="#DejaVuSans-53" x="674.267578"/>
      <use xlink:href="#DejaVuSans-44" x="737.744141"/>
      <use xlink:href="#DejaVuSans-20" x="814.746094"/>
      <use xlink:href="#DejaVuSans-28" x="846.533203"/>
      <use xlink:href="#DejaVuSans-6e" x="885.546875"/>
      <use xlink:href="#DejaVuSans-3d" x="948.925781"/>
      <use xlink:href="#DejaVuSans-31" x="1032.714844"/>
      <use xlink:href="#DejaVuSans-30" x="1096.337891"/>
      <use xlink:href="#DejaVuSans-29" x="1159.960938"/>
     </g>
    </g>
   </g>
  </g>
  <g id="axes_2">
   <g id="patch_8">
    <path d="M 64.251875 633.6 
L 454.851875 633.6 
L 454.851875 392.556522 
L 64.251875 392.556522 
z
" style="fill: #ffffff"/>
   </g>
   <g id="matplotlib.axis_3">
    <g id="xtick_6">
     <g id="line2d_30">
      <g>
       <use xlink:href="#m0b1f281d91" x="107.651875" y="633.6" style="stroke: #000000; stroke-width: 0.8"/>
      </g>
     </g>
     <g id="text_20">
      <!-- −2 -->
      <g transform="translate(96.595234 651.997656) scale(0.15 -0.15)">
       <use xlink:href="#DejaVuSans-2212"/>
       <use xlink:href="#DejaVuSans-32" x="83.789062"/>
      </g>
     </g>
    </g>
    <g id="xtick_7">
     <g id="line2d_31">
      <g>
       <use xlink:href="#m0b1f281d91" x="194.451875" y="633.6" style="stroke: #000000; stroke-width: 0.8"/>
      </g>
     </g>
     <g id="text_21">
      <!-- 0 -->
      <g transform="translate(189.68 651.997656) scale(0.15 -0.15)">
       <use xlink:href="#DejaVuSans-30"/>
      </g>
     </g>
    </g>
    <g id="xtick_8">
     <g id="line2d_32">
      <g>
       <use xlink:href="#m0b1f281d91" x="281.251875" y="633.6" style="stroke: #000000; stroke-width: 0.8"/>
      </g>
     </g>
     <g id="text_22">
      <!-- 2 -->
      <g transform="translate(276.48 651.997656) scale(0.15 -0.15)">
       <use xlink:href="#DejaVuSans-32"/>
      </g>
     </g>
    </g>
    <g id="xtick_9">
     <g id="line2d_33">
      <g>
       <use xlink:href="#m0b1f281d91" x="368.051875" y="633.6" style="stroke: #000000; stroke-width: 0.8"/>
      </g>
     </g>
     <g id="text_23">
      <!-- 4 -->
      <g transform="translate(363.28 651.997656) scale(0.15 -0.15)">
       <use xlink:href="#DejaVuSans-34"/>
      </g>
     </g>
    </g>
    <g id="xtick_10">
     <g id="line2d_34">
      <g>
       <use xlink:href="#m0b1f281d91" x="454.851875" y="633.6" style="stroke: #000000; stroke-width: 0.8"/>
      </g>
     </g>
     <g id="text_24">
      <!-- 6 -->
      <g transform="translate(450.08 651.997656) scale(0.15 -0.15)">
       <use xlink:href="#DejaVuSans-36"/>
      </g>
     </g>
    </g>
    <g id="text_25">
     <!-- time [week] -->
     <g transform="translate(198.813125 672.794375) scale(0.18 -0.18)">
      <use xlink:href="#DejaVuSans-Bold-74"/>
      <use xlink:href="#DejaVuSans-Bold-69" x="47.802734"/>
      <use xlink:href="#DejaVuSans-Bold-6d" x="82.080078"/>
      <use xlink:href="#DejaVuSans-Bold-65" x="186.279297"/>
      <use xlink:href="#DejaVuSans-Bold-20" x="254.101562"/>
      <use xlink:href="#DejaVuSans-Bold-5b" x="288.916016"/>
      <use xlink:href="#DejaVuSans-Bold-77" x="334.619141"/>
      <use xlink:href="#DejaVuSans-Bold-65" x="427.001953"/>
      <use xlink:href="#DejaVuSans-Bold-65" x="494.824219"/>
      <use xlink:href="#DejaVuSans-Bold-6b" x="562.646484"/>
      <use xlink:href="#DejaVuSans-Bold-5d" x="629.150391"/>
     </g>
    </g>
   </g>
   <g id="matplotlib.axis_4">
    <g id="ytick_7">
     <g id="line2d_35">
      <g>
       <use xlink:href="#m42f8667563" x="64.251875" y="622.417545" style="stroke: #000000; stroke-width: 0.8"/>
      </g>
     </g>
     <g id="text_26">
      <!-- 0 -->
      <g transform="translate(47.708125 628.116373) scale(0.15 -0.15)">
       <use xlink:href="#DejaVuSans-30"/>
      </g>
     </g>
    </g>
    <g id="ytick_8">
     <g id="line2d_36">
      <g>
       <use xlink:href="#m42f8667563" x="64.251875" y="563.023512" style="stroke: #000000; stroke-width: 0.8"/>
      </g>
     </g>
     <g id="text_27">
      <!-- 200 -->
      <g transform="translate(28.620625 568.72234) scale(0.15 -0.15)">
       <use xlink:href="#DejaVuSans-32"/>
       <use xlink:href="#DejaVuSans-30" x="63.623047"/>
       <use xlink:href="#DejaVuSans-30" x="127.246094"/>
      </g>
     </g>
    </g>
    <g id="ytick_9">
     <g id="line2d_37">
      <g>
       <use xlink:href="#m42f8667563" x="64.251875" y="503.629479" style="stroke: #000000; stroke-width: 0.8"/>
      </g>
     </g>
     <g id="text_28">
      <!-- 400 -->
      <g transform="translate(28.620625 509.328308) scale(0.15 -0.15)">
       <use xlink:href="#DejaVuSans-34"/>
       <use xlink:href="#DejaVuSans-30" x="63.623047"/>
       <use xlink:href="#DejaVuSans-30" x="127.246094"/>
      </g>
     </g>
    </g>
    <g id="ytick_10">
     <g id="line2d_38">
      <g>
       <use xlink:href="#m42f8667563" x="64.251875" y="444.235447" style="stroke: #000000; stroke-width: 0.8"/>
      </g>
     </g>
     <g id="text_29">
      <!-- 600 -->
      <g transform="translate(28.620625 449.934275) scale(0.15 -0.15)">
       <use xlink:href="#DejaVuSans-36"/>
       <use xlink:href="#DejaVuSans-30" x="63.623047"/>
       <use xlink:href="#DejaVuSans-30" x="127.246094"/>
      </g>
     </g>
    </g>
    <g id="text_30">
     <!-- tirzepatide [nM] -->
     <g transform="translate(20.877187 595.418417) rotate(-90) scale(0.18 -0.18)">
      <use xlink:href="#DejaVuSans-Bold-74"/>
      <use xlink:href="#DejaVuSans-Bold-69" x="47.802734"/>
      <use xlink:href="#DejaVuSans-Bold-72" x="82.080078"/>
      <use xlink:href="#DejaVuSans-Bold-7a" x="131.396484"/>
      <use xlink:href="#DejaVuSans-Bold-65" x="189.599609"/>
      <use xlink:href="#DejaVuSans-Bold-70" x="257.421875"/>
      <use xlink:href="#DejaVuSans-Bold-61" x="329.003906"/>
      <use xlink:href="#DejaVuSans-Bold-74" x="396.484375"/>
      <use xlink:href="#DejaVuSans-Bold-69" x="444.287109"/>
      <use xlink:href="#DejaVuSans-Bold-64" x="478.564453"/>
      <use xlink:href="#DejaVuSans-Bold-65" x="550.146484"/>
      <use xlink:href="#DejaVuSans-Bold-20" x="617.96875"/>
      <use xlink:href="#DejaVuSans-Bold-5b" x="652.783203"/>
      <use xlink:href="#DejaVuSans-Bold-6e" x="698.486328"/>
      <use xlink:href="#DejaVuSans-Bold-4d" x="769.677734"/>
      <use xlink:href="#DejaVuSans-Bold-5d" x="869.189453"/>
     </g>
    </g>
   </g>
   <g id="LineCollection_7">
    <path d="M 194.451875 621.036315 
L 194.451875 617.353036 
" clip-path="url(#pc1c8961363)" style="fill: none; stroke: #dc143c"/>
    <path d="M 196.518542 613.669758 
L 196.518542 603.540741 
" clip-path="url(#pc1c8961363)" style="fill: none; stroke: #dc143c"/>
    <path d="M 200.651875 611.367708 
L 200.651875 601.238692 
" clip-path="url(#pc1c8961363)" style="fill: none; stroke: #dc143c"/>
    <path d="M 206.851875 611.828118 
L 206.851875 603.540741 
" clip-path="url(#pc1c8961363)" style="fill: none; stroke: #dc143c"/>
    <path d="M 213.051875 612.748938 
L 213.051875 606.3032 
" clip-path="url(#pc1c8961363)" style="fill: none; stroke: #dc143c"/>
    <path d="M 237.851875 617.813446 
L 237.851875 611.367708 
" clip-path="url(#pc1c8961363)" style="fill: none; stroke: #dc143c"/>
   </g>
   <g id="LineCollection_8">
    <path d="M 194.451875 603.363816 
L 194.451875 592.770043 
" clip-path="url(#pc1c8961363)" style="fill: none; stroke: #daa520"/>
    <path d="M 196.518542 579.806478 
L 196.518542 558.598849 
" clip-path="url(#pc1c8961363)" style="fill: none; stroke: #daa520"/>
    <path d="M 200.651875 577.506977 
L 200.651875 554.371382 
" clip-path="url(#pc1c8961363)" style="fill: none; stroke: #daa520"/>
    <path d="M 206.851875 579.600628 
L 206.851875 562.248931 
" clip-path="url(#pc1c8961363)" style="fill: none; stroke: #daa520"/>
    <path d="M 213.051875 584.104236 
L 213.051875 570.608473 
" clip-path="url(#pc1c8961363)" style="fill: none; stroke: #daa520"/>
    <path d="M 237.851875 602.605683 
L 237.851875 591.991827 
" clip-path="url(#pc1c8961363)" style="fill: none; stroke: #daa520"/>
   </g>
   <g id="LineCollection_9">
    <path d="M 194.451875 557.579638 
L 194.451875 520.948279 
" clip-path="url(#pc1c8961363)" style="fill: none; stroke: #4682b4"/>
    <path d="M 196.518542 490.156048 
L 196.518542 441.956891 
" clip-path="url(#pc1c8961363)" style="fill: none; stroke: #4682b4"/>
    <path d="M 200.651875 471.955845 
L 200.651875 403.513043 
" clip-path="url(#pc1c8961363)" style="fill: none; stroke: #4682b4"/>
    <path d="M 206.851875 490.91418 
L 206.851875 434.039176 
" clip-path="url(#pc1c8961363)" style="fill: none; stroke: #4682b4"/>
    <path d="M 213.051875 502.165671 
L 213.051875 452.038548 
" clip-path="url(#pc1c8961363)" style="fill: none; stroke: #4682b4"/>
    <path d="M 237.851875 548.125574 
L 237.851875 523.072055 
" clip-path="url(#pc1c8961363)" style="fill: none; stroke: #4682b4"/>
    <path d="M 281.225856 596.52556 
L 281.225856 583.99378 
" clip-path="url(#pc1c8961363)" style="fill: none; stroke: #4682b4"/>
    <path d="M 411.451875 622.643478 
L 411.451875 621.679495 
" clip-path="url(#pc1c8961363)" style="fill: none; stroke: #4682b4"/>
   </g>
   <g id="line2d_39">
    <path d="M 194.451875 622.417545 
L 195.775575 619.286408 
L 197.272875 616.272056 
L 198.770175 613.749742 
L 200.267475 611.658066 
L 201.764775 609.942669 
L 203.283775 608.537543 
L 204.824475 607.411865 
L 206.408575 606.526292 
L 208.079475 605.848351 
L 209.837175 605.376096 
L 211.746775 605.097039 
L 213.829975 605.020339 
L 216.173575 605.160044 
L 218.907775 605.553324 
L 222.206175 606.261686 
L 226.567875 607.440552 
L 234.770475 609.939854 
L 237.851875 610.877419 
L 237.851875 610.877419 
" clip-path="url(#pc1c8961363)" style="fill: none; stroke: #dc143c; stroke-width: 2; stroke-linecap: square"/>
   </g>
   <g id="line2d_40">
    <path d="M 194.451875 619.194676 
L 196.518542 608.605249 
L 200.651875 606.3032 
L 206.851875 607.684429 
L 213.051875 609.526069 
L 237.851875 614.590577 
" clip-path="url(#pc1c8961363)" style="fill: none; stroke-dasharray: 3.7,1.6; stroke-dashoffset: 0; stroke: #dc143c"/>
    <g clip-path="url(#pc1c8961363)">
     <use xlink:href="#m33c58cb1d7" x="194.451875" y="619.194676" style="fill: #dc143c; stroke: #000000; stroke-linejoin: miter"/>
     <use xlink:href="#m33c58cb1d7" x="196.518542" y="608.605249" style="fill: #dc143c; stroke: #000000; stroke-linejoin: miter"/>
     <use xlink:href="#m33c58cb1d7" x="200.651875" y="606.3032" style="fill: #dc143c; stroke: #000000; stroke-linejoin: miter"/>
     <use xlink:href="#m33c58cb1d7" x="206.851875" y="607.684429" style="fill: #dc143c; stroke: #000000; stroke-linejoin: miter"/>
     <use xlink:href="#m33c58cb1d7" x="213.051875" y="609.526069" style="fill: #dc143c; stroke: #000000; stroke-linejoin: miter"/>
     <use xlink:href="#m33c58cb1d7" x="237.851875" y="614.590577" style="fill: #dc143c; stroke: #000000; stroke-linejoin: miter"/>
    </g>
   </g>
   <g id="line2d_41">
    <path d="M 64.230175 607.635091 
L 64.295275 607.55453 
L 65.705775 604.943123 
L 67.116275 602.79171 
L 68.505075 601.068364 
L 69.893875 599.689012 
L 71.304375 598.596528 
L 72.736575 597.764773 
L 74.212175 597.161663 
L 75.774575 596.76479 
L 77.445475 596.574311 
L 79.246575 596.595465 
L 81.264675 596.847121 
L 83.564875 597.365682 
L 86.277375 598.214099 
L 89.662575 599.517324 
L 94.566775 601.667409 
L 107.651875 607.506963 
L 107.651875 607.506963 
L 108.888775 602.242179 
L 110.277575 597.219016 
L 111.644675 593.086201 
L 112.990075 589.713433 
L 114.292075 587.029288 
L 115.572375 584.881987 
L 116.830975 583.192359 
L 118.067875 581.89235 
L 119.304775 580.908707 
L 120.541675 580.204721 
L 121.800275 579.741321 
L 123.102275 579.497315 
L 124.491075 579.466327 
L 125.988375 579.660391 
L 127.637575 580.104149 
L 129.503775 580.844689 
L 131.652075 581.94418 
L 134.256075 583.53892 
L 137.619575 585.877588 
L 143.153075 590.039704 
L 151.051875 595.935574 
L 151.051875 595.935574 
L 152.245375 591.303187 
L 153.590775 586.894526 
L 154.914475 583.302493 
L 156.194775 580.450988 
L 157.453375 578.176736 
L 158.668575 576.422559 
L 159.862075 575.074916 
L 161.055575 574.057657 
L 162.227375 573.344294 
L 163.420875 572.875221 
L 164.636075 572.633343 
L 165.916375 572.604118 
L 167.305175 572.799474 
L 168.824175 573.24406 
L 170.516775 573.976538 
L 172.469775 575.07233 
L 174.769975 576.627167 
L 177.656075 578.861961 
L 181.713975 582.312517 
L 194.148075 593.050168 
L 194.451875 593.295665 
L 194.451875 593.295665 
L 195.769375 588.338249 
L 197.086875 584.196586 
L 198.404375 580.775662 
L 199.721875 577.99231 
L 200.929583 575.937146 
L 202.137292 574.303234 
L 203.345 573.04381 
L 204.552708 572.116618 
L 205.760417 571.483493 
L 206.968125 571.109992 
L 208.175833 570.965047 
L 209.493333 571.034764 
L 210.920625 571.341973 
L 212.457708 571.90136 
L 214.214375 572.780725 
L 216.300417 574.089514 
L 218.825625 575.960241 
L 222.009583 578.615897 
L 227.169792 583.25723 
L 235.294375 590.535516 
L 240.015417 594.448073 
L 244.297292 597.710115 
L 248.359583 600.53305 
L 252.421875 603.089605 
L 256.484167 605.387997 
L 260.65625 607.494655 
L 264.938125 609.408963 
L 269.439583 611.174959 
L 274.160625 612.783727 
L 279.10125 614.231628 
L 284.37125 615.544816 
L 290.080417 616.736751 
L 296.338542 617.811664 
L 303.255417 618.768027 
L 310.940833 619.601955 
L 319.724167 620.325954 
L 329.934792 620.93809 
L 342.231458 621.443175 
L 357.4925 621.837624 
L 377.803958 622.127002 
L 407.886875 622.313203 
L 414.035208 622.332911 
L 414.035208 622.332911 
" clip-path="url(#pc1c8961363)" style="fill: none; stroke: #daa520; stroke-width: 2; stroke-linecap: square"/>
   </g>
   <g id="line2d_42">
    <path d="M 194.451875 598.066929 
L 196.518542 569.202664 
L 200.651875 565.939179 
L 206.851875 570.924779 
L 213.051875 577.356354 
L 237.851875 597.298755 
" clip-path="url(#pc1c8961363)" style="fill: none; stroke-dasharray: 3.7,1.6; stroke-dashoffset: 0; stroke: #daa520"/>
    <g clip-path="url(#pc1c8961363)">
     <use xlink:href="#m27f184f7f7" x="194.451875" y="598.066929" style="fill: #daa520; stroke: #000000; stroke-linejoin: miter"/>
     <use xlink:href="#m27f184f7f7" x="196.518542" y="569.202664" style="fill: #daa520; stroke: #000000; stroke-linejoin: miter"/>
     <use xlink:href="#m27f184f7f7" x="200.651875" y="565.939179" style="fill: #daa520; stroke: #000000; stroke-linejoin: miter"/>
     <use xlink:href="#m27f184f7f7" x="206.851875" y="570.924779" style="fill: #daa520; stroke: #000000; stroke-linejoin: miter"/>
     <use xlink:href="#m27f184f7f7" x="213.051875" y="577.356354" style="fill: #daa520; stroke: #000000; stroke-linejoin: miter"/>
     <use xlink:href="#m27f184f7f7" x="237.851875" y="597.298755" style="fill: #daa520; stroke: #000000; stroke-linejoin: miter"/>
    </g>
   </g>
   <g id="line2d_43">
    <path d="M 64.230175 547.795089 
L 64.251875 547.840136 
L 64.251875 547.840136 
L 65.401975 536.970761 
L 66.703975 526.559139 
L 67.984275 518.064186 
L 69.221175 511.315488 
L 70.392975 506.099196 
L 71.521375 502.043144 
L 72.606375 498.944976 
L 73.626275 496.677213 
L 74.581075 495.065239 
L 75.492475 493.944502 
L 76.338775 493.23669 
L 77.163375 492.828631 
L 77.966275 492.675814 
L 78.790875 492.748581 
L 79.658875 493.05447 
L 80.613675 493.636709 
L 81.676975 494.556077 
L 82.892175 495.914093 
L 84.302675 497.843155 
L 85.951875 500.497736 
L 87.904875 504.081834 
L 90.335275 509.031245 
L 93.633675 516.293205 
L 107.478275 547.341069 
L 107.651875 547.702732 
L 107.651875 547.702732 
L 108.823675 533.854166 
L 110.147375 520.583515 
L 111.449375 509.711728 
L 112.707975 501.027017 
L 113.923175 494.154741 
L 115.073275 488.871433 
L 116.179975 484.790131 
L 117.221575 481.755638 
L 118.198075 479.551448 
L 119.131175 477.96975 
L 119.999175 476.916936 
L 120.802075 476.271172 
L 121.583275 475.920405 
L 122.342775 475.820654 
L 123.123975 475.946059 
L 123.948575 476.308166 
L 124.859975 476.957911 
L 125.901575 477.988498 
L 127.095075 479.502447 
L 128.462175 481.613033 
L 130.067975 484.520359 
L 131.977575 488.45767 
L 134.342875 493.869815 
L 137.532775 501.769232 
L 144.606975 520.091989 
L 149.576275 532.576182 
L 151.051875 536.131258 
L 151.051875 536.131258 
L 152.223675 522.735349 
L 153.525675 510.145664 
L 154.805975 499.85904 
L 156.042875 491.672611 
L 157.214675 485.331222 
L 158.343075 480.386642 
L 159.428075 476.595941 
L 160.447975 473.807438 
L 161.402775 471.811374 
L 162.292475 470.436751 
L 163.117075 469.544086 
L 163.898275 469.008552 
L 164.657775 468.753878 
L 165.395575 468.737749 
L 166.176775 468.949146 
L 167.023075 469.420902 
L 167.956175 470.206392 
L 169.019475 471.404996 
L 170.234675 473.12256 
L 171.645175 475.514536 
L 173.316075 478.806129 
L 175.334175 483.301558 
L 177.851375 489.483071 
L 181.388475 498.81421 
L 192.997975 529.85513 
L 194.451875 533.491329 
L 194.451875 533.491329 
L 195.769375 518.687544 
L 197.086875 506.328014 
L 198.404375 496.12783 
L 199.612083 488.461132 
L 200.819792 482.226038 
L 201.917708 477.668085 
L 203.015625 474.056977 
L 204.00375 471.535861 
L 204.991875 469.637688 
L 205.870208 468.424942 
L 206.63875 467.698187 
L 207.407292 467.258112 
L 208.175833 467.082056 
L 208.944375 467.148812 
L 209.712917 467.438537 
L 210.59125 468.01893 
L 211.579375 468.959041 
L 212.677292 470.320766 
L 213.994792 472.33827 
L 215.531875 475.138603 
L 217.288542 478.816861 
L 219.484375 483.961838 
L 222.338958 491.271395 
L 226.840417 503.515361 
L 234.30625 523.802872 
L 238.368542 534.170827 
L 241.991667 542.823987 
L 245.395208 550.387951 
L 248.688958 557.169349 
L 251.872917 563.222438 
L 255.056875 568.793963 
L 258.131042 573.734401 
L 261.205208 578.265144 
L 264.279375 582.40991 
L 267.353542 586.193615 
L 270.5375 589.758752 
L 273.721458 592.991381 
L 277.015208 596.014173 
L 280.308958 598.738291 
L 283.7125 601.267888 
L 287.225833 603.603803 
L 290.848958 605.749154 
L 294.691667 607.763102 
L 298.644167 609.585233 
L 302.81625 611.266766 
L 307.317708 612.837598 
L 312.03875 614.250073 
L 317.198958 615.558611 
L 322.798333 616.743847 
L 328.946667 617.811813 
L 335.75375 618.762155 
L 343.329375 619.591685 
L 352.002917 620.313351 
L 362.10375 620.925192 
L 374.290625 621.431785 
L 389.441875 621.828974 
L 409.53375 622.12056 
L 414.035208 622.162759 
L 414.035208 622.162759 
" clip-path="url(#pc1c8961363)" style="fill: none; stroke: #4682b4; stroke-width: 2; stroke-linecap: square"/>
   </g>
   <g id="line2d_44">
    <path d="M 194.451875 539.263959 
L 196.518542 466.056469 
L 200.651875 437.734444 
L 206.851875 462.476678 
L 213.051875 477.102109 
L 237.851875 535.598815 
L 281.225856 590.25967 
L 411.451875 622.161487 
" clip-path="url(#pc1c8961363)" style="fill: none; stroke-dasharray: 3.7,1.6; stroke-dashoffset: 0; stroke: #4682b4"/>
    <defs>
     <path id="m4c1a781082" d="M -3 3 
L 3 3 
L 3 -3 
L -3 -3 
z
" style="stroke: #000000; stroke-linejoin: miter"/>
    </defs>
    <g clip-path="url(#pc1c8961363)">
     <use xlink:href="#m4c1a781082" x="194.451875" y="539.263959" style="fill: #4682b4; stroke: #000000; stroke-linejoin: miter"/>
     <use xlink:href="#m4c1a781082" x="196.518542" y="466.056469" style="fill: #4682b4; stroke: #000000; stroke-linejoin: miter"/>
     <use xlink:href="#m4c1a781082" x="200.651875" y="437.734444" style="fill: #4682b4; stroke: #000000; stroke-linejoin: miter"/>
     <use xlink:href="#m4c1a781082" x="206.851875" y="462.476678" style="fill: #4682b4; stroke: #000000; stroke-linejoin: miter"/>
     <use xlink:href="#m4c1a781082" x="213.051875" y="477.102109" style="fill: #4682b4; stroke: #000000; stroke-linejoin: miter"/>
     <use xlink:href="#m4c1a781082" x="237.851875" y="535.598815" style="fill: #4682b4; stroke: #000000; stroke-linejoin: miter"/>
     <use xlink:href="#m4c1a781082" x="281.225856" y="590.25967" style="fill: #4682b4; stroke: #000000; stroke-linejoin: miter"/>
     <use xlink:href="#m4c1a781082" x="411.451875" y="622.161487" style="fill: #4682b4; stroke: #000000; stroke-linejoin: miter"/>
    </g>
   </g>
   <g id="patch_9">
    <path d="M 64.251875 633.6 
L 64.251875 392.556522 
" style="fill: none; stroke: #000000; stroke-width: 0.8; stroke-linejoin: miter; stroke-linecap: square"/>
   </g>
   <g id="patch_10">
    <path d="M 454.851875 633.6 
L 454.851875 392.556522 
" style="fill: none; stroke: #000000; stroke-width: 0.8; stroke-linejoin: miter; stroke-linecap: square"/>
   </g>
   <g id="patch_11">
    <path d="M 64.251875 633.6 
L 454.851875 633.6 
" style="fill: none; stroke: #000000; stroke-width: 0.8; stroke-linejoin: miter; stroke-linecap: square"/>
   </g>
   <g id="patch_12">
    <path d="M 64.251875 392.556522 
L 454.851875 392.556522 
" style="fill: none; stroke: #000000; stroke-width: 0.8; stroke-linejoin: miter; stroke-linecap: square"/>
   </g>
   <g id="legend_2">
    <g id="patch_13">
     <path d="M 292.775312 488.625272 
L 447.851875 488.625272 
Q 449.851875 488.625272 449.851875 486.625272 
L 449.851875 399.556522 
Q 449.851875 397.556522 447.851875 397.556522 
L 292.775312 397.556522 
Q 290.775312 397.556522 290.775312 399.556522 
L 290.775312 486.625272 
Q 290.775312 488.625272 292.775312 488.625272 
z
" style="fill: #ffffff; opacity: 0.8; stroke: #cccccc; stroke-linejoin: miter"/>
    </g>
    <g id="line2d_45">
     <path d="M 294.775312 405.654959 
L 314.775312 405.654959 
" style="fill: none; stroke: #dc143c; stroke-width: 2; stroke-linecap: square"/>
    </g>
    <g id="line2d_46"/>
    <g id="text_31">
     <!-- Sim 2.5 mg tir -->
     <g transform="translate(322.775312 409.154959) scale(0.1 -0.1)">
      <use xlink:href="#DejaVuSans-53"/>
      <use xlink:href="#DejaVuSans-69" x="63.476562"/>
      <use xlink:href="#DejaVuSans-6d" x="91.259766"/>
      <use xlink:href="#DejaVuSans-20" x="188.671875"/>
      <use xlink:href="#DejaVuSans-32" x="220.458984"/>
      <use xlink:href="#DejaVuSans-2e" x="284.082031"/>
      <use xlink:href="#DejaVuSans-35" x="315.869141"/>
      <use xlink:href="#DejaVuSans-20" x="379.492188"/>
      <use xlink:href="#DejaVuSans-6d" x="411.279297"/>
      <use xlink:href="#DejaVuSans-67" x="508.691406"/>
      <use xlink:href="#DejaVuSans-20" x="572.167969"/>
      <use xlink:href="#DejaVuSans-74" x="603.955078"/>
      <use xlink:href="#DejaVuSans-69" x="643.164062"/>
      <use xlink:href="#DejaVuSans-72" x="670.947266"/>
     </g>
    </g>
    <g id="LineCollection_10">
     <path d="M 304.775312 425.333084 
L 304.775312 415.333084 
" style="fill: none; stroke: #dc143c"/>
    </g>
    <g id="line2d_47">
     <path d="M 294.775312 420.333084 
L 314.775312 420.333084 
" style="fill: none; stroke-dasharray: 3.7,1.6; stroke-dashoffset: 0; stroke: #dc143c"/>
    </g>
    <g id="line2d_48">
     <g>
      <use xlink:href="#m33c58cb1d7" x="304.775312" y="420.333084" style="fill: #dc143c; stroke: #000000; stroke-linejoin: miter"/>
     </g>
    </g>
    <g id="text_32">
     <!-- Data 2.5 mg±SD (n=10) -->
     <g transform="translate(322.775312 423.833084) scale(0.1 -0.1)">
      <use xlink:href="#DejaVuSans-44"/>
      <use xlink:href="#DejaVuSans-61" x="77.001953"/>
      <use xlink:href="#DejaVuSans-74" x="138.28125"/>
      <use xlink:href="#DejaVuSans-61" x="177.490234"/>
      <use xlink:href="#DejaVuSans-20" x="238.769531"/>
      <use xlink:href="#DejaVuSans-32" x="270.556641"/>
      <use xlink:href="#DejaVuSans-2e" x="334.179688"/>
      <use xlink:href="#DejaVuSans-35" x="365.966797"/>
      <use xlink:href="#DejaVuSans-20" x="429.589844"/>
      <use xlink:href="#DejaVuSans-6d" x="461.376953"/>
      <use xlink:href="#DejaVuSans-67" x="558.789062"/>
      <use xlink:href="#DejaVuSans-b1" x="622.265625"/>
      <use xlink:href="#DejaVuSans-53" x="706.054688"/>
      <use xlink:href="#DejaVuSans-44" x="769.53125"/>
      <use xlink:href="#DejaVuSans-20" x="846.533203"/>
      <use xlink:href="#DejaVuSans-28" x="878.320312"/>
      <use xlink:href="#DejaVuSans-6e" x="917.333984"/>
      <use xlink:href="#DejaVuSans-3d" x="980.712891"/>
      <use xlink:href="#DejaVuSans-31" x="1064.501953"/>
      <use xlink:href="#DejaVuSans-30" x="1128.125"/>
      <use xlink:href="#DejaVuSans-29" x="1191.748047"/>
     </g>
    </g>
    <g id="line2d_49">
     <path d="M 294.775312 435.011209 
L 314.775312 435.011209 
" style="fill: none; stroke: #daa520; stroke-width: 2; stroke-linecap: square"/>
    </g>
    <g id="line2d_50"/>
    <g id="text_33">
     <!-- Sim 5 mg tir -->
     <g transform="translate(322.775312 438.511209) scale(0.1 -0.1)">
      <use xlink:href="#DejaVuSans-53"/>
      <use xlink:href="#DejaVuSans-69" x="63.476562"/>
      <use xlink:href="#DejaVuSans-6d" x="91.259766"/>
      <use xlink:href="#DejaVuSans-20" x="188.671875"/>
      <use xlink:href="#DejaVuSans-35" x="220.458984"/>
      <use xlink:href="#DejaVuSans-20" x="284.082031"/>
      <use xlink:href="#DejaVuSans-6d" x="315.869141"/>
      <use xlink:href="#DejaVuSans-67" x="413.28125"/>
      <use xlink:href="#DejaVuSans-20" x="476.757812"/>
      <use xlink:href="#DejaVuSans-74" x="508.544922"/>
      <use xlink:href="#DejaVuSans-69" x="547.753906"/>
      <use xlink:href="#DejaVuSans-72" x="575.537109"/>
     </g>
    </g>
    <g id="LineCollection_11">
     <path d="M 304.775312 454.689334 
L 304.775312 444.689334 
" style="fill: none; stroke: #daa520"/>
    </g>
    <g id="line2d_51">
     <path d="M 294.775312 449.689334 
L 314.775312 449.689334 
" style="fill: none; stroke-dasharray: 3.7,1.6; stroke-dashoffset: 0; stroke: #daa520"/>
    </g>
    <g id="line2d_52">
     <g>
      <use xlink:href="#m27f184f7f7" x="304.775312" y="449.689334" style="fill: #daa520; stroke: #000000; stroke-linejoin: miter"/>
     </g>
    </g>
    <g id="text_34">
     <!-- Data 5 mg±SD (n=10) -->
     <g transform="translate(322.775312 453.189334) scale(0.1 -0.1)">
      <use xlink:href="#DejaVuSans-44"/>
      <use xlink:href="#DejaVuSans-61" x="77.001953"/>
      <use xlink:href="#DejaVuSans-74" x="138.28125"/>
      <use xlink:href="#DejaVuSans-61" x="177.490234"/>
      <use xlink:href="#DejaVuSans-20" x="238.769531"/>
      <use xlink:href="#DejaVuSans-35" x="270.556641"/>
      <use xlink:href="#DejaVuSans-20" x="334.179688"/>
      <use xlink:href="#DejaVuSans-6d" x="365.966797"/>
      <use xlink:href="#DejaVuSans-67" x="463.378906"/>
      <use xlink:href="#DejaVuSans-b1" x="526.855469"/>
      <use xlink:href="#DejaVuSans-53" x="610.644531"/>
      <use xlink:href="#DejaVuSans-44" x="674.121094"/>
      <use xlink:href="#DejaVuSans-20" x="751.123047"/>
      <use xlink:href="#DejaVuSans-28" x="782.910156"/>
      <use xlink:href="#DejaVuSans-6e" x="821.923828"/>
      <use xlink:href="#DejaVuSans-3d" x="885.302734"/>
      <use xlink:href="#DejaVuSans-31" x="969.091797"/>
      <use xlink:href="#DejaVuSans-30" x="1032.714844"/>
      <use xlink:href="#DejaVuSans-29" x="1096.337891"/>
     </g>
    </g>
    <g id="line2d_53">
     <path d="M 294.775312 464.367459 
L 314.775312 464.367459 
" style="fill: none; stroke: #4682b4; stroke-width: 2; stroke-linecap: square"/>
    </g>
    <g id="line2d_54"/>
    <g id="text_35">
     <!-- Sim 15 mg tir -->
     <g transform="translate(322.775312 467.867459) scale(0.1 -0.1)">
      <use xlink:href="#DejaVuSans-53"/>
      <use xlink:href="#DejaVuSans-69" x="63.476562"/>
      <use xlink:href="#DejaVuSans-6d" x="91.259766"/>
      <use xlink:href="#DejaVuSans-20" x="188.671875"/>
      <use xlink:href="#DejaVuSans-31" x="220.458984"/>
      <use xlink:href="#DejaVuSans-35" x="284.082031"/>
      <use xlink:href="#DejaVuSans-20" x="347.705078"/>
      <use xlink:href="#DejaVuSans-6d" x="379.492188"/>
      <use xlink:href="#DejaVuSans-67" x="476.904297"/>
      <use xlink:href="#DejaVuSans-20" x="540.380859"/>
      <use xlink:href="#DejaVuSans-74" x="572.167969"/>
      <use xlink:href="#DejaVuSans-69" x="611.376953"/>
      <use xlink:href="#DejaVuSans-72" x="639.160156"/>
     </g>
    </g>
    <g id="LineCollection_12">
     <path d="M 304.775312 484.045584 
L 304.775312 474.045584 
" style="fill: none; stroke: #4682b4"/>
    </g>
    <g id="line2d_55">
     <path d="M 294.775312 479.045584 
L 314.775312 479.045584 
" style="fill: none; stroke-dasharray: 3.7,1.6; stroke-dashoffset: 0; stroke: #4682b4"/>
    </g>
    <g id="line2d_56">
     <g>
      <use xlink:href="#m4c1a781082" x="304.775312" y="479.045584" style="fill: #4682b4; stroke: #000000; stroke-linejoin: miter"/>
     </g>
    </g>
    <g id="text_36">
     <!-- Data 15 mg±SD (n=10) -->
     <g transform="translate(322.775312 482.545584) scale(0.1 -0.1)">
      <use xlink:href="#DejaVuSans-44"/>
      <use xlink:href="#DejaVuSans-61" x="77.001953"/>
      <use xlink:href="#DejaVuSans-74" x="138.28125"/>
      <use xlink:href="#DejaVuSans-61" x="177.490234"/>
      <use xlink:href="#DejaVuSans-20" x="238.769531"/>
      <use xlink:href="#DejaVuSans-31" x="270.556641"/>
      <use xlink:href="#DejaVuSans-35" x="334.179688"/>
      <use xlink:href="#DejaVuSans-20" x="397.802734"/>
      <use xlink:href="#DejaVuSans-6d" x="429.589844"/>
      <use xlink:href="#DejaVuSans-67" x="527.001953"/>
      <use xlink:href="#DejaVuSans-b1" x="590.478516"/>
      <use xlink:href="#DejaVuSans-53" x="674.267578"/>
      <use xlink:href="#DejaVuSans-44" x="737.744141"/>
      <use xlink:href="#DejaVuSans-20" x="814.746094"/>
      <use xlink:href="#DejaVuSans-28" x="846.533203"/>
      <use xlink:href="#DejaVuSans-6e" x="885.546875"/>
      <use xlink:href="#DejaVuSans-3d" x="948.925781"/>
      <use xlink:href="#DejaVuSans-31" x="1032.714844"/>
      <use xlink:href="#DejaVuSans-30" x="1096.337891"/>
      <use xlink:href="#DejaVuSans-29" x="1159.960938"/>
     </g>
    </g>
   </g>
  </g>
  <g id="text_37">
   <!-- Feng2023 -->
   <g transform="translate(184.099531 26.000781) scale(0.25 -0.25)">
    <defs>
     <path id="DejaVuSans-Bold-46" d="M 588 4666 
L 3834 4666 
L 3834 3756 
L 1791 3756 
L 1791 2888 
L 3713 2888 
L 3713 1978 
L 1791 1978 
L 1791 0 
L 588 0 
L 588 4666 
z
" transform="scale(0.015625)"/>
     <path id="DejaVuSans-Bold-67" d="M 2919 594 
Q 2688 288 2409 144 
Q 2131 0 1766 0 
Q 1125 0 706 504 
Q 288 1009 288 1791 
Q 288 2575 706 3076 
Q 1125 3578 1766 3578 
Q 2131 3578 2409 3434 
Q 2688 3291 2919 2981 
L 2919 3500 
L 4044 3500 
L 4044 353 
Q 4044 -491 3511 -936 
Q 2978 -1381 1966 -1381 
Q 1638 -1381 1331 -1331 
Q 1025 -1281 716 -1178 
L 716 -306 
Q 1009 -475 1290 -558 
Q 1572 -641 1856 -641 
Q 2406 -641 2662 -400 
Q 2919 -159 2919 353 
L 2919 594 
z
M 2181 2772 
Q 1834 2772 1640 2515 
Q 1447 2259 1447 1791 
Q 1447 1309 1634 1061 
Q 1822 813 2181 813 
Q 2531 813 2725 1069 
Q 2919 1325 2919 1791 
Q 2919 2259 2725 2515 
Q 2531 2772 2181 2772 
z
" transform="scale(0.015625)"/>
     <path id="DejaVuSans-Bold-32" d="M 1844 884 
L 3897 884 
L 3897 0 
L 506 0 
L 506 884 
L 2209 2388 
Q 2438 2594 2547 2791 
Q 2656 2988 2656 3200 
Q 2656 3528 2436 3728 
Q 2216 3928 1850 3928 
Q 1569 3928 1234 3808 
Q 900 3688 519 3450 
L 519 4475 
Q 925 4609 1322 4679 
Q 1719 4750 2100 4750 
Q 2938 4750 3402 4381 
Q 3866 4013 3866 3353 
Q 3866 2972 3669 2642 
Q 3472 2313 2841 1759 
L 1844 884 
z
" transform="scale(0.015625)"/>
     <path id="DejaVuSans-Bold-30" d="M 2944 2338 
Q 2944 3213 2780 3570 
Q 2616 3928 2228 3928 
Q 1841 3928 1675 3570 
Q 1509 3213 1509 2338 
Q 1509 1453 1675 1090 
Q 1841 728 2228 728 
Q 2613 728 2778 1090 
Q 2944 1453 2944 2338 
z
M 4147 2328 
Q 4147 1169 3647 539 
Q 3147 -91 2228 -91 
Q 1306 -91 806 539 
Q 306 1169 306 2328 
Q 306 3491 806 4120 
Q 1306 4750 2228 4750 
Q 3147 4750 3647 4120 
Q 4147 3491 4147 2328 
z
" transform="scale(0.015625)"/>
     <path id="DejaVuSans-Bold-33" d="M 2981 2516 
Q 3453 2394 3698 2092 
Q 3944 1791 3944 1325 
Q 3944 631 3412 270 
Q 2881 -91 1863 -91 
Q 1503 -91 1142 -33 
Q 781 25 428 141 
L 428 1069 
Q 766 900 1098 814 
Q 1431 728 1753 728 
Q 2231 728 2486 893 
Q 2741 1059 2741 1369 
Q 2741 1688 2480 1852 
Q 2219 2016 1709 2016 
L 1228 2016 
L 1228 2791 
L 1734 2791 
Q 2188 2791 2409 2933 
Q 2631 3075 2631 3366 
Q 2631 3634 2415 3781 
Q 2200 3928 1806 3928 
Q 1516 3928 1219 3862 
Q 922 3797 628 3669 
L 628 4550 
Q 984 4650 1334 4700 
Q 1684 4750 2022 4750 
Q 2931 4750 3382 4451 
Q 3834 4153 3834 3553 
Q 3834 3144 3618 2883 
Q 3403 2622 2981 2516 
z
" transform="scale(0.015625)"/>
    </defs>
    <use xlink:href="#DejaVuSans-Bold-46"/>
    <use xlink:href="#DejaVuSans-Bold-65" x="64.310547"/>
    <use xlink:href="#DejaVuSans-Bold-6e" x="132.132812"/>
    <use xlink:href="#DejaVuSans-Bold-67" x="203.324219"/>
    <use xlink:href="#DejaVuSans-Bold-32" x="274.90625"/>
    <use xlink:href="#DejaVuSans-Bold-30" x="344.486328"/>
    <use xlink:href="#DejaVuSans-Bold-32" x="414.066406"/>
    <use xlink:href="#DejaVuSans-Bold-33" x="483.646484"/>
   </g>
  </g>
 </g>
 <defs>
  <clipPath id="p92000fd3bb">
   <rect x="64.251875" y="79.2" width="390.6" height="241.043478"/>
  </clipPath>
  <clipPath id="pc1c8961363">
   <rect x="64.251875" y="392.556522" width="390.6" height="241.043478"/>
  </clipPath>
 </defs>
</svg>
