<?xml version="1.0" encoding="utf-8" standalone="no"?>
<!DOCTYPE svg PUBLIC "-//W3C//DTD SVG 1.1//EN"
  "http://www.w3.org/Graphics/SVG/1.1/DTD/svg11.dtd">
<svg xmlns:xlink="http://www.w3.org/1999/xlink" width="466.82375pt" height="370.537812pt" viewBox="0 0 466.82375 370.537812" xmlns="http://www.w3.org/2000/svg" version="1.1">
 <metadata>
  <rdf:RDF xmlns:dc="http://purl.org/dc/elements/1.1/" xmlns:cc="http://creativecommons.org/ns#" xmlns:rdf="http://www.w3.org/1999/02/22-rdf-syntax-ns#">
   <cc:Work>
    <dc:type rdf:resource="http://purl.org/dc/dcmitype/StillImage"/>
    <dc:date>2025-03-07T00:13:12.782312</dc:date>
    <dc:format>image/svg+xml</dc:format>
    <dc:creator>
     <cc:Agent>
      <dc:title>Matplotlib v3.9.1, https://matplotlib.org/</dc:title>
     </cc:Agent>
    </dc:creator>
   </cc:Work>
  </rdf:RDF>
 </metadata>
 <defs>
  <style type="text/css">*{stroke-linejoin: round; stroke-linecap: butt}</style>
 </defs>
 <g id="figure_1">
  <g id="patch_1">
   <path d="M 0 370.537812 
L 466.82375 370.537812 
L 466.82375 0 
L 0 0 
z
" style="fill: #ffffff"/>
  </g>
  <g id="axes_1">
   <g id="patch_2">
    <path d="M 64.251875 320.4 
L 454.851875 320.4 
L 454.851875 43.2 
L 64.251875 43.2 
z
" style="fill: #ffffff"/>
   </g>
   <g id="matplotlib.axis_1">
    <g id="xtick_1">
     <g id="line2d_1">
      <defs>
       <path id="m625aedbe05" d="M 0 0 
L 0 3.5 
" style="stroke: #000000; stroke-width: 0.8"/>
      </defs>
      <g>
       <use xlink:href="#m625aedbe05" x="94.298029" y="320.4" style="stroke: #000000; stroke-width: 0.8"/>
      </g>
     </g>
     <g id="text_1">
      <!-- 0 -->
      <g transform="translate(89.526154 338.797656) scale(0.15 -0.15)">
       <defs>
        <path id="DejaVuSans-30" d="M 2034 4250 
Q 1547 4250 1301 3770 
Q 1056 3291 1056 2328 
Q 1056 1369 1301 889 
Q 1547 409 2034 409 
Q 2525 409 2770 889 
Q 3016 1369 3016 2328 
Q 3016 3291 2770 3770 
Q 2525 4250 2034 4250 
z
M 2034 4750 
Q 2819 4750 3233 4129 
Q 3647 3509 3647 2328 
Q 3647 1150 3233 529 
Q 2819 -91 2034 -91 
Q 1250 -91 836 529 
Q 422 1150 422 2328 
Q 422 3509 836 4129 
Q 1250 4750 2034 4750 
z
" transform="scale(0.015625)"/>
       </defs>
       <use xlink:href="#DejaVuSans-30"/>
      </g>
     </g>
    </g>
    <g id="xtick_2">
     <g id="line2d_2">
      <g>
       <use xlink:href="#m625aedbe05" x="154.390337" y="320.4" style="stroke: #000000; stroke-width: 0.8"/>
      </g>
     </g>
     <g id="text_2">
      <!-- 1 -->
      <g transform="translate(149.618462 338.797656) scale(0.15 -0.15)">
       <defs>
        <path id="DejaVuSans-31" d="M 794 531 
L 1825 531 
L 1825 4091 
L 703 3866 
L 703 4441 
L 1819 4666 
L 2450 4666 
L 2450 531 
L 3481 531 
L 3481 0 
L 794 0 
L 794 531 
z
" transform="scale(0.015625)"/>
       </defs>
       <use xlink:href="#DejaVuSans-31"/>
      </g>
     </g>
    </g>
    <g id="xtick_3">
     <g id="line2d_3">
      <g>
       <use xlink:href="#m625aedbe05" x="214.482644" y="320.4" style="stroke: #000000; stroke-width: 0.8"/>
      </g>
     </g>
     <g id="text_3">
      <!-- 2 -->
      <g transform="translate(209.710769 338.797656) scale(0.15 -0.15)">
       <defs>
        <path id="DejaVuSans-32" d="M 1228 531 
L 3431 531 
L 3431 0 
L 469 0 
L 469 531 
Q 828 903 1448 1529 
Q 2069 2156 2228 2338 
Q 2531 2678 2651 2914 
Q 2772 3150 2772 3378 
Q 2772 3750 2511 3984 
Q 2250 4219 1831 4219 
Q 1534 4219 1204 4116 
Q 875 4013 500 3803 
L 500 4441 
Q 881 4594 1212 4672 
Q 1544 4750 1819 4750 
Q 2544 4750 2975 4387 
Q 3406 4025 3406 3419 
Q 3406 3131 3298 2873 
Q 3191 2616 2906 2266 
Q 2828 2175 2409 1742 
Q 1991 1309 1228 531 
z
" transform="scale(0.015625)"/>
       </defs>
       <use xlink:href="#DejaVuSans-32"/>
      </g>
     </g>
    </g>
    <g id="xtick_4">
     <g id="line2d_4">
      <g>
       <use xlink:href="#m625aedbe05" x="274.574952" y="320.4" style="stroke: #000000; stroke-width: 0.8"/>
      </g>
     </g>
     <g id="text_4">
      <!-- 3 -->
      <g transform="translate(269.803077 338.797656) scale(0.15 -0.15)">
       <defs>
        <path id="DejaVuSans-33" d="M 2597 2516 
Q 3050 2419 3304 2112 
Q 3559 1806 3559 1356 
Q 3559 666 3084 287 
Q 2609 -91 1734 -91 
Q 1441 -91 1130 -33 
Q 819 25 488 141 
L 488 750 
Q 750 597 1062 519 
Q 1375 441 1716 441 
Q 2309 441 2620 675 
Q 2931 909 2931 1356 
Q 2931 1769 2642 2001 
Q 2353 2234 1838 2234 
L 1294 2234 
L 1294 2753 
L 1863 2753 
Q 2328 2753 2575 2939 
Q 2822 3125 2822 3475 
Q 2822 3834 2567 4026 
Q 2313 4219 1838 4219 
Q 1578 4219 1281 4162 
Q 984 4106 628 3988 
L 628 4550 
Q 988 4650 1302 4700 
Q 1616 4750 1894 4750 
Q 2613 4750 3031 4423 
Q 3450 4097 3450 3541 
Q 3450 3153 3228 2886 
Q 3006 2619 2597 2516 
z
" transform="scale(0.015625)"/>
       </defs>
       <use xlink:href="#DejaVuSans-33"/>
      </g>
     </g>
    </g>
    <g id="xtick_5">
     <g id="line2d_5">
      <g>
       <use xlink:href="#m625aedbe05" x="334.66726" y="320.4" style="stroke: #000000; stroke-width: 0.8"/>
      </g>
     </g>
     <g id="text_5">
      <!-- 4 -->
      <g transform="translate(329.895385 338.797656) scale(0.15 -0.15)">
       <defs>
        <path id="DejaVuSans-34" d="M 2419 4116 
L 825 1625 
L 2419 1625 
L 2419 4116 
z
M 2253 4666 
L 3047 4666 
L 3047 1625 
L 3713 1625 
L 3713 1100 
L 3047 1100 
L 3047 0 
L 2419 0 
L 2419 1100 
L 313 1100 
L 313 1709 
L 2253 4666 
z
" transform="scale(0.015625)"/>
       </defs>
       <use xlink:href="#DejaVuSans-34"/>
      </g>
     </g>
    </g>
    <g id="xtick_6">
     <g id="line2d_6">
      <g>
       <use xlink:href="#m625aedbe05" x="394.759567" y="320.4" style="stroke: #000000; stroke-width: 0.8"/>
      </g>
     </g>
     <g id="text_6">
      <!-- 5 -->
      <g transform="translate(389.987692 338.797656) scale(0.15 -0.15)">
       <defs>
        <path id="DejaVuSans-35" d="M 691 4666 
L 3169 4666 
L 3169 4134 
L 1269 4134 
L 1269 2991 
Q 1406 3038 1543 3061 
Q 1681 3084 1819 3084 
Q 2600 3084 3056 2656 
Q 3513 2228 3513 1497 
Q 3513 744 3044 326 
Q 2575 -91 1722 -91 
Q 1428 -91 1123 -41 
Q 819 9 494 109 
L 494 744 
Q 775 591 1075 516 
Q 1375 441 1709 441 
Q 2250 441 2565 725 
Q 2881 1009 2881 1497 
Q 2881 1984 2565 2268 
Q 2250 2553 1709 2553 
Q 1456 2553 1204 2497 
Q 953 2441 691 2322 
L 691 4666 
z
" transform="scale(0.015625)"/>
       </defs>
       <use xlink:href="#DejaVuSans-35"/>
      </g>
     </g>
    </g>
    <g id="xtick_7">
     <g id="line2d_7">
      <g>
       <use xlink:href="#m625aedbe05" x="454.851875" y="320.4" style="stroke: #000000; stroke-width: 0.8"/>
      </g>
     </g>
     <g id="text_7">
      <!-- 6 -->
      <g transform="translate(450.08 338.797656) scale(0.15 -0.15)">
       <defs>
        <path id="DejaVuSans-36" d="M 2113 2584 
Q 1688 2584 1439 2293 
Q 1191 2003 1191 1497 
Q 1191 994 1439 701 
Q 1688 409 2113 409 
Q 2538 409 2786 701 
Q 3034 994 3034 1497 
Q 3034 2003 2786 2293 
Q 2538 2584 2113 2584 
z
M 3366 4563 
L 3366 3988 
Q 3128 4100 2886 4159 
Q 2644 4219 2406 4219 
Q 1781 4219 1451 3797 
Q 1122 3375 1075 2522 
Q 1259 2794 1537 2939 
Q 1816 3084 2150 3084 
Q 2853 3084 3261 2657 
Q 3669 2231 3669 1497 
Q 3669 778 3244 343 
Q 2819 -91 2113 -91 
Q 1303 -91 875 529 
Q 447 1150 447 2328 
Q 447 3434 972 4092 
Q 1497 4750 2381 4750 
Q 2619 4750 2861 4703 
Q 3103 4656 3366 4563 
z
" transform="scale(0.015625)"/>
       </defs>
       <use xlink:href="#DejaVuSans-36"/>
      </g>
     </g>
    </g>
    <g id="text_8">
     <!-- time [week] -->
     <g transform="translate(198.813125 359.594375) scale(0.18 -0.18)">
      <defs>
       <path id="DejaVuSans-Bold-74" d="M 1759 4494 
L 1759 3500 
L 2913 3500 
L 2913 2700 
L 1759 2700 
L 1759 1216 
Q 1759 972 1856 886 
Q 1953 800 2241 800 
L 2816 800 
L 2816 0 
L 1856 0 
Q 1194 0 917 276 
Q 641 553 641 1216 
L 641 2700 
L 84 2700 
L 84 3500 
L 641 3500 
L 641 4494 
L 1759 4494 
z
" transform="scale(0.015625)"/>
       <path id="DejaVuSans-Bold-69" d="M 538 3500 
L 1656 3500 
L 1656 0 
L 538 0 
L 538 3500 
z
M 538 4863 
L 1656 4863 
L 1656 3950 
L 538 3950 
L 538 4863 
z
" transform="scale(0.015625)"/>
       <path id="DejaVuSans-Bold-6d" d="M 3781 2919 
Q 3994 3244 4286 3414 
Q 4578 3584 4928 3584 
Q 5531 3584 5847 3212 
Q 6163 2841 6163 2131 
L 6163 0 
L 5038 0 
L 5038 1825 
Q 5041 1866 5042 1909 
Q 5044 1953 5044 2034 
Q 5044 2406 4934 2573 
Q 4825 2741 4581 2741 
Q 4263 2741 4089 2478 
Q 3916 2216 3909 1719 
L 3909 0 
L 2784 0 
L 2784 1825 
Q 2784 2406 2684 2573 
Q 2584 2741 2328 2741 
Q 2006 2741 1831 2477 
Q 1656 2213 1656 1722 
L 1656 0 
L 531 0 
L 531 3500 
L 1656 3500 
L 1656 2988 
Q 1863 3284 2130 3434 
Q 2397 3584 2719 3584 
Q 3081 3584 3359 3409 
Q 3638 3234 3781 2919 
z
" transform="scale(0.015625)"/>
       <path id="DejaVuSans-Bold-65" d="M 4031 1759 
L 4031 1441 
L 1416 1441 
Q 1456 1047 1700 850 
Q 1944 653 2381 653 
Q 2734 653 3104 758 
Q 3475 863 3866 1075 
L 3866 213 
Q 3469 63 3072 -14 
Q 2675 -91 2278 -91 
Q 1328 -91 801 392 
Q 275 875 275 1747 
Q 275 2603 792 3093 
Q 1309 3584 2216 3584 
Q 3041 3584 3536 3087 
Q 4031 2591 4031 1759 
z
M 2881 2131 
Q 2881 2450 2695 2645 
Q 2509 2841 2209 2841 
Q 1884 2841 1681 2658 
Q 1478 2475 1428 2131 
L 2881 2131 
z
" transform="scale(0.015625)"/>
       <path id="DejaVuSans-Bold-20" transform="scale(0.015625)"/>
       <path id="DejaVuSans-Bold-5b" d="M 550 4863 
L 2491 4863 
L 2491 4159 
L 1613 4159 
L 1613 -141 
L 2491 -141 
L 2491 -844 
L 550 -844 
L 550 4863 
z
" transform="scale(0.015625)"/>
       <path id="DejaVuSans-Bold-77" d="M 225 3500 
L 1313 3500 
L 1900 1088 
L 2491 3500 
L 3425 3500 
L 4013 1113 
L 4603 3500 
L 5691 3500 
L 4769 0 
L 3547 0 
L 2956 2406 
L 2369 0 
L 1147 0 
L 225 3500 
z
" transform="scale(0.015625)"/>
       <path id="DejaVuSans-Bold-6b" d="M 538 4863 
L 1656 4863 
L 1656 2216 
L 2944 3500 
L 4244 3500 
L 2534 1894 
L 4378 0 
L 3022 0 
L 1656 1459 
L 1656 0 
L 538 0 
L 538 4863 
z
" transform="scale(0.015625)"/>
       <path id="DejaVuSans-Bold-5d" d="M 2375 -844 
L 434 -844 
L 434 -141 
L 1313 -141 
L 1313 4159 
L 434 4159 
L 434 4863 
L 2375 4863 
L 2375 -844 
z
" transform="scale(0.015625)"/>
      </defs>
      <use xlink:href="#DejaVuSans-Bold-74"/>
      <use xlink:href="#DejaVuSans-Bold-69" x="47.802734"/>
      <use xlink:href="#DejaVuSans-Bold-6d" x="82.080078"/>
      <use xlink:href="#DejaVuSans-Bold-65" x="186.279297"/>
      <use xlink:href="#DejaVuSans-Bold-20" x="254.101562"/>
      <use xlink:href="#DejaVuSans-Bold-5b" x="288.916016"/>
      <use xlink:href="#DejaVuSans-Bold-77" x="334.619141"/>
      <use xlink:href="#DejaVuSans-Bold-65" x="427.001953"/>
      <use xlink:href="#DejaVuSans-Bold-65" x="494.824219"/>
      <use xlink:href="#DejaVuSans-Bold-6b" x="562.646484"/>
      <use xlink:href="#DejaVuSans-Bold-5d" x="629.150391"/>
     </g>
    </g>
   </g>
   <g id="matplotlib.axis_2">
    <g id="ytick_1">
     <g id="line2d_8">
      <defs>
       <path id="m85e8f66cb5" d="M 0 0 
L -3.5 0 
" style="stroke: #000000; stroke-width: 0.8"/>
      </defs>
      <g>
       <use xlink:href="#m85e8f66cb5" x="64.251875" y="305.035847" style="stroke: #000000; stroke-width: 0.8"/>
      </g>
     </g>
     <g id="text_9">
      <!-- 0 -->
      <g transform="translate(47.708125 310.734675) scale(0.15 -0.15)">
       <use xlink:href="#DejaVuSans-30"/>
      </g>
     </g>
    </g>
    <g id="ytick_2">
     <g id="line2d_9">
      <g>
       <use xlink:href="#m85e8f66cb5" x="64.251875" y="268.491713" style="stroke: #000000; stroke-width: 0.8"/>
      </g>
     </g>
     <g id="text_10">
      <!-- 50 -->
      <g transform="translate(38.164375 274.190541) scale(0.15 -0.15)">
       <use xlink:href="#DejaVuSans-35"/>
       <use xlink:href="#DejaVuSans-30" x="63.623047"/>
      </g>
     </g>
    </g>
    <g id="ytick_3">
     <g id="line2d_10">
      <g>
       <use xlink:href="#m85e8f66cb5" x="64.251875" y="231.947579" style="stroke: #000000; stroke-width: 0.8"/>
      </g>
     </g>
     <g id="text_11">
      <!-- 100 -->
      <g transform="translate(28.620625 237.646407) scale(0.15 -0.15)">
       <use xlink:href="#DejaVuSans-31"/>
       <use xlink:href="#DejaVuSans-30" x="63.623047"/>
       <use xlink:href="#DejaVuSans-30" x="127.246094"/>
      </g>
     </g>
    </g>
    <g id="ytick_4">
     <g id="line2d_11">
      <g>
       <use xlink:href="#m85e8f66cb5" x="64.251875" y="195.403444" style="stroke: #000000; stroke-width: 0.8"/>
      </g>
     </g>
     <g id="text_12">
      <!-- 150 -->
      <g transform="translate(28.620625 201.102272) scale(0.15 -0.15)">
       <use xlink:href="#DejaVuSans-31"/>
       <use xlink:href="#DejaVuSans-35" x="63.623047"/>
       <use xlink:href="#DejaVuSans-30" x="127.246094"/>
      </g>
     </g>
    </g>
    <g id="ytick_5">
     <g id="line2d_12">
      <g>
       <use xlink:href="#m85e8f66cb5" x="64.251875" y="158.85931" style="stroke: #000000; stroke-width: 0.8"/>
      </g>
     </g>
     <g id="text_13">
      <!-- 200 -->
      <g transform="translate(28.620625 164.558138) scale(0.15 -0.15)">
       <use xlink:href="#DejaVuSans-32"/>
       <use xlink:href="#DejaVuSans-30" x="63.623047"/>
       <use xlink:href="#DejaVuSans-30" x="127.246094"/>
      </g>
     </g>
    </g>
    <g id="ytick_6">
     <g id="line2d_13">
      <g>
       <use xlink:href="#m85e8f66cb5" x="64.251875" y="122.315176" style="stroke: #000000; stroke-width: 0.8"/>
      </g>
     </g>
     <g id="text_14">
      <!-- 250 -->
      <g transform="translate(28.620625 128.014004) scale(0.15 -0.15)">
       <use xlink:href="#DejaVuSans-32"/>
       <use xlink:href="#DejaVuSans-35" x="63.623047"/>
       <use xlink:href="#DejaVuSans-30" x="127.246094"/>
      </g>
     </g>
    </g>
    <g id="ytick_7">
     <g id="line2d_14">
      <g>
       <use xlink:href="#m85e8f66cb5" x="64.251875" y="85.771042" style="stroke: #000000; stroke-width: 0.8"/>
      </g>
     </g>
     <g id="text_15">
      <!-- 300 -->
      <g transform="translate(28.620625 91.46987) scale(0.15 -0.15)">
       <use xlink:href="#DejaVuSans-33"/>
       <use xlink:href="#DejaVuSans-30" x="63.623047"/>
       <use xlink:href="#DejaVuSans-30" x="127.246094"/>
      </g>
     </g>
    </g>
    <g id="ytick_8">
     <g id="line2d_15">
      <g>
       <use xlink:href="#m85e8f66cb5" x="64.251875" y="49.226908" style="stroke: #000000; stroke-width: 0.8"/>
      </g>
     </g>
     <g id="text_16">
      <!-- 350 -->
      <g transform="translate(28.620625 54.925736) scale(0.15 -0.15)">
       <use xlink:href="#DejaVuSans-33"/>
       <use xlink:href="#DejaVuSans-35" x="63.623047"/>
       <use xlink:href="#DejaVuSans-30" x="127.246094"/>
      </g>
     </g>
    </g>
    <g id="text_17">
     <!-- tirzepatide [nM] -->
     <g transform="translate(20.877187 264.140156) rotate(-90) scale(0.18 -0.18)">
      <defs>
       <path id="DejaVuSans-Bold-72" d="M 3138 2547 
Q 2991 2616 2845 2648 
Q 2700 2681 2553 2681 
Q 2122 2681 1889 2404 
Q 1656 2128 1656 1613 
L 1656 0 
L 538 0 
L 538 3500 
L 1656 3500 
L 1656 2925 
Q 1872 3269 2151 3426 
Q 2431 3584 2822 3584 
Q 2878 3584 2943 3579 
Q 3009 3575 3134 3559 
L 3138 2547 
z
" transform="scale(0.015625)"/>
       <path id="DejaVuSans-Bold-7a" d="M 366 3500 
L 3419 3500 
L 3419 2719 
L 1575 800 
L 3419 800 
L 3419 0 
L 288 0 
L 288 781 
L 2131 2700 
L 366 2700 
L 366 3500 
z
" transform="scale(0.015625)"/>
       <path id="DejaVuSans-Bold-70" d="M 1656 506 
L 1656 -1331 
L 538 -1331 
L 538 3500 
L 1656 3500 
L 1656 2988 
Q 1888 3294 2169 3439 
Q 2450 3584 2816 3584 
Q 3463 3584 3878 3070 
Q 4294 2556 4294 1747 
Q 4294 938 3878 423 
Q 3463 -91 2816 -91 
Q 2450 -91 2169 54 
Q 1888 200 1656 506 
z
M 2400 2772 
Q 2041 2772 1848 2508 
Q 1656 2244 1656 1747 
Q 1656 1250 1848 986 
Q 2041 722 2400 722 
Q 2759 722 2948 984 
Q 3138 1247 3138 1747 
Q 3138 2247 2948 2509 
Q 2759 2772 2400 2772 
z
" transform="scale(0.015625)"/>
       <path id="DejaVuSans-Bold-61" d="M 2106 1575 
Q 1756 1575 1579 1456 
Q 1403 1338 1403 1106 
Q 1403 894 1545 773 
Q 1688 653 1941 653 
Q 2256 653 2472 879 
Q 2688 1106 2688 1447 
L 2688 1575 
L 2106 1575 
z
M 3816 1997 
L 3816 0 
L 2688 0 
L 2688 519 
Q 2463 200 2181 54 
Q 1900 -91 1497 -91 
Q 953 -91 614 226 
Q 275 544 275 1050 
Q 275 1666 698 1953 
Q 1122 2241 2028 2241 
L 2688 2241 
L 2688 2328 
Q 2688 2594 2478 2717 
Q 2269 2841 1825 2841 
Q 1466 2841 1156 2769 
Q 847 2697 581 2553 
L 581 3406 
Q 941 3494 1303 3539 
Q 1666 3584 2028 3584 
Q 2975 3584 3395 3211 
Q 3816 2838 3816 1997 
z
" transform="scale(0.015625)"/>
       <path id="DejaVuSans-Bold-64" d="M 2919 2988 
L 2919 4863 
L 4044 4863 
L 4044 0 
L 2919 0 
L 2919 506 
Q 2688 197 2409 53 
Q 2131 -91 1766 -91 
Q 1119 -91 703 423 
Q 288 938 288 1747 
Q 288 2556 703 3070 
Q 1119 3584 1766 3584 
Q 2128 3584 2408 3439 
Q 2688 3294 2919 2988 
z
M 2181 722 
Q 2541 722 2730 984 
Q 2919 1247 2919 1747 
Q 2919 2247 2730 2509 
Q 2541 2772 2181 2772 
Q 1825 2772 1636 2509 
Q 1447 2247 1447 1747 
Q 1447 1247 1636 984 
Q 1825 722 2181 722 
z
" transform="scale(0.015625)"/>
       <path id="DejaVuSans-Bold-6e" d="M 4056 2131 
L 4056 0 
L 2931 0 
L 2931 347 
L 2931 1631 
Q 2931 2084 2911 2256 
Q 2891 2428 2841 2509 
Q 2775 2619 2662 2680 
Q 2550 2741 2406 2741 
Q 2056 2741 1856 2470 
Q 1656 2200 1656 1722 
L 1656 0 
L 538 0 
L 538 3500 
L 1656 3500 
L 1656 2988 
Q 1909 3294 2193 3439 
Q 2478 3584 2822 3584 
Q 3428 3584 3742 3212 
Q 4056 2841 4056 2131 
z
" transform="scale(0.015625)"/>
       <path id="DejaVuSans-Bold-4d" d="M 588 4666 
L 2119 4666 
L 3181 2169 
L 4250 4666 
L 5778 4666 
L 5778 0 
L 4641 0 
L 4641 3413 
L 3566 897 
L 2803 897 
L 1728 3413 
L 1728 0 
L 588 0 
L 588 4666 
z
" transform="scale(0.015625)"/>
      </defs>
      <use xlink:href="#DejaVuSans-Bold-74"/>
      <use xlink:href="#DejaVuSans-Bold-69" x="47.802734"/>
      <use xlink:href="#DejaVuSans-Bold-72" x="82.080078"/>
      <use xlink:href="#DejaVuSans-Bold-7a" x="131.396484"/>
      <use xlink:href="#DejaVuSans-Bold-65" x="189.599609"/>
      <use xlink:href="#DejaVuSans-Bold-70" x="257.421875"/>
      <use xlink:href="#DejaVuSans-Bold-61" x="329.003906"/>
      <use xlink:href="#DejaVuSans-Bold-74" x="396.484375"/>
      <use xlink:href="#DejaVuSans-Bold-69" x="444.287109"/>
      <use xlink:href="#DejaVuSans-Bold-64" x="478.564453"/>
      <use xlink:href="#DejaVuSans-Bold-65" x="550.146484"/>
      <use xlink:href="#DejaVuSans-Bold-20" x="617.96875"/>
      <use xlink:href="#DejaVuSans-Bold-5b" x="652.783203"/>
      <use xlink:href="#DejaVuSans-Bold-6e" x="698.486328"/>
      <use xlink:href="#DejaVuSans-Bold-4d" x="769.677734"/>
      <use xlink:href="#DejaVuSans-Bold-5d" x="869.189453"/>
     </g>
    </g>
   </g>
   <g id="LineCollection_1">
    <path d="M 94.298029 301.480761 
L 94.298029 296.682546 
" clip-path="url(#p645bdee268)" style="fill: none; stroke: #daa520"/>
    <path d="M 97.159567 299.902185 
L 97.159567 290.312333 
" clip-path="url(#p645bdee268)" style="fill: none; stroke: #daa520"/>
    <path d="M 102.882644 297.144609 
L 102.882644 289.153066 
" clip-path="url(#p645bdee268)" style="fill: none; stroke: #daa520"/>
    <path d="M 120.051875 296.452337 
L 120.051875 290.861546 
" clip-path="url(#p645bdee268)" style="fill: none; stroke: #daa520"/>
    <path d="M 154.390337 301.477472 
L 154.390337 295.883392 
" clip-path="url(#p645bdee268)" style="fill: none; stroke: #daa520"/>
    <path d="M 214.482644 305.869533 
L 214.482644 300.278741 
" clip-path="url(#p645bdee268)" style="fill: none; stroke: #daa520"/>
   </g>
   <g id="LineCollection_2">
    <path d="M 94.298029 293.089641 
L 94.298029 289.09058 
" clip-path="url(#p645bdee268)" style="fill: none; stroke: #ff8c00"/>
    <path d="M 97.159567 281.122058 
L 97.159567 273.130514 
" clip-path="url(#p645bdee268)" style="fill: none; stroke: #ff8c00"/>
    <path d="M 102.882644 280.74879 
L 102.882644 271.168804 
" clip-path="url(#p645bdee268)" style="fill: none; stroke: #ff8c00"/>
    <path d="M 120.051875 284.468311 
L 120.051875 276.476768 
" clip-path="url(#p645bdee268)" style="fill: none; stroke: #ff8c00"/>
    <path d="M 154.390337 294.687949 
L 154.390337 287.492272 
" clip-path="url(#p645bdee268)" style="fill: none; stroke: #ff8c00"/>
    <path d="M 214.482644 306.270754 
L 214.482644 299.081654 
" clip-path="url(#p645bdee268)" style="fill: none; stroke: #ff8c00"/>
   </g>
   <g id="LineCollection_3">
    <path d="M 94.298029 257.918628 
L 94.298029 231.553113 
" clip-path="url(#p645bdee268)" style="fill: none; stroke: #800080"/>
    <path d="M 97.159567 215.987691 
L 97.159567 177.631572 
" clip-path="url(#p645bdee268)" style="fill: none; stroke: #800080"/>
    <path d="M 102.882644 204.434484 
L 102.882644 133.316326 
" clip-path="url(#p645bdee268)" style="fill: none; stroke: #800080"/>
    <path d="M 120.051875 224.928024 
L 120.051875 180.977825 
" clip-path="url(#p645bdee268)" style="fill: none; stroke: #800080"/>
    <path d="M 154.390337 259.127226 
L 154.390337 237.54677 
" clip-path="url(#p645bdee268)" style="fill: none; stroke: #800080"/>
    <path d="M 214.482644 283.896077 
L 214.482644 267.110547 
" clip-path="url(#p645bdee268)" style="fill: none; stroke: #800080"/>
    <path d="M 394.759567 307.8 
L 394.759567 302.271694 
" clip-path="url(#p645bdee268)" style="fill: none; stroke: #800080"/>
   </g>
   <g id="LineCollection_4">
    <path d="M 94.298029 234.348508 
L 94.298029 211.975476 
" clip-path="url(#p645bdee268)" style="fill: none; stroke: #00bfff"/>
    <path d="M 97.159567 175.232464 
L 97.159567 84.928024 
" clip-path="url(#p645bdee268)" style="fill: none; stroke: #00bfff"/>
    <path d="M 102.882644 126.122293 
L 102.882644 55.8 
" clip-path="url(#p645bdee268)" style="fill: none; stroke: #00bfff"/>
    <path d="M 120.051875 115.846747 
L 120.051875 103.859432 
" clip-path="url(#p645bdee268)" style="fill: none; stroke: #00bfff"/>
    <path d="M 154.390337 196.793188 
L 154.390337 142.447404 
" clip-path="url(#p645bdee268)" style="fill: none; stroke: #00bfff"/>
    <path d="M 214.482644 263.922152 
L 214.482644 254.329011 
" clip-path="url(#p645bdee268)" style="fill: none; stroke: #00bfff"/>
    <path d="M 394.759567 307.8 
L 394.759567 302.271694 
" clip-path="url(#p645bdee268)" style="fill: none; stroke: #00bfff"/>
   </g>
   <g id="line2d_16">
    <path d="M 94.298029 305.035847 
L 96.40126 303.370173 
L 98.50449 301.96718 
L 101.028367 300.584065 
L 103.552244 299.482612 
L 106.076121 298.620401 
L 109.020644 297.868358 
L 111.965167 297.342906 
L 115.330337 296.966905 
L 119.116152 296.769565 
L 123.74326 296.771405 
L 129.21166 297.013593 
L 136.362644 297.569163 
L 148.982029 298.821481 
L 167.49046 300.620851 
L 180.951137 301.691125 
L 194.411813 302.536215 
L 209.134429 303.235389 
L 225.960275 303.807477 
L 246.15129 304.264069 
L 271.810706 304.610342 
L 307.144983 304.849141 
L 364.35286 304.986793 
L 455.212429 305.029984 
L 455.212429 305.029984 
" clip-path="url(#p645bdee268)" style="fill: none; stroke: #daa520; stroke-width: 2; stroke-linecap: square"/>
   </g>
   <g id="line2d_17">
    <path d="M 94.298029 299.081654 
L 97.159567 295.107259 
L 102.882644 293.148837 
L 120.051875 293.656942 
L 154.390337 298.680432 
L 214.482644 303.074137 
" clip-path="url(#p645bdee268)" style="fill: none; stroke-dasharray: 3.7,1.6; stroke-dashoffset: 0; stroke: #daa520"/>
    <defs>
     <path id="me5bc537c10" d="M -3 3 
L 3 3 
L 3 -3 
L -3 -3 
z
" style="stroke: #000000; stroke-linejoin: miter"/>
    </defs>
    <g clip-path="url(#p645bdee268)">
     <use xlink:href="#me5bc537c10" x="94.298029" y="299.081654" style="fill: #daa520; stroke: #000000; stroke-linejoin: miter"/>
     <use xlink:href="#me5bc537c10" x="97.159567" y="295.107259" style="fill: #daa520; stroke: #000000; stroke-linejoin: miter"/>
     <use xlink:href="#me5bc537c10" x="102.882644" y="293.148837" style="fill: #daa520; stroke: #000000; stroke-linejoin: miter"/>
     <use xlink:href="#me5bc537c10" x="120.051875" y="293.656942" style="fill: #daa520; stroke: #000000; stroke-linejoin: miter"/>
     <use xlink:href="#me5bc537c10" x="154.390337" y="298.680432" style="fill: #daa520; stroke: #000000; stroke-linejoin: miter"/>
     <use xlink:href="#me5bc537c10" x="214.482644" y="303.074137" style="fill: #daa520; stroke: #000000; stroke-linejoin: miter"/>
    </g>
   </g>
   <g id="line2d_18">
    <path d="M 94.298029 305.035847 
L 95.980613 300.971649 
L 97.663198 297.425586 
L 99.345783 294.344189 
L 101.028367 291.680501 
L 102.710952 289.391947 
L 104.393537 287.439939 
L 106.076121 285.789511 
L 107.758706 284.408993 
L 109.44129 283.269711 
L 111.544521 282.145553 
L 113.647752 281.312649 
L 115.750983 280.731055 
L 117.854213 280.365586 
L 120.37809 280.168973 
L 122.901967 280.192698 
L 125.84649 280.446134 
L 129.21166 280.969085 
L 132.997475 281.777989 
L 138.045229 283.099815 
L 145.61686 285.353479 
L 162.02206 290.294465 
L 170.014337 292.445357 
L 177.585967 294.263911 
L 185.157598 295.8639 
L 193.149875 297.326142 
L 201.562798 298.635432 
L 210.396367 299.785984 
L 220.071229 300.82027 
L 230.587383 301.721574 
L 242.365475 302.508853 
L 255.826152 303.185273 
L 271.810706 303.759331 
L 291.160429 304.222534 
L 315.978552 304.580121 
L 350.05089 304.830271 
L 403.893598 304.977457 
L 455.212429 305.018258 
L 455.212429 305.018258 
" clip-path="url(#p645bdee268)" style="fill: none; stroke: #ff8c00; stroke-width: 2; stroke-linecap: square"/>
   </g>
   <g id="line2d_19">
    <path d="M 94.298029 291.09011 
L 97.159567 277.126286 
L 102.882644 275.958797 
L 120.051875 280.472539 
L 154.390337 291.09011 
L 214.482644 302.676204 
" clip-path="url(#p645bdee268)" style="fill: none; stroke-dasharray: 3.7,1.6; stroke-dashoffset: 0; stroke: #ff8c00"/>
    <defs>
     <path id="m8f4f4a3fc1" d="M -3 3 
L 3 3 
L 3 -3 
L -3 -3 
z
" style="stroke: #000000; stroke-linejoin: miter"/>
    </defs>
    <g clip-path="url(#p645bdee268)">
     <use xlink:href="#m8f4f4a3fc1" x="94.298029" y="291.09011" style="fill: #ff8c00; stroke: #000000; stroke-linejoin: miter"/>
     <use xlink:href="#m8f4f4a3fc1" x="97.159567" y="277.126286" style="fill: #ff8c00; stroke: #000000; stroke-linejoin: miter"/>
     <use xlink:href="#m8f4f4a3fc1" x="102.882644" y="275.958797" style="fill: #ff8c00; stroke: #000000; stroke-linejoin: miter"/>
     <use xlink:href="#m8f4f4a3fc1" x="120.051875" y="280.472539" style="fill: #ff8c00; stroke: #000000; stroke-linejoin: miter"/>
     <use xlink:href="#m8f4f4a3fc1" x="154.390337" y="291.09011" style="fill: #ff8c00; stroke: #000000; stroke-linejoin: miter"/>
     <use xlink:href="#m8f4f4a3fc1" x="214.482644" y="302.676204" style="fill: #ff8c00; stroke: #000000; stroke-linejoin: miter"/>
    </g>
   </g>
   <g id="line2d_20">
    <path d="M 94.298029 305.035847 
L 95.980613 292.843252 
L 97.663198 282.205065 
L 99.345783 272.960874 
L 101.028367 264.96981 
L 102.710952 258.104149 
L 104.393537 252.248123 
L 106.076121 247.296839 
L 107.758706 243.155285 
L 109.44129 239.73744 
L 110.703229 237.601872 
L 111.965167 235.799375 
L 113.227106 234.302062 
L 114.489044 233.084082 
L 115.750983 232.121472 
L 117.012921 231.392034 
L 118.27486 230.875205 
L 119.536798 230.551947 
L 121.219383 230.391782 
L 122.901967 230.506401 
L 124.584552 230.861421 
L 126.267137 231.425889 
L 128.370367 232.383873 
L 130.473598 233.57759 
L 132.997475 235.262274 
L 135.941998 237.497366 
L 139.727813 240.672395 
L 145.196213 245.600831 
L 159.498183 258.639966 
L 164.966583 263.267654 
L 170.014337 267.264377 
L 175.06209 270.974747 
L 180.109844 274.392137 
L 185.157598 277.520008 
L 190.205352 280.368514 
L 195.253106 282.952039 
L 200.30086 285.287425 
L 205.76926 287.558342 
L 211.23766 289.582541 
L 217.126706 291.512766 
L 223.015752 293.21066 
L 229.325444 294.800904 
L 236.055783 296.267667 
L 243.206767 297.600729 
L 251.199044 298.855656 
L 259.611967 299.950983 
L 268.866183 300.934805 
L 279.382337 301.825178 
L 291.160429 302.59591 
L 305.041752 303.270936 
L 321.446952 303.832591 
L 341.217321 304.277703 
L 366.876737 304.619657 
L 402.63166 304.855432 
L 455.212429 304.983079 
L 455.212429 304.983079 
" clip-path="url(#p645bdee268)" style="fill: none; stroke: #800080; stroke-width: 2; stroke-linecap: square"/>
   </g>
   <g id="line2d_21">
    <path d="M 94.298029 244.73587 
L 97.159567 196.809631 
L 102.882644 168.875405 
L 120.051875 202.952925 
L 154.390337 248.336998 
L 214.482644 275.503312 
L 394.759567 305.035847 
" clip-path="url(#p645bdee268)" style="fill: none; stroke-dasharray: 3.7,1.6; stroke-dashoffset: 0; stroke: #800080"/>
    <defs>
     <path id="m8c06deb895" d="M -3 3 
L 3 3 
L 3 -3 
L -3 -3 
z
" style="stroke: #000000; stroke-linejoin: miter"/>
    </defs>
    <g clip-path="url(#p645bdee268)">
     <use xlink:href="#m8c06deb895" x="94.298029" y="244.73587" style="fill: #800080; stroke: #000000; stroke-linejoin: miter"/>
     <use xlink:href="#m8c06deb895" x="97.159567" y="196.809631" style="fill: #800080; stroke: #000000; stroke-linejoin: miter"/>
     <use xlink:href="#m8c06deb895" x="102.882644" y="168.875405" style="fill: #800080; stroke: #000000; stroke-linejoin: miter"/>
     <use xlink:href="#m8c06deb895" x="120.051875" y="202.952925" style="fill: #800080; stroke: #000000; stroke-linejoin: miter"/>
     <use xlink:href="#m8c06deb895" x="154.390337" y="248.336998" style="fill: #800080; stroke: #000000; stroke-linejoin: miter"/>
     <use xlink:href="#m8c06deb895" x="214.482644" y="275.503312" style="fill: #800080; stroke: #000000; stroke-linejoin: miter"/>
     <use xlink:href="#m8c06deb895" x="394.759567" y="305.035847" style="fill: #800080; stroke: #000000; stroke-linejoin: miter"/>
    </g>
   </g>
   <g id="line2d_22">
    <path d="M 94.298029 305.035847 
L 95.980613 277.941191 
L 97.663198 254.300775 
L 99.345783 233.758129 
L 101.028367 216.000209 
L 102.710952 200.743184 
L 104.393537 187.729795 
L 106.076121 176.72694 
L 107.758706 167.523487 
L 109.020644 161.686062 
L 110.282583 156.679036 
L 111.544521 152.433885 
L 112.80646 148.887061 
L 114.068398 145.979642 
L 115.330337 143.657015 
L 116.592275 141.868573 
L 117.854213 140.567439 
L 118.695506 139.949171 
L 119.536798 139.51607 
L 120.37809 139.256685 
L 121.219383 139.160147 
L 122.481321 139.298247 
L 123.74326 139.747014 
L 125.005198 140.476276 
L 126.267137 141.458162 
L 127.949721 143.116114 
L 129.632306 145.122055 
L 131.735537 148.043321 
L 133.838767 151.344459 
L 136.362644 155.70217 
L 139.727813 162.005954 
L 144.354921 171.239263 
L 159.498183 201.93389 
L 164.12529 210.678241 
L 168.752398 218.9373 
L 172.95886 225.98787 
L 177.165321 232.587859 
L 180.951137 238.141404 
L 184.736952 243.3344 
L 188.522767 248.176697 
L 192.308583 252.681206 
L 196.094398 256.862907 
L 199.880213 260.738078 
L 203.666029 264.323702 
L 207.87249 267.9891 
L 212.078952 271.341806 
L 216.285413 274.404769 
L 220.491875 277.200101 
L 225.118983 279.990979 
L 229.74609 282.509952 
L 234.373198 284.781691 
L 239.420952 287.004797 
L 244.468706 288.988109 
L 249.937106 290.894836 
L 255.826152 292.698685 
L 261.715198 294.274702 
L 268.02489 295.742372 
L 275.175875 297.166807 
L 282.747506 298.439006 
L 291.160429 299.613764 
L 300.414644 300.666568 
L 310.510152 301.583867 
L 321.867598 302.388089 
L 334.907629 303.083431 
L 350.05089 303.665339 
L 368.559321 304.146651 
L 392.115506 304.523179 
L 423.663967 304.790657 
L 455.212429 304.918586 
L 455.212429 304.918586 
" clip-path="url(#p645bdee268)" style="fill: none; stroke: #00bfff; stroke-width: 2; stroke-linecap: square"/>
   </g>
   <g id="line2d_23">
    <path d="M 94.298029 223.161992 
L 97.159567 130.080244 
L 102.882644 90.961146 
L 120.051875 109.853089 
L 154.390337 169.620296 
L 214.482644 259.125581 
L 394.759567 305.035847 
" clip-path="url(#p645bdee268)" style="fill: none; stroke-dasharray: 3.7,1.6; stroke-dashoffset: 0; stroke: #00bfff"/>
    <defs>
     <path id="ma8c8c4aa5a" d="M -3 3 
L 3 3 
L 3 -3 
L -3 -3 
z
" style="stroke: #000000; stroke-linejoin: miter"/>
    </defs>
    <g clip-path="url(#p645bdee268)">
     <use xlink:href="#ma8c8c4aa5a" x="94.298029" y="223.161992" style="fill: #00bfff; stroke: #000000; stroke-linejoin: miter"/>
     <use xlink:href="#ma8c8c4aa5a" x="97.159567" y="130.080244" style="fill: #00bfff; stroke: #000000; stroke-linejoin: miter"/>
     <use xlink:href="#ma8c8c4aa5a" x="102.882644" y="90.961146" style="fill: #00bfff; stroke: #000000; stroke-linejoin: miter"/>
     <use xlink:href="#ma8c8c4aa5a" x="120.051875" y="109.853089" style="fill: #00bfff; stroke: #000000; stroke-linejoin: miter"/>
     <use xlink:href="#ma8c8c4aa5a" x="154.390337" y="169.620296" style="fill: #00bfff; stroke: #000000; stroke-linejoin: miter"/>
     <use xlink:href="#ma8c8c4aa5a" x="214.482644" y="259.125581" style="fill: #00bfff; stroke: #000000; stroke-linejoin: miter"/>
     <use xlink:href="#ma8c8c4aa5a" x="394.759567" y="305.035847" style="fill: #00bfff; stroke: #000000; stroke-linejoin: miter"/>
    </g>
   </g>
   <g id="patch_3">
    <path d="M 64.251875 320.4 
L 64.251875 43.2 
" style="fill: none; stroke: #000000; stroke-width: 0.8; stroke-linejoin: miter; stroke-linecap: square"/>
   </g>
   <g id="patch_4">
    <path d="M 454.851875 320.4 
L 454.851875 43.2 
" style="fill: none; stroke: #000000; stroke-width: 0.8; stroke-linejoin: miter; stroke-linecap: square"/>
   </g>
   <g id="patch_5">
    <path d="M 64.251875 320.4 
L 454.851875 320.4 
" style="fill: none; stroke: #000000; stroke-width: 0.8; stroke-linejoin: miter; stroke-linecap: square"/>
   </g>
   <g id="patch_6">
    <path d="M 64.251875 43.2 
L 454.851875 43.2 
" style="fill: none; stroke: #000000; stroke-width: 0.8; stroke-linejoin: miter; stroke-linecap: square"/>
   </g>
   <g id="legend_1">
    <g id="patch_7">
     <path d="M 258.625313 168.625 
L 447.851875 168.625 
Q 449.851875 168.625 449.851875 166.625 
L 449.851875 50.2 
Q 449.851875 48.2 447.851875 48.2 
L 258.625313 48.2 
Q 256.625313 48.2 256.625313 50.2 
L 256.625313 166.625 
Q 256.625313 168.625 258.625313 168.625 
z
" style="fill: #ffffff; opacity: 0.8; stroke: #cccccc; stroke-linejoin: miter"/>
    </g>
    <g id="line2d_24">
     <path d="M 260.625313 56.298437 
L 280.625313 56.298437 
" style="fill: none; stroke: #daa520; stroke-width: 2; stroke-linecap: square"/>
    </g>
    <g id="line2d_25"/>
    <g id="text_18">
     <!-- Sim 0.5 mg tir (MAD) -->
     <g transform="translate(288.625313 59.798437) scale(0.1 -0.1)">
      <defs>
       <path id="DejaVuSans-53" d="M 3425 4513 
L 3425 3897 
Q 3066 4069 2747 4153 
Q 2428 4238 2131 4238 
Q 1616 4238 1336 4038 
Q 1056 3838 1056 3469 
Q 1056 3159 1242 3001 
Q 1428 2844 1947 2747 
L 2328 2669 
Q 3034 2534 3370 2195 
Q 3706 1856 3706 1288 
Q 3706 609 3251 259 
Q 2797 -91 1919 -91 
Q 1588 -91 1214 -16 
Q 841 59 441 206 
L 441 856 
Q 825 641 1194 531 
Q 1563 422 1919 422 
Q 2459 422 2753 634 
Q 3047 847 3047 1241 
Q 3047 1584 2836 1778 
Q 2625 1972 2144 2069 
L 1759 2144 
Q 1053 2284 737 2584 
Q 422 2884 422 3419 
Q 422 4038 858 4394 
Q 1294 4750 2059 4750 
Q 2388 4750 2728 4690 
Q 3069 4631 3425 4513 
z
" transform="scale(0.015625)"/>
       <path id="DejaVuSans-69" d="M 603 3500 
L 1178 3500 
L 1178 0 
L 603 0 
L 603 3500 
z
M 603 4863 
L 1178 4863 
L 1178 4134 
L 603 4134 
L 603 4863 
z
" transform="scale(0.015625)"/>
       <path id="DejaVuSans-6d" d="M 3328 2828 
Q 3544 3216 3844 3400 
Q 4144 3584 4550 3584 
Q 5097 3584 5394 3201 
Q 5691 2819 5691 2113 
L 5691 0 
L 5113 0 
L 5113 2094 
Q 5113 2597 4934 2840 
Q 4756 3084 4391 3084 
Q 3944 3084 3684 2787 
Q 3425 2491 3425 1978 
L 3425 0 
L 2847 0 
L 2847 2094 
Q 2847 2600 2669 2842 
Q 2491 3084 2119 3084 
Q 1678 3084 1418 2786 
Q 1159 2488 1159 1978 
L 1159 0 
L 581 0 
L 581 3500 
L 1159 3500 
L 1159 2956 
Q 1356 3278 1631 3431 
Q 1906 3584 2284 3584 
Q 2666 3584 2933 3390 
Q 3200 3197 3328 2828 
z
" transform="scale(0.015625)"/>
       <path id="DejaVuSans-20" transform="scale(0.015625)"/>
       <path id="DejaVuSans-2e" d="M 684 794 
L 1344 794 
L 1344 0 
L 684 0 
L 684 794 
z
" transform="scale(0.015625)"/>
       <path id="DejaVuSans-67" d="M 2906 1791 
Q 2906 2416 2648 2759 
Q 2391 3103 1925 3103 
Q 1463 3103 1205 2759 
Q 947 2416 947 1791 
Q 947 1169 1205 825 
Q 1463 481 1925 481 
Q 2391 481 2648 825 
Q 2906 1169 2906 1791 
z
M 3481 434 
Q 3481 -459 3084 -895 
Q 2688 -1331 1869 -1331 
Q 1566 -1331 1297 -1286 
Q 1028 -1241 775 -1147 
L 775 -588 
Q 1028 -725 1275 -790 
Q 1522 -856 1778 -856 
Q 2344 -856 2625 -561 
Q 2906 -266 2906 331 
L 2906 616 
Q 2728 306 2450 153 
Q 2172 0 1784 0 
Q 1141 0 747 490 
Q 353 981 353 1791 
Q 353 2603 747 3093 
Q 1141 3584 1784 3584 
Q 2172 3584 2450 3431 
Q 2728 3278 2906 2969 
L 2906 3500 
L 3481 3500 
L 3481 434 
z
" transform="scale(0.015625)"/>
       <path id="DejaVuSans-74" d="M 1172 4494 
L 1172 3500 
L 2356 3500 
L 2356 3053 
L 1172 3053 
L 1172 1153 
Q 1172 725 1289 603 
Q 1406 481 1766 481 
L 2356 481 
L 2356 0 
L 1766 0 
Q 1100 0 847 248 
Q 594 497 594 1153 
L 594 3053 
L 172 3053 
L 172 3500 
L 594 3500 
L 594 4494 
L 1172 4494 
z
" transform="scale(0.015625)"/>
       <path id="DejaVuSans-72" d="M 2631 2963 
Q 2534 3019 2420 3045 
Q 2306 3072 2169 3072 
Q 1681 3072 1420 2755 
Q 1159 2438 1159 1844 
L 1159 0 
L 581 0 
L 581 3500 
L 1159 3500 
L 1159 2956 
Q 1341 3275 1631 3429 
Q 1922 3584 2338 3584 
Q 2397 3584 2469 3576 
Q 2541 3569 2628 3553 
L 2631 2963 
z
" transform="scale(0.015625)"/>
       <path id="DejaVuSans-28" d="M 1984 4856 
Q 1566 4138 1362 3434 
Q 1159 2731 1159 2009 
Q 1159 1288 1364 580 
Q 1569 -128 1984 -844 
L 1484 -844 
Q 1016 -109 783 600 
Q 550 1309 550 2009 
Q 550 2706 781 3412 
Q 1013 4119 1484 4856 
L 1984 4856 
z
" transform="scale(0.015625)"/>
       <path id="DejaVuSans-4d" d="M 628 4666 
L 1569 4666 
L 2759 1491 
L 3956 4666 
L 4897 4666 
L 4897 0 
L 4281 0 
L 4281 4097 
L 3078 897 
L 2444 897 
L 1241 4097 
L 1241 0 
L 628 0 
L 628 4666 
z
" transform="scale(0.015625)"/>
       <path id="DejaVuSans-41" d="M 2188 4044 
L 1331 1722 
L 3047 1722 
L 2188 4044 
z
M 1831 4666 
L 2547 4666 
L 4325 0 
L 3669 0 
L 3244 1197 
L 1141 1197 
L 716 0 
L 50 0 
L 1831 4666 
z
" transform="scale(0.015625)"/>
       <path id="DejaVuSans-44" d="M 1259 4147 
L 1259 519 
L 2022 519 
Q 2988 519 3436 956 
Q 3884 1394 3884 2338 
Q 3884 3275 3436 3711 
Q 2988 4147 2022 4147 
L 1259 4147 
z
M 628 4666 
L 1925 4666 
Q 3281 4666 3915 4102 
Q 4550 3538 4550 2338 
Q 4550 1131 3912 565 
Q 3275 0 1925 0 
L 628 0 
L 628 4666 
z
" transform="scale(0.015625)"/>
       <path id="DejaVuSans-29" d="M 513 4856 
L 1013 4856 
Q 1481 4119 1714 3412 
Q 1947 2706 1947 2009 
Q 1947 1309 1714 600 
Q 1481 -109 1013 -844 
L 513 -844 
Q 928 -128 1133 580 
Q 1338 1288 1338 2009 
Q 1338 2731 1133 3434 
Q 928 4138 513 4856 
z
" transform="scale(0.015625)"/>
      </defs>
      <use xlink:href="#DejaVuSans-53"/>
      <use xlink:href="#DejaVuSans-69" x="63.476562"/>
      <use xlink:href="#DejaVuSans-6d" x="91.259766"/>
      <use xlink:href="#DejaVuSans-20" x="188.671875"/>
      <use xlink:href="#DejaVuSans-30" x="220.458984"/>
      <use xlink:href="#DejaVuSans-2e" x="284.082031"/>
      <use xlink:href="#DejaVuSans-35" x="315.869141"/>
      <use xlink:href="#DejaVuSans-20" x="379.492188"/>
      <use xlink:href="#DejaVuSans-6d" x="411.279297"/>
      <use xlink:href="#DejaVuSans-67" x="508.691406"/>
      <use xlink:href="#DejaVuSans-20" x="572.167969"/>
      <use xlink:href="#DejaVuSans-74" x="603.955078"/>
      <use xlink:href="#DejaVuSans-69" x="643.164062"/>
      <use xlink:href="#DejaVuSans-72" x="670.947266"/>
      <use xlink:href="#DejaVuSans-20" x="712.060547"/>
      <use xlink:href="#DejaVuSans-28" x="743.847656"/>
      <use xlink:href="#DejaVuSans-4d" x="782.861328"/>
      <use xlink:href="#DejaVuSans-41" x="869.140625"/>
      <use xlink:href="#DejaVuSans-44" x="937.548828"/>
      <use xlink:href="#DejaVuSans-29" x="1014.550781"/>
     </g>
    </g>
    <g id="LineCollection_5">
     <path d="M 270.625313 75.976562 
L 270.625313 65.976562 
" style="fill: none; stroke: #daa520"/>
    </g>
    <g id="line2d_26">
     <path d="M 260.625313 70.976562 
L 280.625313 70.976562 
" style="fill: none; stroke-dasharray: 3.7,1.6; stroke-dashoffset: 0; stroke: #daa520"/>
    </g>
    <g id="line2d_27">
     <g>
      <use xlink:href="#me5bc537c10" x="270.625313" y="70.976562" style="fill: #daa520; stroke: #000000; stroke-linejoin: miter"/>
     </g>
    </g>
    <g id="text_19">
     <!-- Data 0.5 mg (MAD)±SD (n=33) -->
     <g transform="translate(288.625313 74.476562) scale(0.1 -0.1)">
      <defs>
       <path id="DejaVuSans-61" d="M 2194 1759 
Q 1497 1759 1228 1600 
Q 959 1441 959 1056 
Q 959 750 1161 570 
Q 1363 391 1709 391 
Q 2188 391 2477 730 
Q 2766 1069 2766 1631 
L 2766 1759 
L 2194 1759 
z
M 3341 1997 
L 3341 0 
L 2766 0 
L 2766 531 
Q 2569 213 2275 61 
Q 1981 -91 1556 -91 
Q 1019 -91 701 211 
Q 384 513 384 1019 
Q 384 1609 779 1909 
Q 1175 2209 1959 2209 
L 2766 2209 
L 2766 2266 
Q 2766 2663 2505 2880 
Q 2244 3097 1772 3097 
Q 1472 3097 1187 3025 
Q 903 2953 641 2809 
L 641 3341 
Q 956 3463 1253 3523 
Q 1550 3584 1831 3584 
Q 2591 3584 2966 3190 
Q 3341 2797 3341 1997 
z
" transform="scale(0.015625)"/>
       <path id="DejaVuSans-b1" d="M 2944 4013 
L 2944 2803 
L 4684 2803 
L 4684 2272 
L 2944 2272 
L 2944 1063 
L 2419 1063 
L 2419 2272 
L 678 2272 
L 678 2803 
L 2419 2803 
L 2419 4013 
L 2944 4013 
z
M 678 531 
L 4684 531 
L 4684 0 
L 678 0 
L 678 531 
z
" transform="scale(0.015625)"/>
       <path id="DejaVuSans-6e" d="M 3513 2113 
L 3513 0 
L 2938 0 
L 2938 2094 
Q 2938 2591 2744 2837 
Q 2550 3084 2163 3084 
Q 1697 3084 1428 2787 
Q 1159 2491 1159 1978 
L 1159 0 
L 581 0 
L 581 3500 
L 1159 3500 
L 1159 2956 
Q 1366 3272 1645 3428 
Q 1925 3584 2291 3584 
Q 2894 3584 3203 3211 
Q 3513 2838 3513 2113 
z
" transform="scale(0.015625)"/>
       <path id="DejaVuSans-3d" d="M 678 2906 
L 4684 2906 
L 4684 2381 
L 678 2381 
L 678 2906 
z
M 678 1631 
L 4684 1631 
L 4684 1100 
L 678 1100 
L 678 1631 
z
" transform="scale(0.015625)"/>
      </defs>
      <use xlink:href="#DejaVuSans-44"/>
      <use xlink:href="#DejaVuSans-61" x="77.001953"/>
      <use xlink:href="#DejaVuSans-74" x="138.28125"/>
      <use xlink:href="#DejaVuSans-61" x="177.490234"/>
      <use xlink:href="#DejaVuSans-20" x="238.769531"/>
      <use xlink:href="#DejaVuSans-30" x="270.556641"/>
      <use xlink:href="#DejaVuSans-2e" x="334.179688"/>
      <use xlink:href="#DejaVuSans-35" x="365.966797"/>
      <use xlink:href="#DejaVuSans-20" x="429.589844"/>
      <use xlink:href="#DejaVuSans-6d" x="461.376953"/>
      <use xlink:href="#DejaVuSans-67" x="558.789062"/>
      <use xlink:href="#DejaVuSans-20" x="622.265625"/>
      <use xlink:href="#DejaVuSans-28" x="654.052734"/>
      <use xlink:href="#DejaVuSans-4d" x="693.066406"/>
      <use xlink:href="#DejaVuSans-41" x="779.345703"/>
      <use xlink:href="#DejaVuSans-44" x="847.753906"/>
      <use xlink:href="#DejaVuSans-29" x="924.755859"/>
      <use xlink:href="#DejaVuSans-b1" x="963.769531"/>
      <use xlink:href="#DejaVuSans-53" x="1047.558594"/>
      <use xlink:href="#DejaVuSans-44" x="1111.035156"/>
      <use xlink:href="#DejaVuSans-20" x="1188.037109"/>
      <use xlink:href="#DejaVuSans-28" x="1219.824219"/>
      <use xlink:href="#DejaVuSans-6e" x="1258.837891"/>
      <use xlink:href="#DejaVuSans-3d" x="1322.216797"/>
      <use xlink:href="#DejaVuSans-33" x="1406.005859"/>
      <use xlink:href="#DejaVuSans-33" x="1469.628906"/>
      <use xlink:href="#DejaVuSans-29" x="1533.251953"/>
     </g>
    </g>
    <g id="line2d_28">
     <path d="M 260.625313 85.654687 
L 280.625313 85.654687 
" style="fill: none; stroke: #ff8c00; stroke-width: 2; stroke-linecap: square"/>
    </g>
    <g id="line2d_29"/>
    <g id="text_20">
     <!-- Sim 1.5 mg tir (MAD) -->
     <g transform="translate(288.625313 89.154687) scale(0.1 -0.1)">
      <use xlink:href="#DejaVuSans-53"/>
      <use xlink:href="#DejaVuSans-69" x="63.476562"/>
      <use xlink:href="#DejaVuSans-6d" x="91.259766"/>
      <use xlink:href="#DejaVuSans-20" x="188.671875"/>
      <use xlink:href="#DejaVuSans-31" x="220.458984"/>
      <use xlink:href="#DejaVuSans-2e" x="284.082031"/>
      <use xlink:href="#DejaVuSans-35" x="315.869141"/>
      <use xlink:href="#DejaVuSans-20" x="379.492188"/>
      <use xlink:href="#DejaVuSans-6d" x="411.279297"/>
      <use xlink:href="#DejaVuSans-67" x="508.691406"/>
      <use xlink:href="#DejaVuSans-20" x="572.167969"/>
      <use xlink:href="#DejaVuSans-74" x="603.955078"/>
      <use xlink:href="#DejaVuSans-69" x="643.164062"/>
      <use xlink:href="#DejaVuSans-72" x="670.947266"/>
      <use xlink:href="#DejaVuSans-20" x="712.060547"/>
      <use xlink:href="#DejaVuSans-28" x="743.847656"/>
      <use xlink:href="#DejaVuSans-4d" x="782.861328"/>
      <use xlink:href="#DejaVuSans-41" x="869.140625"/>
      <use xlink:href="#DejaVuSans-44" x="937.548828"/>
      <use xlink:href="#DejaVuSans-29" x="1014.550781"/>
     </g>
    </g>
    <g id="LineCollection_6">
     <path d="M 270.625313 105.332812 
L 270.625313 95.332812 
" style="fill: none; stroke: #ff8c00"/>
    </g>
    <g id="line2d_30">
     <path d="M 260.625313 100.332812 
L 280.625313 100.332812 
" style="fill: none; stroke-dasharray: 3.7,1.6; stroke-dashoffset: 0; stroke: #ff8c00"/>
    </g>
    <g id="line2d_31">
     <g>
      <use xlink:href="#m8f4f4a3fc1" x="270.625313" y="100.332812" style="fill: #ff8c00; stroke: #000000; stroke-linejoin: miter"/>
     </g>
    </g>
    <g id="text_21">
     <!-- Data 1.5 mg (MAD)±SD (n=33) -->
     <g transform="translate(288.625313 103.832812) scale(0.1 -0.1)">
      <use xlink:href="#DejaVuSans-44"/>
      <use xlink:href="#DejaVuSans-61" x="77.001953"/>
      <use xlink:href="#DejaVuSans-74" x="138.28125"/>
      <use xlink:href="#DejaVuSans-61" x="177.490234"/>
      <use xlink:href="#DejaVuSans-20" x="238.769531"/>
      <use xlink:href="#DejaVuSans-31" x="270.556641"/>
      <use xlink:href="#DejaVuSans-2e" x="334.179688"/>
      <use xlink:href="#DejaVuSans-35" x="365.966797"/>
      <use xlink:href="#DejaVuSans-20" x="429.589844"/>
      <use xlink:href="#DejaVuSans-6d" x="461.376953"/>
      <use xlink:href="#DejaVuSans-67" x="558.789062"/>
      <use xlink:href="#DejaVuSans-20" x="622.265625"/>
      <use xlink:href="#DejaVuSans-28" x="654.052734"/>
      <use xlink:href="#DejaVuSans-4d" x="693.066406"/>
      <use xlink:href="#DejaVuSans-41" x="779.345703"/>
      <use xlink:href="#DejaVuSans-44" x="847.753906"/>
      <use xlink:href="#DejaVuSans-29" x="924.755859"/>
      <use xlink:href="#DejaVuSans-b1" x="963.769531"/>
      <use xlink:href="#DejaVuSans-53" x="1047.558594"/>
      <use xlink:href="#DejaVuSans-44" x="1111.035156"/>
      <use xlink:href="#DejaVuSans-20" x="1188.037109"/>
      <use xlink:href="#DejaVuSans-28" x="1219.824219"/>
      <use xlink:href="#DejaVuSans-6e" x="1258.837891"/>
      <use xlink:href="#DejaVuSans-3d" x="1322.216797"/>
      <use xlink:href="#DejaVuSans-33" x="1406.005859"/>
      <use xlink:href="#DejaVuSans-33" x="1469.628906"/>
      <use xlink:href="#DejaVuSans-29" x="1533.251953"/>
     </g>
    </g>
    <g id="line2d_32">
     <path d="M 260.625313 115.010937 
L 280.625313 115.010937 
" style="fill: none; stroke: #800080; stroke-width: 2; stroke-linecap: square"/>
    </g>
    <g id="line2d_33"/>
    <g id="text_22">
     <!-- Sim 4.5 mg tir (MAD) -->
     <g transform="translate(288.625313 118.510937) scale(0.1 -0.1)">
      <use xlink:href="#DejaVuSans-53"/>
      <use xlink:href="#DejaVuSans-69" x="63.476562"/>
      <use xlink:href="#DejaVuSans-6d" x="91.259766"/>
      <use xlink:href="#DejaVuSans-20" x="188.671875"/>
      <use xlink:href="#DejaVuSans-34" x="220.458984"/>
      <use xlink:href="#DejaVuSans-2e" x="284.082031"/>
      <use xlink:href="#DejaVuSans-35" x="315.869141"/>
      <use xlink:href="#DejaVuSans-20" x="379.492188"/>
      <use xlink:href="#DejaVuSans-6d" x="411.279297"/>
      <use xlink:href="#DejaVuSans-67" x="508.691406"/>
      <use xlink:href="#DejaVuSans-20" x="572.167969"/>
      <use xlink:href="#DejaVuSans-74" x="603.955078"/>
      <use xlink:href="#DejaVuSans-69" x="643.164062"/>
      <use xlink:href="#DejaVuSans-72" x="670.947266"/>
      <use xlink:href="#DejaVuSans-20" x="712.060547"/>
      <use xlink:href="#DejaVuSans-28" x="743.847656"/>
      <use xlink:href="#DejaVuSans-4d" x="782.861328"/>
      <use xlink:href="#DejaVuSans-41" x="869.140625"/>
      <use xlink:href="#DejaVuSans-44" x="937.548828"/>
      <use xlink:href="#DejaVuSans-29" x="1014.550781"/>
     </g>
    </g>
    <g id="LineCollection_7">
     <path d="M 270.625313 134.689062 
L 270.625313 124.689062 
" style="fill: none; stroke: #800080"/>
    </g>
    <g id="line2d_34">
     <path d="M 260.625313 129.689062 
L 280.625313 129.689062 
" style="fill: none; stroke-dasharray: 3.7,1.6; stroke-dashoffset: 0; stroke: #800080"/>
    </g>
    <g id="line2d_35">
     <g>
      <use xlink:href="#m8c06deb895" x="270.625313" y="129.689062" style="fill: #800080; stroke: #000000; stroke-linejoin: miter"/>
     </g>
    </g>
    <g id="text_23">
     <!-- Data 4.5 mg (MAD)±SD (n=33) -->
     <g transform="translate(288.625313 133.189062) scale(0.1 -0.1)">
      <use xlink:href="#DejaVuSans-44"/>
      <use xlink:href="#DejaVuSans-61" x="77.001953"/>
      <use xlink:href="#DejaVuSans-74" x="138.28125"/>
      <use xlink:href="#DejaVuSans-61" x="177.490234"/>
      <use xlink:href="#DejaVuSans-20" x="238.769531"/>
      <use xlink:href="#DejaVuSans-34" x="270.556641"/>
      <use xlink:href="#DejaVuSans-2e" x="334.179688"/>
      <use xlink:href="#DejaVuSans-35" x="365.966797"/>
      <use xlink:href="#DejaVuSans-20" x="429.589844"/>
      <use xlink:href="#DejaVuSans-6d" x="461.376953"/>
      <use xlink:href="#DejaVuSans-67" x="558.789062"/>
      <use xlink:href="#DejaVuSans-20" x="622.265625"/>
      <use xlink:href="#DejaVuSans-28" x="654.052734"/>
      <use xlink:href="#DejaVuSans-4d" x="693.066406"/>
      <use xlink:href="#DejaVuSans-41" x="779.345703"/>
      <use xlink:href="#DejaVuSans-44" x="847.753906"/>
      <use xlink:href="#DejaVuSans-29" x="924.755859"/>
      <use xlink:href="#DejaVuSans-b1" x="963.769531"/>
      <use xlink:href="#DejaVuSans-53" x="1047.558594"/>
      <use xlink:href="#DejaVuSans-44" x="1111.035156"/>
      <use xlink:href="#DejaVuSans-20" x="1188.037109"/>
      <use xlink:href="#DejaVuSans-28" x="1219.824219"/>
      <use xlink:href="#DejaVuSans-6e" x="1258.837891"/>
      <use xlink:href="#DejaVuSans-3d" x="1322.216797"/>
      <use xlink:href="#DejaVuSans-33" x="1406.005859"/>
      <use xlink:href="#DejaVuSans-33" x="1469.628906"/>
      <use xlink:href="#DejaVuSans-29" x="1533.251953"/>
     </g>
    </g>
    <g id="line2d_36">
     <path d="M 260.625313 144.367187 
L 280.625313 144.367187 
" style="fill: none; stroke: #00bfff; stroke-width: 2; stroke-linecap: square"/>
    </g>
    <g id="line2d_37"/>
    <g id="text_24">
     <!-- Sim 10 mg tir (MAD) -->
     <g transform="translate(288.625313 147.867187) scale(0.1 -0.1)">
      <use xlink:href="#DejaVuSans-53"/>
      <use xlink:href="#DejaVuSans-69" x="63.476562"/>
      <use xlink:href="#DejaVuSans-6d" x="91.259766"/>
      <use xlink:href="#DejaVuSans-20" x="188.671875"/>
      <use xlink:href="#DejaVuSans-31" x="220.458984"/>
      <use xlink:href="#DejaVuSans-30" x="284.082031"/>
      <use xlink:href="#DejaVuSans-20" x="347.705078"/>
      <use xlink:href="#DejaVuSans-6d" x="379.492188"/>
      <use xlink:href="#DejaVuSans-67" x="476.904297"/>
      <use xlink:href="#DejaVuSans-20" x="540.380859"/>
      <use xlink:href="#DejaVuSans-74" x="572.167969"/>
      <use xlink:href="#DejaVuSans-69" x="611.376953"/>
      <use xlink:href="#DejaVuSans-72" x="639.160156"/>
      <use xlink:href="#DejaVuSans-20" x="680.273438"/>
      <use xlink:href="#DejaVuSans-28" x="712.060547"/>
      <use xlink:href="#DejaVuSans-4d" x="751.074219"/>
      <use xlink:href="#DejaVuSans-41" x="837.353516"/>
      <use xlink:href="#DejaVuSans-44" x="905.761719"/>
      <use xlink:href="#DejaVuSans-29" x="982.763672"/>
     </g>
    </g>
    <g id="LineCollection_8">
     <path d="M 270.625313 164.045312 
L 270.625313 154.045312 
" style="fill: none; stroke: #00bfff"/>
    </g>
    <g id="line2d_38">
     <path d="M 260.625313 159.045312 
L 280.625313 159.045312 
" style="fill: none; stroke-dasharray: 3.7,1.6; stroke-dashoffset: 0; stroke: #00bfff"/>
    </g>
    <g id="line2d_39">
     <g>
      <use xlink:href="#ma8c8c4aa5a" x="270.625313" y="159.045312" style="fill: #00bfff; stroke: #000000; stroke-linejoin: miter"/>
     </g>
    </g>
    <g id="text_25">
     <!-- Data 10 mg (MAD)±SD (n=33) -->
     <g transform="translate(288.625313 162.545312) scale(0.1 -0.1)">
      <use xlink:href="#DejaVuSans-44"/>
      <use xlink:href="#DejaVuSans-61" x="77.001953"/>
      <use xlink:href="#DejaVuSans-74" x="138.28125"/>
      <use xlink:href="#DejaVuSans-61" x="177.490234"/>
      <use xlink:href="#DejaVuSans-20" x="238.769531"/>
      <use xlink:href="#DejaVuSans-31" x="270.556641"/>
      <use xlink:href="#DejaVuSans-30" x="334.179688"/>
      <use xlink:href="#DejaVuSans-20" x="397.802734"/>
      <use xlink:href="#DejaVuSans-6d" x="429.589844"/>
      <use xlink:href="#DejaVuSans-67" x="527.001953"/>
      <use xlink:href="#DejaVuSans-20" x="590.478516"/>
      <use xlink:href="#DejaVuSans-28" x="622.265625"/>
      <use xlink:href="#DejaVuSans-4d" x="661.279297"/>
      <use xlink:href="#DejaVuSans-41" x="747.558594"/>
      <use xlink:href="#DejaVuSans-44" x="815.966797"/>
      <use xlink:href="#DejaVuSans-29" x="892.96875"/>
      <use xlink:href="#DejaVuSans-b1" x="931.982422"/>
      <use xlink:href="#DejaVuSans-53" x="1015.771484"/>
      <use xlink:href="#DejaVuSans-44" x="1079.248047"/>
      <use xlink:href="#DejaVuSans-20" x="1156.25"/>
      <use xlink:href="#DejaVuSans-28" x="1188.037109"/>
      <use xlink:href="#DejaVuSans-6e" x="1227.050781"/>
      <use xlink:href="#DejaVuSans-3d" x="1290.429688"/>
      <use xlink:href="#DejaVuSans-33" x="1374.21875"/>
      <use xlink:href="#DejaVuSans-33" x="1437.841797"/>
      <use xlink:href="#DejaVuSans-29" x="1501.464844"/>
     </g>
    </g>
   </g>
  </g>
  <g id="text_26">
   <!-- Coskun2018 (MAD) -->
   <g transform="translate(118.884688 26.196094) scale(0.25 -0.25)">
    <defs>
     <path id="DejaVuSans-Bold-43" d="M 4288 256 
Q 3956 84 3597 -3 
Q 3238 -91 2847 -91 
Q 1681 -91 1000 561 
Q 319 1213 319 2328 
Q 319 3447 1000 4098 
Q 1681 4750 2847 4750 
Q 3238 4750 3597 4662 
Q 3956 4575 4288 4403 
L 4288 3438 
Q 3953 3666 3628 3772 
Q 3303 3878 2944 3878 
Q 2300 3878 1931 3465 
Q 1563 3053 1563 2328 
Q 1563 1606 1931 1193 
Q 2300 781 2944 781 
Q 3303 781 3628 887 
Q 3953 994 4288 1222 
L 4288 256 
z
" transform="scale(0.015625)"/>
     <path id="DejaVuSans-Bold-6f" d="M 2203 2784 
Q 1831 2784 1636 2517 
Q 1441 2250 1441 1747 
Q 1441 1244 1636 976 
Q 1831 709 2203 709 
Q 2569 709 2762 976 
Q 2956 1244 2956 1747 
Q 2956 2250 2762 2517 
Q 2569 2784 2203 2784 
z
M 2203 3584 
Q 3106 3584 3614 3096 
Q 4122 2609 4122 1747 
Q 4122 884 3614 396 
Q 3106 -91 2203 -91 
Q 1297 -91 786 396 
Q 275 884 275 1747 
Q 275 2609 786 3096 
Q 1297 3584 2203 3584 
z
" transform="scale(0.015625)"/>
     <path id="DejaVuSans-Bold-73" d="M 3272 3391 
L 3272 2541 
Q 2913 2691 2578 2766 
Q 2244 2841 1947 2841 
Q 1628 2841 1473 2761 
Q 1319 2681 1319 2516 
Q 1319 2381 1436 2309 
Q 1553 2238 1856 2203 
L 2053 2175 
Q 2913 2066 3209 1816 
Q 3506 1566 3506 1031 
Q 3506 472 3093 190 
Q 2681 -91 1863 -91 
Q 1516 -91 1145 -36 
Q 775 19 384 128 
L 384 978 
Q 719 816 1070 734 
Q 1422 653 1784 653 
Q 2113 653 2278 743 
Q 2444 834 2444 1013 
Q 2444 1163 2330 1236 
Q 2216 1309 1875 1350 
L 1678 1375 
Q 931 1469 631 1722 
Q 331 1975 331 2491 
Q 331 3047 712 3315 
Q 1094 3584 1881 3584 
Q 2191 3584 2531 3537 
Q 2872 3491 3272 3391 
z
" transform="scale(0.015625)"/>
     <path id="DejaVuSans-Bold-75" d="M 500 1363 
L 500 3500 
L 1625 3500 
L 1625 3150 
Q 1625 2866 1622 2436 
Q 1619 2006 1619 1863 
Q 1619 1441 1641 1255 
Q 1663 1069 1716 984 
Q 1784 875 1895 815 
Q 2006 756 2150 756 
Q 2500 756 2700 1025 
Q 2900 1294 2900 1772 
L 2900 3500 
L 4019 3500 
L 4019 0 
L 2900 0 
L 2900 506 
Q 2647 200 2364 54 
Q 2081 -91 1741 -91 
Q 1134 -91 817 281 
Q 500 653 500 1363 
z
" transform="scale(0.015625)"/>
     <path id="DejaVuSans-Bold-32" d="M 1844 884 
L 3897 884 
L 3897 0 
L 506 0 
L 506 884 
L 2209 2388 
Q 2438 2594 2547 2791 
Q 2656 2988 2656 3200 
Q 2656 3528 2436 3728 
Q 2216 3928 1850 3928 
Q 1569 3928 1234 3808 
Q 900 3688 519 3450 
L 519 4475 
Q 925 4609 1322 4679 
Q 1719 4750 2100 4750 
Q 2938 4750 3402 4381 
Q 3866 4013 3866 3353 
Q 3866 2972 3669 2642 
Q 3472 2313 2841 1759 
L 1844 884 
z
" transform="scale(0.015625)"/>
     <path id="DejaVuSans-Bold-30" d="M 2944 2338 
Q 2944 3213 2780 3570 
Q 2616 3928 2228 3928 
Q 1841 3928 1675 3570 
Q 1509 3213 1509 2338 
Q 1509 1453 1675 1090 
Q 1841 728 2228 728 
Q 2613 728 2778 1090 
Q 2944 1453 2944 2338 
z
M 4147 2328 
Q 4147 1169 3647 539 
Q 3147 -91 2228 -91 
Q 1306 -91 806 539 
Q 306 1169 306 2328 
Q 306 3491 806 4120 
Q 1306 4750 2228 4750 
Q 3147 4750 3647 4120 
Q 4147 3491 4147 2328 
z
" transform="scale(0.015625)"/>
     <path id="DejaVuSans-Bold-31" d="M 750 831 
L 1813 831 
L 1813 3847 
L 722 3622 
L 722 4441 
L 1806 4666 
L 2950 4666 
L 2950 831 
L 4013 831 
L 4013 0 
L 750 0 
L 750 831 
z
" transform="scale(0.015625)"/>
     <path id="DejaVuSans-Bold-38" d="M 2228 2088 
Q 1891 2088 1709 1903 
Q 1528 1719 1528 1375 
Q 1528 1031 1709 848 
Q 1891 666 2228 666 
Q 2563 666 2741 848 
Q 2919 1031 2919 1375 
Q 2919 1722 2741 1905 
Q 2563 2088 2228 2088 
z
M 1350 2484 
Q 925 2613 709 2878 
Q 494 3144 494 3541 
Q 494 4131 934 4440 
Q 1375 4750 2228 4750 
Q 3075 4750 3515 4442 
Q 3956 4134 3956 3541 
Q 3956 3144 3739 2878 
Q 3522 2613 3097 2484 
Q 3572 2353 3814 2058 
Q 4056 1763 4056 1313 
Q 4056 619 3595 264 
Q 3134 -91 2228 -91 
Q 1319 -91 855 264 
Q 391 619 391 1313 
Q 391 1763 633 2058 
Q 875 2353 1350 2484 
z
M 1631 3419 
Q 1631 3141 1786 2991 
Q 1941 2841 2228 2841 
Q 2509 2841 2662 2991 
Q 2816 3141 2816 3419 
Q 2816 3697 2662 3845 
Q 2509 3994 2228 3994 
Q 1941 3994 1786 3844 
Q 1631 3694 1631 3419 
z
" transform="scale(0.015625)"/>
     <path id="DejaVuSans-Bold-28" d="M 2413 -844 
L 1484 -844 
Q 1006 -72 778 623 
Q 550 1319 550 2003 
Q 550 2688 779 3389 
Q 1009 4091 1484 4856 
L 2413 4856 
Q 2013 4116 1813 3408 
Q 1613 2700 1613 2009 
Q 1613 1319 1811 609 
Q 2009 -100 2413 -844 
z
" transform="scale(0.015625)"/>
     <path id="DejaVuSans-Bold-41" d="M 3419 850 
L 1538 850 
L 1241 0 
L 31 0 
L 1759 4666 
L 3194 4666 
L 4922 0 
L 3713 0 
L 3419 850 
z
M 1838 1716 
L 3116 1716 
L 2478 3572 
L 1838 1716 
z
" transform="scale(0.015625)"/>
     <path id="DejaVuSans-Bold-44" d="M 1791 3756 
L 1791 909 
L 2222 909 
Q 2959 909 3348 1275 
Q 3738 1641 3738 2338 
Q 3738 3031 3350 3393 
Q 2963 3756 2222 3756 
L 1791 3756 
z
M 588 4666 
L 1856 4666 
Q 2919 4666 3439 4514 
Q 3959 4363 4331 4000 
Q 4659 3684 4818 3271 
Q 4978 2859 4978 2338 
Q 4978 1809 4818 1395 
Q 4659 981 4331 666 
Q 3956 303 3431 151 
Q 2906 0 1856 0 
L 588 0 
L 588 4666 
z
" transform="scale(0.015625)"/>
     <path id="DejaVuSans-Bold-29" d="M 513 -844 
Q 913 -100 1113 609 
Q 1313 1319 1313 2009 
Q 1313 2700 1113 3408 
Q 913 4116 513 4856 
L 1441 4856 
Q 1916 4091 2145 3389 
Q 2375 2688 2375 2003 
Q 2375 1319 2147 623 
Q 1919 -72 1441 -844 
L 513 -844 
z
" transform="scale(0.015625)"/>
    </defs>
    <use xlink:href="#DejaVuSans-Bold-43"/>
    <use xlink:href="#DejaVuSans-Bold-6f" x="73.388672"/>
    <use xlink:href="#DejaVuSans-Bold-73" x="142.089844"/>
    <use xlink:href="#DejaVuSans-Bold-6b" x="201.611328"/>
    <use xlink:href="#DejaVuSans-Bold-75" x="268.115234"/>
    <use xlink:href="#DejaVuSans-Bold-6e" x="339.306641"/>
    <use xlink:href="#DejaVuSans-Bold-32" x="410.498047"/>
    <use xlink:href="#DejaVuSans-Bold-30" x="480.078125"/>
    <use xlink:href="#DejaVuSans-Bold-31" x="549.658203"/>
    <use xlink:href="#DejaVuSans-Bold-38" x="619.238281"/>
    <use xlink:href="#DejaVuSans-Bold-20" x="688.818359"/>
    <use xlink:href="#DejaVuSans-Bold-28" x="723.632812"/>
    <use xlink:href="#DejaVuSans-Bold-4d" x="769.335938"/>
    <use xlink:href="#DejaVuSans-Bold-41" x="868.847656"/>
    <use xlink:href="#DejaVuSans-Bold-44" x="946.240234"/>
    <use xlink:href="#DejaVuSans-Bold-29" x="1029.248047"/>
   </g>
  </g>
 </g>
 <defs>
  <clipPath id="p645bdee268">
   <rect x="64.251875" y="43.2" width="390.6" height="277.2"/>
  </clipPath>
 </defs>
</svg>
