<?xml version="1.0" encoding="utf-8" standalone="no"?>
<!DOCTYPE svg PUBLIC "-//W3C//DTD SVG 1.1//EN"
  "http://www.w3.org/Graphics/SVG/1.1/DTD/svg11.dtd">
<svg xmlns:xlink="http://www.w3.org/1999/xlink" width="466.82375pt" height="370.537812pt" viewBox="0 0 466.82375 370.537812" xmlns="http://www.w3.org/2000/svg" version="1.1">
 <metadata>
  <rdf:RDF xmlns:dc="http://purl.org/dc/elements/1.1/" xmlns:cc="http://creativecommons.org/ns#" xmlns:rdf="http://www.w3.org/1999/02/22-rdf-syntax-ns#">
   <cc:Work>
    <dc:type rdf:resource="http://purl.org/dc/dcmitype/StillImage"/>
    <dc:date>2025-03-07T00:13:13.107197</dc:date>
    <dc:format>image/svg+xml</dc:format>
    <dc:creator>
     <cc:Agent>
      <dc:title>Matplotlib v3.9.1, https://matplotlib.org/</dc:title>
     </cc:Agent>
    </dc:creator>
   </cc:Work>
  </rdf:RDF>
 </metadata>
 <defs>
  <style type="text/css">*{stroke-linejoin: round; stroke-linecap: butt}</style>
 </defs>
 <g id="figure_1">
  <g id="patch_1">
   <path d="M 0 370.537812 
L 466.82375 370.537812 
L 466.82375 0 
L 0 0 
z
" style="fill: #ffffff"/>
  </g>
  <g id="axes_1">
   <g id="patch_2">
    <path d="M 64.251875 320.4 
L 454.851875 320.4 
L 454.851875 43.2 
L 64.251875 43.2 
z
" style="fill: #ffffff"/>
   </g>
   <g id="matplotlib.axis_1">
    <g id="xtick_1">
     <g id="line2d_1">
      <defs>
       <path id="mb05b05ea19" d="M 0 0 
L 0 3.5 
" style="stroke: #000000; stroke-width: 0.8"/>
      </defs>
      <g>
       <use xlink:href="#mb05b05ea19" x="94.298029" y="320.4" style="stroke: #000000; stroke-width: 0.8"/>
      </g>
     </g>
     <g id="text_1">
      <!-- 0 -->
      <g transform="translate(89.526154 338.797656) scale(0.15 -0.15)">
       <defs>
        <path id="DejaVuSans-30" d="M 2034 4250 
Q 1547 4250 1301 3770 
Q 1056 3291 1056 2328 
Q 1056 1369 1301 889 
Q 1547 409 2034 409 
Q 2525 409 2770 889 
Q 3016 1369 3016 2328 
Q 3016 3291 2770 3770 
Q 2525 4250 2034 4250 
z
M 2034 4750 
Q 2819 4750 3233 4129 
Q 3647 3509 3647 2328 
Q 3647 1150 3233 529 
Q 2819 -91 2034 -91 
Q 1250 -91 836 529 
Q 422 1150 422 2328 
Q 422 3509 836 4129 
Q 1250 4750 2034 4750 
z
" transform="scale(0.015625)"/>
       </defs>
       <use xlink:href="#DejaVuSans-30"/>
      </g>
     </g>
    </g>
    <g id="xtick_2">
     <g id="line2d_2">
      <g>
       <use xlink:href="#mb05b05ea19" x="154.390337" y="320.4" style="stroke: #000000; stroke-width: 0.8"/>
      </g>
     </g>
     <g id="text_2">
      <!-- 1 -->
      <g transform="translate(149.618462 338.797656) scale(0.15 -0.15)">
       <defs>
        <path id="DejaVuSans-31" d="M 794 531 
L 1825 531 
L 1825 4091 
L 703 3866 
L 703 4441 
L 1819 4666 
L 2450 4666 
L 2450 531 
L 3481 531 
L 3481 0 
L 794 0 
L 794 531 
z
" transform="scale(0.015625)"/>
       </defs>
       <use xlink:href="#DejaVuSans-31"/>
      </g>
     </g>
    </g>
    <g id="xtick_3">
     <g id="line2d_3">
      <g>
       <use xlink:href="#mb05b05ea19" x="214.482644" y="320.4" style="stroke: #000000; stroke-width: 0.8"/>
      </g>
     </g>
     <g id="text_3">
      <!-- 2 -->
      <g transform="translate(209.710769 338.797656) scale(0.15 -0.15)">
       <defs>
        <path id="DejaVuSans-32" d="M 1228 531 
L 3431 531 
L 3431 0 
L 469 0 
L 469 531 
Q 828 903 1448 1529 
Q 2069 2156 2228 2338 
Q 2531 2678 2651 2914 
Q 2772 3150 2772 3378 
Q 2772 3750 2511 3984 
Q 2250 4219 1831 4219 
Q 1534 4219 1204 4116 
Q 875 4013 500 3803 
L 500 4441 
Q 881 4594 1212 4672 
Q 1544 4750 1819 4750 
Q 2544 4750 2975 4387 
Q 3406 4025 3406 3419 
Q 3406 3131 3298 2873 
Q 3191 2616 2906 2266 
Q 2828 2175 2409 1742 
Q 1991 1309 1228 531 
z
" transform="scale(0.015625)"/>
       </defs>
       <use xlink:href="#DejaVuSans-32"/>
      </g>
     </g>
    </g>
    <g id="xtick_4">
     <g id="line2d_4">
      <g>
       <use xlink:href="#mb05b05ea19" x="274.574952" y="320.4" style="stroke: #000000; stroke-width: 0.8"/>
      </g>
     </g>
     <g id="text_4">
      <!-- 3 -->
      <g transform="translate(269.803077 338.797656) scale(0.15 -0.15)">
       <defs>
        <path id="DejaVuSans-33" d="M 2597 2516 
Q 3050 2419 3304 2112 
Q 3559 1806 3559 1356 
Q 3559 666 3084 287 
Q 2609 -91 1734 -91 
Q 1441 -91 1130 -33 
Q 819 25 488 141 
L 488 750 
Q 750 597 1062 519 
Q 1375 441 1716 441 
Q 2309 441 2620 675 
Q 2931 909 2931 1356 
Q 2931 1769 2642 2001 
Q 2353 2234 1838 2234 
L 1294 2234 
L 1294 2753 
L 1863 2753 
Q 2328 2753 2575 2939 
Q 2822 3125 2822 3475 
Q 2822 3834 2567 4026 
Q 2313 4219 1838 4219 
Q 1578 4219 1281 4162 
Q 984 4106 628 3988 
L 628 4550 
Q 988 4650 1302 4700 
Q 1616 4750 1894 4750 
Q 2613 4750 3031 4423 
Q 3450 4097 3450 3541 
Q 3450 3153 3228 2886 
Q 3006 2619 2597 2516 
z
" transform="scale(0.015625)"/>
       </defs>
       <use xlink:href="#DejaVuSans-33"/>
      </g>
     </g>
    </g>
    <g id="xtick_5">
     <g id="line2d_5">
      <g>
       <use xlink:href="#mb05b05ea19" x="334.66726" y="320.4" style="stroke: #000000; stroke-width: 0.8"/>
      </g>
     </g>
     <g id="text_5">
      <!-- 4 -->
      <g transform="translate(329.895385 338.797656) scale(0.15 -0.15)">
       <defs>
        <path id="DejaVuSans-34" d="M 2419 4116 
L 825 1625 
L 2419 1625 
L 2419 4116 
z
M 2253 4666 
L 3047 4666 
L 3047 1625 
L 3713 1625 
L 3713 1100 
L 3047 1100 
L 3047 0 
L 2419 0 
L 2419 1100 
L 313 1100 
L 313 1709 
L 2253 4666 
z
" transform="scale(0.015625)"/>
       </defs>
       <use xlink:href="#DejaVuSans-34"/>
      </g>
     </g>
    </g>
    <g id="xtick_6">
     <g id="line2d_6">
      <g>
       <use xlink:href="#mb05b05ea19" x="394.759567" y="320.4" style="stroke: #000000; stroke-width: 0.8"/>
      </g>
     </g>
     <g id="text_6">
      <!-- 5 -->
      <g transform="translate(389.987692 338.797656) scale(0.15 -0.15)">
       <defs>
        <path id="DejaVuSans-35" d="M 691 4666 
L 3169 4666 
L 3169 4134 
L 1269 4134 
L 1269 2991 
Q 1406 3038 1543 3061 
Q 1681 3084 1819 3084 
Q 2600 3084 3056 2656 
Q 3513 2228 3513 1497 
Q 3513 744 3044 326 
Q 2575 -91 1722 -91 
Q 1428 -91 1123 -41 
Q 819 9 494 109 
L 494 744 
Q 775 591 1075 516 
Q 1375 441 1709 441 
Q 2250 441 2565 725 
Q 2881 1009 2881 1497 
Q 2881 1984 2565 2268 
Q 2250 2553 1709 2553 
Q 1456 2553 1204 2497 
Q 953 2441 691 2322 
L 691 4666 
z
" transform="scale(0.015625)"/>
       </defs>
       <use xlink:href="#DejaVuSans-35"/>
      </g>
     </g>
    </g>
    <g id="xtick_7">
     <g id="line2d_7">
      <g>
       <use xlink:href="#mb05b05ea19" x="454.851875" y="320.4" style="stroke: #000000; stroke-width: 0.8"/>
      </g>
     </g>
     <g id="text_7">
      <!-- 6 -->
      <g transform="translate(450.08 338.797656) scale(0.15 -0.15)">
       <defs>
        <path id="DejaVuSans-36" d="M 2113 2584 
Q 1688 2584 1439 2293 
Q 1191 2003 1191 1497 
Q 1191 994 1439 701 
Q 1688 409 2113 409 
Q 2538 409 2786 701 
Q 3034 994 3034 1497 
Q 3034 2003 2786 2293 
Q 2538 2584 2113 2584 
z
M 3366 4563 
L 3366 3988 
Q 3128 4100 2886 4159 
Q 2644 4219 2406 4219 
Q 1781 4219 1451 3797 
Q 1122 3375 1075 2522 
Q 1259 2794 1537 2939 
Q 1816 3084 2150 3084 
Q 2853 3084 3261 2657 
Q 3669 2231 3669 1497 
Q 3669 778 3244 343 
Q 2819 -91 2113 -91 
Q 1303 -91 875 529 
Q 447 1150 447 2328 
Q 447 3434 972 4092 
Q 1497 4750 2381 4750 
Q 2619 4750 2861 4703 
Q 3103 4656 3366 4563 
z
" transform="scale(0.015625)"/>
       </defs>
       <use xlink:href="#DejaVuSans-36"/>
      </g>
     </g>
    </g>
    <g id="text_8">
     <!-- time [week] -->
     <g transform="translate(198.813125 359.594375) scale(0.18 -0.18)">
      <defs>
       <path id="DejaVuSans-Bold-74" d="M 1759 4494 
L 1759 3500 
L 2913 3500 
L 2913 2700 
L 1759 2700 
L 1759 1216 
Q 1759 972 1856 886 
Q 1953 800 2241 800 
L 2816 800 
L 2816 0 
L 1856 0 
Q 1194 0 917 276 
Q 641 553 641 1216 
L 641 2700 
L 84 2700 
L 84 3500 
L 641 3500 
L 641 4494 
L 1759 4494 
z
" transform="scale(0.015625)"/>
       <path id="DejaVuSans-Bold-69" d="M 538 3500 
L 1656 3500 
L 1656 0 
L 538 0 
L 538 3500 
z
M 538 4863 
L 1656 4863 
L 1656 3950 
L 538 3950 
L 538 4863 
z
" transform="scale(0.015625)"/>
       <path id="DejaVuSans-Bold-6d" d="M 3781 2919 
Q 3994 3244 4286 3414 
Q 4578 3584 4928 3584 
Q 5531 3584 5847 3212 
Q 6163 2841 6163 2131 
L 6163 0 
L 5038 0 
L 5038 1825 
Q 5041 1866 5042 1909 
Q 5044 1953 5044 2034 
Q 5044 2406 4934 2573 
Q 4825 2741 4581 2741 
Q 4263 2741 4089 2478 
Q 3916 2216 3909 1719 
L 3909 0 
L 2784 0 
L 2784 1825 
Q 2784 2406 2684 2573 
Q 2584 2741 2328 2741 
Q 2006 2741 1831 2477 
Q 1656 2213 1656 1722 
L 1656 0 
L 531 0 
L 531 3500 
L 1656 3500 
L 1656 2988 
Q 1863 3284 2130 3434 
Q 2397 3584 2719 3584 
Q 3081 3584 3359 3409 
Q 3638 3234 3781 2919 
z
" transform="scale(0.015625)"/>
       <path id="DejaVuSans-Bold-65" d="M 4031 1759 
L 4031 1441 
L 1416 1441 
Q 1456 1047 1700 850 
Q 1944 653 2381 653 
Q 2734 653 3104 758 
Q 3475 863 3866 1075 
L 3866 213 
Q 3469 63 3072 -14 
Q 2675 -91 2278 -91 
Q 1328 -91 801 392 
Q 275 875 275 1747 
Q 275 2603 792 3093 
Q 1309 3584 2216 3584 
Q 3041 3584 3536 3087 
Q 4031 2591 4031 1759 
z
M 2881 2131 
Q 2881 2450 2695 2645 
Q 2509 2841 2209 2841 
Q 1884 2841 1681 2658 
Q 1478 2475 1428 2131 
L 2881 2131 
z
" transform="scale(0.015625)"/>
       <path id="DejaVuSans-Bold-20" transform="scale(0.015625)"/>
       <path id="DejaVuSans-Bold-5b" d="M 550 4863 
L 2491 4863 
L 2491 4159 
L 1613 4159 
L 1613 -141 
L 2491 -141 
L 2491 -844 
L 550 -844 
L 550 4863 
z
" transform="scale(0.015625)"/>
       <path id="DejaVuSans-Bold-77" d="M 225 3500 
L 1313 3500 
L 1900 1088 
L 2491 3500 
L 3425 3500 
L 4013 1113 
L 4603 3500 
L 5691 3500 
L 4769 0 
L 3547 0 
L 2956 2406 
L 2369 0 
L 1147 0 
L 225 3500 
z
" transform="scale(0.015625)"/>
       <path id="DejaVuSans-Bold-6b" d="M 538 4863 
L 1656 4863 
L 1656 2216 
L 2944 3500 
L 4244 3500 
L 2534 1894 
L 4378 0 
L 3022 0 
L 1656 1459 
L 1656 0 
L 538 0 
L 538 4863 
z
" transform="scale(0.015625)"/>
       <path id="DejaVuSans-Bold-5d" d="M 2375 -844 
L 434 -844 
L 434 -141 
L 1313 -141 
L 1313 4159 
L 434 4159 
L 434 4863 
L 2375 4863 
L 2375 -844 
z
" transform="scale(0.015625)"/>
      </defs>
      <use xlink:href="#DejaVuSans-Bold-74"/>
      <use xlink:href="#DejaVuSans-Bold-69" x="47.802734"/>
      <use xlink:href="#DejaVuSans-Bold-6d" x="82.080078"/>
      <use xlink:href="#DejaVuSans-Bold-65" x="186.279297"/>
      <use xlink:href="#DejaVuSans-Bold-20" x="254.101562"/>
      <use xlink:href="#DejaVuSans-Bold-5b" x="288.916016"/>
      <use xlink:href="#DejaVuSans-Bold-77" x="334.619141"/>
      <use xlink:href="#DejaVuSans-Bold-65" x="427.001953"/>
      <use xlink:href="#DejaVuSans-Bold-65" x="494.824219"/>
      <use xlink:href="#DejaVuSans-Bold-6b" x="562.646484"/>
      <use xlink:href="#DejaVuSans-Bold-5d" x="629.150391"/>
     </g>
    </g>
   </g>
   <g id="matplotlib.axis_2">
    <g id="ytick_1">
     <g id="line2d_8">
      <defs>
       <path id="m4dd1eece96" d="M 0 0 
L -3.5 0 
" style="stroke: #000000; stroke-width: 0.8"/>
      </defs>
      <g>
       <use xlink:href="#m4dd1eece96" x="64.251875" y="304.91293" style="stroke: #000000; stroke-width: 0.8"/>
      </g>
     </g>
     <g id="text_9">
      <!-- 0 -->
      <g transform="translate(47.708125 310.611758) scale(0.15 -0.15)">
       <use xlink:href="#DejaVuSans-30"/>
      </g>
     </g>
    </g>
    <g id="ytick_2">
     <g id="line2d_9">
      <g>
       <use xlink:href="#m4dd1eece96" x="64.251875" y="265.703562" style="stroke: #000000; stroke-width: 0.8"/>
      </g>
     </g>
     <g id="text_10">
      <!-- 50 -->
      <g transform="translate(38.164375 271.40239) scale(0.15 -0.15)">
       <use xlink:href="#DejaVuSans-35"/>
       <use xlink:href="#DejaVuSans-30" x="63.623047"/>
      </g>
     </g>
    </g>
    <g id="ytick_3">
     <g id="line2d_10">
      <g>
       <use xlink:href="#m4dd1eece96" x="64.251875" y="226.494194" style="stroke: #000000; stroke-width: 0.8"/>
      </g>
     </g>
     <g id="text_11">
      <!-- 100 -->
      <g transform="translate(28.620625 232.193022) scale(0.15 -0.15)">
       <use xlink:href="#DejaVuSans-31"/>
       <use xlink:href="#DejaVuSans-30" x="63.623047"/>
       <use xlink:href="#DejaVuSans-30" x="127.246094"/>
      </g>
     </g>
    </g>
    <g id="ytick_4">
     <g id="line2d_11">
      <g>
       <use xlink:href="#m4dd1eece96" x="64.251875" y="187.284825" style="stroke: #000000; stroke-width: 0.8"/>
      </g>
     </g>
     <g id="text_12">
      <!-- 150 -->
      <g transform="translate(28.620625 192.983654) scale(0.15 -0.15)">
       <use xlink:href="#DejaVuSans-31"/>
       <use xlink:href="#DejaVuSans-35" x="63.623047"/>
       <use xlink:href="#DejaVuSans-30" x="127.246094"/>
      </g>
     </g>
    </g>
    <g id="ytick_5">
     <g id="line2d_12">
      <g>
       <use xlink:href="#m4dd1eece96" x="64.251875" y="148.075457" style="stroke: #000000; stroke-width: 0.8"/>
      </g>
     </g>
     <g id="text_13">
      <!-- 200 -->
      <g transform="translate(28.620625 153.774286) scale(0.15 -0.15)">
       <use xlink:href="#DejaVuSans-32"/>
       <use xlink:href="#DejaVuSans-30" x="63.623047"/>
       <use xlink:href="#DejaVuSans-30" x="127.246094"/>
      </g>
     </g>
    </g>
    <g id="ytick_6">
     <g id="line2d_13">
      <g>
       <use xlink:href="#m4dd1eece96" x="64.251875" y="108.866089" style="stroke: #000000; stroke-width: 0.8"/>
      </g>
     </g>
     <g id="text_14">
      <!-- 250 -->
      <g transform="translate(28.620625 114.564917) scale(0.15 -0.15)">
       <use xlink:href="#DejaVuSans-32"/>
       <use xlink:href="#DejaVuSans-35" x="63.623047"/>
       <use xlink:href="#DejaVuSans-30" x="127.246094"/>
      </g>
     </g>
    </g>
    <g id="ytick_7">
     <g id="line2d_14">
      <g>
       <use xlink:href="#m4dd1eece96" x="64.251875" y="69.656721" style="stroke: #000000; stroke-width: 0.8"/>
      </g>
     </g>
     <g id="text_15">
      <!-- 300 -->
      <g transform="translate(28.620625 75.355549) scale(0.15 -0.15)">
       <use xlink:href="#DejaVuSans-33"/>
       <use xlink:href="#DejaVuSans-30" x="63.623047"/>
       <use xlink:href="#DejaVuSans-30" x="127.246094"/>
      </g>
     </g>
    </g>
    <g id="text_16">
     <!-- tirzepatide [nM] -->
     <g transform="translate(20.877187 264.140156) rotate(-90) scale(0.18 -0.18)">
      <defs>
       <path id="DejaVuSans-Bold-72" d="M 3138 2547 
Q 2991 2616 2845 2648 
Q 2700 2681 2553 2681 
Q 2122 2681 1889 2404 
Q 1656 2128 1656 1613 
L 1656 0 
L 538 0 
L 538 3500 
L 1656 3500 
L 1656 2925 
Q 1872 3269 2151 3426 
Q 2431 3584 2822 3584 
Q 2878 3584 2943 3579 
Q 3009 3575 3134 3559 
L 3138 2547 
z
" transform="scale(0.015625)"/>
       <path id="DejaVuSans-Bold-7a" d="M 366 3500 
L 3419 3500 
L 3419 2719 
L 1575 800 
L 3419 800 
L 3419 0 
L 288 0 
L 288 781 
L 2131 2700 
L 366 2700 
L 366 3500 
z
" transform="scale(0.015625)"/>
       <path id="DejaVuSans-Bold-70" d="M 1656 506 
L 1656 -1331 
L 538 -1331 
L 538 3500 
L 1656 3500 
L 1656 2988 
Q 1888 3294 2169 3439 
Q 2450 3584 2816 3584 
Q 3463 3584 3878 3070 
Q 4294 2556 4294 1747 
Q 4294 938 3878 423 
Q 3463 -91 2816 -91 
Q 2450 -91 2169 54 
Q 1888 200 1656 506 
z
M 2400 2772 
Q 2041 2772 1848 2508 
Q 1656 2244 1656 1747 
Q 1656 1250 1848 986 
Q 2041 722 2400 722 
Q 2759 722 2948 984 
Q 3138 1247 3138 1747 
Q 3138 2247 2948 2509 
Q 2759 2772 2400 2772 
z
" transform="scale(0.015625)"/>
       <path id="DejaVuSans-Bold-61" d="M 2106 1575 
Q 1756 1575 1579 1456 
Q 1403 1338 1403 1106 
Q 1403 894 1545 773 
Q 1688 653 1941 653 
Q 2256 653 2472 879 
Q 2688 1106 2688 1447 
L 2688 1575 
L 2106 1575 
z
M 3816 1997 
L 3816 0 
L 2688 0 
L 2688 519 
Q 2463 200 2181 54 
Q 1900 -91 1497 -91 
Q 953 -91 614 226 
Q 275 544 275 1050 
Q 275 1666 698 1953 
Q 1122 2241 2028 2241 
L 2688 2241 
L 2688 2328 
Q 2688 2594 2478 2717 
Q 2269 2841 1825 2841 
Q 1466 2841 1156 2769 
Q 847 2697 581 2553 
L 581 3406 
Q 941 3494 1303 3539 
Q 1666 3584 2028 3584 
Q 2975 3584 3395 3211 
Q 3816 2838 3816 1997 
z
" transform="scale(0.015625)"/>
       <path id="DejaVuSans-Bold-64" d="M 2919 2988 
L 2919 4863 
L 4044 4863 
L 4044 0 
L 2919 0 
L 2919 506 
Q 2688 197 2409 53 
Q 2131 -91 1766 -91 
Q 1119 -91 703 423 
Q 288 938 288 1747 
Q 288 2556 703 3070 
Q 1119 3584 1766 3584 
Q 2128 3584 2408 3439 
Q 2688 3294 2919 2988 
z
M 2181 722 
Q 2541 722 2730 984 
Q 2919 1247 2919 1747 
Q 2919 2247 2730 2509 
Q 2541 2772 2181 2772 
Q 1825 2772 1636 2509 
Q 1447 2247 1447 1747 
Q 1447 1247 1636 984 
Q 1825 722 2181 722 
z
" transform="scale(0.015625)"/>
       <path id="DejaVuSans-Bold-6e" d="M 4056 2131 
L 4056 0 
L 2931 0 
L 2931 347 
L 2931 1631 
Q 2931 2084 2911 2256 
Q 2891 2428 2841 2509 
Q 2775 2619 2662 2680 
Q 2550 2741 2406 2741 
Q 2056 2741 1856 2470 
Q 1656 2200 1656 1722 
L 1656 0 
L 538 0 
L 538 3500 
L 1656 3500 
L 1656 2988 
Q 1909 3294 2193 3439 
Q 2478 3584 2822 3584 
Q 3428 3584 3742 3212 
Q 4056 2841 4056 2131 
z
" transform="scale(0.015625)"/>
       <path id="DejaVuSans-Bold-4d" d="M 588 4666 
L 2119 4666 
L 3181 2169 
L 4250 4666 
L 5778 4666 
L 5778 0 
L 4641 0 
L 4641 3413 
L 3566 897 
L 2803 897 
L 1728 3413 
L 1728 0 
L 588 0 
L 588 4666 
z
" transform="scale(0.015625)"/>
      </defs>
      <use xlink:href="#DejaVuSans-Bold-74"/>
      <use xlink:href="#DejaVuSans-Bold-69" x="47.802734"/>
      <use xlink:href="#DejaVuSans-Bold-72" x="82.080078"/>
      <use xlink:href="#DejaVuSans-Bold-7a" x="131.396484"/>
      <use xlink:href="#DejaVuSans-Bold-65" x="189.599609"/>
      <use xlink:href="#DejaVuSans-Bold-70" x="257.421875"/>
      <use xlink:href="#DejaVuSans-Bold-61" x="329.003906"/>
      <use xlink:href="#DejaVuSans-Bold-74" x="396.484375"/>
      <use xlink:href="#DejaVuSans-Bold-69" x="444.287109"/>
      <use xlink:href="#DejaVuSans-Bold-64" x="478.564453"/>
      <use xlink:href="#DejaVuSans-Bold-65" x="550.146484"/>
      <use xlink:href="#DejaVuSans-Bold-20" x="617.96875"/>
      <use xlink:href="#DejaVuSans-Bold-5b" x="652.783203"/>
      <use xlink:href="#DejaVuSans-Bold-6e" x="698.486328"/>
      <use xlink:href="#DejaVuSans-Bold-4d" x="769.677734"/>
      <use xlink:href="#DejaVuSans-Bold-5d" x="869.189453"/>
     </g>
    </g>
   </g>
   <g id="LineCollection_1">
    <path d="M 94.298029 303.263175 
L 94.298029 297.489034 
" clip-path="url(#pf922eed938)" style="fill: none; stroke: #daa520"/>
    <path d="M 97.159567 300.788543 
L 97.159567 297.489034 
" clip-path="url(#pf922eed938)" style="fill: none; stroke: #daa520"/>
    <path d="M 102.882644 299.963666 
L 102.882644 294.189525 
" clip-path="url(#pf922eed938)" style="fill: none; stroke: #daa520"/>
    <path d="M 120.051875 299.551227 
L 120.051875 294.601964 
" clip-path="url(#pf922eed938)" style="fill: none; stroke: #daa520"/>
    <path d="M 154.390337 303.675614 
L 154.390337 298.72635 
" clip-path="url(#pf922eed938)" style="fill: none; stroke: #daa520"/>
    <path d="M 214.482644 306.150245 
L 214.482644 302.850736 
" clip-path="url(#pf922eed938)" style="fill: none; stroke: #daa520"/>
   </g>
   <g id="LineCollection_2">
    <path d="M 94.298029 255.420295 
L 94.298029 241.397381 
" clip-path="url(#pf922eed938)" style="fill: none; stroke: #4b0082"/>
    <path d="M 97.159567 241.397381 
L 97.159567 200.153519 
" clip-path="url(#pf922eed938)" style="fill: none; stroke: #4b0082"/>
    <path d="M 102.882644 221.187889 
L 102.882644 188.192799 
" clip-path="url(#pf922eed938)" style="fill: none; stroke: #4b0082"/>
    <path d="M 120.051875 236.035679 
L 120.051875 200.565957 
" clip-path="url(#pf922eed938)" style="fill: none; stroke: #4b0082"/>
    <path d="M 154.390337 261.194435 
L 154.390337 231.498854 
" clip-path="url(#pf922eed938)" style="fill: none; stroke: #4b0082"/>
    <path d="M 214.482644 288.827823 
L 214.482644 278.929296 
" clip-path="url(#pf922eed938)" style="fill: none; stroke: #4b0082"/>
    <path d="M 394.759567 306.562684 
L 394.759567 301.613421 
" clip-path="url(#pf922eed938)" style="fill: none; stroke: #4b0082"/>
   </g>
   <g id="LineCollection_3">
    <path d="M 94.298029 247.583961 
L 94.298029 231.911293 
" clip-path="url(#pf922eed938)" style="fill: none; stroke: #00bfff"/>
    <path d="M 97.159567 196.85401 
L 97.159567 130.038953 
" clip-path="url(#pf922eed938)" style="fill: none; stroke: #00bfff"/>
    <path d="M 102.882644 181.593781 
L 102.882644 75.184615 
" clip-path="url(#pf922eed938)" style="fill: none; stroke: #00bfff"/>
    <path d="M 120.051875 195.616694 
L 120.051875 124.67725 
" clip-path="url(#pf922eed938)" style="fill: none; stroke: #00bfff"/>
    <path d="M 154.390337 236.860556 
L 154.390337 189.017676 
" clip-path="url(#pf922eed938)" style="fill: none; stroke: #00bfff"/>
    <path d="M 214.482644 276.454664 
L 214.482644 264.906383 
" clip-path="url(#pf922eed938)" style="fill: none; stroke: #00bfff"/>
    <path d="M 394.759567 306.562684 
L 394.759567 301.613421 
" clip-path="url(#pf922eed938)" style="fill: none; stroke: #00bfff"/>
   </g>
   <g id="LineCollection_4">
    <path d="M 94.298029 276.042226 
L 94.298029 186.955483 
" clip-path="url(#pf922eed938)" style="fill: none; stroke: #8b0000"/>
    <path d="M 97.159567 207.577414 
L 97.159567 118.490671 
" clip-path="url(#pf922eed938)" style="fill: none; stroke: #8b0000"/>
    <path d="M 102.882644 154.78527 
L 102.882644 55.8 
" clip-path="url(#pf922eed938)" style="fill: none; stroke: #8b0000"/>
    <path d="M 120.051875 147.361375 
L 120.051875 78.071686 
" clip-path="url(#pf922eed938)" style="fill: none; stroke: #8b0000"/>
    <path d="M 154.390337 202.215712 
L 154.390337 178.294272 
" clip-path="url(#pf922eed938)" style="fill: none; stroke: #8b0000"/>
    <path d="M 214.482644 272.330278 
L 214.482644 259.957119 
" clip-path="url(#pf922eed938)" style="fill: none; stroke: #8b0000"/>
    <path d="M 394.759567 307.8 
L 394.759567 302.025859 
" clip-path="url(#pf922eed938)" style="fill: none; stroke: #8b0000"/>
   </g>
   <g id="line2d_15">
    <path d="M 94.298029 304.91293 
L 96.40126 303.429022 
L 98.925137 301.938825 
L 101.449013 300.722236 
L 103.97289 299.739915 
L 106.917413 298.8448 
L 109.861937 298.176139 
L 113.227106 297.639469 
L 117.012921 297.268451 
L 121.219383 297.080143 
L 126.267137 297.083659 
L 132.576829 297.327729 
L 140.989752 297.894905 
L 158.236244 299.347831 
L 176.324029 300.778629 
L 191.887937 301.779419 
L 207.87249 302.580852 
L 225.539629 303.241947 
L 246.15129 303.785681 
L 271.39006 304.219072 
L 303.779813 304.541494 
L 350.05089 304.761005 
L 428.291075 304.879446 
L 455.212429 304.893031 
L 455.212429 304.893031 
" clip-path="url(#pf922eed938)" style="fill: none; stroke: #daa520; stroke-width: 2; stroke-linecap: square"/>
   </g>
   <g id="line2d_16">
    <path d="M 94.298029 300.376105 
L 97.159567 299.138789 
L 102.882644 297.076596 
L 120.051875 297.076596 
L 154.390337 301.200982 
L 214.482644 304.500491 
" clip-path="url(#pf922eed938)" style="fill: none; stroke-dasharray: 3.7,1.6; stroke-dashoffset: 0; stroke: #daa520"/>
    <defs>
     <path id="ma6951d4f2a" d="M -3 3 
L 3 3 
L 3 -3 
L -3 -3 
z
" style="stroke: #000000; stroke-linejoin: miter"/>
    </defs>
    <g clip-path="url(#pf922eed938)">
     <use xlink:href="#ma6951d4f2a" x="94.298029" y="300.376105" style="fill: #daa520; stroke: #000000; stroke-linejoin: miter"/>
     <use xlink:href="#ma6951d4f2a" x="97.159567" y="299.138789" style="fill: #daa520; stroke: #000000; stroke-linejoin: miter"/>
     <use xlink:href="#ma6951d4f2a" x="102.882644" y="297.076596" style="fill: #daa520; stroke: #000000; stroke-linejoin: miter"/>
     <use xlink:href="#ma6951d4f2a" x="120.051875" y="297.076596" style="fill: #daa520; stroke: #000000; stroke-linejoin: miter"/>
     <use xlink:href="#ma6951d4f2a" x="154.390337" y="301.200982" style="fill: #daa520; stroke: #000000; stroke-linejoin: miter"/>
     <use xlink:href="#ma6951d4f2a" x="214.482644" y="304.500491" style="fill: #daa520; stroke: #000000; stroke-linejoin: miter"/>
    </g>
   </g>
   <g id="line2d_17">
    <path d="M 94.298029 304.91293 
L 95.980613 292.854444 
L 97.663198 282.253993 
L 99.345783 272.965561 
L 101.028367 264.861024 
L 102.710952 257.823988 
L 104.393537 251.748734 
L 106.076121 246.539263 
L 107.758706 242.108422 
L 109.44129 238.377112 
L 111.123875 235.273562 
L 112.80646 232.732671 
L 114.489044 230.695406 
L 115.750983 229.465578 
L 117.012921 228.468139 
L 118.27486 227.683868 
L 119.957444 226.939119 
L 121.640029 226.502983 
L 123.322613 226.340369 
L 125.005198 226.419539 
L 126.687783 226.71181 
L 128.791013 227.337586 
L 130.894244 228.210888 
L 133.418121 229.530068 
L 136.362644 231.36889 
L 139.727813 233.769499 
L 143.934275 237.079154 
L 149.823321 242.032983 
L 164.545937 254.527017 
L 170.855629 259.517919 
L 176.324029 263.56992 
L 181.792429 267.345965 
L 187.260829 270.839783 
L 192.729229 274.054565 
L 198.197629 276.999719 
L 203.666029 279.688541 
L 209.134429 282.136571 
L 215.023475 284.522706 
L 220.912521 286.669985 
L 227.222213 288.729135 
L 233.952552 290.677041 
L 240.68289 292.395497 
L 247.833875 293.998382 
L 255.405506 295.475212 
L 263.818429 296.885158 
L 272.651998 298.141035 
L 282.32686 299.293344 
L 293.26366 300.362449 
L 305.041752 301.287997 
L 318.502429 302.117914 
L 334.066337 302.843816 
L 352.154121 303.454203 
L 373.607075 303.94933 
L 400.528429 304.340264 
L 436.703998 304.628347 
L 455.212429 304.713941 
L 455.212429 304.713941 
" clip-path="url(#pf922eed938)" style="fill: none; stroke: #4b0082; stroke-width: 2; stroke-linecap: square"/>
   </g>
   <g id="line2d_18">
    <path d="M 94.298029 248.408838 
L 97.159567 220.77545 
L 102.882644 204.690344 
L 120.051875 218.300818 
L 154.390337 246.346645 
L 214.482644 283.87856 
L 394.759567 304.088052 
" clip-path="url(#pf922eed938)" style="fill: none; stroke-dasharray: 3.7,1.6; stroke-dashoffset: 0; stroke: #4b0082"/>
    <defs>
     <path id="m5467ffaaf2" d="M -3 3 
L 3 3 
L 3 -3 
L -3 -3 
z
" style="stroke: #000000; stroke-linejoin: miter"/>
    </defs>
    <g clip-path="url(#pf922eed938)">
     <use xlink:href="#m5467ffaaf2" x="94.298029" y="248.408838" style="fill: #4b0082; stroke: #000000; stroke-linejoin: miter"/>
     <use xlink:href="#m5467ffaaf2" x="97.159567" y="220.77545" style="fill: #4b0082; stroke: #000000; stroke-linejoin: miter"/>
     <use xlink:href="#m5467ffaaf2" x="102.882644" y="204.690344" style="fill: #4b0082; stroke: #000000; stroke-linejoin: miter"/>
     <use xlink:href="#m5467ffaaf2" x="120.051875" y="218.300818" style="fill: #4b0082; stroke: #000000; stroke-linejoin: miter"/>
     <use xlink:href="#m5467ffaaf2" x="154.390337" y="246.346645" style="fill: #4b0082; stroke: #000000; stroke-linejoin: miter"/>
     <use xlink:href="#m5467ffaaf2" x="214.482644" y="283.87856" style="fill: #4b0082; stroke: #000000; stroke-linejoin: miter"/>
     <use xlink:href="#m5467ffaaf2" x="394.759567" y="304.088052" style="fill: #4b0082; stroke: #000000; stroke-linejoin: miter"/>
    </g>
   </g>
   <g id="line2d_19">
    <path d="M 94.298029 304.91293 
L 95.980613 280.795958 
L 97.663198 259.595057 
L 99.345783 241.018192 
L 101.028367 224.809118 
L 102.710952 210.735046 
L 104.393537 198.584538 
L 106.076121 188.165596 
L 107.758706 179.303915 
L 109.44129 171.841295 
L 111.123875 165.634195 
L 112.385813 161.724013 
L 113.647752 158.396176 
L 114.90969 155.603863 
L 116.171629 153.303582 
L 117.433567 151.454947 
L 118.695506 150.020458 
L 119.957444 148.965308 
L 121.219383 148.257197 
L 122.481321 147.866158 
L 123.74326 147.764399 
L 125.005198 147.926149 
L 126.267137 148.327523 
L 127.529075 148.946387 
L 129.21166 150.074647 
L 130.894244 151.508846 
L 132.576829 153.208907 
L 134.68006 155.653184 
L 137.203937 158.97278 
L 140.14846 163.261608 
L 143.513629 168.560605 
L 148.140737 176.277181 
L 165.807875 206.186817 
L 170.855629 214.122908 
L 175.482737 221.015426 
L 180.109844 227.515258 
L 184.736952 233.611659 
L 188.943413 238.803725 
L 193.149875 243.668146 
L 197.356337 248.214407 
L 201.562798 252.454585 
L 205.76926 256.402456 
L 210.396367 260.425173 
L 215.023475 264.132482 
L 219.650583 267.544894 
L 224.27769 270.682619 
L 228.904798 273.565272 
L 233.952552 276.441152 
L 239.000306 279.058995 
L 244.468706 281.628965 
L 249.937106 283.947246 
L 255.826152 286.189473 
L 261.715198 288.19422 
L 268.02489 290.106424 
L 274.755229 291.907138 
L 281.906213 293.582204 
L 289.477844 295.122122 
L 297.470121 296.521755 
L 306.30369 297.837611 
L 315.978552 299.043594 
L 326.494706 300.12273 
L 338.272798 301.097777 
L 351.312829 301.947651 
L 366.035444 302.682002 
L 383.281937 303.314436 
L 403.893598 303.839729 
L 429.553013 304.259392 
L 455.212429 304.514952 
L 455.212429 304.514952 
" clip-path="url(#pf922eed938)" style="fill: none; stroke: #00bfff; stroke-width: 2; stroke-linecap: square"/>
   </g>
   <g id="line2d_20">
    <path d="M 94.298029 239.747627 
L 97.159567 163.446481 
L 102.882644 128.389198 
L 120.051875 160.146972 
L 154.390337 212.939116 
L 214.482644 270.680524 
L 394.759567 304.088052 
" clip-path="url(#pf922eed938)" style="fill: none; stroke-dasharray: 3.7,1.6; stroke-dashoffset: 0; stroke: #00bfff"/>
    <defs>
     <path id="m89c039b9e0" d="M -3 3 
L 3 3 
L 3 -3 
L -3 -3 
z
" style="stroke: #000000; stroke-linejoin: miter"/>
    </defs>
    <g clip-path="url(#pf922eed938)">
     <use xlink:href="#m89c039b9e0" x="94.298029" y="239.747627" style="fill: #00bfff; stroke: #000000; stroke-linejoin: miter"/>
     <use xlink:href="#m89c039b9e0" x="97.159567" y="163.446481" style="fill: #00bfff; stroke: #000000; stroke-linejoin: miter"/>
     <use xlink:href="#m89c039b9e0" x="102.882644" y="128.389198" style="fill: #00bfff; stroke: #000000; stroke-linejoin: miter"/>
     <use xlink:href="#m89c039b9e0" x="120.051875" y="160.146972" style="fill: #00bfff; stroke: #000000; stroke-linejoin: miter"/>
     <use xlink:href="#m89c039b9e0" x="154.390337" y="212.939116" style="fill: #00bfff; stroke: #000000; stroke-linejoin: miter"/>
     <use xlink:href="#m89c039b9e0" x="214.482644" y="270.680524" style="fill: #00bfff; stroke: #000000; stroke-linejoin: miter"/>
     <use xlink:href="#m89c039b9e0" x="394.759567" y="304.088052" style="fill: #00bfff; stroke: #000000; stroke-linejoin: miter"/>
    </g>
   </g>
   <g id="line2d_21">
    <path d="M 94.298029 304.91293 
L 95.980613 268.737472 
L 97.663198 236.936121 
L 99.345783 209.070822 
L 101.028367 184.757212 
L 102.710952 163.646104 
L 104.393537 145.420342 
L 106.076121 129.791929 
L 107.758706 116.499408 
L 109.44129 105.305478 
L 110.703229 98.156938 
L 111.965167 91.983969 
L 113.227106 86.709101 
L 114.489044 82.260358 
L 115.750983 78.570875 
L 117.012921 75.578557 
L 118.27486 73.225744 
L 119.536798 71.458914 
L 120.37809 70.581891 
L 121.219383 69.929331 
L 122.060675 69.488085 
L 122.901967 69.245649 
L 123.74326 69.190134 
L 124.584552 69.310233 
L 125.425844 69.5952 
L 126.687783 70.30957 
L 127.949721 71.339663 
L 129.21166 72.655506 
L 130.894244 74.806804 
L 132.576829 77.356896 
L 134.68006 81.023312 
L 136.78329 85.134526 
L 139.307167 90.539871 
L 142.672337 98.349987 
L 146.878798 108.751919 
L 154.450429 128.228429 
L 162.442706 148.567755 
L 167.911106 161.858547 
L 172.538213 172.553729 
L 177.165321 182.681452 
L 181.371783 191.370663 
L 185.578244 199.558471 
L 189.784706 207.24738 
L 193.991167 214.447278 
L 198.197629 221.173297 
L 202.40409 227.444158 
L 206.610552 233.2809 
L 210.817013 238.705924 
L 215.023475 243.742259 
L 219.229937 248.413023 
L 223.436398 252.741026 
L 227.64286 256.748485 
L 231.849321 260.456822 
L 236.055783 263.886534 
L 240.68289 267.360633 
L 245.309998 270.545621 
L 249.937106 273.464404 
L 254.98486 276.369981 
L 260.032613 279.009825 
L 265.080367 281.407576 
L 270.548767 283.757067 
L 276.017167 285.873054 
L 281.906213 287.916841 
L 288.215906 289.864704 
L 294.946244 291.697734 
L 302.097229 293.401875 
L 309.66886 294.967781 
L 317.661137 296.390492 
L 326.494706 297.727631 
L 335.748921 298.904171 
L 346.265075 300.009222 
L 357.622521 300.975661 
L 370.662552 301.852831 
L 385.385167 302.610712 
L 402.211013 303.249911 
L 422.402029 303.787302 
L 447.220152 304.21623 
L 455.212429 304.315963 
L 455.212429 304.315963 
" clip-path="url(#pf922eed938)" style="fill: none; stroke: #8b0000; stroke-width: 2; stroke-linecap: square"/>
   </g>
   <g id="line2d_22">
    <path d="M 94.298029 231.498854 
L 97.159567 163.034043 
L 102.882644 105.292635 
L 120.051875 112.71653 
L 154.390337 190.254992 
L 214.482644 266.143699 
L 394.759567 304.91293 
" clip-path="url(#pf922eed938)" style="fill: none; stroke-dasharray: 3.7,1.6; stroke-dashoffset: 0; stroke: #8b0000"/>
    <defs>
     <path id="m0696ed04c6" d="M -3 3 
L 3 3 
L 3 -3 
L -3 -3 
z
" style="stroke: #000000; stroke-linejoin: miter"/>
    </defs>
    <g clip-path="url(#pf922eed938)">
     <use xlink:href="#m0696ed04c6" x="94.298029" y="231.498854" style="fill: #8b0000; stroke: #000000; stroke-linejoin: miter"/>
     <use xlink:href="#m0696ed04c6" x="97.159567" y="163.034043" style="fill: #8b0000; stroke: #000000; stroke-linejoin: miter"/>
     <use xlink:href="#m0696ed04c6" x="102.882644" y="105.292635" style="fill: #8b0000; stroke: #000000; stroke-linejoin: miter"/>
     <use xlink:href="#m0696ed04c6" x="120.051875" y="112.71653" style="fill: #8b0000; stroke: #000000; stroke-linejoin: miter"/>
     <use xlink:href="#m0696ed04c6" x="154.390337" y="190.254992" style="fill: #8b0000; stroke: #000000; stroke-linejoin: miter"/>
     <use xlink:href="#m0696ed04c6" x="214.482644" y="266.143699" style="fill: #8b0000; stroke: #000000; stroke-linejoin: miter"/>
     <use xlink:href="#m0696ed04c6" x="394.759567" y="304.91293" style="fill: #8b0000; stroke: #000000; stroke-linejoin: miter"/>
    </g>
   </g>
   <g id="patch_3">
    <path d="M 64.251875 320.4 
L 64.251875 43.2 
" style="fill: none; stroke: #000000; stroke-width: 0.8; stroke-linejoin: miter; stroke-linecap: square"/>
   </g>
   <g id="patch_4">
    <path d="M 454.851875 320.4 
L 454.851875 43.2 
" style="fill: none; stroke: #000000; stroke-width: 0.8; stroke-linejoin: miter; stroke-linecap: square"/>
   </g>
   <g id="patch_5">
    <path d="M 64.251875 320.4 
L 454.851875 320.4 
" style="fill: none; stroke: #000000; stroke-width: 0.8; stroke-linejoin: miter; stroke-linecap: square"/>
   </g>
   <g id="patch_6">
    <path d="M 64.251875 43.2 
L 454.851875 43.2 
" style="fill: none; stroke: #000000; stroke-width: 0.8; stroke-linejoin: miter; stroke-linecap: square"/>
   </g>
   <g id="legend_1">
    <g id="patch_7">
     <path d="M 260.909688 168.625 
L 447.851875 168.625 
Q 449.851875 168.625 449.851875 166.625 
L 449.851875 50.2 
Q 449.851875 48.2 447.851875 48.2 
L 260.909688 48.2 
Q 258.909688 48.2 258.909688 50.2 
L 258.909688 166.625 
Q 258.909688 168.625 260.909688 168.625 
z
" style="fill: #ffffff; opacity: 0.8; stroke: #cccccc; stroke-linejoin: miter"/>
    </g>
    <g id="line2d_23">
     <path d="M 262.909688 56.298437 
L 282.909688 56.298437 
" style="fill: none; stroke: #daa520; stroke-width: 2; stroke-linecap: square"/>
    </g>
    <g id="line2d_24"/>
    <g id="text_17">
     <!-- Sim 0.5 mg tir (POC) -->
     <g transform="translate(290.909688 59.798437) scale(0.1 -0.1)">
      <defs>
       <path id="DejaVuSans-53" d="M 3425 4513 
L 3425 3897 
Q 3066 4069 2747 4153 
Q 2428 4238 2131 4238 
Q 1616 4238 1336 4038 
Q 1056 3838 1056 3469 
Q 1056 3159 1242 3001 
Q 1428 2844 1947 2747 
L 2328 2669 
Q 3034 2534 3370 2195 
Q 3706 1856 3706 1288 
Q 3706 609 3251 259 
Q 2797 -91 1919 -91 
Q 1588 -91 1214 -16 
Q 841 59 441 206 
L 441 856 
Q 825 641 1194 531 
Q 1563 422 1919 422 
Q 2459 422 2753 634 
Q 3047 847 3047 1241 
Q 3047 1584 2836 1778 
Q 2625 1972 2144 2069 
L 1759 2144 
Q 1053 2284 737 2584 
Q 422 2884 422 3419 
Q 422 4038 858 4394 
Q 1294 4750 2059 4750 
Q 2388 4750 2728 4690 
Q 3069 4631 3425 4513 
z
" transform="scale(0.015625)"/>
       <path id="DejaVuSans-69" d="M 603 3500 
L 1178 3500 
L 1178 0 
L 603 0 
L 603 3500 
z
M 603 4863 
L 1178 4863 
L 1178 4134 
L 603 4134 
L 603 4863 
z
" transform="scale(0.015625)"/>
       <path id="DejaVuSans-6d" d="M 3328 2828 
Q 3544 3216 3844 3400 
Q 4144 3584 4550 3584 
Q 5097 3584 5394 3201 
Q 5691 2819 5691 2113 
L 5691 0 
L 5113 0 
L 5113 2094 
Q 5113 2597 4934 2840 
Q 4756 3084 4391 3084 
Q 3944 3084 3684 2787 
Q 3425 2491 3425 1978 
L 3425 0 
L 2847 0 
L 2847 2094 
Q 2847 2600 2669 2842 
Q 2491 3084 2119 3084 
Q 1678 3084 1418 2786 
Q 1159 2488 1159 1978 
L 1159 0 
L 581 0 
L 581 3500 
L 1159 3500 
L 1159 2956 
Q 1356 3278 1631 3431 
Q 1906 3584 2284 3584 
Q 2666 3584 2933 3390 
Q 3200 3197 3328 2828 
z
" transform="scale(0.015625)"/>
       <path id="DejaVuSans-20" transform="scale(0.015625)"/>
       <path id="DejaVuSans-2e" d="M 684 794 
L 1344 794 
L 1344 0 
L 684 0 
L 684 794 
z
" transform="scale(0.015625)"/>
       <path id="DejaVuSans-67" d="M 2906 1791 
Q 2906 2416 2648 2759 
Q 2391 3103 1925 3103 
Q 1463 3103 1205 2759 
Q 947 2416 947 1791 
Q 947 1169 1205 825 
Q 1463 481 1925 481 
Q 2391 481 2648 825 
Q 2906 1169 2906 1791 
z
M 3481 434 
Q 3481 -459 3084 -895 
Q 2688 -1331 1869 -1331 
Q 1566 -1331 1297 -1286 
Q 1028 -1241 775 -1147 
L 775 -588 
Q 1028 -725 1275 -790 
Q 1522 -856 1778 -856 
Q 2344 -856 2625 -561 
Q 2906 -266 2906 331 
L 2906 616 
Q 2728 306 2450 153 
Q 2172 0 1784 0 
Q 1141 0 747 490 
Q 353 981 353 1791 
Q 353 2603 747 3093 
Q 1141 3584 1784 3584 
Q 2172 3584 2450 3431 
Q 2728 3278 2906 2969 
L 2906 3500 
L 3481 3500 
L 3481 434 
z
" transform="scale(0.015625)"/>
       <path id="DejaVuSans-74" d="M 1172 4494 
L 1172 3500 
L 2356 3500 
L 2356 3053 
L 1172 3053 
L 1172 1153 
Q 1172 725 1289 603 
Q 1406 481 1766 481 
L 2356 481 
L 2356 0 
L 1766 0 
Q 1100 0 847 248 
Q 594 497 594 1153 
L 594 3053 
L 172 3053 
L 172 3500 
L 594 3500 
L 594 4494 
L 1172 4494 
z
" transform="scale(0.015625)"/>
       <path id="DejaVuSans-72" d="M 2631 2963 
Q 2534 3019 2420 3045 
Q 2306 3072 2169 3072 
Q 1681 3072 1420 2755 
Q 1159 2438 1159 1844 
L 1159 0 
L 581 0 
L 581 3500 
L 1159 3500 
L 1159 2956 
Q 1341 3275 1631 3429 
Q 1922 3584 2338 3584 
Q 2397 3584 2469 3576 
Q 2541 3569 2628 3553 
L 2631 2963 
z
" transform="scale(0.015625)"/>
       <path id="DejaVuSans-28" d="M 1984 4856 
Q 1566 4138 1362 3434 
Q 1159 2731 1159 2009 
Q 1159 1288 1364 580 
Q 1569 -128 1984 -844 
L 1484 -844 
Q 1016 -109 783 600 
Q 550 1309 550 2009 
Q 550 2706 781 3412 
Q 1013 4119 1484 4856 
L 1984 4856 
z
" transform="scale(0.015625)"/>
       <path id="DejaVuSans-50" d="M 1259 4147 
L 1259 2394 
L 2053 2394 
Q 2494 2394 2734 2622 
Q 2975 2850 2975 3272 
Q 2975 3691 2734 3919 
Q 2494 4147 2053 4147 
L 1259 4147 
z
M 628 4666 
L 2053 4666 
Q 2838 4666 3239 4311 
Q 3641 3956 3641 3272 
Q 3641 2581 3239 2228 
Q 2838 1875 2053 1875 
L 1259 1875 
L 1259 0 
L 628 0 
L 628 4666 
z
" transform="scale(0.015625)"/>
       <path id="DejaVuSans-4f" d="M 2522 4238 
Q 1834 4238 1429 3725 
Q 1025 3213 1025 2328 
Q 1025 1447 1429 934 
Q 1834 422 2522 422 
Q 3209 422 3611 934 
Q 4013 1447 4013 2328 
Q 4013 3213 3611 3725 
Q 3209 4238 2522 4238 
z
M 2522 4750 
Q 3503 4750 4090 4092 
Q 4678 3434 4678 2328 
Q 4678 1225 4090 567 
Q 3503 -91 2522 -91 
Q 1538 -91 948 565 
Q 359 1222 359 2328 
Q 359 3434 948 4092 
Q 1538 4750 2522 4750 
z
" transform="scale(0.015625)"/>
       <path id="DejaVuSans-43" d="M 4122 4306 
L 4122 3641 
Q 3803 3938 3442 4084 
Q 3081 4231 2675 4231 
Q 1875 4231 1450 3742 
Q 1025 3253 1025 2328 
Q 1025 1406 1450 917 
Q 1875 428 2675 428 
Q 3081 428 3442 575 
Q 3803 722 4122 1019 
L 4122 359 
Q 3791 134 3420 21 
Q 3050 -91 2638 -91 
Q 1578 -91 968 557 
Q 359 1206 359 2328 
Q 359 3453 968 4101 
Q 1578 4750 2638 4750 
Q 3056 4750 3426 4639 
Q 3797 4528 4122 4306 
z
" transform="scale(0.015625)"/>
       <path id="DejaVuSans-29" d="M 513 4856 
L 1013 4856 
Q 1481 4119 1714 3412 
Q 1947 2706 1947 2009 
Q 1947 1309 1714 600 
Q 1481 -109 1013 -844 
L 513 -844 
Q 928 -128 1133 580 
Q 1338 1288 1338 2009 
Q 1338 2731 1133 3434 
Q 928 4138 513 4856 
z
" transform="scale(0.015625)"/>
      </defs>
      <use xlink:href="#DejaVuSans-53"/>
      <use xlink:href="#DejaVuSans-69" x="63.476562"/>
      <use xlink:href="#DejaVuSans-6d" x="91.259766"/>
      <use xlink:href="#DejaVuSans-20" x="188.671875"/>
      <use xlink:href="#DejaVuSans-30" x="220.458984"/>
      <use xlink:href="#DejaVuSans-2e" x="284.082031"/>
      <use xlink:href="#DejaVuSans-35" x="315.869141"/>
      <use xlink:href="#DejaVuSans-20" x="379.492188"/>
      <use xlink:href="#DejaVuSans-6d" x="411.279297"/>
      <use xlink:href="#DejaVuSans-67" x="508.691406"/>
      <use xlink:href="#DejaVuSans-20" x="572.167969"/>
      <use xlink:href="#DejaVuSans-74" x="603.955078"/>
      <use xlink:href="#DejaVuSans-69" x="643.164062"/>
      <use xlink:href="#DejaVuSans-72" x="670.947266"/>
      <use xlink:href="#DejaVuSans-20" x="712.060547"/>
      <use xlink:href="#DejaVuSans-28" x="743.847656"/>
      <use xlink:href="#DejaVuSans-50" x="782.861328"/>
      <use xlink:href="#DejaVuSans-4f" x="843.164062"/>
      <use xlink:href="#DejaVuSans-43" x="921.875"/>
      <use xlink:href="#DejaVuSans-29" x="991.699219"/>
     </g>
    </g>
    <g id="LineCollection_5">
     <path d="M 272.909688 75.976562 
L 272.909688 65.976562 
" style="fill: none; stroke: #daa520"/>
    </g>
    <g id="line2d_25">
     <path d="M 262.909688 70.976562 
L 282.909688 70.976562 
" style="fill: none; stroke-dasharray: 3.7,1.6; stroke-dashoffset: 0; stroke: #daa520"/>
    </g>
    <g id="line2d_26">
     <g>
      <use xlink:href="#ma6951d4f2a" x="272.909688" y="70.976562" style="fill: #daa520; stroke: #000000; stroke-linejoin: miter"/>
     </g>
    </g>
    <g id="text_18">
     <!-- Data 0.5 mg (POC)±SD (n=53) -->
     <g transform="translate(290.909688 74.476562) scale(0.1 -0.1)">
      <defs>
       <path id="DejaVuSans-44" d="M 1259 4147 
L 1259 519 
L 2022 519 
Q 2988 519 3436 956 
Q 3884 1394 3884 2338 
Q 3884 3275 3436 3711 
Q 2988 4147 2022 4147 
L 1259 4147 
z
M 628 4666 
L 1925 4666 
Q 3281 4666 3915 4102 
Q 4550 3538 4550 2338 
Q 4550 1131 3912 565 
Q 3275 0 1925 0 
L 628 0 
L 628 4666 
z
" transform="scale(0.015625)"/>
       <path id="DejaVuSans-61" d="M 2194 1759 
Q 1497 1759 1228 1600 
Q 959 1441 959 1056 
Q 959 750 1161 570 
Q 1363 391 1709 391 
Q 2188 391 2477 730 
Q 2766 1069 2766 1631 
L 2766 1759 
L 2194 1759 
z
M 3341 1997 
L 3341 0 
L 2766 0 
L 2766 531 
Q 2569 213 2275 61 
Q 1981 -91 1556 -91 
Q 1019 -91 701 211 
Q 384 513 384 1019 
Q 384 1609 779 1909 
Q 1175 2209 1959 2209 
L 2766 2209 
L 2766 2266 
Q 2766 2663 2505 2880 
Q 2244 3097 1772 3097 
Q 1472 3097 1187 3025 
Q 903 2953 641 2809 
L 641 3341 
Q 956 3463 1253 3523 
Q 1550 3584 1831 3584 
Q 2591 3584 2966 3190 
Q 3341 2797 3341 1997 
z
" transform="scale(0.015625)"/>
       <path id="DejaVuSans-b1" d="M 2944 4013 
L 2944 2803 
L 4684 2803 
L 4684 2272 
L 2944 2272 
L 2944 1063 
L 2419 1063 
L 2419 2272 
L 678 2272 
L 678 2803 
L 2419 2803 
L 2419 4013 
L 2944 4013 
z
M 678 531 
L 4684 531 
L 4684 0 
L 678 0 
L 678 531 
z
" transform="scale(0.015625)"/>
       <path id="DejaVuSans-6e" d="M 3513 2113 
L 3513 0 
L 2938 0 
L 2938 2094 
Q 2938 2591 2744 2837 
Q 2550 3084 2163 3084 
Q 1697 3084 1428 2787 
Q 1159 2491 1159 1978 
L 1159 0 
L 581 0 
L 581 3500 
L 1159 3500 
L 1159 2956 
Q 1366 3272 1645 3428 
Q 1925 3584 2291 3584 
Q 2894 3584 3203 3211 
Q 3513 2838 3513 2113 
z
" transform="scale(0.015625)"/>
       <path id="DejaVuSans-3d" d="M 678 2906 
L 4684 2906 
L 4684 2381 
L 678 2381 
L 678 2906 
z
M 678 1631 
L 4684 1631 
L 4684 1100 
L 678 1100 
L 678 1631 
z
" transform="scale(0.015625)"/>
      </defs>
      <use xlink:href="#DejaVuSans-44"/>
      <use xlink:href="#DejaVuSans-61" x="77.001953"/>
      <use xlink:href="#DejaVuSans-74" x="138.28125"/>
      <use xlink:href="#DejaVuSans-61" x="177.490234"/>
      <use xlink:href="#DejaVuSans-20" x="238.769531"/>
      <use xlink:href="#DejaVuSans-30" x="270.556641"/>
      <use xlink:href="#DejaVuSans-2e" x="334.179688"/>
      <use xlink:href="#DejaVuSans-35" x="365.966797"/>
      <use xlink:href="#DejaVuSans-20" x="429.589844"/>
      <use xlink:href="#DejaVuSans-6d" x="461.376953"/>
      <use xlink:href="#DejaVuSans-67" x="558.789062"/>
      <use xlink:href="#DejaVuSans-20" x="622.265625"/>
      <use xlink:href="#DejaVuSans-28" x="654.052734"/>
      <use xlink:href="#DejaVuSans-50" x="693.066406"/>
      <use xlink:href="#DejaVuSans-4f" x="753.369141"/>
      <use xlink:href="#DejaVuSans-43" x="832.080078"/>
      <use xlink:href="#DejaVuSans-29" x="901.904297"/>
      <use xlink:href="#DejaVuSans-b1" x="940.917969"/>
      <use xlink:href="#DejaVuSans-53" x="1024.707031"/>
      <use xlink:href="#DejaVuSans-44" x="1088.183594"/>
      <use xlink:href="#DejaVuSans-20" x="1165.185547"/>
      <use xlink:href="#DejaVuSans-28" x="1196.972656"/>
      <use xlink:href="#DejaVuSans-6e" x="1235.986328"/>
      <use xlink:href="#DejaVuSans-3d" x="1299.365234"/>
      <use xlink:href="#DejaVuSans-35" x="1383.154297"/>
      <use xlink:href="#DejaVuSans-33" x="1446.777344"/>
      <use xlink:href="#DejaVuSans-29" x="1510.400391"/>
     </g>
    </g>
    <g id="line2d_27">
     <path d="M 262.909688 85.654687 
L 282.909688 85.654687 
" style="fill: none; stroke: #4b0082; stroke-width: 2; stroke-linecap: square"/>
    </g>
    <g id="line2d_28"/>
    <g id="text_19">
     <!-- Sim 5 mg tir (POC) -->
     <g transform="translate(290.909688 89.154687) scale(0.1 -0.1)">
      <use xlink:href="#DejaVuSans-53"/>
      <use xlink:href="#DejaVuSans-69" x="63.476562"/>
      <use xlink:href="#DejaVuSans-6d" x="91.259766"/>
      <use xlink:href="#DejaVuSans-20" x="188.671875"/>
      <use xlink:href="#DejaVuSans-35" x="220.458984"/>
      <use xlink:href="#DejaVuSans-20" x="284.082031"/>
      <use xlink:href="#DejaVuSans-6d" x="315.869141"/>
      <use xlink:href="#DejaVuSans-67" x="413.28125"/>
      <use xlink:href="#DejaVuSans-20" x="476.757812"/>
      <use xlink:href="#DejaVuSans-74" x="508.544922"/>
      <use xlink:href="#DejaVuSans-69" x="547.753906"/>
      <use xlink:href="#DejaVuSans-72" x="575.537109"/>
      <use xlink:href="#DejaVuSans-20" x="616.650391"/>
      <use xlink:href="#DejaVuSans-28" x="648.4375"/>
      <use xlink:href="#DejaVuSans-50" x="687.451172"/>
      <use xlink:href="#DejaVuSans-4f" x="747.753906"/>
      <use xlink:href="#DejaVuSans-43" x="826.464844"/>
      <use xlink:href="#DejaVuSans-29" x="896.289062"/>
     </g>
    </g>
    <g id="LineCollection_6">
     <path d="M 272.909688 105.332812 
L 272.909688 95.332812 
" style="fill: none; stroke: #4b0082"/>
    </g>
    <g id="line2d_29">
     <path d="M 262.909688 100.332812 
L 282.909688 100.332812 
" style="fill: none; stroke-dasharray: 3.7,1.6; stroke-dashoffset: 0; stroke: #4b0082"/>
    </g>
    <g id="line2d_30">
     <g>
      <use xlink:href="#m5467ffaaf2" x="272.909688" y="100.332812" style="fill: #4b0082; stroke: #000000; stroke-linejoin: miter"/>
     </g>
    </g>
    <g id="text_20">
     <!-- Data 5 mg (POC)±SD (n=53) -->
     <g transform="translate(290.909688 103.832812) scale(0.1 -0.1)">
      <use xlink:href="#DejaVuSans-44"/>
      <use xlink:href="#DejaVuSans-61" x="77.001953"/>
      <use xlink:href="#DejaVuSans-74" x="138.28125"/>
      <use xlink:href="#DejaVuSans-61" x="177.490234"/>
      <use xlink:href="#DejaVuSans-20" x="238.769531"/>
      <use xlink:href="#DejaVuSans-35" x="270.556641"/>
      <use xlink:href="#DejaVuSans-20" x="334.179688"/>
      <use xlink:href="#DejaVuSans-6d" x="365.966797"/>
      <use xlink:href="#DejaVuSans-67" x="463.378906"/>
      <use xlink:href="#DejaVuSans-20" x="526.855469"/>
      <use xlink:href="#DejaVuSans-28" x="558.642578"/>
      <use xlink:href="#DejaVuSans-50" x="597.65625"/>
      <use xlink:href="#DejaVuSans-4f" x="657.958984"/>
      <use xlink:href="#DejaVuSans-43" x="736.669922"/>
      <use xlink:href="#DejaVuSans-29" x="806.494141"/>
      <use xlink:href="#DejaVuSans-b1" x="845.507812"/>
      <use xlink:href="#DejaVuSans-53" x="929.296875"/>
      <use xlink:href="#DejaVuSans-44" x="992.773438"/>
      <use xlink:href="#DejaVuSans-20" x="1069.775391"/>
      <use xlink:href="#DejaVuSans-28" x="1101.5625"/>
      <use xlink:href="#DejaVuSans-6e" x="1140.576172"/>
      <use xlink:href="#DejaVuSans-3d" x="1203.955078"/>
      <use xlink:href="#DejaVuSans-35" x="1287.744141"/>
      <use xlink:href="#DejaVuSans-33" x="1351.367188"/>
      <use xlink:href="#DejaVuSans-29" x="1414.990234"/>
     </g>
    </g>
    <g id="line2d_31">
     <path d="M 262.909688 115.010937 
L 282.909688 115.010937 
" style="fill: none; stroke: #00bfff; stroke-width: 2; stroke-linecap: square"/>
    </g>
    <g id="line2d_32"/>
    <g id="text_21">
     <!-- Sim 10 mg tir (POC) -->
     <g transform="translate(290.909688 118.510937) scale(0.1 -0.1)">
      <use xlink:href="#DejaVuSans-53"/>
      <use xlink:href="#DejaVuSans-69" x="63.476562"/>
      <use xlink:href="#DejaVuSans-6d" x="91.259766"/>
      <use xlink:href="#DejaVuSans-20" x="188.671875"/>
      <use xlink:href="#DejaVuSans-31" x="220.458984"/>
      <use xlink:href="#DejaVuSans-30" x="284.082031"/>
      <use xlink:href="#DejaVuSans-20" x="347.705078"/>
      <use xlink:href="#DejaVuSans-6d" x="379.492188"/>
      <use xlink:href="#DejaVuSans-67" x="476.904297"/>
      <use xlink:href="#DejaVuSans-20" x="540.380859"/>
      <use xlink:href="#DejaVuSans-74" x="572.167969"/>
      <use xlink:href="#DejaVuSans-69" x="611.376953"/>
      <use xlink:href="#DejaVuSans-72" x="639.160156"/>
      <use xlink:href="#DejaVuSans-20" x="680.273438"/>
      <use xlink:href="#DejaVuSans-28" x="712.060547"/>
      <use xlink:href="#DejaVuSans-50" x="751.074219"/>
      <use xlink:href="#DejaVuSans-4f" x="811.376953"/>
      <use xlink:href="#DejaVuSans-43" x="890.087891"/>
      <use xlink:href="#DejaVuSans-29" x="959.912109"/>
     </g>
    </g>
    <g id="LineCollection_7">
     <path d="M 272.909688 134.689062 
L 272.909688 124.689062 
" style="fill: none; stroke: #00bfff"/>
    </g>
    <g id="line2d_33">
     <path d="M 262.909688 129.689062 
L 282.909688 129.689062 
" style="fill: none; stroke-dasharray: 3.7,1.6; stroke-dashoffset: 0; stroke: #00bfff"/>
    </g>
    <g id="line2d_34">
     <g>
      <use xlink:href="#m89c039b9e0" x="272.909688" y="129.689062" style="fill: #00bfff; stroke: #000000; stroke-linejoin: miter"/>
     </g>
    </g>
    <g id="text_22">
     <!-- Data 10 mg (POC)±SD (n=53) -->
     <g transform="translate(290.909688 133.189062) scale(0.1 -0.1)">
      <use xlink:href="#DejaVuSans-44"/>
      <use xlink:href="#DejaVuSans-61" x="77.001953"/>
      <use xlink:href="#DejaVuSans-74" x="138.28125"/>
      <use xlink:href="#DejaVuSans-61" x="177.490234"/>
      <use xlink:href="#DejaVuSans-20" x="238.769531"/>
      <use xlink:href="#DejaVuSans-31" x="270.556641"/>
      <use xlink:href="#DejaVuSans-30" x="334.179688"/>
      <use xlink:href="#DejaVuSans-20" x="397.802734"/>
      <use xlink:href="#DejaVuSans-6d" x="429.589844"/>
      <use xlink:href="#DejaVuSans-67" x="527.001953"/>
      <use xlink:href="#DejaVuSans-20" x="590.478516"/>
      <use xlink:href="#DejaVuSans-28" x="622.265625"/>
      <use xlink:href="#DejaVuSans-50" x="661.279297"/>
      <use xlink:href="#DejaVuSans-4f" x="721.582031"/>
      <use xlink:href="#DejaVuSans-43" x="800.292969"/>
      <use xlink:href="#DejaVuSans-29" x="870.117188"/>
      <use xlink:href="#DejaVuSans-b1" x="909.130859"/>
      <use xlink:href="#DejaVuSans-53" x="992.919922"/>
      <use xlink:href="#DejaVuSans-44" x="1056.396484"/>
      <use xlink:href="#DejaVuSans-20" x="1133.398438"/>
      <use xlink:href="#DejaVuSans-28" x="1165.185547"/>
      <use xlink:href="#DejaVuSans-6e" x="1204.199219"/>
      <use xlink:href="#DejaVuSans-3d" x="1267.578125"/>
      <use xlink:href="#DejaVuSans-35" x="1351.367188"/>
      <use xlink:href="#DejaVuSans-33" x="1414.990234"/>
      <use xlink:href="#DejaVuSans-29" x="1478.613281"/>
     </g>
    </g>
    <g id="line2d_35">
     <path d="M 262.909688 144.367187 
L 282.909688 144.367187 
" style="fill: none; stroke: #8b0000; stroke-width: 2; stroke-linecap: square"/>
    </g>
    <g id="line2d_36"/>
    <g id="text_23">
     <!-- Sim 15 mg tir (POC) -->
     <g transform="translate(290.909688 147.867187) scale(0.1 -0.1)">
      <use xlink:href="#DejaVuSans-53"/>
      <use xlink:href="#DejaVuSans-69" x="63.476562"/>
      <use xlink:href="#DejaVuSans-6d" x="91.259766"/>
      <use xlink:href="#DejaVuSans-20" x="188.671875"/>
      <use xlink:href="#DejaVuSans-31" x="220.458984"/>
      <use xlink:href="#DejaVuSans-35" x="284.082031"/>
      <use xlink:href="#DejaVuSans-20" x="347.705078"/>
      <use xlink:href="#DejaVuSans-6d" x="379.492188"/>
      <use xlink:href="#DejaVuSans-67" x="476.904297"/>
      <use xlink:href="#DejaVuSans-20" x="540.380859"/>
      <use xlink:href="#DejaVuSans-74" x="572.167969"/>
      <use xlink:href="#DejaVuSans-69" x="611.376953"/>
      <use xlink:href="#DejaVuSans-72" x="639.160156"/>
      <use xlink:href="#DejaVuSans-20" x="680.273438"/>
      <use xlink:href="#DejaVuSans-28" x="712.060547"/>
      <use xlink:href="#DejaVuSans-50" x="751.074219"/>
      <use xlink:href="#DejaVuSans-4f" x="811.376953"/>
      <use xlink:href="#DejaVuSans-43" x="890.087891"/>
      <use xlink:href="#DejaVuSans-29" x="959.912109"/>
     </g>
    </g>
    <g id="LineCollection_8">
     <path d="M 272.909688 164.045312 
L 272.909688 154.045312 
" style="fill: none; stroke: #8b0000"/>
    </g>
    <g id="line2d_37">
     <path d="M 262.909688 159.045312 
L 282.909688 159.045312 
" style="fill: none; stroke-dasharray: 3.7,1.6; stroke-dashoffset: 0; stroke: #8b0000"/>
    </g>
    <g id="line2d_38">
     <g>
      <use xlink:href="#m0696ed04c6" x="272.909688" y="159.045312" style="fill: #8b0000; stroke: #000000; stroke-linejoin: miter"/>
     </g>
    </g>
    <g id="text_24">
     <!-- Data 15 mg (POC)±SD (n=53) -->
     <g transform="translate(290.909688 162.545312) scale(0.1 -0.1)">
      <use xlink:href="#DejaVuSans-44"/>
      <use xlink:href="#DejaVuSans-61" x="77.001953"/>
      <use xlink:href="#DejaVuSans-74" x="138.28125"/>
      <use xlink:href="#DejaVuSans-61" x="177.490234"/>
      <use xlink:href="#DejaVuSans-20" x="238.769531"/>
      <use xlink:href="#DejaVuSans-31" x="270.556641"/>
      <use xlink:href="#DejaVuSans-35" x="334.179688"/>
      <use xlink:href="#DejaVuSans-20" x="397.802734"/>
      <use xlink:href="#DejaVuSans-6d" x="429.589844"/>
      <use xlink:href="#DejaVuSans-67" x="527.001953"/>
      <use xlink:href="#DejaVuSans-20" x="590.478516"/>
      <use xlink:href="#DejaVuSans-28" x="622.265625"/>
      <use xlink:href="#DejaVuSans-50" x="661.279297"/>
      <use xlink:href="#DejaVuSans-4f" x="721.582031"/>
      <use xlink:href="#DejaVuSans-43" x="800.292969"/>
      <use xlink:href="#DejaVuSans-29" x="870.117188"/>
      <use xlink:href="#DejaVuSans-b1" x="909.130859"/>
      <use xlink:href="#DejaVuSans-53" x="992.919922"/>
      <use xlink:href="#DejaVuSans-44" x="1056.396484"/>
      <use xlink:href="#DejaVuSans-20" x="1133.398438"/>
      <use xlink:href="#DejaVuSans-28" x="1165.185547"/>
      <use xlink:href="#DejaVuSans-6e" x="1204.199219"/>
      <use xlink:href="#DejaVuSans-3d" x="1267.578125"/>
      <use xlink:href="#DejaVuSans-35" x="1351.367188"/>
      <use xlink:href="#DejaVuSans-33" x="1414.990234"/>
      <use xlink:href="#DejaVuSans-29" x="1478.613281"/>
     </g>
    </g>
   </g>
  </g>
  <g id="text_25">
   <!-- Coskun2018 (POC) -->
   <g transform="translate(122.412031 26.196094) scale(0.25 -0.25)">
    <defs>
     <path id="DejaVuSans-Bold-43" d="M 4288 256 
Q 3956 84 3597 -3 
Q 3238 -91 2847 -91 
Q 1681 -91 1000 561 
Q 319 1213 319 2328 
Q 319 3447 1000 4098 
Q 1681 4750 2847 4750 
Q 3238 4750 3597 4662 
Q 3956 4575 4288 4403 
L 4288 3438 
Q 3953 3666 3628 3772 
Q 3303 3878 2944 3878 
Q 2300 3878 1931 3465 
Q 1563 3053 1563 2328 
Q 1563 1606 1931 1193 
Q 2300 781 2944 781 
Q 3303 781 3628 887 
Q 3953 994 4288 1222 
L 4288 256 
z
" transform="scale(0.015625)"/>
     <path id="DejaVuSans-Bold-6f" d="M 2203 2784 
Q 1831 2784 1636 2517 
Q 1441 2250 1441 1747 
Q 1441 1244 1636 976 
Q 1831 709 2203 709 
Q 2569 709 2762 976 
Q 2956 1244 2956 1747 
Q 2956 2250 2762 2517 
Q 2569 2784 2203 2784 
z
M 2203 3584 
Q 3106 3584 3614 3096 
Q 4122 2609 4122 1747 
Q 4122 884 3614 396 
Q 3106 -91 2203 -91 
Q 1297 -91 786 396 
Q 275 884 275 1747 
Q 275 2609 786 3096 
Q 1297 3584 2203 3584 
z
" transform="scale(0.015625)"/>
     <path id="DejaVuSans-Bold-73" d="M 3272 3391 
L 3272 2541 
Q 2913 2691 2578 2766 
Q 2244 2841 1947 2841 
Q 1628 2841 1473 2761 
Q 1319 2681 1319 2516 
Q 1319 2381 1436 2309 
Q 1553 2238 1856 2203 
L 2053 2175 
Q 2913 2066 3209 1816 
Q 3506 1566 3506 1031 
Q 3506 472 3093 190 
Q 2681 -91 1863 -91 
Q 1516 -91 1145 -36 
Q 775 19 384 128 
L 384 978 
Q 719 816 1070 734 
Q 1422 653 1784 653 
Q 2113 653 2278 743 
Q 2444 834 2444 1013 
Q 2444 1163 2330 1236 
Q 2216 1309 1875 1350 
L 1678 1375 
Q 931 1469 631 1722 
Q 331 1975 331 2491 
Q 331 3047 712 3315 
Q 1094 3584 1881 3584 
Q 2191 3584 2531 3537 
Q 2872 3491 3272 3391 
z
" transform="scale(0.015625)"/>
     <path id="DejaVuSans-Bold-75" d="M 500 1363 
L 500 3500 
L 1625 3500 
L 1625 3150 
Q 1625 2866 1622 2436 
Q 1619 2006 1619 1863 
Q 1619 1441 1641 1255 
Q 1663 1069 1716 984 
Q 1784 875 1895 815 
Q 2006 756 2150 756 
Q 2500 756 2700 1025 
Q 2900 1294 2900 1772 
L 2900 3500 
L 4019 3500 
L 4019 0 
L 2900 0 
L 2900 506 
Q 2647 200 2364 54 
Q 2081 -91 1741 -91 
Q 1134 -91 817 281 
Q 500 653 500 1363 
z
" transform="scale(0.015625)"/>
     <path id="DejaVuSans-Bold-32" d="M 1844 884 
L 3897 884 
L 3897 0 
L 506 0 
L 506 884 
L 2209 2388 
Q 2438 2594 2547 2791 
Q 2656 2988 2656 3200 
Q 2656 3528 2436 3728 
Q 2216 3928 1850 3928 
Q 1569 3928 1234 3808 
Q 900 3688 519 3450 
L 519 4475 
Q 925 4609 1322 4679 
Q 1719 4750 2100 4750 
Q 2938 4750 3402 4381 
Q 3866 4013 3866 3353 
Q 3866 2972 3669 2642 
Q 3472 2313 2841 1759 
L 1844 884 
z
" transform="scale(0.015625)"/>
     <path id="DejaVuSans-Bold-30" d="M 2944 2338 
Q 2944 3213 2780 3570 
Q 2616 3928 2228 3928 
Q 1841 3928 1675 3570 
Q 1509 3213 1509 2338 
Q 1509 1453 1675 1090 
Q 1841 728 2228 728 
Q 2613 728 2778 1090 
Q 2944 1453 2944 2338 
z
M 4147 2328 
Q 4147 1169 3647 539 
Q 3147 -91 2228 -91 
Q 1306 -91 806 539 
Q 306 1169 306 2328 
Q 306 3491 806 4120 
Q 1306 4750 2228 4750 
Q 3147 4750 3647 4120 
Q 4147 3491 4147 2328 
z
" transform="scale(0.015625)"/>
     <path id="DejaVuSans-Bold-31" d="M 750 831 
L 1813 831 
L 1813 3847 
L 722 3622 
L 722 4441 
L 1806 4666 
L 2950 4666 
L 2950 831 
L 4013 831 
L 4013 0 
L 750 0 
L 750 831 
z
" transform="scale(0.015625)"/>
     <path id="DejaVuSans-Bold-38" d="M 2228 2088 
Q 1891 2088 1709 1903 
Q 1528 1719 1528 1375 
Q 1528 1031 1709 848 
Q 1891 666 2228 666 
Q 2563 666 2741 848 
Q 2919 1031 2919 1375 
Q 2919 1722 2741 1905 
Q 2563 2088 2228 2088 
z
M 1350 2484 
Q 925 2613 709 2878 
Q 494 3144 494 3541 
Q 494 4131 934 4440 
Q 1375 4750 2228 4750 
Q 3075 4750 3515 4442 
Q 3956 4134 3956 3541 
Q 3956 3144 3739 2878 
Q 3522 2613 3097 2484 
Q 3572 2353 3814 2058 
Q 4056 1763 4056 1313 
Q 4056 619 3595 264 
Q 3134 -91 2228 -91 
Q 1319 -91 855 264 
Q 391 619 391 1313 
Q 391 1763 633 2058 
Q 875 2353 1350 2484 
z
M 1631 3419 
Q 1631 3141 1786 2991 
Q 1941 2841 2228 2841 
Q 2509 2841 2662 2991 
Q 2816 3141 2816 3419 
Q 2816 3697 2662 3845 
Q 2509 3994 2228 3994 
Q 1941 3994 1786 3844 
Q 1631 3694 1631 3419 
z
" transform="scale(0.015625)"/>
     <path id="DejaVuSans-Bold-28" d="M 2413 -844 
L 1484 -844 
Q 1006 -72 778 623 
Q 550 1319 550 2003 
Q 550 2688 779 3389 
Q 1009 4091 1484 4856 
L 2413 4856 
Q 2013 4116 1813 3408 
Q 1613 2700 1613 2009 
Q 1613 1319 1811 609 
Q 2009 -100 2413 -844 
z
" transform="scale(0.015625)"/>
     <path id="DejaVuSans-Bold-50" d="M 588 4666 
L 2584 4666 
Q 3475 4666 3951 4270 
Q 4428 3875 4428 3144 
Q 4428 2409 3951 2014 
Q 3475 1619 2584 1619 
L 1791 1619 
L 1791 0 
L 588 0 
L 588 4666 
z
M 1791 3794 
L 1791 2491 
L 2456 2491 
Q 2806 2491 2997 2661 
Q 3188 2831 3188 3144 
Q 3188 3456 2997 3625 
Q 2806 3794 2456 3794 
L 1791 3794 
z
" transform="scale(0.015625)"/>
     <path id="DejaVuSans-Bold-4f" d="M 2719 3878 
Q 2169 3878 1866 3472 
Q 1563 3066 1563 2328 
Q 1563 1594 1866 1187 
Q 2169 781 2719 781 
Q 3272 781 3575 1187 
Q 3878 1594 3878 2328 
Q 3878 3066 3575 3472 
Q 3272 3878 2719 3878 
z
M 2719 4750 
Q 3844 4750 4481 4106 
Q 5119 3463 5119 2328 
Q 5119 1197 4481 553 
Q 3844 -91 2719 -91 
Q 1597 -91 958 553 
Q 319 1197 319 2328 
Q 319 3463 958 4106 
Q 1597 4750 2719 4750 
z
" transform="scale(0.015625)"/>
     <path id="DejaVuSans-Bold-29" d="M 513 -844 
Q 913 -100 1113 609 
Q 1313 1319 1313 2009 
Q 1313 2700 1113 3408 
Q 913 4116 513 4856 
L 1441 4856 
Q 1916 4091 2145 3389 
Q 2375 2688 2375 2003 
Q 2375 1319 2147 623 
Q 1919 -72 1441 -844 
L 513 -844 
z
" transform="scale(0.015625)"/>
    </defs>
    <use xlink:href="#DejaVuSans-Bold-43"/>
    <use xlink:href="#DejaVuSans-Bold-6f" x="73.388672"/>
    <use xlink:href="#DejaVuSans-Bold-73" x="142.089844"/>
    <use xlink:href="#DejaVuSans-Bold-6b" x="201.611328"/>
    <use xlink:href="#DejaVuSans-Bold-75" x="268.115234"/>
    <use xlink:href="#DejaVuSans-Bold-6e" x="339.306641"/>
    <use xlink:href="#DejaVuSans-Bold-32" x="410.498047"/>
    <use xlink:href="#DejaVuSans-Bold-30" x="480.078125"/>
    <use xlink:href="#DejaVuSans-Bold-31" x="549.658203"/>
    <use xlink:href="#DejaVuSans-Bold-38" x="619.238281"/>
    <use xlink:href="#DejaVuSans-Bold-20" x="688.818359"/>
    <use xlink:href="#DejaVuSans-Bold-28" x="723.632812"/>
    <use xlink:href="#DejaVuSans-Bold-50" x="769.335938"/>
    <use xlink:href="#DejaVuSans-Bold-4f" x="842.626953"/>
    <use xlink:href="#DejaVuSans-Bold-43" x="927.636719"/>
    <use xlink:href="#DejaVuSans-Bold-29" x="1001.025391"/>
   </g>
  </g>
 </g>
 <defs>
  <clipPath id="pf922eed938">
   <rect x="64.251875" y="43.2" width="390.6" height="277.2"/>
  </clipPath>
 </defs>
</svg>
