<?xml version="1.0" encoding="utf-8" standalone="no"?>
<!DOCTYPE svg PUBLIC "-//W3C//DTD SVG 1.1//EN"
  "http://www.w3.org/Graphics/SVG/1.1/DTD/svg11.dtd">
<svg xmlns:xlink="http://www.w3.org/1999/xlink" width="482.2175pt" height="370.537812pt" viewBox="0 0 482.2175 370.537812" xmlns="http://www.w3.org/2000/svg" version="1.1">
 <metadata>
  <rdf:RDF xmlns:dc="http://purl.org/dc/elements/1.1/" xmlns:cc="http://creativecommons.org/ns#" xmlns:rdf="http://www.w3.org/1999/02/22-rdf-syntax-ns#">
   <cc:Work>
    <dc:type rdf:resource="http://purl.org/dc/dcmitype/StillImage"/>
    <dc:date>2025-03-07T00:13:24.334645</dc:date>
    <dc:format>image/svg+xml</dc:format>
    <dc:creator>
     <cc:Agent>
      <dc:title>Matplotlib v3.9.1, https://matplotlib.org/</dc:title>
     </cc:Agent>
    </dc:creator>
   </cc:Work>
  </rdf:RDF>
 </metadata>
 <defs>
  <style type="text/css">*{stroke-linejoin: round; stroke-linecap: butt}</style>
 </defs>
 <g id="figure_1">
  <g id="patch_1">
   <path d="M 0 370.537812 
L 482.2175 370.537812 
L 482.2175 0 
L 0 0 
z
" style="fill: #ffffff"/>
  </g>
  <g id="axes_1">
   <g id="patch_2">
    <path d="M 64.251875 320.4 
L 454.851875 320.4 
L 454.851875 43.2 
L 64.251875 43.2 
z
" style="fill: #ffffff"/>
   </g>
   <g id="matplotlib.axis_1">
    <g id="xtick_1">
     <g id="line2d_1">
      <defs>
       <path id="maf6c5a7644" d="M 0 0 
L 0 3.5 
" style="stroke: #000000; stroke-width: 0.8"/>
      </defs>
      <g>
       <use xlink:href="#maf6c5a7644" x="82.00642" y="320.4" style="stroke: #000000; stroke-width: 0.8"/>
      </g>
     </g>
     <g id="text_1">
      <!-- 0 -->
      <g transform="translate(77.234545 338.797656) scale(0.15 -0.15)">
       <defs>
        <path id="DejaVuSans-30" d="M 2034 4250 
Q 1547 4250 1301 3770 
Q 1056 3291 1056 2328 
Q 1056 1369 1301 889 
Q 1547 409 2034 409 
Q 2525 409 2770 889 
Q 3016 1369 3016 2328 
Q 3016 3291 2770 3770 
Q 2525 4250 2034 4250 
z
M 2034 4750 
Q 2819 4750 3233 4129 
Q 3647 3509 3647 2328 
Q 3647 1150 3233 529 
Q 2819 -91 2034 -91 
Q 1250 -91 836 529 
Q 422 1150 422 2328 
Q 422 3509 836 4129 
Q 1250 4750 2034 4750 
z
" transform="scale(0.015625)"/>
       </defs>
       <use xlink:href="#DejaVuSans-30"/>
      </g>
     </g>
    </g>
    <g id="xtick_2">
     <g id="line2d_2">
      <g>
       <use xlink:href="#maf6c5a7644" x="153.024602" y="320.4" style="stroke: #000000; stroke-width: 0.8"/>
      </g>
     </g>
     <g id="text_2">
      <!-- 1 -->
      <g transform="translate(148.252727 338.797656) scale(0.15 -0.15)">
       <defs>
        <path id="DejaVuSans-31" d="M 794 531 
L 1825 531 
L 1825 4091 
L 703 3866 
L 703 4441 
L 1819 4666 
L 2450 4666 
L 2450 531 
L 3481 531 
L 3481 0 
L 794 0 
L 794 531 
z
" transform="scale(0.015625)"/>
       </defs>
       <use xlink:href="#DejaVuSans-31"/>
      </g>
     </g>
    </g>
    <g id="xtick_3">
     <g id="line2d_3">
      <g>
       <use xlink:href="#maf6c5a7644" x="224.042784" y="320.4" style="stroke: #000000; stroke-width: 0.8"/>
      </g>
     </g>
     <g id="text_3">
      <!-- 2 -->
      <g transform="translate(219.270909 338.797656) scale(0.15 -0.15)">
       <defs>
        <path id="DejaVuSans-32" d="M 1228 531 
L 3431 531 
L 3431 0 
L 469 0 
L 469 531 
Q 828 903 1448 1529 
Q 2069 2156 2228 2338 
Q 2531 2678 2651 2914 
Q 2772 3150 2772 3378 
Q 2772 3750 2511 3984 
Q 2250 4219 1831 4219 
Q 1534 4219 1204 4116 
Q 875 4013 500 3803 
L 500 4441 
Q 881 4594 1212 4672 
Q 1544 4750 1819 4750 
Q 2544 4750 2975 4387 
Q 3406 4025 3406 3419 
Q 3406 3131 3298 2873 
Q 3191 2616 2906 2266 
Q 2828 2175 2409 1742 
Q 1991 1309 1228 531 
z
" transform="scale(0.015625)"/>
       </defs>
       <use xlink:href="#DejaVuSans-32"/>
      </g>
     </g>
    </g>
    <g id="xtick_4">
     <g id="line2d_4">
      <g>
       <use xlink:href="#maf6c5a7644" x="295.060966" y="320.4" style="stroke: #000000; stroke-width: 0.8"/>
      </g>
     </g>
     <g id="text_4">
      <!-- 3 -->
      <g transform="translate(290.289091 338.797656) scale(0.15 -0.15)">
       <defs>
        <path id="DejaVuSans-33" d="M 2597 2516 
Q 3050 2419 3304 2112 
Q 3559 1806 3559 1356 
Q 3559 666 3084 287 
Q 2609 -91 1734 -91 
Q 1441 -91 1130 -33 
Q 819 25 488 141 
L 488 750 
Q 750 597 1062 519 
Q 1375 441 1716 441 
Q 2309 441 2620 675 
Q 2931 909 2931 1356 
Q 2931 1769 2642 2001 
Q 2353 2234 1838 2234 
L 1294 2234 
L 1294 2753 
L 1863 2753 
Q 2328 2753 2575 2939 
Q 2822 3125 2822 3475 
Q 2822 3834 2567 4026 
Q 2313 4219 1838 4219 
Q 1578 4219 1281 4162 
Q 984 4106 628 3988 
L 628 4550 
Q 988 4650 1302 4700 
Q 1616 4750 1894 4750 
Q 2613 4750 3031 4423 
Q 3450 4097 3450 3541 
Q 3450 3153 3228 2886 
Q 3006 2619 2597 2516 
z
" transform="scale(0.015625)"/>
       </defs>
       <use xlink:href="#DejaVuSans-33"/>
      </g>
     </g>
    </g>
    <g id="xtick_5">
     <g id="line2d_5">
      <g>
       <use xlink:href="#maf6c5a7644" x="366.079148" y="320.4" style="stroke: #000000; stroke-width: 0.8"/>
      </g>
     </g>
     <g id="text_5">
      <!-- 4 -->
      <g transform="translate(361.307273 338.797656) scale(0.15 -0.15)">
       <defs>
        <path id="DejaVuSans-34" d="M 2419 4116 
L 825 1625 
L 2419 1625 
L 2419 4116 
z
M 2253 4666 
L 3047 4666 
L 3047 1625 
L 3713 1625 
L 3713 1100 
L 3047 1100 
L 3047 0 
L 2419 0 
L 2419 1100 
L 313 1100 
L 313 1709 
L 2253 4666 
z
" transform="scale(0.015625)"/>
       </defs>
       <use xlink:href="#DejaVuSans-34"/>
      </g>
     </g>
    </g>
    <g id="xtick_6">
     <g id="line2d_6">
      <g>
       <use xlink:href="#maf6c5a7644" x="437.09733" y="320.4" style="stroke: #000000; stroke-width: 0.8"/>
      </g>
     </g>
     <g id="text_6">
      <!-- 5 -->
      <g transform="translate(432.325455 338.797656) scale(0.15 -0.15)">
       <defs>
        <path id="DejaVuSans-35" d="M 691 4666 
L 3169 4666 
L 3169 4134 
L 1269 4134 
L 1269 2991 
Q 1406 3038 1543 3061 
Q 1681 3084 1819 3084 
Q 2600 3084 3056 2656 
Q 3513 2228 3513 1497 
Q 3513 744 3044 326 
Q 2575 -91 1722 -91 
Q 1428 -91 1123 -41 
Q 819 9 494 109 
L 494 744 
Q 775 591 1075 516 
Q 1375 441 1709 441 
Q 2250 441 2565 725 
Q 2881 1009 2881 1497 
Q 2881 1984 2565 2268 
Q 2250 2553 1709 2553 
Q 1456 2553 1204 2497 
Q 953 2441 691 2322 
L 691 4666 
z
" transform="scale(0.015625)"/>
       </defs>
       <use xlink:href="#DejaVuSans-35"/>
      </g>
     </g>
    </g>
    <g id="text_7">
     <!-- time [week] -->
     <g transform="translate(198.813125 359.594375) scale(0.18 -0.18)">
      <defs>
       <path id="DejaVuSans-Bold-74" d="M 1759 4494 
L 1759 3500 
L 2913 3500 
L 2913 2700 
L 1759 2700 
L 1759 1216 
Q 1759 972 1856 886 
Q 1953 800 2241 800 
L 2816 800 
L 2816 0 
L 1856 0 
Q 1194 0 917 276 
Q 641 553 641 1216 
L 641 2700 
L 84 2700 
L 84 3500 
L 641 3500 
L 641 4494 
L 1759 4494 
z
" transform="scale(0.015625)"/>
       <path id="DejaVuSans-Bold-69" d="M 538 3500 
L 1656 3500 
L 1656 0 
L 538 0 
L 538 3500 
z
M 538 4863 
L 1656 4863 
L 1656 3950 
L 538 3950 
L 538 4863 
z
" transform="scale(0.015625)"/>
       <path id="DejaVuSans-Bold-6d" d="M 3781 2919 
Q 3994 3244 4286 3414 
Q 4578 3584 4928 3584 
Q 5531 3584 5847 3212 
Q 6163 2841 6163 2131 
L 6163 0 
L 5038 0 
L 5038 1825 
Q 5041 1866 5042 1909 
Q 5044 1953 5044 2034 
Q 5044 2406 4934 2573 
Q 4825 2741 4581 2741 
Q 4263 2741 4089 2478 
Q 3916 2216 3909 1719 
L 3909 0 
L 2784 0 
L 2784 1825 
Q 2784 2406 2684 2573 
Q 2584 2741 2328 2741 
Q 2006 2741 1831 2477 
Q 1656 2213 1656 1722 
L 1656 0 
L 531 0 
L 531 3500 
L 1656 3500 
L 1656 2988 
Q 1863 3284 2130 3434 
Q 2397 3584 2719 3584 
Q 3081 3584 3359 3409 
Q 3638 3234 3781 2919 
z
" transform="scale(0.015625)"/>
       <path id="DejaVuSans-Bold-65" d="M 4031 1759 
L 4031 1441 
L 1416 1441 
Q 1456 1047 1700 850 
Q 1944 653 2381 653 
Q 2734 653 3104 758 
Q 3475 863 3866 1075 
L 3866 213 
Q 3469 63 3072 -14 
Q 2675 -91 2278 -91 
Q 1328 -91 801 392 
Q 275 875 275 1747 
Q 275 2603 792 3093 
Q 1309 3584 2216 3584 
Q 3041 3584 3536 3087 
Q 4031 2591 4031 1759 
z
M 2881 2131 
Q 2881 2450 2695 2645 
Q 2509 2841 2209 2841 
Q 1884 2841 1681 2658 
Q 1478 2475 1428 2131 
L 2881 2131 
z
" transform="scale(0.015625)"/>
       <path id="DejaVuSans-Bold-20" transform="scale(0.015625)"/>
       <path id="DejaVuSans-Bold-5b" d="M 550 4863 
L 2491 4863 
L 2491 4159 
L 1613 4159 
L 1613 -141 
L 2491 -141 
L 2491 -844 
L 550 -844 
L 550 4863 
z
" transform="scale(0.015625)"/>
       <path id="DejaVuSans-Bold-77" d="M 225 3500 
L 1313 3500 
L 1900 1088 
L 2491 3500 
L 3425 3500 
L 4013 1113 
L 4603 3500 
L 5691 3500 
L 4769 0 
L 3547 0 
L 2956 2406 
L 2369 0 
L 1147 0 
L 225 3500 
z
" transform="scale(0.015625)"/>
       <path id="DejaVuSans-Bold-6b" d="M 538 4863 
L 1656 4863 
L 1656 2216 
L 2944 3500 
L 4244 3500 
L 2534 1894 
L 4378 0 
L 3022 0 
L 1656 1459 
L 1656 0 
L 538 0 
L 538 4863 
z
" transform="scale(0.015625)"/>
       <path id="DejaVuSans-Bold-5d" d="M 2375 -844 
L 434 -844 
L 434 -141 
L 1313 -141 
L 1313 4159 
L 434 4159 
L 434 4863 
L 2375 4863 
L 2375 -844 
z
" transform="scale(0.015625)"/>
      </defs>
      <use xlink:href="#DejaVuSans-Bold-74"/>
      <use xlink:href="#DejaVuSans-Bold-69" x="47.802734"/>
      <use xlink:href="#DejaVuSans-Bold-6d" x="82.080078"/>
      <use xlink:href="#DejaVuSans-Bold-65" x="186.279297"/>
      <use xlink:href="#DejaVuSans-Bold-20" x="254.101562"/>
      <use xlink:href="#DejaVuSans-Bold-5b" x="288.916016"/>
      <use xlink:href="#DejaVuSans-Bold-77" x="334.619141"/>
      <use xlink:href="#DejaVuSans-Bold-65" x="427.001953"/>
      <use xlink:href="#DejaVuSans-Bold-65" x="494.824219"/>
      <use xlink:href="#DejaVuSans-Bold-6b" x="562.646484"/>
      <use xlink:href="#DejaVuSans-Bold-5d" x="629.150391"/>
     </g>
    </g>
   </g>
   <g id="matplotlib.axis_2">
    <g id="ytick_1">
     <g id="line2d_7">
      <defs>
       <path id="m99547a4432" d="M 0 0 
L -3.5 0 
" style="stroke: #000000; stroke-width: 0.8"/>
      </defs>
      <g>
       <use xlink:href="#m99547a4432" x="64.251875" y="307.8" style="stroke: #000000; stroke-width: 0.8"/>
      </g>
     </g>
     <g id="text_8">
      <!-- 0 -->
      <g transform="translate(47.708125 313.498828) scale(0.15 -0.15)">
       <use xlink:href="#DejaVuSans-30"/>
      </g>
     </g>
    </g>
    <g id="ytick_2">
     <g id="line2d_8">
      <g>
       <use xlink:href="#m99547a4432" x="64.251875" y="275.937557" style="stroke: #000000; stroke-width: 0.8"/>
      </g>
     </g>
     <g id="text_9">
      <!-- 20 -->
      <g transform="translate(38.164375 281.636385) scale(0.15 -0.15)">
       <use xlink:href="#DejaVuSans-32"/>
       <use xlink:href="#DejaVuSans-30" x="63.623047"/>
      </g>
     </g>
    </g>
    <g id="ytick_3">
     <g id="line2d_9">
      <g>
       <use xlink:href="#m99547a4432" x="64.251875" y="244.075114" style="stroke: #000000; stroke-width: 0.8"/>
      </g>
     </g>
     <g id="text_10">
      <!-- 40 -->
      <g transform="translate(38.164375 249.773942) scale(0.15 -0.15)">
       <use xlink:href="#DejaVuSans-34"/>
       <use xlink:href="#DejaVuSans-30" x="63.623047"/>
      </g>
     </g>
    </g>
    <g id="ytick_4">
     <g id="line2d_10">
      <g>
       <use xlink:href="#m99547a4432" x="64.251875" y="212.21267" style="stroke: #000000; stroke-width: 0.8"/>
      </g>
     </g>
     <g id="text_11">
      <!-- 60 -->
      <g transform="translate(38.164375 217.911498) scale(0.15 -0.15)">
       <defs>
        <path id="DejaVuSans-36" d="M 2113 2584 
Q 1688 2584 1439 2293 
Q 1191 2003 1191 1497 
Q 1191 994 1439 701 
Q 1688 409 2113 409 
Q 2538 409 2786 701 
Q 3034 994 3034 1497 
Q 3034 2003 2786 2293 
Q 2538 2584 2113 2584 
z
M 3366 4563 
L 3366 3988 
Q 3128 4100 2886 4159 
Q 2644 4219 2406 4219 
Q 1781 4219 1451 3797 
Q 1122 3375 1075 2522 
Q 1259 2794 1537 2939 
Q 1816 3084 2150 3084 
Q 2853 3084 3261 2657 
Q 3669 2231 3669 1497 
Q 3669 778 3244 343 
Q 2819 -91 2113 -91 
Q 1303 -91 875 529 
Q 447 1150 447 2328 
Q 447 3434 972 4092 
Q 1497 4750 2381 4750 
Q 2619 4750 2861 4703 
Q 3103 4656 3366 4563 
z
" transform="scale(0.015625)"/>
       </defs>
       <use xlink:href="#DejaVuSans-36"/>
       <use xlink:href="#DejaVuSans-30" x="63.623047"/>
      </g>
     </g>
    </g>
    <g id="ytick_5">
     <g id="line2d_11">
      <g>
       <use xlink:href="#m99547a4432" x="64.251875" y="180.350227" style="stroke: #000000; stroke-width: 0.8"/>
      </g>
     </g>
     <g id="text_12">
      <!-- 80 -->
      <g transform="translate(38.164375 186.049055) scale(0.15 -0.15)">
       <defs>
        <path id="DejaVuSans-38" d="M 2034 2216 
Q 1584 2216 1326 1975 
Q 1069 1734 1069 1313 
Q 1069 891 1326 650 
Q 1584 409 2034 409 
Q 2484 409 2743 651 
Q 3003 894 3003 1313 
Q 3003 1734 2745 1975 
Q 2488 2216 2034 2216 
z
M 1403 2484 
Q 997 2584 770 2862 
Q 544 3141 544 3541 
Q 544 4100 942 4425 
Q 1341 4750 2034 4750 
Q 2731 4750 3128 4425 
Q 3525 4100 3525 3541 
Q 3525 3141 3298 2862 
Q 3072 2584 2669 2484 
Q 3125 2378 3379 2068 
Q 3634 1759 3634 1313 
Q 3634 634 3220 271 
Q 2806 -91 2034 -91 
Q 1263 -91 848 271 
Q 434 634 434 1313 
Q 434 1759 690 2068 
Q 947 2378 1403 2484 
z
M 1172 3481 
Q 1172 3119 1398 2916 
Q 1625 2713 2034 2713 
Q 2441 2713 2670 2916 
Q 2900 3119 2900 3481 
Q 2900 3844 2670 4047 
Q 2441 4250 2034 4250 
Q 1625 4250 1398 4047 
Q 1172 3844 1172 3481 
z
" transform="scale(0.015625)"/>
       </defs>
       <use xlink:href="#DejaVuSans-38"/>
       <use xlink:href="#DejaVuSans-30" x="63.623047"/>
      </g>
     </g>
    </g>
    <g id="ytick_6">
     <g id="line2d_12">
      <g>
       <use xlink:href="#m99547a4432" x="64.251875" y="148.487784" style="stroke: #000000; stroke-width: 0.8"/>
      </g>
     </g>
     <g id="text_13">
      <!-- 100 -->
      <g transform="translate(28.620625 154.186612) scale(0.15 -0.15)">
       <use xlink:href="#DejaVuSans-31"/>
       <use xlink:href="#DejaVuSans-30" x="63.623047"/>
       <use xlink:href="#DejaVuSans-30" x="127.246094"/>
      </g>
     </g>
    </g>
    <g id="ytick_7">
     <g id="line2d_13">
      <g>
       <use xlink:href="#m99547a4432" x="64.251875" y="116.625341" style="stroke: #000000; stroke-width: 0.8"/>
      </g>
     </g>
     <g id="text_14">
      <!-- 120 -->
      <g transform="translate(28.620625 122.324169) scale(0.15 -0.15)">
       <use xlink:href="#DejaVuSans-31"/>
       <use xlink:href="#DejaVuSans-32" x="63.623047"/>
       <use xlink:href="#DejaVuSans-30" x="127.246094"/>
      </g>
     </g>
    </g>
    <g id="ytick_8">
     <g id="line2d_14">
      <g>
       <use xlink:href="#m99547a4432" x="64.251875" y="84.762897" style="stroke: #000000; stroke-width: 0.8"/>
      </g>
     </g>
     <g id="text_15">
      <!-- 140 -->
      <g transform="translate(28.620625 90.461725) scale(0.15 -0.15)">
       <use xlink:href="#DejaVuSans-31"/>
       <use xlink:href="#DejaVuSans-34" x="63.623047"/>
       <use xlink:href="#DejaVuSans-30" x="127.246094"/>
      </g>
     </g>
    </g>
    <g id="ytick_9">
     <g id="line2d_15">
      <g>
       <use xlink:href="#m99547a4432" x="64.251875" y="52.900454" style="stroke: #000000; stroke-width: 0.8"/>
      </g>
     </g>
     <g id="text_16">
      <!-- 160 -->
      <g transform="translate(28.620625 58.599282) scale(0.15 -0.15)">
       <use xlink:href="#DejaVuSans-31"/>
       <use xlink:href="#DejaVuSans-36" x="63.623047"/>
       <use xlink:href="#DejaVuSans-30" x="127.246094"/>
      </g>
     </g>
    </g>
    <g id="text_17">
     <!-- tirzepatide [nM] -->
     <g transform="translate(20.877187 264.140156) rotate(-90) scale(0.18 -0.18)">
      <defs>
       <path id="DejaVuSans-Bold-72" d="M 3138 2547 
Q 2991 2616 2845 2648 
Q 2700 2681 2553 2681 
Q 2122 2681 1889 2404 
Q 1656 2128 1656 1613 
L 1656 0 
L 538 0 
L 538 3500 
L 1656 3500 
L 1656 2925 
Q 1872 3269 2151 3426 
Q 2431 3584 2822 3584 
Q 2878 3584 2943 3579 
Q 3009 3575 3134 3559 
L 3138 2547 
z
" transform="scale(0.015625)"/>
       <path id="DejaVuSans-Bold-7a" d="M 366 3500 
L 3419 3500 
L 3419 2719 
L 1575 800 
L 3419 800 
L 3419 0 
L 288 0 
L 288 781 
L 2131 2700 
L 366 2700 
L 366 3500 
z
" transform="scale(0.015625)"/>
       <path id="DejaVuSans-Bold-70" d="M 1656 506 
L 1656 -1331 
L 538 -1331 
L 538 3500 
L 1656 3500 
L 1656 2988 
Q 1888 3294 2169 3439 
Q 2450 3584 2816 3584 
Q 3463 3584 3878 3070 
Q 4294 2556 4294 1747 
Q 4294 938 3878 423 
Q 3463 -91 2816 -91 
Q 2450 -91 2169 54 
Q 1888 200 1656 506 
z
M 2400 2772 
Q 2041 2772 1848 2508 
Q 1656 2244 1656 1747 
Q 1656 1250 1848 986 
Q 2041 722 2400 722 
Q 2759 722 2948 984 
Q 3138 1247 3138 1747 
Q 3138 2247 2948 2509 
Q 2759 2772 2400 2772 
z
" transform="scale(0.015625)"/>
       <path id="DejaVuSans-Bold-61" d="M 2106 1575 
Q 1756 1575 1579 1456 
Q 1403 1338 1403 1106 
Q 1403 894 1545 773 
Q 1688 653 1941 653 
Q 2256 653 2472 879 
Q 2688 1106 2688 1447 
L 2688 1575 
L 2106 1575 
z
M 3816 1997 
L 3816 0 
L 2688 0 
L 2688 519 
Q 2463 200 2181 54 
Q 1900 -91 1497 -91 
Q 953 -91 614 226 
Q 275 544 275 1050 
Q 275 1666 698 1953 
Q 1122 2241 2028 2241 
L 2688 2241 
L 2688 2328 
Q 2688 2594 2478 2717 
Q 2269 2841 1825 2841 
Q 1466 2841 1156 2769 
Q 847 2697 581 2553 
L 581 3406 
Q 941 3494 1303 3539 
Q 1666 3584 2028 3584 
Q 2975 3584 3395 3211 
Q 3816 2838 3816 1997 
z
" transform="scale(0.015625)"/>
       <path id="DejaVuSans-Bold-64" d="M 2919 2988 
L 2919 4863 
L 4044 4863 
L 4044 0 
L 2919 0 
L 2919 506 
Q 2688 197 2409 53 
Q 2131 -91 1766 -91 
Q 1119 -91 703 423 
Q 288 938 288 1747 
Q 288 2556 703 3070 
Q 1119 3584 1766 3584 
Q 2128 3584 2408 3439 
Q 2688 3294 2919 2988 
z
M 2181 722 
Q 2541 722 2730 984 
Q 2919 1247 2919 1747 
Q 2919 2247 2730 2509 
Q 2541 2772 2181 2772 
Q 1825 2772 1636 2509 
Q 1447 2247 1447 1747 
Q 1447 1247 1636 984 
Q 1825 722 2181 722 
z
" transform="scale(0.015625)"/>
       <path id="DejaVuSans-Bold-6e" d="M 4056 2131 
L 4056 0 
L 2931 0 
L 2931 347 
L 2931 1631 
Q 2931 2084 2911 2256 
Q 2891 2428 2841 2509 
Q 2775 2619 2662 2680 
Q 2550 2741 2406 2741 
Q 2056 2741 1856 2470 
Q 1656 2200 1656 1722 
L 1656 0 
L 538 0 
L 538 3500 
L 1656 3500 
L 1656 2988 
Q 1909 3294 2193 3439 
Q 2478 3584 2822 3584 
Q 3428 3584 3742 3212 
Q 4056 2841 4056 2131 
z
" transform="scale(0.015625)"/>
       <path id="DejaVuSans-Bold-4d" d="M 588 4666 
L 2119 4666 
L 3181 2169 
L 4250 4666 
L 5778 4666 
L 5778 0 
L 4641 0 
L 4641 3413 
L 3566 897 
L 2803 897 
L 1728 3413 
L 1728 0 
L 588 0 
L 588 4666 
z
" transform="scale(0.015625)"/>
      </defs>
      <use xlink:href="#DejaVuSans-Bold-74"/>
      <use xlink:href="#DejaVuSans-Bold-69" x="47.802734"/>
      <use xlink:href="#DejaVuSans-Bold-72" x="82.080078"/>
      <use xlink:href="#DejaVuSans-Bold-7a" x="131.396484"/>
      <use xlink:href="#DejaVuSans-Bold-65" x="189.599609"/>
      <use xlink:href="#DejaVuSans-Bold-70" x="257.421875"/>
      <use xlink:href="#DejaVuSans-Bold-61" x="329.003906"/>
      <use xlink:href="#DejaVuSans-Bold-74" x="396.484375"/>
      <use xlink:href="#DejaVuSans-Bold-69" x="444.287109"/>
      <use xlink:href="#DejaVuSans-Bold-64" x="478.564453"/>
      <use xlink:href="#DejaVuSans-Bold-65" x="550.146484"/>
      <use xlink:href="#DejaVuSans-Bold-20" x="617.96875"/>
      <use xlink:href="#DejaVuSans-Bold-5b" x="652.783203"/>
      <use xlink:href="#DejaVuSans-Bold-6e" x="698.486328"/>
      <use xlink:href="#DejaVuSans-Bold-4d" x="769.677734"/>
      <use xlink:href="#DejaVuSans-Bold-5d" x="869.189453"/>
     </g>
    </g>
   </g>
   <g id="LineCollection_1">
    <path clip-path="url(#p9cdfc2c2bc)" style="fill: none; stroke: #000000"/>
    <path d="M 85.388239 211.412903 
L 85.388239 138.251613 
" clip-path="url(#p9cdfc2c2bc)" style="fill: none; stroke: #000000"/>
    <path d="M 87.079148 210.251613 
L 87.079148 75.541935 
" clip-path="url(#p9cdfc2c2bc)" style="fill: none; stroke: #000000"/>
    <path d="M 92.151875 241.606452 
L 92.151875 55.8 
" clip-path="url(#p9cdfc2c2bc)" style="fill: none; stroke: #000000"/>
    <path d="M 102.29733 203.864516 
L 102.29733 163.219355 
" clip-path="url(#p9cdfc2c2bc)" style="fill: none; stroke: #000000"/>
    <path d="M 112.442784 223.025806 
L 112.442784 181.219355 
" clip-path="url(#p9cdfc2c2bc)" style="fill: none; stroke: #000000"/>
    <path d="M 122.588239 224.187097 
L 122.588239 191.670968 
" clip-path="url(#p9cdfc2c2bc)" style="fill: none; stroke: #000000"/>
    <path d="M 153.024602 268.896774 
L 153.024602 221.283871 
" clip-path="url(#p9cdfc2c2bc)" style="fill: none; stroke: #000000"/>
    <path d="M 224.042784 289.8 
L 224.042784 272.380645 
" clip-path="url(#p9cdfc2c2bc)" style="fill: none; stroke: #000000"/>
    <path clip-path="url(#p9cdfc2c2bc)" style="fill: none; stroke: #000000"/>
   </g>
   <g id="LineCollection_2">
    <path clip-path="url(#p9cdfc2c2bc)" style="fill: none; stroke: #74a9cf"/>
    <path d="M 85.388239 209.670968 
L 85.388239 145.8 
" clip-path="url(#p9cdfc2c2bc)" style="fill: none; stroke: #74a9cf"/>
    <path d="M 87.079148 196.896774 
L 87.079148 123.735484 
" clip-path="url(#p9cdfc2c2bc)" style="fill: none; stroke: #74a9cf"/>
    <path d="M 92.151875 188.187097 
L 92.151875 85.993548 
" clip-path="url(#p9cdfc2c2bc)" style="fill: none; stroke: #74a9cf"/>
    <path d="M 102.29733 193.993548 
L 102.29733 162.63871 
" clip-path="url(#p9cdfc2c2bc)" style="fill: none; stroke: #74a9cf"/>
    <path d="M 112.442784 203.283871 
L 112.442784 177.735484 
" clip-path="url(#p9cdfc2c2bc)" style="fill: none; stroke: #74a9cf"/>
    <path d="M 122.588239 220.703226 
L 122.588239 187.025806 
" clip-path="url(#p9cdfc2c2bc)" style="fill: none; stroke: #74a9cf"/>
    <path d="M 153.024602 239.283871 
L 153.024602 212.574194 
" clip-path="url(#p9cdfc2c2bc)" style="fill: none; stroke: #74a9cf"/>
    <path d="M 224.042784 278.767742 
L 224.042784 261.348387 
" clip-path="url(#p9cdfc2c2bc)" style="fill: none; stroke: #74a9cf"/>
    <path clip-path="url(#p9cdfc2c2bc)" style="fill: none; stroke: #74a9cf"/>
   </g>
   <g id="LineCollection_3">
    <path clip-path="url(#p9cdfc2c2bc)" style="fill: none; stroke: #2b8cbe"/>
    <path d="M 85.388239 222.445161 
L 85.388239 137.670968 
" clip-path="url(#p9cdfc2c2bc)" style="fill: none; stroke: #2b8cbe"/>
    <path d="M 87.079148 182.380645 
L 87.079148 101.090323 
" clip-path="url(#p9cdfc2c2bc)" style="fill: none; stroke: #2b8cbe"/>
    <path d="M 92.151875 213.735484 
L 92.151875 55.8 
" clip-path="url(#p9cdfc2c2bc)" style="fill: none; stroke: #2b8cbe"/>
    <path d="M 102.29733 213.154839 
L 102.29733 163.219355 
" clip-path="url(#p9cdfc2c2bc)" style="fill: none; stroke: #2b8cbe"/>
    <path d="M 112.442784 229.412903 
L 112.442784 181.8 
" clip-path="url(#p9cdfc2c2bc)" style="fill: none; stroke: #2b8cbe"/>
    <path d="M 122.588239 231.735484 
L 122.588239 191.090323 
" clip-path="url(#p9cdfc2c2bc)" style="fill: none; stroke: #2b8cbe"/>
    <path d="M 153.024602 248.574194 
L 153.024602 220.703226 
" clip-path="url(#p9cdfc2c2bc)" style="fill: none; stroke: #2b8cbe"/>
    <path d="M 224.042784 300.251613 
L 224.042784 274.703226 
" clip-path="url(#p9cdfc2c2bc)" style="fill: none; stroke: #2b8cbe"/>
    <path clip-path="url(#p9cdfc2c2bc)" style="fill: none; stroke: #2b8cbe"/>
   </g>
   <g id="LineCollection_4">
    <path clip-path="url(#p9cdfc2c2bc)" style="fill: none; stroke: #045a8d"/>
    <path d="M 85.388239 205.606452 
L 85.388239 155.670968 
" clip-path="url(#p9cdfc2c2bc)" style="fill: none; stroke: #045a8d"/>
    <path d="M 87.079148 160.316129 
L 87.079148 123.154839 
" clip-path="url(#p9cdfc2c2bc)" style="fill: none; stroke: #045a8d"/>
    <path d="M 92.151875 169.606452 
L 92.151875 101.090323 
" clip-path="url(#p9cdfc2c2bc)" style="fill: none; stroke: #045a8d"/>
    <path d="M 102.29733 232.316129 
L 102.29733 163.8 
" clip-path="url(#p9cdfc2c2bc)" style="fill: none; stroke: #045a8d"/>
    <path d="M 112.442784 228.251613 
L 112.442784 181.8 
" clip-path="url(#p9cdfc2c2bc)" style="fill: none; stroke: #045a8d"/>
    <path d="M 122.588239 252.058065 
L 122.588239 191.670968 
" clip-path="url(#p9cdfc2c2bc)" style="fill: none; stroke: #045a8d"/>
    <path d="M 153.024602 265.412903 
L 153.024602 239.864516 
" clip-path="url(#p9cdfc2c2bc)" style="fill: none; stroke: #045a8d"/>
    <path d="M 224.042784 301.412903 
L 224.042784 272.380645 
" clip-path="url(#p9cdfc2c2bc)" style="fill: none; stroke: #045a8d"/>
    <path clip-path="url(#p9cdfc2c2bc)" style="fill: none; stroke: #045a8d"/>
   </g>
   <g id="line2d_16">
    <path d="M 82.00642 307.8 
L 83.95942 286.185707 
L 85.91242 267.070469 
L 87.86542 250.211251 
L 89.81842 235.394993 
L 91.593875 223.534859 
L 93.36933 213.069245 
L 95.144784 203.875748 
L 96.920239 195.841988 
L 98.695693 188.864801 
L 100.293602 183.410286 
L 101.891511 178.671201 
L 103.48942 174.58869 
L 105.08733 171.108294 
L 106.685239 168.179634 
L 108.105602 166.001817 
L 109.525966 164.192683 
L 110.94633 162.723887 
L 112.366693 161.569 
L 113.787057 160.70338 
L 115.20742 160.104056 
L 116.627784 159.749624 
L 118.048148 159.620137 
L 119.468511 159.697016 
L 121.06642 160.008679 
L 122.66433 160.536818 
L 124.439784 161.351961 
L 126.392784 162.495699 
L 128.52333 164.002159 
L 131.008966 166.052476 
L 133.672148 168.542163 
L 136.867966 171.851954 
L 140.59642 176.052397 
L 145.212602 181.602457 
L 152.136875 190.318427 
L 166.340511 208.253699 
L 172.909693 216.15012 
L 178.768693 222.859027 
L 184.450148 229.027454 
L 189.954057 234.67014 
L 195.28042 239.813805 
L 200.606784 244.647554 
L 205.933148 249.177884 
L 211.259511 253.414493 
L 216.585875 257.369228 
L 222.089784 261.173694 
L 227.593693 264.706692 
L 233.275148 268.085619 
L 238.956602 271.20937 
L 244.815602 274.181418 
L 250.852148 276.997532 
L 257.066239 279.655282 
L 263.63542 282.220072 
L 270.382148 284.614326 
L 277.483966 286.895456 
L 284.940875 289.051525 
L 292.752875 291.073712 
L 300.919966 292.956179 
L 309.619693 294.729859 
L 318.852057 296.381586 
L 328.617057 297.902512 
L 339.269784 299.331972 
L 350.632693 300.630176 
L 363.060875 301.823502 
L 376.731875 302.908197 
L 391.823239 303.87855 
L 408.690057 304.737178 
L 428.042511 305.493381 
L 437.09733 305.779978 
L 437.09733 305.779978 
" clip-path="url(#p9cdfc2c2bc)" style="fill: none; stroke: #000000; stroke-width: 2; stroke-linecap: square"/>
   </g>
   <g id="line2d_17">
    <path d="M 82.00642 307.8 
L 83.781875 284.927949 
L 85.734875 262.654581 
L 87.51033 244.782933 
L 89.285784 228.969064 
L 91.061239 215.030524 
L 92.836693 202.799927 
L 94.612148 192.123726 
L 96.387602 182.861108 
L 97.985511 175.626427 
L 99.58342 169.345387 
L 101.18133 163.937885 
L 102.779239 159.329883 
L 104.199602 155.849636 
L 105.619966 152.902374 
L 107.04033 150.446552 
L 108.460693 148.443458 
L 109.881057 146.857039 
L 111.123875 145.78427 
L 112.366693 144.98374 
L 113.609511 144.435694 
L 114.85233 144.121581 
L 116.095148 144.023986 
L 117.515511 144.15665 
L 118.935875 144.528001 
L 120.533784 145.204747 
L 122.131693 146.128887 
L 123.907148 147.414683 
L 125.860148 149.106808 
L 127.990693 151.240397 
L 130.47633 154.050369 
L 133.317057 157.60747 
L 136.69042 162.202518 
L 140.951511 168.413602 
L 146.988057 177.655349 
L 161.901875 200.639618 
L 167.93842 209.451906 
L 173.264784 216.849623 
L 178.413602 223.625509 
L 183.384875 229.800366 
L 188.178602 235.407401 
L 192.97233 240.675183 
L 197.766057 245.610323 
L 202.559784 250.222912 
L 207.353511 254.525441 
L 212.147239 258.531979 
L 216.940966 262.257535 
L 221.912239 265.840831 
L 226.883511 269.155936 
L 232.03233 272.324994 
L 237.358693 275.339672 
L 242.862602 278.193889 
L 248.544057 280.883697 
L 254.403057 283.407149 
L 260.439602 285.764127 
L 266.831239 288.015522 
L 273.40042 290.09279 
L 280.324693 292.048937 
L 287.604057 293.87463 
L 295.416057 295.600621 
L 303.760693 297.209802 
L 312.637966 298.690215 
L 322.22542 300.058162 
L 332.523057 301.299991 
L 343.885966 302.440788 
L 356.314148 303.460833 
L 370.162693 304.370649 
L 385.786693 305.170347 
L 403.718784 305.861187 
L 424.846693 306.446143 
L 437.09733 306.700648 
L 437.09733 306.700648 
" clip-path="url(#p9cdfc2c2bc)" style="fill: none; stroke: #74a9cf; stroke-width: 2; stroke-linecap: square"/>
   </g>
   <g id="line2d_18">
    <path d="M 82.00642 307.8 
L 83.95942 285.988659 
L 85.91242 266.70477 
L 87.86542 249.702271 
L 89.81842 234.765436 
L 91.593875 222.813352 
L 93.36933 212.270901 
L 95.144784 203.014171 
L 96.920239 194.929404 
L 98.695693 187.912179 
L 100.293602 182.430054 
L 101.891511 177.670544 
L 103.48942 173.574088 
L 105.08733 170.085576 
L 106.685239 167.154033 
L 108.105602 164.977602 
L 109.525966 163.1732 
L 110.94633 161.712154 
L 112.366693 160.567729 
L 113.787057 159.715001 
L 115.20742 159.130739 
L 116.627784 158.793297 
L 118.048148 158.682506 
L 119.468511 158.779581 
L 121.06642 159.115523 
L 122.66433 159.669353 
L 124.439784 160.514423 
L 126.392784 161.69244 
L 128.52333 163.237539 
L 131.008966 165.334084 
L 133.672148 167.874108 
L 136.867966 171.244656 
L 140.59642 175.515499 
L 145.390148 181.37286 
L 152.491966 190.446037 
L 165.63033 207.251223 
L 172.199511 215.267968 
L 178.058511 222.081299 
L 183.739966 228.346175 
L 189.06633 233.897018 
L 194.392693 239.130201 
L 199.719057 244.047181 
L 205.04542 248.654276 
L 210.371784 252.961201 
L 215.698148 256.979963 
L 221.024511 260.724017 
L 226.52842 264.319447 
L 232.03233 267.652942 
L 237.713784 270.836342 
L 243.572784 273.863372 
L 249.60933 276.729763 
L 255.82342 279.433112 
L 262.215057 281.972727 
L 268.961784 284.410595 
L 275.886057 286.676199 
L 283.16542 288.823846 
L 290.799875 290.843693 
L 298.78942 292.728892 
L 307.311602 294.510291 
L 316.36642 296.173621 
L 325.953875 297.708985 
L 336.251511 299.133379 
L 347.436875 300.453988 
L 359.687511 301.670825 
L 373.00342 302.766125 
L 387.739693 303.751686 
L 404.25142 304.628693 
L 423.071239 305.399095 
L 437.09733 305.848828 
L 437.09733 305.848828 
" clip-path="url(#p9cdfc2c2bc)" style="fill: none; stroke: #2b8cbe; stroke-width: 2; stroke-linecap: square"/>
   </g>
   <g id="line2d_19">
    <path d="M 82.00642 307.8 
L 83.781875 286.407081 
L 85.734875 265.526855 
L 87.687875 247.158582 
L 89.46333 232.437704 
L 91.238784 219.429643 
L 93.014239 207.983217 
L 94.789693 197.959673 
L 96.565148 189.231689 
L 98.340602 181.682457 
L 99.938511 175.80724 
L 101.53642 170.727986 
L 103.13433 166.378172 
L 104.732239 162.696287 
L 106.152602 159.938162 
L 107.572966 157.625721 
L 108.99333 155.724408 
L 110.413693 154.20201 
L 111.834057 153.028514 
L 113.076875 152.265881 
L 114.319693 151.731412 
L 115.562511 151.408642 
L 116.982875 151.279184 
L 118.403239 151.384465 
L 119.823602 151.704393 
L 121.421511 152.297657 
L 123.196966 153.217841 
L 125.149966 154.511716 
L 127.280511 156.217197 
L 129.588602 158.361798 
L 132.251784 161.157422 
L 135.270057 164.661707 
L 138.820966 169.133581 
L 143.259602 175.091989 
L 150.00633 184.571005 
L 163.322239 203.336184 
L 169.713875 211.915085 
L 175.39533 219.173407 
L 180.721693 225.6244 
L 185.870511 231.517404 
L 191.01933 237.06717 
L 195.990602 242.101187 
L 200.961875 246.822589 
L 205.933148 251.240714 
L 210.90442 255.367169 
L 216.053239 259.347487 
L 221.202057 263.044502 
L 226.350875 266.474217 
L 231.677239 269.758023 
L 237.181148 272.887492 
L 242.862602 275.856403 
L 248.721602 278.660632 
L 254.758148 281.298011 
L 260.972239 283.768163 
L 267.363875 286.072322 
L 274.110602 288.268014 
L 281.21242 290.342216 
L 288.66933 292.285245 
L 296.48133 294.090624 
L 304.825966 295.788721 
L 313.703239 297.365735 
L 323.290693 298.837794 
L 333.58833 300.188849 
L 344.773693 301.426962 
L 357.02433 302.553361 
L 370.517784 303.565212 
L 385.609148 304.467649 
L 402.653511 305.257913 
L 422.183511 305.935861 
L 437.09733 306.329029 
L 437.09733 306.329029 
" clip-path="url(#p9cdfc2c2bc)" style="fill: none; stroke: #045a8d; stroke-width: 2; stroke-linecap: square"/>
   </g>
   <g id="line2d_20">
    <path d="M 82.00642 307.8 
L 85.388239 174.832258 
L 87.079148 142.896774 
L 92.151875 148.703226 
L 102.29733 183.541935 
L 112.442784 202.122581 
L 122.588239 207.929032 
L 153.024602 245.090323 
L 224.042784 281.090323 
L 366.079148 303.735484 
" clip-path="url(#p9cdfc2c2bc)" style="fill: none; stroke-dasharray: 3.7,1.6; stroke-dashoffset: 0; stroke: #000000"/>
    <defs>
     <path id="m8aafc0526a" d="M -3 3 
L 3 3 
L 3 -3 
L -3 -3 
z
" style="stroke: #000000; stroke-linejoin: miter"/>
    </defs>
    <g clip-path="url(#p9cdfc2c2bc)">
     <use xlink:href="#m8aafc0526a" x="82.00642" y="307.8" style="stroke: #000000; stroke-linejoin: miter"/>
     <use xlink:href="#m8aafc0526a" x="85.388239" y="174.832258" style="stroke: #000000; stroke-linejoin: miter"/>
     <use xlink:href="#m8aafc0526a" x="87.079148" y="142.896774" style="stroke: #000000; stroke-linejoin: miter"/>
     <use xlink:href="#m8aafc0526a" x="92.151875" y="148.703226" style="stroke: #000000; stroke-linejoin: miter"/>
     <use xlink:href="#m8aafc0526a" x="102.29733" y="183.541935" style="stroke: #000000; stroke-linejoin: miter"/>
     <use xlink:href="#m8aafc0526a" x="112.442784" y="202.122581" style="stroke: #000000; stroke-linejoin: miter"/>
     <use xlink:href="#m8aafc0526a" x="122.588239" y="207.929032" style="stroke: #000000; stroke-linejoin: miter"/>
     <use xlink:href="#m8aafc0526a" x="153.024602" y="245.090323" style="stroke: #000000; stroke-linejoin: miter"/>
     <use xlink:href="#m8aafc0526a" x="224.042784" y="281.090323" style="stroke: #000000; stroke-linejoin: miter"/>
     <use xlink:href="#m8aafc0526a" x="366.079148" y="303.735484" style="stroke: #000000; stroke-linejoin: miter"/>
    </g>
   </g>
   <g id="line2d_21">
    <path d="M 82.00642 307.8 
L 85.388239 177.735484 
L 87.079148 160.316129 
L 92.151875 137.090323 
L 102.29733 178.316129 
L 112.442784 190.509677 
L 122.588239 203.864516 
L 153.024602 225.929032 
L 224.042784 270.058065 
L 366.079148 302.574194 
" clip-path="url(#p9cdfc2c2bc)" style="fill: none; stroke-dasharray: 3.7,1.6; stroke-dashoffset: 0; stroke: #74a9cf"/>
    <defs>
     <path id="m0c34092a2a" d="M -3 3 
L 3 3 
L 3 -3 
L -3 -3 
z
" style="stroke: #000000; stroke-linejoin: miter"/>
    </defs>
    <g clip-path="url(#p9cdfc2c2bc)">
     <use xlink:href="#m0c34092a2a" x="82.00642" y="307.8" style="fill: #74a9cf; stroke: #000000; stroke-linejoin: miter"/>
     <use xlink:href="#m0c34092a2a" x="85.388239" y="177.735484" style="fill: #74a9cf; stroke: #000000; stroke-linejoin: miter"/>
     <use xlink:href="#m0c34092a2a" x="87.079148" y="160.316129" style="fill: #74a9cf; stroke: #000000; stroke-linejoin: miter"/>
     <use xlink:href="#m0c34092a2a" x="92.151875" y="137.090323" style="fill: #74a9cf; stroke: #000000; stroke-linejoin: miter"/>
     <use xlink:href="#m0c34092a2a" x="102.29733" y="178.316129" style="fill: #74a9cf; stroke: #000000; stroke-linejoin: miter"/>
     <use xlink:href="#m0c34092a2a" x="112.442784" y="190.509677" style="fill: #74a9cf; stroke: #000000; stroke-linejoin: miter"/>
     <use xlink:href="#m0c34092a2a" x="122.588239" y="203.864516" style="fill: #74a9cf; stroke: #000000; stroke-linejoin: miter"/>
     <use xlink:href="#m0c34092a2a" x="153.024602" y="225.929032" style="fill: #74a9cf; stroke: #000000; stroke-linejoin: miter"/>
     <use xlink:href="#m0c34092a2a" x="224.042784" y="270.058065" style="fill: #74a9cf; stroke: #000000; stroke-linejoin: miter"/>
     <use xlink:href="#m0c34092a2a" x="366.079148" y="302.574194" style="fill: #74a9cf; stroke: #000000; stroke-linejoin: miter"/>
    </g>
   </g>
   <g id="line2d_22">
    <path d="M 82.00642 307.8 
L 85.388239 180.058065 
L 87.079148 141.735484 
L 92.151875 134.767742 
L 102.29733 188.187097 
L 112.442784 205.606452 
L 122.588239 211.412903 
L 153.024602 234.63871 
L 224.042784 287.477419 
L 366.079148 302.574194 
" clip-path="url(#p9cdfc2c2bc)" style="fill: none; stroke-dasharray: 3.7,1.6; stroke-dashoffset: 0; stroke: #2b8cbe"/>
    <defs>
     <path id="m912339570f" d="M -3 3 
L 3 3 
L 3 -3 
L -3 -3 
z
" style="stroke: #000000; stroke-linejoin: miter"/>
    </defs>
    <g clip-path="url(#p9cdfc2c2bc)">
     <use xlink:href="#m912339570f" x="82.00642" y="307.8" style="fill: #2b8cbe; stroke: #000000; stroke-linejoin: miter"/>
     <use xlink:href="#m912339570f" x="85.388239" y="180.058065" style="fill: #2b8cbe; stroke: #000000; stroke-linejoin: miter"/>
     <use xlink:href="#m912339570f" x="87.079148" y="141.735484" style="fill: #2b8cbe; stroke: #000000; stroke-linejoin: miter"/>
     <use xlink:href="#m912339570f" x="92.151875" y="134.767742" style="fill: #2b8cbe; stroke: #000000; stroke-linejoin: miter"/>
     <use xlink:href="#m912339570f" x="102.29733" y="188.187097" style="fill: #2b8cbe; stroke: #000000; stroke-linejoin: miter"/>
     <use xlink:href="#m912339570f" x="112.442784" y="205.606452" style="fill: #2b8cbe; stroke: #000000; stroke-linejoin: miter"/>
     <use xlink:href="#m912339570f" x="122.588239" y="211.412903" style="fill: #2b8cbe; stroke: #000000; stroke-linejoin: miter"/>
     <use xlink:href="#m912339570f" x="153.024602" y="234.63871" style="fill: #2b8cbe; stroke: #000000; stroke-linejoin: miter"/>
     <use xlink:href="#m912339570f" x="224.042784" y="287.477419" style="fill: #2b8cbe; stroke: #000000; stroke-linejoin: miter"/>
     <use xlink:href="#m912339570f" x="366.079148" y="302.574194" style="fill: #2b8cbe; stroke: #000000; stroke-linejoin: miter"/>
    </g>
   </g>
   <g id="line2d_23">
    <path d="M 82.00642 307.8 
L 85.388239 180.63871 
L 87.079148 141.735484 
L 92.151875 135.348387 
L 102.29733 198.058065 
L 112.442784 205.025806 
L 122.588239 221.864516 
L 153.024602 252.63871 
L 224.042784 286.896774 
L 366.079148 304.896774 
" clip-path="url(#p9cdfc2c2bc)" style="fill: none; stroke-dasharray: 3.7,1.6; stroke-dashoffset: 0; stroke: #045a8d"/>
    <defs>
     <path id="m23c45467dc" d="M -3 3 
L 3 3 
L 3 -3 
L -3 -3 
z
" style="stroke: #000000; stroke-linejoin: miter"/>
    </defs>
    <g clip-path="url(#p9cdfc2c2bc)">
     <use xlink:href="#m23c45467dc" x="82.00642" y="307.8" style="fill: #045a8d; stroke: #000000; stroke-linejoin: miter"/>
     <use xlink:href="#m23c45467dc" x="85.388239" y="180.63871" style="fill: #045a8d; stroke: #000000; stroke-linejoin: miter"/>
     <use xlink:href="#m23c45467dc" x="87.079148" y="141.735484" style="fill: #045a8d; stroke: #000000; stroke-linejoin: miter"/>
     <use xlink:href="#m23c45467dc" x="92.151875" y="135.348387" style="fill: #045a8d; stroke: #000000; stroke-linejoin: miter"/>
     <use xlink:href="#m23c45467dc" x="102.29733" y="198.058065" style="fill: #045a8d; stroke: #000000; stroke-linejoin: miter"/>
     <use xlink:href="#m23c45467dc" x="112.442784" y="205.025806" style="fill: #045a8d; stroke: #000000; stroke-linejoin: miter"/>
     <use xlink:href="#m23c45467dc" x="122.588239" y="221.864516" style="fill: #045a8d; stroke: #000000; stroke-linejoin: miter"/>
     <use xlink:href="#m23c45467dc" x="153.024602" y="252.63871" style="fill: #045a8d; stroke: #000000; stroke-linejoin: miter"/>
     <use xlink:href="#m23c45467dc" x="224.042784" y="286.896774" style="fill: #045a8d; stroke: #000000; stroke-linejoin: miter"/>
     <use xlink:href="#m23c45467dc" x="366.079148" y="304.896774" style="fill: #045a8d; stroke: #000000; stroke-linejoin: miter"/>
    </g>
   </g>
   <g id="patch_3">
    <path d="M 64.251875 320.4 
L 64.251875 43.2 
" style="fill: none; stroke: #000000; stroke-width: 0.8; stroke-linejoin: miter; stroke-linecap: square"/>
   </g>
   <g id="patch_4">
    <path d="M 454.851875 320.4 
L 454.851875 43.2 
" style="fill: none; stroke: #000000; stroke-width: 0.8; stroke-linejoin: miter; stroke-linecap: square"/>
   </g>
   <g id="patch_5">
    <path d="M 64.251875 320.4 
L 454.851875 320.4 
" style="fill: none; stroke: #000000; stroke-width: 0.8; stroke-linejoin: miter; stroke-linecap: square"/>
   </g>
   <g id="patch_6">
    <path d="M 64.251875 43.2 
L 454.851875 43.2 
" style="fill: none; stroke: #000000; stroke-width: 0.8; stroke-linejoin: miter; stroke-linecap: square"/>
   </g>
   <g id="legend_1">
    <g id="patch_7">
     <path d="M 312.689375 168.625 
L 447.851875 168.625 
Q 449.851875 168.625 449.851875 166.625 
L 449.851875 50.2 
Q 449.851875 48.2 447.851875 48.2 
L 312.689375 48.2 
Q 310.689375 48.2 310.689375 50.2 
L 310.689375 166.625 
Q 310.689375 168.625 312.689375 168.625 
z
" style="fill: #ffffff; opacity: 0.8; stroke: #cccccc; stroke-linejoin: miter"/>
    </g>
    <g id="line2d_24">
     <path d="M 314.689375 56.298437 
L 334.689375 56.298437 
" style="fill: none; stroke: #000000; stroke-width: 2; stroke-linecap: square"/>
    </g>
    <g id="line2d_25"/>
    <g id="text_18">
     <!-- normal -->
     <g transform="translate(342.689375 59.798437) scale(0.1 -0.1)">
      <defs>
       <path id="DejaVuSans-6e" d="M 3513 2113 
L 3513 0 
L 2938 0 
L 2938 2094 
Q 2938 2591 2744 2837 
Q 2550 3084 2163 3084 
Q 1697 3084 1428 2787 
Q 1159 2491 1159 1978 
L 1159 0 
L 581 0 
L 581 3500 
L 1159 3500 
L 1159 2956 
Q 1366 3272 1645 3428 
Q 1925 3584 2291 3584 
Q 2894 3584 3203 3211 
Q 3513 2838 3513 2113 
z
" transform="scale(0.015625)"/>
       <path id="DejaVuSans-6f" d="M 1959 3097 
Q 1497 3097 1228 2736 
Q 959 2375 959 1747 
Q 959 1119 1226 758 
Q 1494 397 1959 397 
Q 2419 397 2687 759 
Q 2956 1122 2956 1747 
Q 2956 2369 2687 2733 
Q 2419 3097 1959 3097 
z
M 1959 3584 
Q 2709 3584 3137 3096 
Q 3566 2609 3566 1747 
Q 3566 888 3137 398 
Q 2709 -91 1959 -91 
Q 1206 -91 779 398 
Q 353 888 353 1747 
Q 353 2609 779 3096 
Q 1206 3584 1959 3584 
z
" transform="scale(0.015625)"/>
       <path id="DejaVuSans-72" d="M 2631 2963 
Q 2534 3019 2420 3045 
Q 2306 3072 2169 3072 
Q 1681 3072 1420 2755 
Q 1159 2438 1159 1844 
L 1159 0 
L 581 0 
L 581 3500 
L 1159 3500 
L 1159 2956 
Q 1341 3275 1631 3429 
Q 1922 3584 2338 3584 
Q 2397 3584 2469 3576 
Q 2541 3569 2628 3553 
L 2631 2963 
z
" transform="scale(0.015625)"/>
       <path id="DejaVuSans-6d" d="M 3328 2828 
Q 3544 3216 3844 3400 
Q 4144 3584 4550 3584 
Q 5097 3584 5394 3201 
Q 5691 2819 5691 2113 
L 5691 0 
L 5113 0 
L 5113 2094 
Q 5113 2597 4934 2840 
Q 4756 3084 4391 3084 
Q 3944 3084 3684 2787 
Q 3425 2491 3425 1978 
L 3425 0 
L 2847 0 
L 2847 2094 
Q 2847 2600 2669 2842 
Q 2491 3084 2119 3084 
Q 1678 3084 1418 2786 
Q 1159 2488 1159 1978 
L 1159 0 
L 581 0 
L 581 3500 
L 1159 3500 
L 1159 2956 
Q 1356 3278 1631 3431 
Q 1906 3584 2284 3584 
Q 2666 3584 2933 3390 
Q 3200 3197 3328 2828 
z
" transform="scale(0.015625)"/>
       <path id="DejaVuSans-61" d="M 2194 1759 
Q 1497 1759 1228 1600 
Q 959 1441 959 1056 
Q 959 750 1161 570 
Q 1363 391 1709 391 
Q 2188 391 2477 730 
Q 2766 1069 2766 1631 
L 2766 1759 
L 2194 1759 
z
M 3341 1997 
L 3341 0 
L 2766 0 
L 2766 531 
Q 2569 213 2275 61 
Q 1981 -91 1556 -91 
Q 1019 -91 701 211 
Q 384 513 384 1019 
Q 384 1609 779 1909 
Q 1175 2209 1959 2209 
L 2766 2209 
L 2766 2266 
Q 2766 2663 2505 2880 
Q 2244 3097 1772 3097 
Q 1472 3097 1187 3025 
Q 903 2953 641 2809 
L 641 3341 
Q 956 3463 1253 3523 
Q 1550 3584 1831 3584 
Q 2591 3584 2966 3190 
Q 3341 2797 3341 1997 
z
" transform="scale(0.015625)"/>
       <path id="DejaVuSans-6c" d="M 603 4863 
L 1178 4863 
L 1178 0 
L 603 0 
L 603 4863 
z
" transform="scale(0.015625)"/>
      </defs>
      <use xlink:href="#DejaVuSans-6e"/>
      <use xlink:href="#DejaVuSans-6f" x="63.378906"/>
      <use xlink:href="#DejaVuSans-72" x="124.560547"/>
      <use xlink:href="#DejaVuSans-6d" x="163.923828"/>
      <use xlink:href="#DejaVuSans-61" x="261.335938"/>
      <use xlink:href="#DejaVuSans-6c" x="322.615234"/>
     </g>
    </g>
    <g id="line2d_26">
     <path d="M 314.689375 70.976562 
L 334.689375 70.976562 
" style="fill: none; stroke: #74a9cf; stroke-width: 2; stroke-linecap: square"/>
    </g>
    <g id="line2d_27"/>
    <g id="text_19">
     <!-- mild -->
     <g transform="translate(342.689375 74.476562) scale(0.1 -0.1)">
      <defs>
       <path id="DejaVuSans-69" d="M 603 3500 
L 1178 3500 
L 1178 0 
L 603 0 
L 603 3500 
z
M 603 4863 
L 1178 4863 
L 1178 4134 
L 603 4134 
L 603 4863 
z
" transform="scale(0.015625)"/>
       <path id="DejaVuSans-64" d="M 2906 2969 
L 2906 4863 
L 3481 4863 
L 3481 0 
L 2906 0 
L 2906 525 
Q 2725 213 2448 61 
Q 2172 -91 1784 -91 
Q 1150 -91 751 415 
Q 353 922 353 1747 
Q 353 2572 751 3078 
Q 1150 3584 1784 3584 
Q 2172 3584 2448 3432 
Q 2725 3281 2906 2969 
z
M 947 1747 
Q 947 1113 1208 752 
Q 1469 391 1925 391 
Q 2381 391 2643 752 
Q 2906 1113 2906 1747 
Q 2906 2381 2643 2742 
Q 2381 3103 1925 3103 
Q 1469 3103 1208 2742 
Q 947 2381 947 1747 
z
" transform="scale(0.015625)"/>
      </defs>
      <use xlink:href="#DejaVuSans-6d"/>
      <use xlink:href="#DejaVuSans-69" x="97.412109"/>
      <use xlink:href="#DejaVuSans-6c" x="125.195312"/>
      <use xlink:href="#DejaVuSans-64" x="152.978516"/>
     </g>
    </g>
    <g id="line2d_28">
     <path d="M 314.689375 85.654687 
L 334.689375 85.654687 
" style="fill: none; stroke: #2b8cbe; stroke-width: 2; stroke-linecap: square"/>
    </g>
    <g id="line2d_29"/>
    <g id="text_20">
     <!-- moderate -->
     <g transform="translate(342.689375 89.154687) scale(0.1 -0.1)">
      <defs>
       <path id="DejaVuSans-65" d="M 3597 1894 
L 3597 1613 
L 953 1613 
Q 991 1019 1311 708 
Q 1631 397 2203 397 
Q 2534 397 2845 478 
Q 3156 559 3463 722 
L 3463 178 
Q 3153 47 2828 -22 
Q 2503 -91 2169 -91 
Q 1331 -91 842 396 
Q 353 884 353 1716 
Q 353 2575 817 3079 
Q 1281 3584 2069 3584 
Q 2775 3584 3186 3129 
Q 3597 2675 3597 1894 
z
M 3022 2063 
Q 3016 2534 2758 2815 
Q 2500 3097 2075 3097 
Q 1594 3097 1305 2825 
Q 1016 2553 972 2059 
L 3022 2063 
z
" transform="scale(0.015625)"/>
       <path id="DejaVuSans-74" d="M 1172 4494 
L 1172 3500 
L 2356 3500 
L 2356 3053 
L 1172 3053 
L 1172 1153 
Q 1172 725 1289 603 
Q 1406 481 1766 481 
L 2356 481 
L 2356 0 
L 1766 0 
Q 1100 0 847 248 
Q 594 497 594 1153 
L 594 3053 
L 172 3053 
L 172 3500 
L 594 3500 
L 594 4494 
L 1172 4494 
z
" transform="scale(0.015625)"/>
      </defs>
      <use xlink:href="#DejaVuSans-6d"/>
      <use xlink:href="#DejaVuSans-6f" x="97.412109"/>
      <use xlink:href="#DejaVuSans-64" x="158.59375"/>
      <use xlink:href="#DejaVuSans-65" x="222.070312"/>
      <use xlink:href="#DejaVuSans-72" x="283.59375"/>
      <use xlink:href="#DejaVuSans-61" x="324.707031"/>
      <use xlink:href="#DejaVuSans-74" x="385.986328"/>
      <use xlink:href="#DejaVuSans-65" x="425.195312"/>
     </g>
    </g>
    <g id="line2d_30">
     <path d="M 314.689375 100.332812 
L 334.689375 100.332812 
" style="fill: none; stroke: #045a8d; stroke-width: 2; stroke-linecap: square"/>
    </g>
    <g id="line2d_31"/>
    <g id="text_21">
     <!-- severe -->
     <g transform="translate(342.689375 103.832812) scale(0.1 -0.1)">
      <defs>
       <path id="DejaVuSans-73" d="M 2834 3397 
L 2834 2853 
Q 2591 2978 2328 3040 
Q 2066 3103 1784 3103 
Q 1356 3103 1142 2972 
Q 928 2841 928 2578 
Q 928 2378 1081 2264 
Q 1234 2150 1697 2047 
L 1894 2003 
Q 2506 1872 2764 1633 
Q 3022 1394 3022 966 
Q 3022 478 2636 193 
Q 2250 -91 1575 -91 
Q 1294 -91 989 -36 
Q 684 19 347 128 
L 347 722 
Q 666 556 975 473 
Q 1284 391 1588 391 
Q 1994 391 2212 530 
Q 2431 669 2431 922 
Q 2431 1156 2273 1281 
Q 2116 1406 1581 1522 
L 1381 1569 
Q 847 1681 609 1914 
Q 372 2147 372 2553 
Q 372 3047 722 3315 
Q 1072 3584 1716 3584 
Q 2034 3584 2315 3537 
Q 2597 3491 2834 3397 
z
" transform="scale(0.015625)"/>
       <path id="DejaVuSans-76" d="M 191 3500 
L 800 3500 
L 1894 563 
L 2988 3500 
L 3597 3500 
L 2284 0 
L 1503 0 
L 191 3500 
z
" transform="scale(0.015625)"/>
      </defs>
      <use xlink:href="#DejaVuSans-73"/>
      <use xlink:href="#DejaVuSans-65" x="52.099609"/>
      <use xlink:href="#DejaVuSans-76" x="113.623047"/>
      <use xlink:href="#DejaVuSans-65" x="172.802734"/>
      <use xlink:href="#DejaVuSans-72" x="234.326172"/>
      <use xlink:href="#DejaVuSans-65" x="273.189453"/>
     </g>
    </g>
    <g id="LineCollection_5">
     <path d="M 324.689375 120.010937 
L 324.689375 110.010937 
" style="fill: none; stroke: #000000"/>
    </g>
    <g id="line2d_32">
     <path d="M 314.689375 115.010937 
L 334.689375 115.010937 
" style="fill: none; stroke-dasharray: 3.7,1.6; stroke-dashoffset: 0; stroke: #000000"/>
    </g>
    <g id="line2d_33">
     <g>
      <use xlink:href="#m8aafc0526a" x="324.689375" y="115.010937" style="stroke: #000000; stroke-linejoin: miter"/>
     </g>
    </g>
    <g id="text_22">
     <!-- normal±SD (n=13) -->
     <g transform="translate(342.689375 118.510937) scale(0.1 -0.1)">
      <defs>
       <path id="DejaVuSans-b1" d="M 2944 4013 
L 2944 2803 
L 4684 2803 
L 4684 2272 
L 2944 2272 
L 2944 1063 
L 2419 1063 
L 2419 2272 
L 678 2272 
L 678 2803 
L 2419 2803 
L 2419 4013 
L 2944 4013 
z
M 678 531 
L 4684 531 
L 4684 0 
L 678 0 
L 678 531 
z
" transform="scale(0.015625)"/>
       <path id="DejaVuSans-53" d="M 3425 4513 
L 3425 3897 
Q 3066 4069 2747 4153 
Q 2428 4238 2131 4238 
Q 1616 4238 1336 4038 
Q 1056 3838 1056 3469 
Q 1056 3159 1242 3001 
Q 1428 2844 1947 2747 
L 2328 2669 
Q 3034 2534 3370 2195 
Q 3706 1856 3706 1288 
Q 3706 609 3251 259 
Q 2797 -91 1919 -91 
Q 1588 -91 1214 -16 
Q 841 59 441 206 
L 441 856 
Q 825 641 1194 531 
Q 1563 422 1919 422 
Q 2459 422 2753 634 
Q 3047 847 3047 1241 
Q 3047 1584 2836 1778 
Q 2625 1972 2144 2069 
L 1759 2144 
Q 1053 2284 737 2584 
Q 422 2884 422 3419 
Q 422 4038 858 4394 
Q 1294 4750 2059 4750 
Q 2388 4750 2728 4690 
Q 3069 4631 3425 4513 
z
" transform="scale(0.015625)"/>
       <path id="DejaVuSans-44" d="M 1259 4147 
L 1259 519 
L 2022 519 
Q 2988 519 3436 956 
Q 3884 1394 3884 2338 
Q 3884 3275 3436 3711 
Q 2988 4147 2022 4147 
L 1259 4147 
z
M 628 4666 
L 1925 4666 
Q 3281 4666 3915 4102 
Q 4550 3538 4550 2338 
Q 4550 1131 3912 565 
Q 3275 0 1925 0 
L 628 0 
L 628 4666 
z
" transform="scale(0.015625)"/>
       <path id="DejaVuSans-20" transform="scale(0.015625)"/>
       <path id="DejaVuSans-28" d="M 1984 4856 
Q 1566 4138 1362 3434 
Q 1159 2731 1159 2009 
Q 1159 1288 1364 580 
Q 1569 -128 1984 -844 
L 1484 -844 
Q 1016 -109 783 600 
Q 550 1309 550 2009 
Q 550 2706 781 3412 
Q 1013 4119 1484 4856 
L 1984 4856 
z
" transform="scale(0.015625)"/>
       <path id="DejaVuSans-3d" d="M 678 2906 
L 4684 2906 
L 4684 2381 
L 678 2381 
L 678 2906 
z
M 678 1631 
L 4684 1631 
L 4684 1100 
L 678 1100 
L 678 1631 
z
" transform="scale(0.015625)"/>
       <path id="DejaVuSans-29" d="M 513 4856 
L 1013 4856 
Q 1481 4119 1714 3412 
Q 1947 2706 1947 2009 
Q 1947 1309 1714 600 
Q 1481 -109 1013 -844 
L 513 -844 
Q 928 -128 1133 580 
Q 1338 1288 1338 2009 
Q 1338 2731 1133 3434 
Q 928 4138 513 4856 
z
" transform="scale(0.015625)"/>
      </defs>
      <use xlink:href="#DejaVuSans-6e"/>
      <use xlink:href="#DejaVuSans-6f" x="63.378906"/>
      <use xlink:href="#DejaVuSans-72" x="124.560547"/>
      <use xlink:href="#DejaVuSans-6d" x="163.923828"/>
      <use xlink:href="#DejaVuSans-61" x="261.335938"/>
      <use xlink:href="#DejaVuSans-6c" x="322.615234"/>
      <use xlink:href="#DejaVuSans-b1" x="350.398438"/>
      <use xlink:href="#DejaVuSans-53" x="434.1875"/>
      <use xlink:href="#DejaVuSans-44" x="497.664062"/>
      <use xlink:href="#DejaVuSans-20" x="574.666016"/>
      <use xlink:href="#DejaVuSans-28" x="606.453125"/>
      <use xlink:href="#DejaVuSans-6e" x="645.466797"/>
      <use xlink:href="#DejaVuSans-3d" x="708.845703"/>
      <use xlink:href="#DejaVuSans-31" x="792.634766"/>
      <use xlink:href="#DejaVuSans-33" x="856.257812"/>
      <use xlink:href="#DejaVuSans-29" x="919.880859"/>
     </g>
    </g>
    <g id="LineCollection_6">
     <path d="M 324.689375 134.689062 
L 324.689375 124.689062 
" style="fill: none; stroke: #74a9cf"/>
    </g>
    <g id="line2d_34">
     <path d="M 314.689375 129.689062 
L 334.689375 129.689062 
" style="fill: none; stroke-dasharray: 3.7,1.6; stroke-dashoffset: 0; stroke: #74a9cf"/>
    </g>
    <g id="line2d_35">
     <g>
      <use xlink:href="#m0c34092a2a" x="324.689375" y="129.689062" style="fill: #74a9cf; stroke: #000000; stroke-linejoin: miter"/>
     </g>
    </g>
    <g id="text_23">
     <!-- mild±SD (n=6) -->
     <g transform="translate(342.689375 133.189062) scale(0.1 -0.1)">
      <use xlink:href="#DejaVuSans-6d"/>
      <use xlink:href="#DejaVuSans-69" x="97.412109"/>
      <use xlink:href="#DejaVuSans-6c" x="125.195312"/>
      <use xlink:href="#DejaVuSans-64" x="152.978516"/>
      <use xlink:href="#DejaVuSans-b1" x="216.455078"/>
      <use xlink:href="#DejaVuSans-53" x="300.244141"/>
      <use xlink:href="#DejaVuSans-44" x="363.720703"/>
      <use xlink:href="#DejaVuSans-20" x="440.722656"/>
      <use xlink:href="#DejaVuSans-28" x="472.509766"/>
      <use xlink:href="#DejaVuSans-6e" x="511.523438"/>
      <use xlink:href="#DejaVuSans-3d" x="574.902344"/>
      <use xlink:href="#DejaVuSans-36" x="658.691406"/>
      <use xlink:href="#DejaVuSans-29" x="722.314453"/>
     </g>
    </g>
    <g id="LineCollection_7">
     <path d="M 324.689375 149.367187 
L 324.689375 139.367187 
" style="fill: none; stroke: #2b8cbe"/>
    </g>
    <g id="line2d_36">
     <path d="M 314.689375 144.367187 
L 334.689375 144.367187 
" style="fill: none; stroke-dasharray: 3.7,1.6; stroke-dashoffset: 0; stroke: #2b8cbe"/>
    </g>
    <g id="line2d_37">
     <g>
      <use xlink:href="#m912339570f" x="324.689375" y="144.367187" style="fill: #2b8cbe; stroke: #000000; stroke-linejoin: miter"/>
     </g>
    </g>
    <g id="text_24">
     <!-- moderate±SD (n=6) -->
     <g transform="translate(342.689375 147.867187) scale(0.1 -0.1)">
      <use xlink:href="#DejaVuSans-6d"/>
      <use xlink:href="#DejaVuSans-6f" x="97.412109"/>
      <use xlink:href="#DejaVuSans-64" x="158.59375"/>
      <use xlink:href="#DejaVuSans-65" x="222.070312"/>
      <use xlink:href="#DejaVuSans-72" x="283.59375"/>
      <use xlink:href="#DejaVuSans-61" x="324.707031"/>
      <use xlink:href="#DejaVuSans-74" x="385.986328"/>
      <use xlink:href="#DejaVuSans-65" x="425.195312"/>
      <use xlink:href="#DejaVuSans-b1" x="486.71875"/>
      <use xlink:href="#DejaVuSans-53" x="570.507812"/>
      <use xlink:href="#DejaVuSans-44" x="633.984375"/>
      <use xlink:href="#DejaVuSans-20" x="710.986328"/>
      <use xlink:href="#DejaVuSans-28" x="742.773438"/>
      <use xlink:href="#DejaVuSans-6e" x="781.787109"/>
      <use xlink:href="#DejaVuSans-3d" x="845.166016"/>
      <use xlink:href="#DejaVuSans-36" x="928.955078"/>
      <use xlink:href="#DejaVuSans-29" x="992.578125"/>
     </g>
    </g>
    <g id="LineCollection_8">
     <path d="M 324.689375 164.045312 
L 324.689375 154.045312 
" style="fill: none; stroke: #045a8d"/>
    </g>
    <g id="line2d_38">
     <path d="M 314.689375 159.045312 
L 334.689375 159.045312 
" style="fill: none; stroke-dasharray: 3.7,1.6; stroke-dashoffset: 0; stroke: #045a8d"/>
    </g>
    <g id="line2d_39">
     <g>
      <use xlink:href="#m23c45467dc" x="324.689375" y="159.045312" style="fill: #045a8d; stroke: #000000; stroke-linejoin: miter"/>
     </g>
    </g>
    <g id="text_25">
     <!-- severe±SD (n=7) -->
     <g transform="translate(342.689375 162.545312) scale(0.1 -0.1)">
      <defs>
       <path id="DejaVuSans-37" d="M 525 4666 
L 3525 4666 
L 3525 4397 
L 1831 0 
L 1172 0 
L 2766 4134 
L 525 4134 
L 525 4666 
z
" transform="scale(0.015625)"/>
      </defs>
      <use xlink:href="#DejaVuSans-73"/>
      <use xlink:href="#DejaVuSans-65" x="52.099609"/>
      <use xlink:href="#DejaVuSans-76" x="113.623047"/>
      <use xlink:href="#DejaVuSans-65" x="172.802734"/>
      <use xlink:href="#DejaVuSans-72" x="234.326172"/>
      <use xlink:href="#DejaVuSans-65" x="273.189453"/>
      <use xlink:href="#DejaVuSans-b1" x="334.712891"/>
      <use xlink:href="#DejaVuSans-53" x="418.501953"/>
      <use xlink:href="#DejaVuSans-44" x="481.978516"/>
      <use xlink:href="#DejaVuSans-20" x="558.980469"/>
      <use xlink:href="#DejaVuSans-28" x="590.767578"/>
      <use xlink:href="#DejaVuSans-6e" x="629.78125"/>
      <use xlink:href="#DejaVuSans-3d" x="693.160156"/>
      <use xlink:href="#DejaVuSans-37" x="776.949219"/>
      <use xlink:href="#DejaVuSans-29" x="840.572266"/>
     </g>
    </g>
   </g>
  </g>
  <g id="text_26">
   <!-- Urva2022 (hepatic impairment) -->
   <g transform="translate(31.48625 26.196094) scale(0.25 -0.25)">
    <defs>
     <path id="DejaVuSans-Bold-55" d="M 588 4666 
L 1791 4666 
L 1791 1869 
Q 1791 1291 1980 1042 
Q 2169 794 2597 794 
Q 3028 794 3217 1042 
Q 3406 1291 3406 1869 
L 3406 4666 
L 4609 4666 
L 4609 1869 
Q 4609 878 4112 393 
Q 3616 -91 2597 -91 
Q 1581 -91 1084 393 
Q 588 878 588 1869 
L 588 4666 
z
" transform="scale(0.015625)"/>
     <path id="DejaVuSans-Bold-76" d="M 97 3500 
L 1216 3500 
L 2088 1081 
L 2956 3500 
L 4078 3500 
L 2700 0 
L 1472 0 
L 97 3500 
z
" transform="scale(0.015625)"/>
     <path id="DejaVuSans-Bold-32" d="M 1844 884 
L 3897 884 
L 3897 0 
L 506 0 
L 506 884 
L 2209 2388 
Q 2438 2594 2547 2791 
Q 2656 2988 2656 3200 
Q 2656 3528 2436 3728 
Q 2216 3928 1850 3928 
Q 1569 3928 1234 3808 
Q 900 3688 519 3450 
L 519 4475 
Q 925 4609 1322 4679 
Q 1719 4750 2100 4750 
Q 2938 4750 3402 4381 
Q 3866 4013 3866 3353 
Q 3866 2972 3669 2642 
Q 3472 2313 2841 1759 
L 1844 884 
z
" transform="scale(0.015625)"/>
     <path id="DejaVuSans-Bold-30" d="M 2944 2338 
Q 2944 3213 2780 3570 
Q 2616 3928 2228 3928 
Q 1841 3928 1675 3570 
Q 1509 3213 1509 2338 
Q 1509 1453 1675 1090 
Q 1841 728 2228 728 
Q 2613 728 2778 1090 
Q 2944 1453 2944 2338 
z
M 4147 2328 
Q 4147 1169 3647 539 
Q 3147 -91 2228 -91 
Q 1306 -91 806 539 
Q 306 1169 306 2328 
Q 306 3491 806 4120 
Q 1306 4750 2228 4750 
Q 3147 4750 3647 4120 
Q 4147 3491 4147 2328 
z
" transform="scale(0.015625)"/>
     <path id="DejaVuSans-Bold-28" d="M 2413 -844 
L 1484 -844 
Q 1006 -72 778 623 
Q 550 1319 550 2003 
Q 550 2688 779 3389 
Q 1009 4091 1484 4856 
L 2413 4856 
Q 2013 4116 1813 3408 
Q 1613 2700 1613 2009 
Q 1613 1319 1811 609 
Q 2009 -100 2413 -844 
z
" transform="scale(0.015625)"/>
     <path id="DejaVuSans-Bold-68" d="M 4056 2131 
L 4056 0 
L 2931 0 
L 2931 347 
L 2931 1625 
Q 2931 2084 2911 2256 
Q 2891 2428 2841 2509 
Q 2775 2619 2662 2680 
Q 2550 2741 2406 2741 
Q 2056 2741 1856 2470 
Q 1656 2200 1656 1722 
L 1656 0 
L 538 0 
L 538 4863 
L 1656 4863 
L 1656 2988 
Q 1909 3294 2193 3439 
Q 2478 3584 2822 3584 
Q 3428 3584 3742 3212 
Q 4056 2841 4056 2131 
z
" transform="scale(0.015625)"/>
     <path id="DejaVuSans-Bold-63" d="M 3366 3391 
L 3366 2478 
Q 3138 2634 2908 2709 
Q 2678 2784 2431 2784 
Q 1963 2784 1702 2511 
Q 1441 2238 1441 1747 
Q 1441 1256 1702 982 
Q 1963 709 2431 709 
Q 2694 709 2930 787 
Q 3166 866 3366 1019 
L 3366 103 
Q 3103 6 2833 -42 
Q 2563 -91 2291 -91 
Q 1344 -91 809 395 
Q 275 881 275 1747 
Q 275 2613 809 3098 
Q 1344 3584 2291 3584 
Q 2566 3584 2833 3536 
Q 3100 3488 3366 3391 
z
" transform="scale(0.015625)"/>
     <path id="DejaVuSans-Bold-29" d="M 513 -844 
Q 913 -100 1113 609 
Q 1313 1319 1313 2009 
Q 1313 2700 1113 3408 
Q 913 4116 513 4856 
L 1441 4856 
Q 1916 4091 2145 3389 
Q 2375 2688 2375 2003 
Q 2375 1319 2147 623 
Q 1919 -72 1441 -844 
L 513 -844 
z
" transform="scale(0.015625)"/>
    </defs>
    <use xlink:href="#DejaVuSans-Bold-55"/>
    <use xlink:href="#DejaVuSans-Bold-72" x="81.201172"/>
    <use xlink:href="#DejaVuSans-Bold-76" x="130.517578"/>
    <use xlink:href="#DejaVuSans-Bold-61" x="195.703125"/>
    <use xlink:href="#DejaVuSans-Bold-32" x="263.183594"/>
    <use xlink:href="#DejaVuSans-Bold-30" x="332.763672"/>
    <use xlink:href="#DejaVuSans-Bold-32" x="402.34375"/>
    <use xlink:href="#DejaVuSans-Bold-32" x="471.923828"/>
    <use xlink:href="#DejaVuSans-Bold-20" x="541.503906"/>
    <use xlink:href="#DejaVuSans-Bold-28" x="576.318359"/>
    <use xlink:href="#DejaVuSans-Bold-68" x="622.021484"/>
    <use xlink:href="#DejaVuSans-Bold-65" x="693.212891"/>
    <use xlink:href="#DejaVuSans-Bold-70" x="761.035156"/>
    <use xlink:href="#DejaVuSans-Bold-61" x="832.617188"/>
    <use xlink:href="#DejaVuSans-Bold-74" x="900.097656"/>
    <use xlink:href="#DejaVuSans-Bold-69" x="947.900391"/>
    <use xlink:href="#DejaVuSans-Bold-63" x="982.177734"/>
    <use xlink:href="#DejaVuSans-Bold-20" x="1041.455078"/>
    <use xlink:href="#DejaVuSans-Bold-69" x="1076.269531"/>
    <use xlink:href="#DejaVuSans-Bold-6d" x="1110.546875"/>
    <use xlink:href="#DejaVuSans-Bold-70" x="1214.746094"/>
    <use xlink:href="#DejaVuSans-Bold-61" x="1286.328125"/>
    <use xlink:href="#DejaVuSans-Bold-69" x="1353.808594"/>
    <use xlink:href="#DejaVuSans-Bold-72" x="1388.085938"/>
    <use xlink:href="#DejaVuSans-Bold-6d" x="1437.402344"/>
    <use xlink:href="#DejaVuSans-Bold-65" x="1541.601562"/>
    <use xlink:href="#DejaVuSans-Bold-6e" x="1609.423828"/>
    <use xlink:href="#DejaVuSans-Bold-74" x="1680.615234"/>
    <use xlink:href="#DejaVuSans-Bold-29" x="1728.417969"/>
   </g>
  </g>
 </g>
 <defs>
  <clipPath id="p9cdfc2c2bc">
   <rect x="64.251875" y="43.2" width="390.6" height="277.2"/>
  </clipPath>
 </defs>
</svg>
